<?xml version="1.0" encoding="UTF-8" standalone="no"?>
<svg
   xmlns:dc="http://purl.org/dc/elements/1.1/"
   xmlns:cc="http://creativecommons.org/ns#"
   xmlns:rdf="http://www.w3.org/1999/02/22-rdf-syntax-ns#"
   xmlns:svg="http://www.w3.org/2000/svg"
   xmlns="http://www.w3.org/2000/svg"
   xmlns:sodipodi="http://sodipodi.sourceforge.net/DTD/sodipodi-0.dtd"
   xmlns:inkscape="http://www.inkscape.org/namespaces/inkscape"
   version="1.1"
   id="svg2"
   xml:space="preserve"
   width="1210.4933"
   height="808.85333"
   viewBox="0 0 1210.4933 808.85333"
   sodipodi:docname="Mobile-asistant-service-support.eps"><metadata
     id="metadata8"><rdf:RDF><cc:Work
         rdf:about=""><dc:format>image/svg+xml</dc:format><dc:type
           rdf:resource="http://purl.org/dc/dcmitype/StillImage" /></cc:Work></rdf:RDF></metadata><defs
     id="defs6"><clipPath
       clipPathUnits="userSpaceOnUse"
       id="clipPath122"><path
         d="M 7175.94,2817.24 H 4686.78 v 2455.24 h 2489.16 z"
         id="path120" /></clipPath></defs><sodipodi:namedview
     pagecolor="#ffffff"
     bordercolor="#666666"
     borderopacity="1"
     objecttolerance="10"
     gridtolerance="10"
     guidetolerance="10"
     inkscape:pageopacity="0"
     inkscape:pageshadow="2"
     inkscape:window-width="640"
     inkscape:window-height="480"
     id="namedview4" /><g
     id="g10"
     inkscape:groupmode="layer"
     inkscape:label="ink_ext_XXXXXX"
     transform="matrix(1.3333333,0,0,-1.3333333,0,808.85333)"><g
       id="g12"
       transform="scale(0.1)"><path
         d="M 2393.47,102.801 C 2379.57,73.6914 2367.34,30.6016 2357.2,0.371094 2632.11,0.371094 2931.21,0 3176.98,0 c 281,0.03125 561.99,0.0507813 842.99,0.0820313 561.98,0.0468747 1123.98,0.1093747 1685.96,0.1562497 1122.06,0.101563 2244.12,0.210938 3366.18,0.3125 1.91,0 3.84,0.007813 5.75,0.007813 C 9078.13,1781.71 9078.41,3562.87 9078.67,5344.03 8409.74,5479.74 7716.69,5176.37 7210.16,4759.8 c -231.19,-190.12 -441.07,-407.46 -712.93,-547.15 -271.87,-139.69 -633.47,-185.59 -888.1,-21.61 -259.26,166.96 -329.56,491.33 -555.77,693.61 -227.1,203.07 -568.6,257.98 -873.87,199.52 -308.08,-59.01 -623.59,-295.69 -719.82,-571.94 -23.34,-67 -32.2,-137.79 -29.59,-207.99 9.32,-250.19 157.91,-467.93 300.66,-673.95 108.71,-156.9 332.99,-263.39 367.07,-458.61 20.48,-117.29 -42.17,-236.29 -133.4,-321.94 -91.22,-85.65 -208.6,-144.08 -323.47,-202.21 -330.02,-167 -654.93,-342.23 -974.23,-525.41 -220.34,-126.4 -546.5,-354.14 -424.76,-630.06 74.47,-168.77 292.62,-234.29 445.7,-329.3 82.78,-51.38 158.32,-121.76 179.05,-210.408 23.95,-102.454 -29.32,-205.973 -88.36,-296.141 -119.31,-182.18 -290.62,-356.109 -384.87,-553.41"
         style="fill:#d8c8e8;fill-opacity:1;fill-rule:nonzero;stroke:none"
         id="path14" /><path
         d="m 8511.46,706.18 c 0,-150.629 -858.72,-272.75 -1918.01,-272.75 -1059.3,0 -1918.02,122.121 -1918.02,272.75 0,150.648 858.72,272.761 1918.02,272.761 1059.29,0 1918.01,-122.113 1918.01,-272.761"
         style="fill:#382d88;fill-opacity:1;fill-rule:nonzero;stroke:none"
         id="path16" /><path
         d="m 7267.52,2656.77 c -259.67,0 -470.17,210.51 -470.17,470.18 0,259.66 210.5,470.16 470.17,470.16 259.67,0 470.18,-210.5 470.18,-470.16 0,-259.67 -210.51,-470.18 -470.18,-470.18 z m 869.36,658.9 h -115.74 c -18.76,75.16 -48.43,145.99 -87.3,210.69 l 81.86,81.86 c 27.17,27.17 27.17,71.21 0,98.37 l -168.53,168.53 c -27.16,27.17 -71.2,27.17 -98.36,0 l -81.87,-81.86 c -64.7,38.87 -135.52,68.54 -210.69,87.3 v 115.75 c 0,38.41 -31.14,69.55 -69.55,69.55 h -238.35 c -38.42,0 -69.55,-31.14 -69.55,-69.55 v -115.75 c -75.17,-18.76 -145.99,-48.43 -210.69,-87.3 l -81.87,81.86 c -27.16,27.17 -71.2,27.17 -98.36,0 l -168.54,-168.53 c -27.16,-27.16 -27.16,-71.2 0,-98.37 l 81.86,-81.86 c -38.87,-64.7 -68.53,-135.53 -87.3,-210.69 h -115.74 c -38.41,0 -69.56,-31.14 -69.56,-69.55 v -238.35 c 0,-38.41 31.15,-69.55 69.56,-69.55 h 115.74 c 18.77,-75.17 48.43,-145.99 87.3,-210.7 l -81.86,-81.86 c -27.16,-27.16 -27.16,-71.2 0,-98.36 l 168.54,-168.54 c 27.16,-27.17 71.2,-27.17 98.36,0 l 81.87,81.87 c 64.7,-38.88 135.52,-68.55 210.69,-87.31 v -115.74 c 0,-38.42 31.13,-69.56 69.55,-69.56 h 238.35 c 38.41,0 69.55,31.14 69.55,69.56 v 115.74 c 75.17,18.76 145.99,48.44 210.69,87.31 l 81.87,-81.87 c 27.16,-27.17 71.2,-27.17 98.36,0 l 168.53,168.54 c 27.17,27.16 27.17,71.2 0,98.36 l -81.86,81.86 c 38.87,64.71 68.54,135.53 87.3,210.7 h 115.74 c 38.42,0 69.57,31.14 69.57,69.55 v 238.35 c 0,38.41 -31.15,69.55 -69.57,69.55"
         style="fill:#382d88;fill-opacity:1;fill-rule:nonzero;stroke:none"
         id="path18" /><path
         d="m 5012.95,2516.78 c -8.92,26.64 -18.33,52.7 -28.19,78.1 l 28.19,-78.1"
         style="fill:#f2d264;fill-opacity:1;fill-rule:nonzero;stroke:none"
         id="path20" /><path
         d="m 4983.75,2366.29 0.61,229.6 c -49.11,126.17 -108.25,235.81 -161.12,317.73 -59.27,-62.8 -78.47,-257.83 -78.47,-257.83 5.56,201.45 27.12,261.65 29.19,327.61 -87.13,113.58 -220.05,175.14 -325.15,242.76 42.09,-239.43 38.9,-299.78 38.9,-299.78 -13.86,143.41 -60.81,242.59 -84.48,327.76 -267.74,157.66 -406.32,116.38 -406.32,116.38 2.62,-101.16 35.59,-325.48 45.58,-412 113.01,-96.24 269.69,-191.34 269.69,-191.34 -81.18,26.01 -187.45,88.96 -262.88,137.6 17.16,-125.21 15.63,-104.65 47.77,-203.67 112.63,-102.9 341.25,-220.68 341.25,-220.68 -99.22,24.06 -237.79,98.76 -313.44,142.3 65.13,-168.64 152.9,-302.9 258.77,-422.79 117.09,-51.86 241.83,-90.55 241.83,-90.55 -57.12,3.36 -128.91,20.35 -195.2,39.8 125.06,-130.94 272.25,-247.34 435.07,-377.95 l 164.7,-66.86 51.73,246.01 c 23.85,196 -10.78,392.01 -68.06,564.07 l -29.97,-148.17"
         style="fill:#f2d264;fill-opacity:1;fill-rule:nonzero;stroke:none"
         id="path22" /><path
         d="m 4853.37,2128.12 c 31.11,-58.53 60.9,-118 87.59,-179.24 26.74,-61.12 50.05,-124.5 65.08,-190.51 l -2.86,-0.82 c -16.85,65.07 -41.79,127.1 -70.13,186.91 -28.29,59.89 -59.61,117.95 -92.26,175.07 -65.05,114.45 -135.2,225.31 -205.69,335.94 -70.4,110.7 -143.69,219.4 -209.85,333.75 -33.1,57.13 -65.53,114.81 -96.04,173.79 -30.69,58.83 -59.43,119.02 -85.15,180.75 l 2.59,1.57 c 65.62,-114.57 133.9,-226.41 203.15,-337.86 69.47,-111.21 136.35,-224.61 204.73,-337.06 68.13,-112.61 136.03,-225.6 198.84,-342.29"
         style="fill:#fef3fa;fill-opacity:1;fill-rule:nonzero;stroke:none"
         id="path24" /><path
         d="m 4638.79,1755.28 c 1.97,242.74 17.66,344.99 -0.04,425.1 -139.62,103.71 -291.37,170.24 -438.52,211.87 123.95,-272.11 93.31,-464.43 93.31,-464.43 -6.63,196.92 -102.16,387.36 -156.72,480.87 -370.39,88.49 -694.81,28.61 -694.81,28.61 34.13,-120.72 70.43,-230.53 108.93,-330.84 165.44,-73.08 383.06,-128.26 383.06,-128.26 -105.63,0.59 -252.76,36.18 -358.41,66.19 58.98,-144.14 122.91,-267.56 191.9,-374.54 167.02,-81.23 478.14,-136.51 478.14,-136.51 -126.73,-8.55 -316.33,28.94 -420.68,52.73 130,-178.25 276.71,-306.6 440.8,-410.81 156.76,-18.15 318.68,-17.56 318.68,-17.56 -69.75,-17.55 -161.32,-24.22 -247.05,-25.87 190.57,-110.27 403.3,-194.678 639.18,-290.26 l 218.64,-18.211 -13.1,315.491 c -60.54,473.1 -240.35,779.28 -462.71,976.21 -52.08,-97.93 -80.6,-359.78 -80.6,-359.78"
         style="fill:#9d8acd;fill-opacity:1;fill-rule:nonzero;stroke:none"
         id="path26" /><path
         d="m 5146.58,877.18 c -40.19,71.898 -89.2,137.1 -141.6,198.34 -52.37,61.35 -107.84,119.36 -164.61,175.74 -113.3,113.1 -231.65,219.95 -350.34,326.41 -118.6,106.56 -240.06,209.63 -354.66,322.2 -57.33,56.21 -114,113.34 -168.78,172.76 -54.94,59.18 -107.95,120.73 -157.79,185.26 l 2.64,2.87 c 114.02,-113.02 230.43,-221.77 347.87,-329.66 117.62,-107.53 232.82,-218.69 349.52,-328.11 116.44,-109.73 232.74,-220.01 344.05,-336.64 55.34,-58.64 109.4,-118.95 160.26,-182.52 50.88,-63.43 98.34,-130.861 136.63,-204.58 l -3.19,-2.07"
         style="fill:#6758b1;fill-opacity:1;fill-rule:nonzero;stroke:none"
         id="path28" /><path
         d="m 7800.84,1509.71 c 19.19,16.81 37.7,33.92 55.49,51.23 l -55.49,-51.23"
         style="fill:#9d8acd;fill-opacity:1;fill-rule:nonzero;stroke:none"
         id="path30" /><path
         d="m 7662.61,1489.76 194.43,71.87 c 88.33,86.11 158.9,176.46 208.38,252.16 -75.32,36.07 -247.49,-7.37 -247.49,-7.37 172.48,58.32 231.48,56.99 288.06,75.85 63.41,118 65.68,262.73 83.5,383.16 -186.75,-115.23 -238.99,-131.29 -238.99,-131.29 116.1,58.33 182.41,133.9 245.58,183.09 33.04,302.18 -53.79,419.8 -53.79,419.8 -84.59,-34.38 -261.98,-136.26 -331.43,-172.97 -39.06,-136.92 -60.79,-314.64 -60.79,-314.64 -8.43,84.73 5.01,204.8 17.89,291.27 -99.47,-55.7 -82.66,-47.77 -154.38,-109.32 -44.84,-138.65 -58.79,-391.36 -58.79,-391.36 -16.83,101.12 -5.57,255.35 2.92,340.41 -118.24,-114.63 -198.92,-239.73 -260.66,-377.38 0,-126.77 14,-256.57 14,-256.57 -18.55,54.91 -31.07,127.96 -39.46,196.6 -63.89,-159.23 -107.21,-334.74 -156.67,-529.45 l 5.15,-176.38 227.47,28.87 c 174.72,39.35 327.55,133.85 451.62,242.13 l -136.55,-18.48"
         style="fill:#9d8acd;fill-opacity:1;fill-rule:nonzero;stroke:none"
         id="path32" /><path
         d="m 7412.29,1537.52 c -37.84,-47.79 -76.99,-94.65 -118.78,-139.13 -41.69,-44.5 -86.57,-86.47 -136.76,-121.47 l -1.77,2.44 c 48.73,36.41 91.85,79.5 131.82,125.1 40.06,45.56 77.44,93.41 113.51,142.22 72.43,97.43 139.92,198.56 207.09,299.92 67.26,101.31 131.74,204.71 203.68,303.16 35.91,49.24 72.55,98.02 111.01,145.4 38.26,47.5 78.41,93.58 120.99,137.31 l 2.3,-1.95 c -72.33,-98.02 -141.35,-197.69 -209.66,-298.14 -68.04,-100.58 -138.9,-199.43 -208.4,-299.38 -69.72,-99.76 -139.87,-199.43 -215.03,-295.48"
         style="fill:#6758b1;fill-opacity:1;fill-rule:nonzero;stroke:none"
         id="path34" /><path
         d="m 7266.27,2057.05 c 27.3,85.87 55.82,171.26 81.96,257.26 26.36,85.98 53.39,171.54 83.12,256.67 l -2.05,0.88 c -20.55,-40.24 -38.88,-81.6 -55.56,-123.56 -16.84,-41.91 -32.1,-84.4 -46.73,-127.08 -29.37,-85.34 -52.37,-172.56 -77.8,-258.9 -25.35,-86.37 -50.99,-172.63 -80.92,-257.37 -14.85,-42.4 -30.83,-84.41 -49.2,-125.39 -18.31,-40.97 -39.38,-80.87 -65.89,-117.27 l 1.79,-1.34 c 27.85,35.72 50.41,75.21 70.17,115.79 19.84,40.6 37.28,82.29 53.6,124.36 32.18,84.34 60,170.16 87.51,255.95 z m 192.49,-192.12 c -64.08,-103.69 -151.51,-203.91 -266.48,-269.94 l -154.57,-70.11 -42.17,123.61 c -7.57,148.51 -15.3,282.1 -4.9,408.67 20.93,-46.72 45.75,-95.63 70.87,-130.42 0,0 -38.27,88.74 -65.97,178.4 13.58,110.83 43.31,216.94 101.87,323.85 12.59,-62.02 38.32,-173.55 72.33,-241.39 0,0 -45.36,181.77 -43.95,289.62 37.28,59.21 27.11,49.92 85.29,111.04 9.8,-63.96 26.53,-151.8 51,-209.89 0,0 -23.47,130.43 -25.76,235.8 41.09,41.13 144.28,151.95 196.59,194.76 0,0 87.12,-64.22 129.79,-285.14 -33.94,-48.59 -64.32,-116.52 -133.69,-183.14 0,0 33.45,22.76 140.34,145.07 13.71,-89.07 43.74,-191.93 24.66,-289.23 -35.88,-25.7 -77.9,-37.65 -187.13,-116.59 0,0 112.27,68.34 173.41,59.3 -18.44,-64.35 -48.61,-143.67 -92.26,-223.87 l -121.8,-93.32 z m 28.92,49.76 c -8.79,-16.13 -18.16,-32.28 -28.06,-48.36 l 28.06,48.36"
         style="fill:#f57b43;fill-opacity:1;fill-rule:nonzero;stroke:none"
         id="path36" /><path
         d="m 7609.02,1005.68 c 165.39,-53.68 231.51,-87.578 290.49,-91.36 104.24,83.782 185.96,184.76 249.58,287.62 -215.56,-35.68 -339.65,28.94 -339.65,28.94 136.14,-37.29 289.1,-5.65 366.04,15.69 149,262.39 185.61,521.72 185.61,521.72 -90.63,0.03 -174.34,-3.94 -252.09,-11.63 -89.47,-109.99 -179.2,-263.45 -179.2,-263.45 25.66,80.12 85.14,184.25 130.89,258.07 -112.57,-13.83 -212.19,-35.87 -301.77,-65.28 -95.43,-109.44 -207.57,-333.92 -207.57,-333.92 24.45,98.13 95.39,234.11 136.59,308.27 -152.87,-60.45 -275.65,-144.31 -386.07,-246.58 -49.87,-115.19 -88.17,-238.34 -88.17,-238.34 4.68,56.78 22,127.79 41.37,193.26 -120.89,-121.07 -229.42,-264.55 -351.11,-423.21 l -64.7,-162.191 218.71,-57.867 c 337.72,-55.711 589.92,15.09 777.63,141.668 -54.47,60.629 -226.58,138.59 -226.58,138.59"
         style="fill:#f2d264;fill-opacity:1;fill-rule:nonzero;stroke:none"
         id="path38" /><path
         d="m 6887.66,808.648 c 58.74,15.082 115,38.313 169.36,64.961 54.44,26.59 107.35,56.262 159.44,87.27 104.35,61.761 205.65,128.711 306.76,195.991 101.16,67.2 200.62,137.33 304.92,200.19 52.11,31.47 104.7,62.25 158.39,91.09 53.58,29.02 108.3,56.05 164.32,80.06 l 1.33,-2.63 c -104.49,-62.33 -206.62,-127.39 -308.41,-193.42 -101.59,-66.25 -205.08,-129.87 -307.74,-195.01 -102.81,-64.88 -205.96,-129.53 -312.26,-189.009 -53.3,-29.45 -107.41,-57.551 -163.02,-82.532 -55.51,-25.019 -112.92,-46.57 -172.44,-59.828 l -0.65,2.867"
         style="fill:#faeba0;fill-opacity:1;fill-rule:nonzero;stroke:none"
         id="path40" /><path
         d="m 2584.7,3374.32 487.59,-247.08 -96.56,-174.78 z"
         style="fill:#71208c;fill-opacity:1;fill-rule:nonzero;stroke:none"
         id="path42" /><path
         d="m 2584.7,3374.32 389.98,-269.61 1.05,-152.25 z"
         style="fill:#a94cac;fill-opacity:1;fill-rule:nonzero;stroke:none"
         id="path44" /><path
         d="m 2584.7,3374.32 645.27,-178.81 -157.68,-68.27 z"
         style="fill:#bd8ccc;fill-opacity:1;fill-rule:nonzero;stroke:none"
         id="path46" /><path
         d="m 2584.7,3374.32 389.98,-269.61 -194.51,-67.87 z"
         style="fill:#bd8ccc;fill-opacity:1;fill-rule:nonzero;stroke:none"
         id="path48" /><path
         d="m 4572.39,3539.94 c -0.96,0.03 -1.93,0.22 -2.88,0.59 -17.97,7.06 -38.32,10.33 -59.29,9.64 -4.64,-0.09 -8.64,3.54 -8.79,8.24 -0.15,4.71 3.53,8.65 8.24,8.8 23.22,0.78 45.94,-2.9 66.08,-10.81 4.39,-1.72 6.54,-6.67 4.82,-11.05 -1.36,-3.43 -4.7,-5.5 -8.18,-5.41 z m -183.06,-28.67 c -2.8,0.08 -5.49,1.53 -7.05,4.09 -2.46,4.03 -1.18,9.27 2.86,11.72 19.07,11.61 39.12,20.93 59.58,27.67 4.45,1.45 9.29,-0.95 10.76,-5.42 1.47,-4.47 -0.95,-9.29 -5.42,-10.77 -19.23,-6.35 -38.09,-15.11 -56.08,-26.05 -1.44,-0.88 -3.07,-1.28 -4.65,-1.24 z m 262.41,-65.25 c -3.69,0.11 -7.01,2.61 -8,6.36 -5.48,20.85 -14.38,38.89 -26.47,53.63 -2.98,3.64 -2.46,9.01 1.2,12 3.63,2.96 9.01,2.46 12,-1.19 13.64,-16.65 23.66,-36.87 29.75,-60.11 1.21,-4.55 -1.51,-9.22 -6.08,-10.41 -0.79,-0.21 -1.61,-0.3 -2.4,-0.28 z m -356.37,-20.43 c -1.74,0.05 -3.48,0.64 -4.96,1.79 -3.72,2.88 -4.4,8.23 -1.53,11.96 13.65,17.63 28.46,33.85 44.03,48.2 3.46,3.19 8.87,2.97 12.05,-0.5 3.18,-3.46 2.97,-8.85 -0.49,-12.04 -14.87,-13.71 -29.03,-29.22 -42.1,-46.1 -1.74,-2.24 -4.36,-3.38 -7,-3.31 z m 351.73,-105.82 c -0.68,0.02 -1.38,0.12 -2.06,0.32 -4.53,1.25 -7.19,5.95 -5.93,10.49 l 2.79,10.21 c 4.43,16.61 7.06,33.68 7.83,50.75 0.2,4.65 4.12,8.26 8.76,8.13 0.04,0 0.09,0 0.14,0 4.7,-0.21 8.35,-4.2 8.14,-8.91 -0.83,-18.27 -3.65,-36.56 -8.4,-54.37 l -2.83,-10.37 c -1.07,-3.85 -4.62,-6.35 -8.44,-6.25 z m -414.54,-5.17 c -0.97,0.03 -1.96,0.22 -2.92,0.6 -4.36,1.75 -6.5,6.71 -4.75,11.08 8.07,20.25 17.5,40 28.04,58.72 2.31,4.08 7.5,5.54 11.62,3.24 4.1,-2.32 5.56,-7.52 3.24,-11.62 -10.17,-18.05 -19.28,-37.11 -27.07,-56.65 -1.35,-3.42 -4.68,-5.47 -8.16,-5.37 z m 371.45,-115.09 c -1.08,0.03 -2.16,0.27 -3.22,0.73 -4.3,1.91 -6.24,6.94 -4.33,11.26 8.48,19.13 16.39,38.9 23.49,58.76 1.59,4.42 6.47,6.75 10.91,5.15 4.43,-1.58 6.74,-6.47 5.16,-10.9 -7.25,-20.25 -15.32,-40.42 -23.97,-59.93 -1.44,-3.26 -4.69,-5.16 -8.04,-5.07 z m -402.32,-8.63 c -0.21,0.01 -0.42,0.02 -0.64,0.04 -4.68,0.47 -8.09,4.66 -7.61,9.35 l 0.28,2.65 c 2.17,20.14 5.91,40.85 11.11,61.49 1.16,4.57 5.83,7.33 10.36,6.18 4.56,-1.15 7.33,-5.78 6.18,-10.35 -5.01,-19.88 -8.61,-39.8 -10.7,-59.2 l -0.27,-2.51 c -0.46,-4.47 -4.29,-7.78 -8.71,-7.65 z m 341.76,-103.85 c -1.5,0.04 -3.01,0.48 -4.36,1.36 -3.96,2.55 -5.11,7.82 -2.56,11.78 11.3,17.59 22.09,35.93 32.09,54.5 2.24,4.15 7.4,5.72 11.56,3.47 4.14,-2.23 5.69,-7.4 3.45,-11.55 -10.19,-18.96 -21.22,-37.68 -32.76,-55.64 -1.67,-2.61 -4.53,-3.99 -7.42,-3.92 z m -340.11,-23.75 c -4.14,0.12 -7.68,3.26 -8.21,7.49 -2.66,21.75 -4.18,43.51 -4.5,64.66 -0.07,4.71 3.68,8.59 8.39,8.65 5.16,0.09 8.59,-3.69 8.66,-8.39 0.31,-20.55 1.78,-41.69 4.38,-62.84 0.58,-4.67 -2.75,-8.92 -7.42,-9.5 -0.44,-0.05 -0.87,-0.08 -1.3,-0.07 z m 262.72,-77.82 c -1.95,0.06 -3.88,0.77 -5.45,2.18 -3.5,3.14 -3.78,8.53 -0.65,12.04 13.97,15.56 27.53,31.94 40.3,48.71 2.86,3.74 8.18,4.47 11.95,1.61 3.74,-2.86 4.46,-8.21 1.61,-11.95 -13.05,-17.12 -26.9,-33.87 -41.16,-49.76 -1.74,-1.94 -4.18,-2.9 -6.6,-2.83 z m -235.51,-46.96 c -3.55,0.1 -6.8,2.42 -7.9,6 -6.48,20.93 -12.05,41.96 -16.57,62.48 -1,4.6 1.91,9.15 6.49,10.16 4.59,1.02 9.15,-1.89 10.17,-6.49 4.41,-20.07 9.87,-40.64 16.19,-61.12 1.39,-4.49 -1.13,-9.26 -5.62,-10.65 -0.92,-0.29 -1.86,-0.41 -2.76,-0.38 z m 142.78,-40.82 c -2.41,0.08 -4.78,1.16 -6.41,3.19 -2.94,3.66 -2.35,9.03 1.31,11.98 16.37,13.14 32.4,27.11 47.65,41.55 3.41,3.23 8.81,3.09 12.06,-0.35 3.23,-3.41 3.08,-8.8 -0.33,-12.05 -15.59,-14.74 -31.98,-29.02 -48.69,-42.45 -1.64,-1.32 -3.63,-1.92 -5.59,-1.87 z m -1250.36,33.78 c -2.1,0.06 -4.18,0.89 -5.78,2.48 -15.35,15.3 -29.89,31.6 -43.2,48.45 -2.92,3.71 -2.3,9.06 1.4,11.98 3.69,2.93 9.05,2.29 11.97,-1.4 12.9,-16.33 26.99,-32.12 41.87,-46.95 3.33,-3.32 3.34,-8.72 0.02,-12.05 -1.73,-1.74 -4.01,-2.57 -6.28,-2.51 z m 99.74,-79.53 c -1.48,0.04 -2.98,0.47 -4.33,1.33 -18.43,11.77 -36.18,24.41 -52.75,37.58 -3.69,2.93 -4.3,8.29 -1.37,11.98 2.94,3.68 8.3,4.29 11.99,1.37 16.1,-12.8 33.36,-25.1 51.3,-36.54 3.97,-2.54 5.14,-7.81 2.61,-11.78 -1.67,-2.62 -4.54,-4.02 -7.45,-3.94 z m 1054.08,-32.57 c -3.14,0.09 -6.1,1.9 -7.51,4.94 -0.28,0.6 -0.56,1.21 -0.84,1.82 -3.32,-0.25 -6.41,1.33 -8.08,4.31 -1.95,3.44 -1.23,7.66 1.47,10.29 -6.4,14.42 -12.39,28.77 -17.88,42.87 -1.71,4.38 0.45,9.32 4.84,11.03 4.37,1.69 9.33,-0.46 11.05,-4.84 5.16,-13.23 10.76,-26.7 16.73,-40.24 13.85,8.17 27.51,16.81 40.79,25.78 3.92,2.65 9.2,1.61 11.84,-2.28 2.64,-3.91 1.61,-9.2 -2.29,-11.85 -14.08,-9.51 -28.59,-18.67 -43.29,-27.28 0.37,-0.82 0.76,-1.63 1.13,-2.44 1.98,-4.27 0.12,-9.34 -4.14,-11.32 -1.24,-0.58 -2.55,-0.83 -3.82,-0.79 z m -125.15,-46.99 c -3.37,0.09 -6.51,2.2 -7.75,5.56 -1.64,4.42 0.61,9.32 5.03,10.96 19.78,7.33 39.42,15.52 58.38,24.31 4.31,1.99 9.36,0.11 11.33,-4.15 1.98,-4.27 0.12,-9.34 -4.15,-11.32 -19.37,-8.99 -39.44,-17.34 -59.64,-24.83 -1.05,-0.39 -2.14,-0.56 -3.2,-0.53 z m -815.43,21.11 c -1,0.03 -2.02,0.23 -3,0.64 -20.2,8.3 -39.94,17.39 -58.69,27.01 -4.2,2.14 -5.85,7.28 -3.7,11.47 2.15,4.2 7.29,5.84 11.47,3.69 18.34,-9.39 37.65,-18.28 57.4,-26.4 4.36,-1.79 6.43,-6.76 4.65,-11.13 -1.39,-3.37 -4.69,-5.38 -8.13,-5.28 z m 121.34,-39.87 c -0.62,0.02 -1.24,0.1 -1.87,0.27 -21.15,5.4 -41.98,11.44 -61.93,17.96 -4.47,1.46 -6.91,6.28 -5.45,10.76 1.46,4.46 6.3,6.9 10.75,5.45 19.59,-6.41 40.07,-12.34 60.84,-17.66 4.57,-1.16 7.32,-5.8 6.15,-10.36 -1.01,-3.94 -4.59,-6.53 -8.49,-6.42 z m 571.27,-16.36 c -3.86,0.11 -7.28,2.85 -8.1,6.8 -0.95,4.61 2.02,9.13 6.63,10.07 20.65,4.26 41.33,9.33 61.46,15.08 4.5,1.3 9.25,-1.33 10.54,-5.86 1.29,-4.53 -1.34,-9.25 -5.86,-10.54 -20.53,-5.86 -41.63,-11.04 -62.7,-15.38 -0.66,-0.13 -1.32,-0.19 -1.97,-0.17 z m -126.66,-16.81 c -4.32,0.13 -7.94,3.51 -8.25,7.92 -0.34,4.69 3.2,8.77 7.89,9.11 8.35,0.61 16.62,1.26 24.83,1.99 12.8,1.11 25.69,2.51 38.28,4.17 4.67,0.63 8.95,-2.67 9.56,-7.35 0.61,-4.66 -2.68,-8.94 -7.34,-9.56 -12.84,-1.68 -25.97,-3.11 -39.02,-4.26 -8.29,-0.71 -16.65,-1.38 -25.08,-1.99 -0.3,-0.03 -0.58,-0.03 -0.87,-0.03 z m -319.13,8.77 c -0.31,0.01 -0.62,0.04 -0.95,0.08 -21.5,3 -42.88,6.54 -63.53,10.53 -4.62,0.9 -7.65,5.37 -6.74,9.99 0.89,4.63 5.32,7.7 9.98,6.75 20.35,-3.94 41.43,-7.43 62.65,-10.38 4.66,-0.65 7.92,-4.95 7.26,-9.62 -0.6,-4.34 -4.38,-7.47 -8.67,-7.35 z m 754,-22.57 c -2.78,0.08 -5.48,1.53 -7.04,4.08 -11.03,18.07 -21.79,36.89 -31.95,55.94 -2.23,4.15 -0.66,9.32 3.49,11.54 4.18,2.22 9.33,0.64 11.54,-3.5 10.03,-18.77 20.61,-37.3 31.47,-55.09 2.45,-4.02 1.19,-9.27 -2.84,-11.73 -1.45,-0.89 -3.08,-1.29 -4.67,-1.24 z m -562.67,9.43 c -4.62,0.12 -8.3,3.91 -8.29,8.55 0.02,4.71 3.86,8.51 8.57,8.49 20.93,-0.1 42.33,0.22 63.62,0.95 4.56,0.21 8.64,-3.51 8.81,-8.22 0.16,-4.71 -3.53,-8.65 -8.23,-8.82 -21.51,-0.73 -43.13,-1.06 -64.28,-0.96 -0.06,0 -0.14,0 -0.2,0.01 z m -63.93,1.59 c -0.04,0 -0.09,0 -0.14,0 -21.59,0.98 -43.19,2.44 -64.22,4.34 -4.7,0.42 -8.15,4.56 -7.74,9.25 0.43,4.7 4.59,8.1 9.26,7.73 20.79,-1.87 42.15,-3.31 63.47,-4.29 4.71,-0.22 8.35,-4.2 8.13,-8.91 -0.21,-4.65 -4.12,-8.26 -8.76,-8.12 z m 700,-115.66 c -2.4,0.07 -4.76,1.15 -6.39,3.17 -13.2,16.35 -26.25,33.7 -38.78,51.59 -2.69,3.85 -1.75,9.17 2.1,11.87 3.88,2.71 9.18,1.74 11.88,-2.09 12.29,-17.57 25.11,-34.62 38.06,-50.66 2.96,-3.66 2.39,-9.03 -1.26,-11.99 -1.66,-1.33 -3.65,-1.94 -5.61,-1.89 z m 87.65,-92.96 c -1.96,0.04 -3.89,0.77 -5.45,2.17 -15.69,14.09 -31.22,29.31 -46.2,45.24 -3.23,3.43 -3.06,8.83 0.37,12.06 3.42,3.22 8.82,3.04 12.06,-0.38 14.64,-15.59 29.84,-30.46 45.15,-44.23 3.51,-3.16 3.79,-8.55 0.66,-12.04 -1.75,-1.95 -4.18,-2.89 -6.59,-2.82 z m 102.61,-75.98 c -1.39,0.04 -2.81,0.43 -4.1,1.19 -18.19,10.8 -36.34,22.9 -53.9,35.96 -3.77,2.8 -4.57,8.14 -1.76,11.92 2.8,3.78 8.14,4.57 11.93,1.76 17.1,-12.71 34.74,-24.47 52.43,-34.97 4.05,-2.41 5.39,-7.64 2.98,-11.69 -1.64,-2.76 -4.58,-4.26 -7.58,-4.17 z m 99.57,-46.77 c -0.86,0.03 -1.72,0.18 -2.58,0.49 -14.62,5.15 -29.29,11.02 -43.61,17.49 -4.28,1.93 -6.2,6.99 -4.27,11.28 1.95,4.3 7.04,6.18 11.28,4.27 13.88,-6.27 28.09,-11.98 42.26,-16.97 4.44,-1.56 6.77,-6.42 5.2,-10.87 -1.25,-3.58 -4.66,-5.79 -8.28,-5.69"
         style="fill:#6b50ad;fill-opacity:1;fill-rule:nonzero;stroke:none"
         id="path50" /><path
         d="m 7554.6,4352.68 c -52.09,0 -72.68,-21.52 -72.68,-67.81 0,-4.26 -8.09,-4.26 -8.09,0 0,46.29 -16.48,67.81 -72.68,67.81 -4.2,0 -4.2,8.12 0.01,8.12 57.93,0 72.67,26.82 72.67,67.73 0,4.26 8.09,4.26 8.09,0 0,-48.73 19.73,-67.73 72.68,-67.73 4.2,0 4.2,-8.12 0,-8.12"
         style="fill:#fcf4fa;fill-opacity:1;fill-rule:nonzero;stroke:none"
         id="path52" /><path
         d="m 8252.5,4524 c -110.17,0 -153.72,-45.51 -153.72,-143.44 0,-9.01 -17.12,-9.01 -17.12,0 0,97.93 -34.85,143.44 -153.72,143.44 -8.89,0 -8.88,17.16 0.01,17.16 122.54,0 153.71,56.73 153.71,143.28 0,9 17.12,9 17.12,0 0,-103.08 41.72,-143.28 153.71,-143.28 8.89,0 8.9,-17.16 0.01,-17.16"
         style="fill:#fcf4fa;fill-opacity:1;fill-rule:nonzero;stroke:none"
         id="path54" /><path
         d="m 8165,3675.12 c -84.3,0 -117.62,-34.82 -117.62,-109.76 0,-6.89 -13.1,-6.89 -13.1,0 0,74.94 -26.67,109.76 -117.62,109.76 -6.8,0 -6.8,13.13 0,13.13 93.76,0 117.62,43.41 117.62,109.63 0,6.89 13.1,6.89 13.1,0 0,-78.87 31.92,-109.63 117.61,-109.63 6.81,0 6.81,-13.13 0.01,-13.13"
         style="fill:#fcf4fa;fill-opacity:1;fill-rule:nonzero;stroke:none"
         id="path56" /><path
         d="m 6632.85,6052.68 h -54.24 c -3.79,0 -6.84,3.07 -6.84,6.85 0,3.78 3.05,6.85 6.84,6.85 h 54.24 c 3.78,0 6.85,-3.07 6.85,-6.85 0,-3.78 -3.07,-6.85 -6.85,-6.85 z m 108.47,0 h -54.24 c -3.78,0 -6.85,3.07 -6.85,6.85 0,3.78 3.07,6.85 6.85,6.85 h 54.24 c 3.79,0 6.84,-3.07 6.84,-6.85 0,-3.78 -3.05,-6.85 -6.84,-6.85 z m 108.47,0 h -54.24 c -3.78,0 -6.85,3.07 -6.85,6.85 0,3.78 3.07,6.85 6.85,6.85 h 54.24 c 3.78,0 6.85,-3.07 6.85,-6.85 0,-3.78 -3.07,-6.85 -6.85,-6.85 z m 108.45,0 h -54.22 c -3.79,0 -6.85,3.07 -6.85,6.85 0,3.78 3.06,6.85 6.85,6.85 h 54.22 c 3.79,0 6.86,-3.07 6.86,-6.85 0,-3.78 -3.07,-6.85 -6.86,-6.85 z m 108.48,0 h -54.24 c -3.79,0 -6.85,3.07 -6.85,6.85 0,3.78 3.06,6.85 6.85,6.85 h 54.24 c 3.78,0 6.84,-3.07 6.84,-6.85 0,-3.78 -3.06,-6.85 -6.84,-6.85 z m 108.47,0 h -54.24 c -3.79,0 -6.85,3.07 -6.85,6.85 0,3.78 3.06,6.85 6.85,6.85 h 54.24 c 3.77,0 6.84,-3.07 6.84,-6.85 0,-3.78 -3.07,-6.85 -6.84,-6.85 z m 108.46,0 h -54.24 c -3.78,0 -6.84,3.07 -6.84,6.85 0,3.78 3.06,6.85 6.84,6.85 h 54.24 c 3.79,0 6.85,-3.07 6.85,-6.85 0,-3.78 -3.06,-6.85 -6.85,-6.85 z m 108.46,0 h -54.23 c -3.78,0 -6.84,3.07 -6.84,6.85 0,3.78 3.06,6.85 6.84,6.85 h 54.23 c 3.79,0 6.85,-3.07 6.85,-6.85 0,-3.78 -3.06,-6.85 -6.85,-6.85 z m -921.38,-6.84 c -3.03,0 -5.82,2.05 -6.62,5.14 -0.95,3.66 1.25,7.4 4.92,8.35 17.97,4.64 36.6,7.01 55.34,7.05 0.01,0 0.01,0 0.01,0 3.78,0 6.84,-3.06 6.85,-6.84 0.01,-3.78 -3.05,-6.85 -6.84,-6.86 -17.59,-0.03 -35.06,-2.26 -51.94,-6.62 -0.57,-0.15 -1.14,-0.22 -1.72,-0.22 z m 1028.17,-7.09 c -0.81,0 -1.63,0.14 -2.44,0.45 -16.34,6.19 -33.48,10.3 -50.91,12.22 -3.76,0.42 -6.48,3.8 -6.07,7.56 0.41,3.76 3.75,6.47 7.56,6.06 18.59,-2.04 36.86,-6.42 54.28,-13.03 3.54,-1.34 5.32,-5.3 3.98,-8.83 -1.04,-2.74 -3.64,-4.43 -6.4,-4.43 z m -1122.04,-44.83 c -1.82,0 -3.64,0.72 -4.98,2.15 -2.6,2.75 -2.48,7.09 0.28,9.68 13.58,12.82 28.74,23.89 45.04,32.93 3.3,1.82 7.48,0.63 9.31,-2.69 1.83,-3.3 0.64,-7.47 -2.67,-9.31 -15.3,-8.47 -29.52,-18.86 -42.28,-30.89 -1.33,-1.25 -3.02,-1.87 -4.7,-1.87 z m 1209.75,-17 c -1.93,0 -3.86,0.82 -5.21,2.41 -11.37,13.32 -24.4,25.2 -38.69,35.29 -3.09,2.18 -3.83,6.45 -1.66,9.55 2.18,3.08 6.46,3.83 9.55,1.64 15.24,-10.74 29.11,-23.39 41.23,-37.6 2.45,-2.87 2.11,-7.19 -0.78,-9.65 -1.28,-1.1 -2.86,-1.64 -4.44,-1.64 z m -1267.1,-73.71 c -0.7,0 -1.4,0.11 -2.11,0.34 -3.59,1.15 -5.57,5.02 -4.41,8.61 5.71,17.74 13.68,34.75 23.68,50.55 2.02,3.19 6.26,4.15 9.44,2.12 3.2,-2.02 4.15,-6.26 2.13,-9.45 -9.38,-14.83 -16.85,-30.78 -22.21,-47.42 -0.94,-2.9 -3.63,-4.75 -6.52,-4.75 z m 1314.23,-22.65 c -3.18,0 -6.04,2.23 -6.7,5.47 -3.52,17.15 -9.21,33.82 -16.9,49.54 -1.66,3.4 -0.27,7.5 3.14,9.16 3.4,1.68 7.49,0.26 9.16,-3.14 8.2,-16.76 14.27,-34.53 18.02,-52.81 0.76,-3.71 -1.63,-7.32 -5.33,-8.08 -0.47,-0.1 -0.93,-0.14 -1.39,-0.14 z m -1324.58,-84.71 c -3.79,0 -6.86,3.06 -6.86,6.85 v 41.17 c 0,4.52 0.15,9.01 0.41,13.45 0.22,3.78 3.48,6.72 7.24,6.44 3.78,-0.22 6.65,-3.46 6.44,-7.24 -0.26,-4.19 -0.38,-8.4 -0.38,-12.65 v -41.17 c 0,-3.79 -3.06,-6.85 -6.85,-6.85 z m 1328.98,-23.45 c -3.78,0 -6.85,3.07 -6.85,6.85 v 54.23 c 0,3.78 3.07,6.86 6.85,6.86 3.78,0 6.85,-3.08 6.85,-6.86 v -54.23 c 0,-3.78 -3.07,-6.85 -6.85,-6.85 z m 0,-108.47 c -3.78,0 -6.85,3.07 -6.85,6.85 v 54.24 c 0,3.78 3.07,6.85 6.85,6.85 3.78,0 6.85,-3.07 6.85,-6.85 v -54.24 c 0,-3.78 -3.07,-6.85 -6.85,-6.85 z m 0,-108.47 c -3.78,0 -6.85,3.08 -6.85,6.86 v 54.23 c 0,3.79 3.07,6.85 6.85,6.85 3.78,0 6.85,-3.06 6.85,-6.85 v -54.23 c 0,-3.78 -3.07,-6.86 -6.85,-6.86 z m -1324.68,-84.71 c -3.19,0 -6.05,2.25 -6.71,5.49 -2.94,14.56 -4.45,29.52 -4.45,44.47 v 10.82 c 0,3.79 3.07,6.85 6.86,6.85 3.79,0 6.85,-3.06 6.85,-6.85 v -10.82 c 0,-14.04 1.4,-28.08 4.18,-41.74 0.74,-3.71 -1.65,-7.33 -5.37,-8.08 -0.45,-0.09 -0.91,-0.14 -1.36,-0.14 z m 1314.46,-22.67 c -0.68,0 -1.39,0.11 -2.09,0.33 -3.6,1.15 -5.59,5.01 -4.43,8.61 5.32,16.62 8.52,33.93 9.54,51.47 0.21,3.78 3.5,6.62 7.22,6.45 3.79,-0.22 6.67,-3.46 6.45,-7.24 -1.07,-18.68 -4.49,-37.14 -10.17,-54.85 -0.92,-2.91 -3.62,-4.77 -6.52,-4.77 z m -1267.51,-73.79 c -1.95,0 -3.88,0.82 -5.22,2.41 -12.1,14.24 -22.38,29.95 -30.53,46.69 -1.65,3.4 -0.25,7.5 3.16,9.16 3.41,1.65 7.5,0.24 9.16,-3.16 7.65,-15.71 17.29,-30.45 28.64,-43.82 2.46,-2.88 2.1,-7.2 -0.79,-9.66 -1.29,-1.09 -2.86,-1.62 -4.42,-1.62 z m 1210.34,-17.03 c -1.8,0 -3.62,0.72 -4.97,2.15 -2.6,2.74 -2.48,7.08 0.26,9.68 12.73,12.05 23.91,25.67 33.24,40.47 2.02,3.2 6.25,4.15 9.45,2.15 3.19,-2.02 4.16,-6.25 2.14,-9.45 -9.93,-15.77 -21.85,-30.28 -35.4,-43.12 -1.33,-1.25 -3.02,-1.88 -4.72,-1.88 z m -1122.74,-44.98 c -0.81,0 -1.64,0.15 -2.44,0.45 -17.41,6.64 -33.97,15.48 -49.24,26.3 -3.08,2.18 -3.82,6.45 -1.63,9.54 2.19,3.09 6.46,3.82 9.56,1.63 14.31,-10.14 29.86,-18.43 46.19,-24.66 3.52,-1.35 5.3,-5.31 3.95,-8.84 -1.04,-2.74 -3.64,-4.42 -6.39,-4.42 z m 1028.95,-7.13 c -3.03,0 -5.82,2.04 -6.62,5.12 -0.95,3.66 1.25,7.4 4.9,8.36 16.93,4.41 33.28,10.96 48.6,19.48 3.32,1.84 7.48,0.64 9.31,-2.66 1.84,-3.31 0.65,-7.48 -2.65,-9.31 -16.33,-9.09 -33.76,-16.07 -51.8,-20.77 -0.58,-0.15 -1.16,-0.22 -1.74,-0.22 z m -922.2,-6.94 h -29.95 c -8.34,0 -16.74,0.46 -25,1.39 -3.76,0.41 -6.46,3.81 -6.04,7.56 0.43,3.76 3.77,6.45 7.57,6.05 7.74,-0.87 15.64,-1.3 23.47,-1.3 h 29.95 c 3.78,0 6.84,-3.07 6.84,-6.86 0,-3.78 -3.06,-6.84 -6.84,-6.84 z m 108.46,0 h -54.24 c -3.77,0 -6.84,3.06 -6.84,6.84 0,3.79 3.07,6.86 6.84,6.86 h 54.24 c 3.79,0 6.85,-3.07 6.85,-6.86 0,-3.78 -3.06,-6.84 -6.85,-6.84 z m 108.46,0 h -54.23 c -3.78,0 -6.84,3.06 -6.84,6.84 0,3.79 3.06,6.86 6.84,6.86 h 54.23 c 3.79,0 6.86,-3.07 6.86,-6.86 0,-3.78 -3.07,-6.84 -6.86,-6.84 z m 108.47,0 h -54.23 c -3.79,0 -6.86,3.06 -6.86,6.84 0,3.79 3.07,6.86 6.86,6.86 h 54.23 c 3.79,0 6.85,-3.07 6.85,-6.86 0,-3.78 -3.06,-6.84 -6.85,-6.84 z m 108.47,0 h -54.24 c -3.78,0 -6.84,3.06 -6.84,6.84 0,3.79 3.06,6.86 6.84,6.86 h 54.24 c 3.78,0 6.85,-3.07 6.85,-6.86 0,-3.78 -3.07,-6.84 -6.85,-6.84 z m 108.47,0 h -54.24 c -3.79,0 -6.84,3.06 -6.84,6.84 0,3.79 3.05,6.86 6.84,6.86 h 54.24 c 3.78,0 6.85,-3.07 6.85,-6.86 0,-3.78 -3.07,-6.84 -6.85,-6.84 z m 108.46,0 h -54.23 c -3.79,0 -6.85,3.06 -6.85,6.84 0,3.79 3.06,6.86 6.85,6.86 h 54.23 c 3.79,0 6.85,-3.07 6.85,-6.86 0,-3.78 -3.06,-6.84 -6.85,-6.84 z m 108.46,0 h -54.22 c -3.79,0 -6.86,3.06 -6.86,6.84 0,3.79 3.07,6.86 6.86,6.86 h 54.22 c 3.79,0 6.86,-3.07 6.86,-6.86 0,-3.78 -3.07,-6.84 -6.86,-6.84 z m 109.34,0 h -55.1 c -3.79,0 -6.85,3.06 -6.85,6.84 0,3.79 3.06,6.86 6.85,6.86 h 55.1 c 3.78,0 6.85,-3.07 6.85,-6.86 0,-3.78 -3.07,-6.84 -6.85,-6.84"
         style="fill:#6b50ad;fill-opacity:1;fill-rule:nonzero;stroke:none"
         id="path58" /><path
         d="m 6264.72,5739.9 c -1.36,0 -2.74,0.37 -3.98,1.14 -3.5,2.21 -4.57,6.83 -2.37,10.33 l 15.92,25.41 c 2.19,3.52 6.81,4.57 10.34,2.38 3.5,-2.2 4.56,-6.83 2.37,-10.34 l -15.93,-25.4 c -1.41,-2.28 -3.85,-3.52 -6.35,-3.52"
         style="fill:#6b50ad;fill-opacity:1;fill-rule:nonzero;stroke:none"
         id="path60" /><path
         d="m 6206.14,5646.38 c -1.35,0 -2.73,0.37 -3.97,1.15 -3.51,2.2 -4.57,6.82 -2.38,10.33 l 29.29,46.76 c 2.2,3.5 6.82,4.56 10.33,2.37 3.51,-2.2 4.57,-6.82 2.38,-10.33 l -29.29,-46.76 c -1.43,-2.27 -3.87,-3.52 -6.36,-3.52 z m -58.59,-93.52 c -1.36,0 -2.74,0.37 -3.97,1.15 -3.5,2.19 -4.57,6.82 -2.37,10.33 l 29.3,46.76 c 2.2,3.51 6.8,4.57 10.33,2.37 3.51,-2.2 4.57,-6.82 2.37,-10.33 l -29.29,-46.76 c -1.43,-2.27 -3.87,-3.52 -6.37,-3.52 z m -58.58,-93.51 c -1.35,0 -2.73,0.37 -3.97,1.14 -3.5,2.2 -4.56,6.82 -2.37,10.33 l 29.29,46.75 c 2.19,3.52 6.81,4.59 10.34,2.38 3.5,-2.2 4.57,-6.82 2.37,-10.33 l -29.29,-46.76 c -1.42,-2.27 -3.87,-3.51 -6.37,-3.51"
         style="fill:#6b50ad;fill-opacity:1;fill-rule:nonzero;stroke:none"
         id="path62" /><path
         d="m 6019.03,5369.27 34.3,54.78 c 2.2,3.51 6.82,4.59 10.34,2.38 2.74,-1.72 3.98,-4.91 3.36,-7.9 2.95,0.73 6.19,-0.46 7.98,-3.15 2.28,-3.45 1.35,-8.1 -2.11,-10.39 l -53.87,-35.72"
         style="fill:#6b50ad;fill-opacity:1;fill-rule:nonzero;stroke:none"
         id="path64" /><path
         d="m 6193.91,5486.7 c -2.43,0 -4.81,1.18 -6.25,3.35 -2.29,3.45 -1.35,8.11 2.11,10.39 l 41.7,27.66 c 3.45,2.29 8.11,1.34 10.39,-2.11 2.28,-3.44 1.34,-8.1 -2.11,-10.38 l -41.71,-27.66 c -1.27,-0.84 -2.72,-1.25 -4.13,-1.25 z m -83.42,-55.31 c -2.43,0 -4.82,1.18 -6.26,3.36 -2.29,3.45 -1.35,8.1 2.11,10.39 l 41.71,27.65 c 3.44,2.3 8.1,1.34 10.39,-2.1 2.28,-3.45 1.35,-8.1 -2.11,-10.39 l -41.72,-27.66 c -1.26,-0.84 -2.71,-1.25 -4.12,-1.25"
         style="fill:#6b50ad;fill-opacity:1;fill-rule:nonzero;stroke:none"
         id="path66" /><path
         d="m 6277.32,5542.02 c -2.43,0 -4.81,1.17 -6.26,3.35 -2.27,3.45 -1.33,8.1 2.11,10.38 l 25,16.57 c 3.45,2.29 8.1,1.35 10.38,-2.1 2.29,-3.45 1.35,-8.1 -2.1,-10.39 l -24.99,-16.56 c -1.27,-0.85 -2.72,-1.25 -4.14,-1.25"
         style="fill:#6b50ad;fill-opacity:1;fill-rule:nonzero;stroke:none"
         id="path68" /><path
         d="m 7574.08,5945.89 h -881.16 c -116.92,0 -211.7,-94.78 -211.7,-211.69 v -317.22 c 0,-116.91 94.78,-211.69 211.7,-211.69 h 573.18 l -93.81,-163.65 271.59,163.65 h 130.2 c 116.92,0 211.7,94.78 211.7,211.69 v 317.22 c 0,116.91 -94.78,211.69 -211.7,211.69"
         style="fill:#d8c8e8;fill-opacity:1;fill-rule:nonzero;stroke:none"
         id="path70" /><path
         d="m 6850.36,5668.47 c 0,-13.34 -2.64,-26.16 -7.91,-38.46 -5.26,-12.3 -12.12,-24.15 -20.55,-35.56 -8.42,-11.43 -17.91,-22.4 -28.44,-32.93 -10.55,-10.54 -20.91,-20.56 -31.1,-30.04 -5.26,-4.92 -10.97,-10.45 -17.12,-16.59 -6.15,-6.16 -12.04,-12.39 -17.65,-18.71 -5.63,-6.32 -10.64,-12.21 -15.01,-17.65 -4.41,-5.45 -7.12,-9.93 -8.18,-13.44 h 157.03 v -65.86 H 6618 c -0.71,3.86 -1.07,8.77 -1.07,14.75 0,5.97 0,10.18 0,12.65 0,16.86 2.73,32.31 8.18,46.37 5.44,14.04 12.56,27.13 21.34,39.25 8.77,12.12 18.7,23.45 29.77,33.98 11.07,10.54 22.03,21.08 32.93,31.62 8.43,8.08 16.33,15.72 23.71,22.92 7.37,7.19 13.87,14.22 19.49,21.07 5.62,6.86 10.01,13.7 13.18,20.55 3.16,6.86 4.73,13.79 4.73,20.82 0,15.45 -4.39,26.34 -13.16,32.66 -8.79,6.33 -19.68,9.49 -32.67,9.49 -9.49,0 -18.37,-1.5 -26.62,-4.48 -8.25,-2.99 -15.8,-6.5 -22.65,-10.54 -6.85,-4.04 -12.73,-8.08 -17.65,-12.12 -4.92,-4.04 -8.6,-7.29 -11.06,-9.75 l -39,54.8 c 15.45,14.4 33.47,26.26 54.01,35.57 20.55,9.3 42.59,13.96 66.13,13.96 21.41,0 39.86,-2.46 55.32,-7.37 15.46,-4.93 28.19,-11.86 38.2,-20.81 10.01,-8.96 17.4,-19.86 22.13,-32.67 4.74,-12.83 7.12,-27.32 7.12,-43.48"
         style="fill:#382d88;fill-opacity:1;fill-rule:nonzero;stroke:none"
         id="path72" /><path
         d="m 7056.37,5668.47 c -13.69,-17.91 -28.27,-37.4 -43.73,-58.48 -15.46,-21.08 -28.45,-42.68 -38.99,-64.81 h 82.72 z m 76.93,95.9 v -219.19 h 38.99 v -64.29 h -38.99 v -81.66 h -76.93 v 81.66 h -157.54 v 57.44 c 7.72,15.45 17.39,32.93 28.97,52.43 11.59,19.5 24.51,39.52 38.73,60.06 14.23,20.56 29.25,40.66 45.06,60.33 15.8,19.67 31.6,37.42 47.41,53.22 h 74.3"
         style="fill:#382d88;fill-opacity:1;fill-rule:nonzero;stroke:none"
         id="path74" /><path
         d="m 7232.75,5354.15 h -57.76 l 157.52,450.92 h 56.76 l -156.52,-450.92"
         style="fill:#382d88;fill-opacity:1;fill-rule:nonzero;stroke:none"
         id="path76" /><path
         d="m 7456.16,5399.23 c 2.11,25.63 6.5,52.34 13.18,80.09 6.67,27.74 14.83,54.97 24.5,81.67 9.66,26.69 20.46,51.9 32.4,75.61 11.94,23.71 24.05,44.17 36.36,61.38 H 7404 v 66.92 h 255.55 V 5708 c -11.25,-12.31 -23.63,-29.34 -37.15,-51.11 -13.52,-21.79 -26.35,-46.47 -38.46,-74.03 -12.12,-27.58 -22.66,-57.17 -31.62,-88.79 -8.95,-31.61 -14.49,-63.23 -16.6,-94.84 h -79.56"
         style="fill:#382d88;fill-opacity:1;fill-rule:nonzero;stroke:none"
         id="path78" /><path
         d="m 5606.39,5148.86 h -477.42 c -94.89,0 -171.82,76.92 -171.82,171.82 v 337.48 c 0,94.89 76.93,171.82 171.82,171.82 h 477.42 c 94.89,0 171.81,-76.93 171.81,-171.82 v -337.48 c 0,-94.9 -76.92,-171.82 -171.81,-171.82"
         style="fill:#f57b43;fill-opacity:1;fill-rule:nonzero;stroke:none"
         id="path80" /><path
         d="M 5741.65,5763.96 5518.28,5540.6 c -3.85,-3.85 -7.88,-7.51 -11.92,-10.97 -39.83,-34.25 -89.08,-51.37 -138.71,-51.37 -49.46,0 -98.9,17.12 -138.72,51.37 -4.04,3.46 -8.08,7.12 -11.93,10.97 l -15.78,15.78 -207.39,207.58 c 7.89,10.2 16.92,19.43 26.74,27.51 l 207.97,-207.77 15.79,-15.79 c 3.83,-3.84 7.88,-7.5 12.12,-10.77 64.25,-53.68 158.33,-53.68 222.58,-0.19 4.24,3.46 8.27,7.12 12.12,10.96 l 15.78,15.59 207.79,207.97 c 10,-8.08 18.85,-17.31 26.93,-27.51"
         style="fill:#ffffff;fill-opacity:1;fill-rule:nonzero;stroke:none"
         id="path82" /><path
         d="m 5244.33,5567.91 c 3.83,-3.84 7.88,-7.5 12.12,-10.77 l -27.52,-27.51 -263,-263 c -4.81,14.62 -7.7,30.01 -8.46,45.98 l 243.75,243.77 27.32,27.32 15.79,-15.79"
         style="fill:#ffffff;fill-opacity:1;fill-rule:nonzero;stroke:none"
         id="path84" /><path
         d="m 5777.82,5312.61 c -0.77,-15.97 -3.66,-31.36 -8.46,-45.98 l -263,263 -27.33,27.32 c 4.24,3.46 8.27,7.12 12.12,10.96 l 15.78,15.59 27.13,-27.12 243.76,-243.77"
         style="fill:#ffffff;fill-opacity:1;fill-rule:nonzero;stroke:none"
         id="path86" /><path
         d="m 4606.45,4813.58 c 0,289.8 -241.63,523.17 -534.4,509.65 -265.98,-12.29 -482.11,-235.88 -485.96,-502.11 -2.28,-157.72 67.09,-299.19 177.61,-394.2 80.63,-69.33 128.27,-169.36 128.27,-275.71 v -0.02 h 408.54 v 0 c 0,106.69 48.24,206.66 129.01,276.36 108.32,93.49 176.93,231.7 176.93,386.03"
         style="fill:#a94cac;fill-opacity:1;fill-rule:nonzero;stroke:none"
         id="path88" /><path
         d="m 4302.62,4052.76 h -412.75 v 64.12 h 412.75 v -64.12"
         style="fill:#382d88;fill-opacity:1;fill-rule:nonzero;stroke:none"
         id="path90" /><path
         d="m 4190.75,3901.65 h -189.02 c -61.78,0 -111.86,50.08 -111.86,111.86 v 0 h 412.75 v 0 c 0,-61.78 -50.09,-111.86 -111.87,-111.86"
         style="fill:#382d88;fill-opacity:1;fill-rule:nonzero;stroke:none"
         id="path92" /><path
         d="m 3457.93,3517.9 c -55.35,0 -77.23,-22.87 -77.23,-72.07 0,-4.52 -8.61,-4.52 -8.61,0 0,49.2 -17.51,72.07 -77.23,72.07 -4.46,0 -4.46,8.62 0,8.62 61.57,0 77.23,28.5 77.23,71.99 0,4.52 8.61,4.52 8.61,0 0,-51.79 20.96,-71.99 77.22,-71.99 4.47,0 4.47,-8.62 0.01,-8.62"
         style="fill:#d8c8e8;fill-opacity:1;fill-rule:nonzero;stroke:none"
         id="path94" /><path
         d="m 4678.27,3810.21 c -68.13,0 -95.07,-28.15 -95.07,-88.72 0,-5.57 -10.59,-5.57 -10.59,0 0,60.57 -21.56,88.72 -95.07,88.72 -5.5,0 -5.5,10.62 0,10.62 75.79,0 95.07,35.09 95.07,88.62 0,5.56 10.59,5.56 10.59,0 0,-63.76 25.8,-88.62 95.07,-88.62 5.5,0 5.5,-10.62 0,-10.62"
         style="fill:#fcf4fa;fill-opacity:1;fill-rule:nonzero;stroke:none"
         id="path96" /><path
         d="m 3930.69,4933.79 c -74.59,0 -104.07,-30.82 -104.07,-97.12 0,-6.1 -11.6,-6.1 -11.6,0 0,66.3 -23.6,97.12 -104.08,97.12 -6.02,0 -6.02,11.62 0,11.62 82.97,0 104.08,38.42 104.08,97.01 0,6.1 11.6,6.1 11.6,0 0,-69.79 28.24,-97.01 104.07,-97.01 6.02,0 6.02,-11.62 0,-11.62"
         style="fill:#fcf4fa;fill-opacity:1;fill-rule:nonzero;stroke:none"
         id="path98" /><path
         d="M 6832.37,4789.52 H 6691.3 c 198.69,0 359.75,-161.07 359.75,-359.76 V 955.359 c 0,-198.687 -161.06,-359.75 -359.75,-359.75 h 141.07 c 198.69,0 359.76,161.063 359.76,359.75 V 4429.76 c 0,198.69 -161.07,359.76 -359.76,359.76"
         style="fill:#382d88;fill-opacity:1;fill-rule:nonzero;stroke:none"
         id="path100" /><path
         d="M 6691.3,595.609 H 5221.18 c -198.69,0 -359.76,161.063 -359.76,359.75 V 4429.76 c 0,198.69 161.07,359.76 359.76,359.76 H 6691.3 c 198.69,0 359.76,-161.07 359.76,-359.76 V 955.359 c 0,-198.687 -161.07,-359.75 -359.76,-359.75"
         style="fill:#6b50ad;fill-opacity:1;fill-rule:nonzero;stroke:none"
         id="path102" /><path
         d="M 6859.3,1070.53 H 5053.18 c -57.63,0 -104.36,46.72 -104.36,104.35 v 3251.07 c 0,57.64 46.73,104.36 104.36,104.36 H 6859.3 c 57.63,0 104.35,-46.72 104.35,-104.36 V 1174.88 c 0,-57.63 -46.72,-104.35 -104.35,-104.35"
         style="fill:#ffffff;fill-opacity:1;fill-rule:nonzero;stroke:none"
         id="path104" /><path
         d="m 6152.42,4612.72 h -392.36 c -21.67,0 -39.24,17.56 -39.24,39.23 v 0 c 0,21.67 17.57,39.24 39.24,39.24 h 392.36 c 21.67,0 39.24,-17.57 39.24,-39.24 v 0 c 0,-21.67 -17.57,-39.23 -39.24,-39.23"
         style="fill:#9d8acd;fill-opacity:1;fill-rule:nonzero;stroke:none"
         id="path106" /><path
         d="m 6073.76,745.551 h -235.04 c -54.39,0 -98.5,44.101 -98.5,98.5 v 0 c 0,54.398 44.11,98.5 98.5,98.5 h 235.04 c 54.39,0 98.5,-44.102 98.5,-98.5 v 0 c 0,-54.399 -44.11,-98.5 -98.5,-98.5"
         style="fill:#9d8acd;fill-opacity:1;fill-rule:nonzero;stroke:none"
         id="path108" /><path
         d="M 6766.37,2352.01 H 5199.04 v 229.41 h 1567.33 v -229.41"
         style="fill:#9d8acd;fill-opacity:1;fill-rule:nonzero;stroke:none"
         id="path110" /><path
         d="M 6766.37,1872.43 H 5199.04 v 229.41 h 1567.33 v -229.41"
         style="fill:#9d8acd;fill-opacity:1;fill-rule:nonzero;stroke:none"
         id="path112" /><path
         d="m 6233.64,1392.85 h -1034.6 v 229.41 h 1034.6 v -229.41"
         style="fill:#9d8acd;fill-opacity:1;fill-rule:nonzero;stroke:none"
         id="path114" /><g
         id="g116"><g
           id="g118"
           clip-path="url(#clipPath122)"><path
             d="m 5900.21,5126.47 c 131.57,125.21 365.27,161.69 537.88,-272.88 105.03,-264.43 228.45,-164.92 308.17,-314.45 55.78,-104.66 1.09,-238.13 34.19,-349.87 49.34,-166.59 266.47,-159.05 258.97,-462.41 -9.21,-372.4 -1753.72,-501.21 -2137.37,-75.19 -154.95,172.06 50.09,292.87 126.05,405.51 63.53,94.24 -45.31,187.23 -41.51,340.64 3.79,153.42 273.75,286.76 309.41,371.61 49.25,117.25 8.35,360.71 278.72,430.85 162.24,42.08 325.49,-73.81 325.49,-73.81"
             style="fill:#222136;fill-opacity:1;fill-rule:nonzero;stroke:none"
             id="path124" /><path
             d="m 5891.76,4867.1 c 153.68,-3.8 357.16,-153.85 337.53,-433.49 -16.8,-239.36 -117.87,-306.75 -182.41,-334.71 l 28.2,-161.62 234.7,-125.4 67.63,-155.35 -410.68,-329.05 -404.17,299.46 49.02,210.57 149.44,132.78 7.76,130.97 c 0,0 -164.33,121.95 -159.19,329.59 5.93,239.56 123.96,440.17 282.17,436.25"
             style="fill:#f2d264;fill-opacity:1;fill-rule:nonzero;stroke:none"
             id="path126" /><path
             d="m 6065.49,4533.94 c -0.74,-29.7 -14.54,-53.45 -30.82,-53.05 -16.29,0.41 -28.9,24.81 -28.17,54.51 0.74,29.7 14.54,53.45 30.82,53.05 16.29,-0.41 28.9,-24.81 28.17,-54.51"
             style="fill:#292827;fill-opacity:1;fill-rule:nonzero;stroke:none"
             id="path128" /><path
             d="m 5834.12,4539.67 c -0.73,-29.71 -14.53,-53.46 -30.82,-53.06 -16.29,0.41 -28.9,24.81 -28.15,54.51 0.73,29.7 14.53,53.46 30.82,53.05 16.28,-0.4 28.89,-24.81 28.15,-54.5"
             style="fill:#292827;fill-opacity:1;fill-rule:nonzero;stroke:none"
             id="path130" /><path
             d="m 5833.32,4286.89 c 0,0 34.04,21.3 56.03,21.3 23.37,0 32.01,-11.85 32.01,-11.85 0,0 12.54,9.93 28.36,9.93 21.69,0 46.4,-22.22 46.4,-22.22 0,0 -15.11,-29.97 -80.07,-29.97 -18.41,0 -66.04,7.21 -82.73,32.81"
             style="fill:#f0414c;fill-opacity:1;fill-rule:nonzero;stroke:none"
             id="path132" /><path
             d="m 5888.44,4867.1 c 0,0 19.55,-203.21 370.29,-217.01 l 12.74,38.23 c 3.84,11.5 6.32,23.46 6.8,35.57 4.09,102.22 -61.63,195.65 -161.36,225.2 l -235.65,69.25 -229.38,-71.32 c -111.42,-28.27 -182.96,-136.77 -165.07,-250.32 v -0.01 c 0,0 352.82,-124.81 401.63,170.41"
             style="fill:#222136;fill-opacity:1;fill-rule:nonzero;stroke:none"
             id="path134" /><path
             d="m 5888.39,4189.53 h -122.35 c -81.74,0 -148.25,66.51 -148.25,148.26 h 17.11 c 0,-72.32 58.83,-131.15 131.14,-131.15 h 122.35 v -17.11"
             style="fill:#292827;fill-opacity:1;fill-rule:nonzero;stroke:none"
             id="path136" /><path
             d="m 5961.4,4198.09 c 0,-14.96 -22.6,-27.09 -50.47,-27.09 -27.86,0 -50.46,12.13 -50.46,27.09 0,14.96 22.6,27.08 50.46,27.08 27.87,0 50.47,-12.12 50.47,-27.08"
             style="fill:#f0414c;fill-opacity:1;fill-rule:nonzero;stroke:none"
             id="path138" /><path
             d="m 5539.34,4463.9 c 0,34.81 8.37,66.61 22.22,90.64 15.76,27.44 38.59,44.71 63.98,44.71 47.68,0 47.68,-270.7 0,-270.7 -25.39,0 -48.22,17.27 -63.98,44.71 -13.85,24.03 -22.22,55.83 -22.22,90.64"
             style="fill:#f0414c;fill-opacity:1;fill-rule:nonzero;stroke:none"
             id="path140" /><path
             d="m 5539.34,4463.9 c 0,34.81 8.37,66.61 22.22,90.64 18.01,-23.55 29.09,-55.49 29.09,-90.64 0,-35.15 -11.08,-67.09 -29.09,-90.64 -13.85,24.03 -22.22,55.83 -22.22,90.64"
             style="fill:#ffffff;fill-opacity:1;fill-rule:nonzero;stroke:none"
             id="path142" /><path
             d="m 5569.91,4471.66 c 2,11.98 2.28,24.36 0.45,36.38 -8.32,54.69 -8.29,114.08 1.79,174.39 24.29,145.36 100.05,256.57 189.7,295.81 -112.08,-11.31 -214.83,-136.36 -243.89,-310.29 -11.82,-70.7 -9.88,-140.16 3.2,-202.23 6.69,-31.72 42.6,-30.92 47.96,1.2 l 0.79,4.74"
             style="fill:#ffffff;fill-opacity:1;fill-rule:nonzero;stroke:none"
             id="path144" /><path
             d="m 6297.6,4467.16 c 0,-36.76 -8.15,-70.36 -21.62,-95.74 -15.33,-28.98 -37.52,-47.21 -62.22,-47.21 -46.37,0 -46.37,285.91 0,285.91 24.7,0 46.89,-18.24 62.22,-47.22 13.47,-25.37 21.62,-58.97 21.62,-95.74"
             style="fill:#f0414c;fill-opacity:1;fill-rule:nonzero;stroke:none"
             id="path146" /><path
             d="m 6297.6,4467.16 c 0,-36.76 -8.15,-70.36 -21.62,-95.74 -17.51,24.88 -28.28,58.62 -28.28,95.74 0,37.13 10.77,70.87 28.28,95.74 13.47,-25.37 21.62,-58.97 21.62,-95.74"
             style="fill:#ffffff;fill-opacity:1;fill-rule:nonzero;stroke:none"
             id="path148" /><path
             d="m 6262.95,4463.97 c -1.03,11.79 0.1,23.7 3.7,34.98 16.42,51.26 43.47,77.69 38.33,137.04 -12.38,143.06 -111.03,291.46 -214.66,342.25 133.95,-27.28 243.39,-162.33 258.21,-333.51 6.01,-69.58 -4.41,-135.96 -27.44,-193.6 -11.77,-29.46 -55.01,-23.44 -57.74,8.17 l -0.4,4.67"
             style="fill:#ffffff;fill-opacity:1;fill-rule:nonzero;stroke:none"
             id="path150" /><path
             d="m 5932.17,3547.44 c 0,0 212.56,168.1 200.85,250.94 -11.71,82.84 -57.94,138.9 -57.94,138.9 l 338.18,-187.92 c 0,0 132.81,-934.25 -11.83,-1219.59 l -76.51,-126.52 c 0,0 -346.89,-179.44 -792.15,19.6 l -101.17,204.29 -49.86,950.54 c 0,0 40.62,183.28 61,196.54 20.39,13.25 318.28,196.07 318.28,196.07 0,0 -37.45,-107.56 -7.75,-204.6 29.71,-97.04 178.9,-218.25 178.9,-218.25"
             style="fill:#f9b63a;fill-opacity:1;fill-rule:nonzero;stroke:none"
             id="path152" /><path
             d="m 5623.71,3161.24 c 0,0 155.47,-132.44 253.1,-103.29 0,0 -109.8,-59.88 -234.58,0.82 -124.79,60.7 -18.52,102.47 -18.52,102.47"
             style="fill:#f1ab2f;fill-opacity:1;fill-rule:nonzero;stroke:none"
             id="path154" /><path
             d="m 5694.66,3024.56 28.15,-193.54 18.18,-312.65 15.12,-168.17 c 0,0 -126.39,14.82 -148.78,40.96 -22.39,26.15 87.33,633.4 87.33,633.4"
             style="fill:#f1ab2f;fill-opacity:1;fill-rule:nonzero;stroke:none"
             id="path156" /><path
             d="m 6177.89,3026.98 -8.95,-150.16 -5.15,-208 79.26,-297.37 c 0,0 48.3,4.05 69.97,30.78 21.67,26.74 -135.13,624.75 -135.13,624.75"
             style="fill:#f1ab2f;fill-opacity:1;fill-rule:nonzero;stroke:none"
             id="path158" /><path
             d="m 6270.61,3145.24 c 0,0 -161.83,-124.59 -257.9,-90.65 0,0 106.7,-65.23 234.34,-10.79 127.64,54.45 23.56,101.44 23.56,101.44"
             style="fill:#f1ab2f;fill-opacity:1;fill-rule:nonzero;stroke:none"
             id="path160" /><path
             d="m 6813.94,2004.22 c -20.63,0.51 -272.98,-90.11 -370.7,-77.36 0,0 -226.93,687.37 -239.22,816.66 -12.27,129.29 -98.84,1109.18 -128.94,1193.76 0,0 521.8,-197.37 574.48,-286.38 52.69,-89.02 131,-479.96 131,-479.96 L 6898,2719.17 c 0,0 -233.21,-121.2 -299.87,-104.07 -66.65,17.13 -96.59,38.23 -96.59,38.23 l 312.4,-649.11"
             style="fill:#a94cac;fill-opacity:1;fill-rule:nonzero;stroke:none"
             id="path162" /><path
             d="m 5761.02,3970.29 c 0,0 -69.28,-1912.69 -203.49,-2060.81 l -440.11,151.89 139.82,163.64 100.53,383.94 c 0,0 -50,-30.09 -101.8,-13.15 -51.8,16.95 -225.76,107.03 -225.76,107.03 l 122.46,441.07 c 0,0 67.63,372.07 118.31,530.55 135.84,110.48 297.73,201.12 490.04,295.84"
             style="fill:#a94cac;fill-opacity:1;fill-rule:nonzero;stroke:none"
             id="path164" /><path
             d="m 6386.16,3416.18 c 0,0 53.35,-738.95 115.38,-762.85 12.56,-29.72 29.36,-61.01 29.36,-61.01 l -86.78,62.87 -59.82,266.76 1.86,494.23"
             style="fill:#93339e;fill-opacity:1;fill-rule:nonzero;stroke:none"
             id="path166" /><path
             d="m 5427.61,3439.89 c 0,0 25.95,-738.27 -37.19,-759.07 -14.01,-29.07 -32.34,-59.49 -32.34,-59.49 l 89.78,58.51 13.8,211.46 -34.05,548.59"
             style="fill:#93339e;fill-opacity:1;fill-rule:nonzero;stroke:none"
             id="path168" /></g></g><path
         d="m 242.719,5322.08 c -76.176,0 -134.203,21.18 -174.094,63.55 -39.8906,42.37 -59.83594,102.54 -59.83594,180.52 0,38.76 6.08594,73.36 18.25784,103.78 12.1679,30.43 28.8359,56.12 50.0273,77.08 21.1836,20.95 46.4218,36.85 75.7228,47.67 29.297,10.81 61.074,16.22 95.332,16.22 19.832,0 37.863,-1.47 54.09,-4.39 16.222,-2.94 30.422,-6.32 42.59,-10.15 12.175,-3.83 22.316,-7.77 30.425,-11.83 8.118,-4.05 13.969,-7.21 17.579,-9.46 l -30.418,-85.19 c -14.434,7.66 -31.223,14.19 -50.372,19.6 -19.168,5.41 -40.906,8.12 -65.246,8.12 -16.226,0 -32.113,-2.71 -47.668,-8.12 -15.55,-5.41 -29.3,-14.09 -41.238,-26.03 -11.949,-11.94 -21.527,-27.38 -28.734,-46.31 -7.219,-18.93 -10.817,-41.92 -10.817,-68.96 0,-21.63 2.364,-41.81 7.094,-60.51 4.738,-18.71 12.395,-34.82 22.988,-48.34 10.586,-13.52 24.45,-24.24 41.582,-32.12 17.125,-7.89 37.864,-11.83 62.204,-11.83 15.316,0 29.074,0.9 41.242,2.71 12.168,1.79 22.984,3.94 32.449,6.42 9.469,2.47 17.805,5.29 25.019,8.45 7.204,3.15 13.743,6.09 19.606,8.79 l 29.07,-84.51 c -14.871,-9.03 -35.836,-17.14 -62.875,-24.34 -27.047,-7.21 -58.379,-10.82 -93.98,-10.82"
         style="fill:#292827;fill-opacity:1;fill-rule:nonzero;stroke:none"
         id="path170" /><path
         d="m 755.211,5343.71 c -17.137,-4.96 -39.215,-9.58 -66.258,-13.85 -27.043,-4.28 -55.437,-6.43 -85.187,-6.43 -30.2,0 -55.332,4.06 -75.387,12.17 -20.059,8.11 -35.945,19.49 -47.66,34.14 -11.731,14.65 -20.067,32.12 -25.02,52.4 -4.965,20.29 -7.437,42.6 -7.437,66.93 v 198.11 h 100.742 v -185.93 c 0,-32.46 4.277,-55.89 12.844,-70.32 8.558,-14.43 24.562,-21.64 48,-21.64 7.207,0 14.879,0.35 22.988,1.02 8.117,0.68 15.316,1.46 21.637,2.37 v 274.5 h 100.738 v -343.47"
         style="fill:#292827;fill-opacity:1;fill-rule:nonzero;stroke:none"
         id="path172" /><path
         d="m 951.949,5403.89 c 18.477,0 31.543,1.8 39.211,5.4 7.66,3.61 11.5,10.59 11.5,20.97 0,8.11 -4.969,15.2 -14.883,21.29 -9.918,6.09 -25.011,12.95 -45.297,20.63 -15.781,5.84 -30.082,11.93 -42.929,18.25 -12.848,6.3 -23.778,13.86 -32.793,22.65 -9.02,8.79 -16.004,19.27 -20.957,31.44 -4.965,12.17 -7.438,26.81 -7.438,43.94 0,33.35 12.391,59.72 37.184,79.11 24.785,19.37 58.824,29.07 102.09,29.07 21.636,0 42.363,-1.93 62.203,-5.75 19.83,-3.83 35.6,-8.01 47.33,-12.5 l -17.58,-78.43 c -11.73,4.05 -24.46,7.65 -38.2,10.81 -13.75,3.15 -29.19,4.73 -46.312,4.73 -31.558,0 -47.328,-8.79 -47.328,-26.36 0,-4.06 0.672,-7.67 2.027,-10.82 1.352,-3.16 4.055,-6.2 8.114,-9.13 4.058,-2.93 9.57,-6.1 16.562,-9.51 6.985,-3.4 15.891,-7.16 26.707,-11.23 22.08,-8.19 40.33,-16.26 54.76,-24.2 14.43,-7.96 25.8,-16.55 34.15,-25.76 8.33,-9.22 14.2,-19.46 17.58,-30.7 3.38,-11.24 5.07,-24.29 5.07,-39.12 0,-35.08 -13.19,-61.62 -39.56,-79.61 -26.36,-17.98 -63.664,-26.98 -111.89,-26.98 -31.551,0 -57.801,2.7 -78.766,8.11 -20.957,5.41 -35.492,9.91 -43.606,13.52 l 16.903,81.81 c 17.125,-6.76 34.703,-12.06 52.734,-15.88 18.024,-3.84 35.836,-5.75 53.414,-5.75"
         style="fill:#292827;fill-opacity:1;fill-rule:nonzero;stroke:none"
         id="path174" /><path
         d="m 1174.38,5775.74 100.74,16.23 v -104.79 h 121.02 v -83.84 h -121.02 v -125.08 c 0,-21.19 3.71,-38.1 11.15,-50.71 7.44,-12.62 22.42,-18.93 44.96,-18.93 10.82,0 21.97,1.02 33.47,3.04 11.49,2.04 21.97,4.84 31.44,8.45 l 14.2,-78.42 c -12.18,-4.97 -25.7,-9.24 -40.57,-12.85 -14.88,-3.6 -33.13,-5.41 -54.76,-5.41 -27.5,0 -50.27,3.72 -68.29,11.16 -18.03,7.43 -32.45,17.8 -43.27,31.1 -10.82,13.29 -18.37,29.41 -22.65,48.34 -4.29,18.93 -6.42,39.89 -6.42,62.88 v 298.83"
         style="fill:#292827;fill-opacity:1;fill-rule:nonzero;stroke:none"
         id="path176" /><path
         d="m 1694.29,5510.04 c 0,31.1 -6.2,55.54 -18.59,73.35 -12.4,17.81 -30.09,26.71 -53.08,26.71 -22.98,0 -40.79,-8.9 -53.41,-26.71 -12.62,-17.81 -18.93,-42.25 -18.93,-73.35 0,-31.11 6.31,-55.79 18.93,-74.04 12.62,-18.25 30.43,-27.38 53.41,-27.38 22.99,0 40.68,9.13 53.08,27.38 12.39,18.25 18.59,42.93 18.59,74.04 z m 102.77,0 c 0,-27.96 -4.06,-53.53 -12.17,-76.74 -8.12,-23.22 -19.84,-43.05 -35.16,-59.5 -15.33,-16.46 -33.7,-29.19 -55.1,-38.2 -21.42,-9.01 -45.42,-13.52 -72.01,-13.52 -26.14,0 -49.92,4.51 -71.33,13.52 -21.41,9.01 -39.78,21.74 -55.1,38.2 -15.33,16.45 -27.27,36.28 -35.83,59.5 -8.57,23.21 -12.85,48.78 -12.85,76.74 0,27.94 4.4,53.41 13.19,76.39 8.79,22.99 20.96,42.6 36.51,58.83 15.55,16.22 34.03,28.83 55.44,37.86 21.4,9.01 44.73,13.52 69.97,13.52 25.7,0 49.25,-4.51 70.66,-13.52 21.4,-9.03 39.77,-21.64 55.1,-37.86 15.32,-16.23 27.26,-35.84 35.83,-58.83 8.56,-22.98 12.85,-48.45 12.85,-76.39"
         style="fill:#292827;fill-opacity:1;fill-rule:nonzero;stroke:none"
         id="path178" /><path
         d="m 2070.2,5520.18 c 0,32.45 -4.17,55.44 -12.51,68.96 -8.34,13.52 -22.65,20.28 -42.93,20.28 -6.32,0 -12.85,-0.33 -19.61,-1.01 -6.76,-0.68 -13.3,-1.47 -19.6,-2.37 V 5331.55 H 1874.81 V 5675 c 8.55,2.25 18.59,4.62 30.08,7.1 11.5,2.47 23.67,4.73 36.51,6.76 12.85,2.03 26.03,3.61 39.56,4.74 13.52,1.11 26.81,1.69 39.88,1.69 25.7,0 46.54,-3.27 62.54,-9.81 16,-6.54 29.18,-14.31 39.55,-23.32 14.42,10.36 30.99,18.47 49.7,24.34 18.7,5.85 35.94,8.79 51.72,8.79 28.4,0 51.72,-3.95 69.98,-11.84 18.25,-7.89 32.79,-19.04 43.6,-33.46 10.83,-14.43 18.26,-31.56 22.31,-51.38 4.06,-19.84 6.09,-41.92 6.09,-66.26 v -200.8 h -100.74 v 188.63 c 0,32.45 -4.17,55.44 -12.5,68.96 -8.35,13.52 -22.66,20.28 -42.94,20.28 -5.4,0 -12.96,-1.35 -22.64,-4.06 -9.7,-2.7 -17.7,-6.08 -24.01,-10.14 3.15,-10.37 5.18,-21.29 6.09,-32.79 0.89,-11.49 1.35,-23.78 1.35,-36.85 V 5331.55 H 2070.2 v 188.63"
         style="fill:#292827;fill-opacity:1;fill-rule:nonzero;stroke:none"
         id="path180" /><path
         d="m 2677.34,5545.19 c -0.46,8.56 -1.92,16.91 -4.4,25.02 -2.48,8.11 -6.31,15.31 -11.49,21.63 -5.19,6.31 -11.73,11.5 -19.61,15.55 -7.89,4.06 -17.69,6.09 -29.41,6.09 -11.27,0 -20.96,-1.93 -29.07,-5.75 -8.12,-3.83 -14.87,-8.91 -20.28,-15.21 -5.41,-6.32 -9.58,-13.64 -12.51,-21.98 -2.94,-8.34 -5.07,-16.79 -6.42,-25.35 z m -236.64,-38.54 c 0,31.55 4.84,59.16 14.54,82.83 9.69,23.66 22.42,43.38 38.2,59.16 15.77,15.77 33.91,27.72 54.43,35.83 20.5,8.11 41.57,12.17 63.21,12.17 50.47,0 90.37,-15.44 119.67,-46.32 29.29,-30.87 43.95,-76.29 43.95,-136.23 0,-5.86 -0.24,-12.29 -0.68,-19.27 -0.46,-6.99 -0.91,-13.18 -1.35,-18.59 h -228.52 c 2.25,-20.73 11.93,-37.18 29.07,-49.35 17.12,-12.18 40.11,-18.26 68.96,-18.26 18.48,0 36.61,1.69 54.43,5.08 17.79,3.37 32.33,7.53 43.6,12.5 l 13.53,-81.81 c -5.41,-2.7 -12.63,-5.41 -21.64,-8.11 -9.02,-2.71 -19.04,-5.07 -30.08,-7.1 -11.05,-2.03 -22.88,-3.72 -35.5,-5.07 -12.62,-1.35 -25.25,-2.03 -37.86,-2.03 -32.01,0 -59.84,4.73 -83.5,14.2 -23.66,9.47 -43.27,22.42 -58.82,38.87 -15.55,16.46 -27.04,35.94 -34.48,58.49 -7.44,22.53 -11.16,46.87 -11.16,73.01"
         style="fill:#292827;fill-opacity:1;fill-rule:nonzero;stroke:none"
         id="path182" /><path
         d="m 3066.77,5597.93 c -9.03,2.25 -19.61,4.62 -31.78,7.1 -12.17,2.47 -25.25,3.72 -39.21,3.72 -6.32,0 -13.86,-0.57 -22.65,-1.69 -8.79,-1.13 -15.44,-2.37 -19.95,-3.72 v -271.79 h -100.73 v 336.7 c 18.02,6.3 39.31,12.27 63.89,17.91 24.56,5.63 51.94,8.45 82.14,8.45 5.41,0 11.94,-0.34 19.61,-1.01 7.66,-0.68 15.32,-1.58 22.98,-2.71 7.67,-1.13 15.32,-2.48 22.99,-4.06 7.66,-1.58 14.2,-3.49 19.61,-5.74 l -16.9,-83.16"
         style="fill:#292827;fill-opacity:1;fill-rule:nonzero;stroke:none"
         id="path184" /><path
         d="m 156.855,4779.11 c 14.875,0 27.149,1.24 36.844,3.72 9.692,2.48 17.469,5.85 23.332,10.15 5.852,4.27 9.907,9.35 12.168,15.21 2.25,5.85 3.379,12.39 3.379,19.61 0,15.31 -7.211,28.05 -21.637,38.19 -14.425,10.15 -39.211,21.07 -74.371,32.8 -15.324,5.4 -30.652,11.59 -45.9684,18.59 -15.3321,6.98 -29.0743,15.77 -41.2461,26.37 -12.168,10.58 -22.0899,23.43 -29.7461,38.53 -7.6719,15.1 -11.49221,33.47 -11.49221,55.11 0,21.63 4.05471,41.12 12.16801,58.48 8.1132,17.34 19.6093,32.11 34.4804,44.28 14.875,12.17 32.8946,21.52 54.0864,28.06 21.183,6.53 45.07,9.81 71.668,9.81 31.546,0 58.82,-3.39 81.808,-10.14 22.985,-6.77 41.918,-14.2 56.793,-22.32 l -30.426,-83.16 c -13.082,6.76 -27.617,12.73 -43.605,17.92 -16.008,5.18 -35.274,7.77 -57.809,7.77 -25.25,0 -43.39,-3.49 -54.426,-10.48 -11.046,-6.99 -16.566,-17.69 -16.566,-32.11 0,-8.57 2.031,-15.79 6.082,-21.64 4.059,-5.86 9.809,-11.15 17.242,-15.88 7.438,-4.74 15.996,-9.03 25.696,-12.85 9.687,-3.83 20.39,-7.77 32.113,-11.83 24.34,-9.03 45.523,-17.92 63.555,-26.71 18.023,-8.79 33.011,-19.04 44.961,-30.76 11.933,-11.73 20.839,-25.47 26.703,-41.24 5.855,-15.78 8.789,-34.94 8.789,-57.47 0,-43.72 -15.325,-77.65 -45.977,-101.76 -30.652,-24.11 -76.848,-36.17 -138.598,-36.17 -20.738,0 -39.445,1.25 -56.113,3.72 -16.6834,2.48 -31.4412,5.52 -44.285,9.13 -12.8476,3.6 -23.8984,7.43 -33.1328,11.49 -9.2422,4.06 -17.01561,7.88 -23.3242,11.5 l 29.75,83.83 c 13.9648,-7.67 31.207,-14.53 51.7188,-20.62 20.5082,-6.08 45.6402,-9.13 75.3862,-9.13"
         style="fill:#292827;fill-opacity:1;fill-rule:nonzero;stroke:none"
         id="path186" /><path
         d="m 719.359,4710.83 c -17.132,-4.96 -39.211,-9.58 -66.254,-13.86 -27.046,-4.28 -55.437,-6.43 -85.191,-6.43 -30.199,0 -55.332,4.06 -75.387,12.17 -20.054,8.12 -35.945,19.49 -47.66,34.14 -11.726,14.65 -20.062,32.12 -25.019,52.41 -4.965,20.28 -7.438,42.59 -7.438,66.93 v 198.1 h 100.742 v -185.93 c 0,-32.45 4.282,-55.89 12.844,-70.32 8.559,-14.42 24.567,-21.64 48.004,-21.64 7.207,0 14.879,0.35 22.988,1.02 8.114,0.68 15.317,1.46 21.633,2.37 v 274.5 h 100.738 v -343.46"
         style="fill:#292827;fill-opacity:1;fill-rule:nonzero;stroke:none"
         id="path188" /><path
         d="m 1041.85,4873.77 c 0,31.1 -6.99,56 -20.96,74.71 -13.97,18.7 -34.706,28.06 -62.199,28.06 -9.023,0 -17.359,-0.34 -25.015,-1.02 -7.668,-0.67 -13.973,-1.47 -18.93,-2.36 v -181.87 c 6.305,-4.06 14.535,-7.44 24.68,-10.15 10.14,-2.71 20.383,-4.05 30.762,-4.05 47.762,0 71.662,32.22 71.662,96.68 z m 102.77,2.7 c 0,-27.49 -3.38,-52.51 -10.14,-75.04 -6.77,-22.55 -16.68,-41.92 -29.75,-58.15 -13.08,-16.22 -29.31,-28.85 -48.68,-37.86 -19.38,-9.02 -41.69,-13.53 -66.933,-13.53 -13.976,0 -27.047,1.36 -39.215,4.06 -12.168,2.71 -23.894,6.53 -35.156,11.5 V 4573.58 H 814.008 v 468.54 c 9.012,2.7 19.371,5.29 31.101,7.77 11.711,2.48 23.996,4.62 36.844,6.43 12.848,1.79 25.914,3.26 39.215,4.39 13.289,1.12 26.027,1.69 38.203,1.69 29.289,0 55.439,-4.39 78.429,-13.18 22.98,-8.79 42.36,-21.2 58.14,-37.19 15.77,-16 27.82,-35.49 36.17,-58.48 8.33,-22.99 12.51,-48.68 12.51,-77.08"
         style="fill:#292827;fill-opacity:1;fill-rule:nonzero;stroke:none"
         id="path190" /><path
         d="m 1450.21,4873.77 c 0,31.1 -7,56 -20.96,74.71 -13.98,18.7 -34.71,28.06 -62.2,28.06 -9.03,0 -17.36,-0.34 -25.02,-1.02 -7.67,-0.67 -13.97,-1.47 -18.93,-2.36 v -181.87 c 6.3,-4.06 14.54,-7.44 24.68,-10.15 10.14,-2.71 20.38,-4.05 30.76,-4.05 47.77,0 71.67,32.22 71.67,96.68 z m 102.76,2.7 c 0,-27.49 -3.38,-52.51 -10.14,-75.04 -6.76,-22.55 -16.68,-41.92 -29.74,-58.15 -13.08,-16.22 -29.31,-28.85 -48.69,-37.86 -19.38,-9.02 -41.69,-13.53 -66.93,-13.53 -13.97,0 -27.05,1.36 -39.21,4.06 -12.17,2.71 -23.9,6.53 -35.16,11.5 v -133.87 h -100.74 v 468.54 c 9.01,2.7 19.37,5.29 31.1,7.77 11.72,2.48 24,4.62 36.85,6.43 12.84,1.79 25.91,3.26 39.21,4.39 13.29,1.12 26.03,1.69 38.2,1.69 29.3,0 55.44,-4.39 78.43,-13.18 22.99,-8.79 42.36,-21.2 58.15,-37.19 15.77,-16 27.82,-35.49 36.16,-58.48 8.34,-22.99 12.51,-48.68 12.51,-77.08"
         style="fill:#292827;fill-opacity:1;fill-rule:nonzero;stroke:none"
         id="path192" /><path
         d="m 1860.6,4877.15 c 0,31.1 -6.21,55.55 -18.6,73.36 -12.4,17.8 -30.09,26.7 -53.07,26.7 -22.99,0 -40.8,-8.9 -53.41,-26.7 -12.63,-17.81 -18.93,-42.26 -18.93,-73.36 0,-31.1 6.3,-55.78 18.93,-74.03 12.61,-18.26 30.42,-27.39 53.41,-27.39 22.98,0 40.67,9.13 53.07,27.39 12.39,18.25 18.6,42.93 18.6,74.03 z m 102.76,0 c 0,-27.95 -4.05,-53.53 -12.17,-76.74 -8.11,-23.22 -19.84,-43.05 -35.15,-59.49 -15.33,-16.47 -33.71,-29.19 -55.11,-38.21 -21.41,-9.01 -45.41,-13.52 -72,-13.52 -26.15,0 -49.93,4.51 -71.33,13.52 -21.41,9.02 -39.78,21.74 -55.1,38.21 -15.33,16.44 -27.28,36.27 -35.83,59.49 -8.57,23.21 -12.85,48.79 -12.85,76.74 0,27.94 4.39,53.41 13.18,76.4 8.79,22.99 20.96,42.59 36.51,58.82 15.55,16.23 34.03,28.84 55.44,37.86 21.41,9.01 44.73,13.52 69.98,13.52 25.69,0 49.24,-4.51 70.65,-13.52 21.4,-9.02 39.78,-21.63 55.1,-37.86 15.32,-16.23 27.27,-35.83 35.84,-58.82 8.55,-22.99 12.84,-48.46 12.84,-76.4"
         style="fill:#292827;fill-opacity:1;fill-rule:nonzero;stroke:none"
         id="path194" /><path
         d="m 2255.43,4965.04 c -9.02,2.25 -19.6,4.62 -31.78,7.1 -12.17,2.47 -25.25,3.72 -39.21,3.72 -6.32,0 -13.86,-0.57 -22.65,-1.69 -8.79,-1.13 -15.44,-2.37 -19.94,-3.72 v -271.79 h -100.74 v 336.7 c 18.02,6.3 39.31,12.27 63.89,17.91 24.56,5.63 51.94,8.46 82.14,8.46 5.41,0 11.94,-0.34 19.61,-1.02 7.66,-0.67 15.32,-1.58 22.99,-2.7 7.66,-1.13 15.31,-2.49 22.98,-4.06 7.67,-1.58 14.2,-3.5 19.61,-5.75 l -16.9,-83.16"
         style="fill:#292827;fill-opacity:1;fill-rule:nonzero;stroke:none"
         id="path196" /><path
         d="m 2323.04,5142.86 100.74,16.23 v -104.8 h 121.02 v -83.84 h -121.02 v -125.08 c 0,-21.19 3.72,-38.09 11.15,-50.7 7.44,-12.63 22.42,-18.94 44.96,-18.94 10.82,0 21.98,1.02 33.47,3.05 11.49,2.03 21.97,4.84 31.44,8.45 l 14.2,-78.43 c -12.17,-4.96 -25.69,-9.24 -40.57,-12.85 -14.88,-3.6 -33.13,-5.41 -54.76,-5.41 -27.5,0 -50.27,3.72 -68.29,11.16 -18.03,7.44 -32.45,17.8 -43.27,31.1 -10.82,13.29 -18.37,29.41 -22.65,48.34 -4.29,18.94 -6.42,39.89 -6.42,62.88 v 298.84"
         style="fill:#292827;fill-opacity:1;fill-rule:nonzero;stroke:none"
         id="path198" /><path
         d="m 153.914,4348.51 c 0.68,6.32 2.137,12.59 4.359,18.83 2.211,6.23 4.946,12.2 8.192,17.92 3.242,5.72 6.789,11.14 10.625,16.27 3.844,5.12 7.812,9.73 11.91,13.83 l 19.461,-8.2 c -5.977,-9.05 -10.926,-18.4 -14.852,-28.04 -3.929,-9.65 -6.574,-19.85 -7.941,-30.61 z m -50.961,0 c 0.68,6.32 2.137,12.59 4.356,18.83 2.218,6.23 4.949,12.2 8.195,17.92 3.242,5.72 6.785,11.14 10.625,16.27 3.844,5.12 7.812,9.73 11.906,13.83 l 19.465,-8.2 c -5.977,-9.05 -10.93,-18.4 -14.852,-28.04 -3.925,-9.65 -6.574,-19.85 -7.941,-30.61 h -31.754"
         style="fill:#505256;fill-opacity:1;fill-rule:nonzero;stroke:none"
         id="path200" /><path
         d="m 342.566,4375.92 c 0.508,-9.22 1.145,-18.87 1.918,-28.94 0.758,-10.08 1.653,-20.11 2.672,-30.09 1.02,-9.99 2.039,-19.76 3.059,-29.32 1.019,-9.56 2.043,-18.44 3.062,-26.64 4.789,9.05 9.75,18.99 14.883,29.84 5.133,10.84 10.262,22.06 15.399,33.67 5.129,11.61 10.175,23.52 15.14,35.72 4.961,12.21 9.754,24.21 14.371,35.99 h 34.328 c -13.507,-32.95 -27.148,-64.11 -40.914,-93.48 -13.765,-29.36 -28.339,-57.36 -43.73,-83.99 h -31.336 c -1.359,9.22 -2.672,18.26 -3.941,27.15 -1.278,8.86 -2.461,17.88 -3.567,27.01 -1.101,9.13 -2.117,18.44 -3.051,27.92 -0.933,9.47 -1.82,19.33 -2.668,29.57 -10.664,-19.63 -21.187,-38.62 -31.586,-56.97 -10.406,-18.36 -21.449,-36.59 -33.136,-54.68 h -31.367 c -1.34,14.85 -2.297,29.62 -2.883,44.31 -0.582,14.67 -0.875,29.7 -0.875,45.06 0,28 0.972,57.37 2.918,88.1 h 32.269 c -1.027,-16.39 -1.879,-32.66 -2.562,-48.79 -0.688,-16.13 -1.028,-32.48 -1.028,-49.04 0,-6.15 0,-12.34 0,-18.57 0,-6.23 0.172,-12.51 0.512,-18.82 5.309,8.71 10.785,17.89 16.438,27.53 5.648,9.64 11.211,19.42 16.687,29.32 5.481,9.9 10.832,19.81 16.051,29.71 5.219,9.9 10.141,19.37 14.766,28.43 h 28.171"
         style="fill:#505256;fill-opacity:1;fill-rule:nonzero;stroke:none"
         id="path202" /><path
         d="m 510.387,4330.59 c -5.121,0 -9.985,-1.02 -14.594,-3.07 -4.609,-2.05 -8.707,-4.87 -12.297,-8.45 -3.586,-3.59 -6.699,-7.81 -9.344,-12.68 -2.648,-4.87 -4.574,-10.11 -5.761,-15.75 20.488,0.68 35.379,3.16 44.683,7.42 9.305,4.27 13.957,10.68 13.957,19.21 0,3.42 -1.238,6.49 -3.711,9.22 -2.476,2.74 -6.789,4.1 -12.933,4.1 z m -74.524,-63.51 c 0,11.43 1.836,22.49 5.508,33.16 3.668,10.68 8.965,20.15 15.879,28.43 6.914,8.28 15.234,14.89 24.969,19.84 9.73,4.95 20.652,7.43 32.777,7.43 12.973,0 23.051,-3.33 30.219,-9.99 7.172,-6.66 10.758,-15.19 10.758,-25.6 0,-10.76 -2.653,-19.46 -7.942,-26.12 -5.293,-6.66 -12.164,-11.87 -20.613,-15.63 -8.453,-3.75 -18.016,-6.32 -28.684,-7.68 -10.671,-1.37 -21.468,-2.22 -32.39,-2.56 -0.176,-0.35 -0.258,-0.69 -0.258,-1.03 v -2.56 c 0,-15.53 9.812,-23.3 29.445,-23.3 11.614,0 23.219,2.38 34.828,7.17 l 2.567,-25.1 c -4.098,-1.87 -9.906,-3.76 -17.418,-5.63 -7.516,-1.88 -16.051,-2.82 -25.606,-2.82 -9.566,0 -17.757,1.37 -24.586,4.1 -6.832,2.73 -12.421,6.49 -16.777,11.27 -4.348,4.78 -7.555,10.28 -9.598,16.52 -2.05,6.23 -3.078,12.93 -3.078,20.1"
         style="fill:#505256;fill-opacity:1;fill-rule:nonzero;stroke:none"
         id="path204" /><path
         d="m 724.535,4328.54 c -3.246,0.69 -6.918,1.03 -11.019,1.03 -7.692,0 -14.786,-1.67 -21.282,-5 -6.492,-3.33 -12.093,-7.77 -16.789,-13.31 -4.699,-5.56 -8.332,-11.92 -10.89,-19.09 -2.567,-7.16 -3.848,-14.68 -3.848,-22.53 0,-3.93 0.344,-7.6 1.027,-11.01 0.676,-3.42 1.832,-6.41 3.457,-8.96 1.622,-2.56 3.797,-4.61 6.528,-6.15 2.73,-1.54 6.23,-2.3 10.504,-2.3 5.457,0 10.281,1.15 14.468,3.45 4.176,2.31 8.067,5.42 11.649,9.35 0.172,4.43 0.551,8.61 1.152,12.55 0.598,3.93 1.41,7.85 2.434,11.78 z m 16.844,-57.88 c -0.516,-1.87 -1.027,-4.95 -1.539,-9.22 -0.516,-4.27 -0.77,-8.28 -0.77,-12.03 0,-4.95 0.426,-9.77 1.282,-14.47 0.855,-4.7 2.218,-9.43 4.097,-14.21 l -27.656,-4.1 c -2.051,4.1 -3.672,8.46 -4.867,13.06 -4.27,-3.76 -9.52,-7.13 -15.75,-10.11 -6.235,-2.99 -13.274,-4.49 -21.125,-4.49 -8.028,0 -14.899,1.32 -20.617,3.97 -5.723,2.65 -10.371,6.32 -13.954,11.02 -3.585,4.69 -6.238,10.19 -7.941,16.51 -1.711,6.32 -2.562,13.14 -2.562,20.49 0,12.46 2.214,24.07 6.66,34.83 4.437,10.75 10.629,20.06 18.562,27.91 7.942,7.85 17.375,14.04 28.301,18.57 10.926,4.52 22.879,6.78 35.852,6.78 6.66,0 13.359,-0.55 20.101,-1.66 6.742,-1.11 13.531,-3.2 20.363,-6.28 l -18.437,-76.57"
         style="fill:#505256;fill-opacity:1;fill-rule:nonzero;stroke:none"
         id="path206" /><path
         d="m 866.352,4325.21 c -3.426,1.19 -7.114,2.13 -11.047,2.81 -3.942,0.69 -8.571,1.03 -13.879,1.03 -2.914,0 -5.996,-0.21 -9.246,-0.63 -3.258,-0.43 -5.996,-0.99 -8.227,-1.67 l -25.719,-108.07 h -30.988 l 30.727,127.78 c 7.175,2.39 14.937,4.48 23.304,6.28 8.368,1.8 17.414,2.69 27.145,2.69 2.051,0 4.355,-0.13 6.914,-0.38 2.566,-0.26 5.078,-0.56 7.559,-0.9 2.472,-0.34 4.777,-0.76 6.914,-1.28 2.129,-0.51 3.968,-1.11 5.504,-1.79 l -8.961,-25.87"
         style="fill:#505256;fill-opacity:1;fill-rule:nonzero;stroke:none"
         id="path208" /><path
         d="m 950.082,4330.59 c -5.121,0 -9.984,-1.02 -14.594,-3.07 -4.609,-2.05 -8.707,-4.87 -12.293,-8.45 -3.586,-3.59 -6.703,-7.81 -9.347,-12.68 -2.649,-4.87 -4.571,-10.11 -5.762,-15.75 20.488,0.68 35.383,3.16 44.687,7.42 9.301,4.27 13.957,10.68 13.957,19.21 0,3.42 -1.242,6.49 -3.71,9.22 -2.477,2.74 -6.79,4.1 -12.938,4.1 z m -74.519,-63.51 c 0,11.43 1.835,22.49 5.507,33.16 3.664,10.68 8.965,20.15 15.879,28.43 6.914,8.28 15.235,14.89 24.965,19.84 9.731,4.95 20.656,7.43 32.777,7.43 12.977,0 23.051,-3.33 30.219,-9.99 7.176,-6.66 10.758,-15.19 10.758,-25.6 0,-10.76 -2.648,-19.46 -7.938,-26.12 -5.292,-6.66 -12.164,-11.87 -20.617,-15.63 -8.453,-3.75 -18.011,-6.32 -28.679,-7.68 -10.676,-1.37 -21.469,-2.22 -32.395,-2.56 -0.176,-0.35 -0.258,-0.69 -0.258,-1.03 v -2.56 c 0,-15.53 9.817,-23.3 29.449,-23.3 11.61,0 23.215,2.38 34.829,7.17 l 2.562,-25.1 c -4.094,-1.87 -9.906,-3.76 -17.418,-5.63 -7.512,-1.88 -16.047,-2.82 -25.601,-2.82 -9.567,0 -17.762,1.37 -24.586,4.1 -6.832,2.73 -12.422,6.49 -16.778,11.27 -4.351,4.78 -7.554,10.28 -9.601,16.52 -2.051,6.23 -3.074,12.93 -3.074,20.1"
         style="fill:#505256;fill-opacity:1;fill-rule:nonzero;stroke:none"
         id="path210" /><path
         d="m 1064.04,4218.68 46.35,193.6 32.27,5.12 -15.76,-65.81 c 3.41,0.85 7.12,1.66 11.12,2.43 4.01,0.77 7.97,1.15 11.89,1.15 7.5,0 13.92,-1.06 19.29,-3.2 5.38,-2.14 9.8,-5.08 13.3,-8.83 3.49,-3.76 6.05,-8.29 7.67,-13.57 1.62,-5.3 2.43,-11.02 2.43,-17.16 0,-7.34 -1.03,-15.11 -3.07,-23.31 l -16.91,-70.42 h -30.95 l 16.1,67.1 c 0.85,3.91 1.7,7.93 2.56,12.03 0.85,4.1 1.28,7.94 1.28,11.52 0,5.64 -1.5,10.37 -4.49,14.21 -2.99,3.85 -8.67,5.77 -17.05,5.77 -3.42,0 -6.85,-0.3 -10.26,-0.89 -3.42,-0.61 -6.5,-1.33 -9.24,-2.18 l -25.49,-107.56 h -31.04"
         style="fill:#505256;fill-opacity:1;fill-rule:nonzero;stroke:none"
         id="path212" /><path
         d="m 1288.88,4330.59 c -5.12,0 -9.98,-1.02 -14.59,-3.07 -4.61,-2.05 -8.71,-4.87 -12.3,-8.45 -3.58,-3.59 -6.7,-7.81 -9.34,-12.68 -2.65,-4.87 -4.57,-10.11 -5.77,-15.75 20.49,0.68 35.39,3.16 44.69,7.42 9.3,4.27 13.96,10.68 13.96,19.21 0,3.42 -1.24,6.49 -3.71,9.22 -2.48,2.74 -6.79,4.1 -12.94,4.1 z m -74.52,-63.51 c 0,11.43 1.84,22.49 5.51,33.16 3.67,10.68 8.96,20.15 15.88,28.43 6.91,8.28 15.23,14.89 24.96,19.84 9.73,4.95 20.66,7.43 32.78,7.43 12.97,0 23.05,-3.33 30.22,-9.99 7.17,-6.66 10.76,-15.19 10.76,-25.6 0,-10.76 -2.65,-19.46 -7.94,-26.12 -5.29,-6.66 -12.16,-11.87 -20.62,-15.63 -8.45,-3.75 -18.01,-6.32 -28.68,-7.68 -10.67,-1.37 -21.47,-2.22 -32.39,-2.56 -0.18,-0.35 -0.26,-0.69 -0.26,-1.03 v -2.56 c 0,-15.53 9.81,-23.3 29.45,-23.3 11.61,0 23.22,2.38 34.83,7.17 l 2.56,-25.1 c -4.1,-1.87 -9.91,-3.76 -17.42,-5.63 -7.51,-1.88 -16.05,-2.82 -25.6,-2.82 -9.57,0 -17.76,1.37 -24.59,4.1 -6.83,2.73 -12.42,6.49 -16.77,11.27 -4.35,4.78 -7.56,10.28 -9.6,16.52 -2.05,6.23 -3.08,12.93 -3.08,20.1"
         style="fill:#505256;fill-opacity:1;fill-rule:nonzero;stroke:none"
         id="path214" /><path
         d="m 1441.26,4325.21 c -3.43,1.19 -7.11,2.13 -11.05,2.81 -3.94,0.69 -8.57,1.03 -13.88,1.03 -2.91,0 -5.99,-0.21 -9.24,-0.63 -3.26,-0.43 -6,-0.99 -8.23,-1.67 l -25.72,-108.07 h -30.99 l 30.73,127.78 c 7.17,2.39 14.94,4.48 23.31,6.28 8.36,1.8 17.41,2.69 27.14,2.69 2.05,0 4.36,-0.13 6.91,-0.38 2.57,-0.26 5.08,-0.56 7.56,-0.9 2.47,-0.34 4.78,-0.76 6.92,-1.28 2.13,-0.51 3.97,-1.11 5.5,-1.79 l -8.96,-25.87"
         style="fill:#505256;fill-opacity:1;fill-rule:nonzero;stroke:none"
         id="path216" /><path
         d="m 1524.99,4330.59 c -5.12,0 -9.98,-1.02 -14.59,-3.07 -4.61,-2.05 -8.71,-4.87 -12.3,-8.45 -3.58,-3.59 -6.7,-7.81 -9.34,-12.68 -2.65,-4.87 -4.58,-10.11 -5.77,-15.75 20.49,0.68 35.38,3.16 44.69,7.42 9.3,4.27 13.96,10.68 13.96,19.21 0,3.42 -1.24,6.49 -3.72,9.22 -2.47,2.74 -6.78,4.1 -12.93,4.1 z m -74.52,-63.51 c 0,11.43 1.83,22.49 5.51,33.16 3.66,10.68 8.96,20.15 15.88,28.43 6.91,8.28 15.23,14.89 24.96,19.84 9.73,4.95 20.66,7.43 32.78,7.43 12.97,0 23.05,-3.33 30.22,-9.99 7.17,-6.66 10.76,-15.19 10.76,-25.6 0,-10.76 -2.66,-19.46 -7.94,-26.12 -5.3,-6.66 -12.17,-11.87 -20.62,-15.63 -8.45,-3.75 -18.01,-6.32 -28.68,-7.68 -10.67,-1.37 -21.47,-2.22 -32.39,-2.56 -0.18,-0.35 -0.26,-0.69 -0.26,-1.03 v -2.56 c 0,-15.53 9.81,-23.3 29.45,-23.3 11.61,0 23.21,2.38 34.83,7.17 l 2.56,-25.1 c -4.1,-1.87 -9.91,-3.76 -17.42,-5.63 -7.51,-1.88 -16.05,-2.82 -25.6,-2.82 -9.57,0 -17.76,1.37 -24.59,4.1 -6.83,2.73 -12.42,6.49 -16.78,11.27 -4.35,4.78 -7.55,10.28 -9.59,16.52 -2.06,6.23 -3.08,12.93 -3.08,20.1"
         style="fill:#505256;fill-opacity:1;fill-rule:nonzero;stroke:none"
         id="path218" /><path
         d="m 1702.72,4352.61 h 44.81 l -6.14,-25.6 h -44.77 l -19.07,-80.16 c -2.22,-9.22 -4.33,-17.42 -6.29,-24.59 -1.97,-7.17 -4.24,-13.74 -6.81,-19.71 -2.57,-5.98 -5.61,-11.57 -9.11,-16.78 -3.52,-5.21 -7.93,-10.37 -13.24,-15.49 l -26.96,4.09 c 3.24,4.1 6.27,8.24 9.09,12.42 2.82,4.19 5.37,8.63 7.68,13.32 2.3,4.7 4.44,9.82 6.41,15.37 1.95,5.54 3.71,11.73 5.24,18.56 l 30.48,128.05 c 2.04,8.71 4.82,16.52 8.32,23.43 3.5,6.92 7.85,12.72 13.06,17.42 5.21,4.68 11.44,8.28 18.7,10.75 7.25,2.47 15.66,3.71 25.22,3.71 6.83,0 13.02,-0.72 18.57,-2.18 5.54,-1.44 9.77,-2.85 12.67,-4.22 l -11.26,-24.32 c -2.23,1.01 -5.17,2 -8.84,2.94 -3.67,0.93 -7.98,1.4 -12.93,1.4 -5.12,0 -9.48,-0.72 -13.06,-2.18 -3.59,-1.44 -6.66,-3.45 -9.22,-6.01 -2.56,-2.56 -4.65,-5.67 -6.28,-9.35 -1.62,-3.67 -2.94,-7.64 -3.97,-11.9 l -2.3,-8.97"
         style="fill:#505256;fill-opacity:1;fill-rule:nonzero;stroke:none"
         id="path220" /><path
         d="m 1816.93,4329.82 c -6.66,0 -12.59,-1.92 -17.8,-5.76 -5.21,-3.84 -9.56,-8.75 -13.06,-14.73 -3.5,-5.97 -6.19,-12.51 -8.07,-19.59 -1.88,-7.09 -2.81,-13.95 -2.81,-20.61 0,-8.54 1.62,-15.29 4.86,-20.24 3.24,-4.95 8.96,-7.42 17.16,-7.42 6.66,0 12.59,1.93 17.8,5.76 5.2,3.84 9.56,8.71 13.06,14.6 3.49,5.89 6.18,12.42 8.06,19.59 1.88,7.17 2.82,14 2.82,20.49 0,8.54 -1.62,15.32 -4.86,20.35 -3.25,5.04 -8.97,7.56 -17.16,7.56 z m -23.56,-114.73 c -15.88,0 -28,4.69 -36.37,14.09 -8.36,9.38 -12.55,21.76 -12.55,37.14 0,9.89 1.54,20.13 4.61,30.72 3.08,10.58 7.77,20.23 14.09,28.94 6.31,8.7 14.25,15.87 23.82,21.51 9.55,5.63 20.82,8.45 33.8,8.45 15.88,0 27.99,-4.65 36.36,-13.95 8.37,-9.31 12.55,-21.64 12.55,-37.01 0,-10.07 -1.5,-20.4 -4.48,-30.99 -2.99,-10.58 -7.6,-20.22 -13.83,-28.93 -6.23,-8.72 -14.17,-15.88 -23.82,-21.52 -9.64,-5.63 -21.04,-8.45 -34.18,-8.45"
         style="fill:#505256;fill-opacity:1;fill-rule:nonzero;stroke:none"
         id="path222" /><path
         d="m 1981.59,4325.21 c -3.43,1.19 -7.11,2.13 -11.05,2.81 -3.94,0.69 -8.57,1.03 -13.87,1.03 -2.92,0 -6,-0.21 -9.25,-0.63 -3.26,-0.43 -6,-0.99 -8.23,-1.67 l -25.72,-108.07 h -30.98 l 30.72,127.78 c 7.18,2.39 14.94,4.48 23.31,6.28 8.36,1.8 17.41,2.69 27.14,2.69 2.05,0 4.36,-0.13 6.92,-0.38 2.56,-0.26 5.07,-0.56 7.55,-0.9 2.48,-0.34 4.78,-0.76 6.92,-1.28 2.13,-0.51 3.97,-1.11 5.5,-1.79 l -8.96,-25.87"
         style="fill:#505256;fill-opacity:1;fill-rule:nonzero;stroke:none"
         id="path224" /><path
         d="m 2176.23,4352.61 c -3.43,-9.73 -7.19,-19.84 -11.3,-30.35 -4.11,-10.5 -8.68,-21.03 -13.73,-31.62 -5.05,-10.58 -10.49,-21.13 -16.31,-31.63 -5.82,-10.5 -12.07,-20.7 -18.74,-30.6 -4.96,-7.51 -10.09,-14.72 -15.38,-21.64 -5.3,-6.91 -11.07,-13.01 -17.31,-18.31 -6.24,-5.29 -13.12,-9.56 -20.64,-12.81 -7.52,-3.23 -16.06,-4.86 -25.63,-4.86 -5.3,0 -10.05,0.6 -14.23,1.8 -4.19,1.19 -7.74,2.55 -10.64,4.09 l 9.98,24.84 c 2.4,-1.37 5.08,-2.47 8.07,-3.33 2.99,-0.85 6.28,-1.28 9.87,-1.28 8.02,0 15.07,2.09 21.13,6.27 6.06,4.19 11.57,9.86 16.53,17.03 -5.48,18.96 -10.09,39.52 -13.85,61.72 -3.76,22.2 -6.24,45.75 -7.43,70.68 h 31.25 c 0.17,-7.16 0.56,-15.1 1.16,-23.81 0.6,-8.71 1.38,-17.63 2.33,-26.76 0.95,-9.14 2.12,-18.15 3.49,-27.02 1.39,-8.88 2.94,-17.07 4.67,-24.58 5.13,8.19 9.93,16.8 14.38,25.86 4.45,9.05 8.56,18.05 12.33,27.02 3.77,8.96 7.06,17.66 9.89,26.12 2.82,8.45 5.26,16.17 7.32,23.17 h 32.79"
         style="fill:#505256;fill-opacity:1;fill-rule:nonzero;stroke:none"
         id="path226" /><path
         d="m 2250.48,4329.82 c -6.66,0 -12.59,-1.92 -17.8,-5.76 -5.21,-3.84 -9.56,-8.75 -13.06,-14.73 -3.5,-5.97 -6.19,-12.51 -8.07,-19.59 -1.88,-7.09 -2.81,-13.95 -2.81,-20.61 0,-8.54 1.62,-15.29 4.86,-20.24 3.24,-4.95 8.96,-7.42 17.16,-7.42 6.66,0 12.58,1.93 17.79,5.76 5.21,3.84 9.57,8.71 13.07,14.6 3.49,5.89 6.18,12.42 8.06,19.59 1.88,7.17 2.82,14 2.82,20.49 0,8.54 -1.62,15.32 -4.86,20.35 -3.25,5.04 -8.97,7.56 -17.16,7.56 z m -23.56,-114.73 c -15.88,0 -28,4.69 -36.37,14.09 -8.36,9.38 -12.55,21.76 -12.55,37.14 0,9.89 1.54,20.13 4.61,30.72 3.08,10.58 7.77,20.23 14.09,28.94 6.31,8.7 14.25,15.87 23.82,21.51 9.55,5.63 20.82,8.45 33.8,8.45 15.88,0 27.99,-4.65 36.36,-13.95 8.37,-9.31 12.55,-21.64 12.55,-37.01 0,-10.07 -1.5,-20.4 -4.48,-30.99 -2.99,-10.58 -7.6,-20.22 -13.83,-28.93 -6.23,-8.72 -14.17,-15.88 -23.82,-21.52 -9.64,-5.63 -21.04,-8.45 -34.18,-8.45"
         style="fill:#505256;fill-opacity:1;fill-rule:nonzero;stroke:none"
         id="path228" /><path
         d="m 2453.04,4352.61 -18.95,-79.64 c -0.86,-3.93 -1.5,-7.86 -1.92,-11.78 -0.43,-3.93 -0.64,-7.85 -0.64,-11.78 0,-4.95 0.38,-9.82 1.15,-14.6 0.77,-4.78 2.09,-9.47 3.97,-14.08 l -27.66,-4.1 c -1.02,1.88 -1.92,3.97 -2.69,6.28 -0.76,2.3 -1.49,4.65 -2.17,7.04 -4.27,-3.42 -9.56,-6.7 -15.88,-9.86 -6.32,-3.16 -13.66,-4.74 -22.02,-4.74 -7.52,0 -13.92,1.11 -19.21,3.33 -5.29,2.22 -9.6,5.25 -12.93,9.09 -3.33,3.84 -5.73,8.36 -7.17,13.57 -1.46,5.21 -2.18,10.72 -2.18,16.52 0,7.51 1.03,15.62 3.07,24.32 l 16.91,70.43 h 30.98 l -16.72,-69.65 c -2.17,-8.88 -3.25,-16.14 -3.25,-21.77 0,-2.74 0.25,-5.29 0.76,-7.69 0.52,-2.39 1.42,-4.48 2.7,-6.27 1.29,-1.79 3.09,-3.2 5.4,-4.22 2.31,-1.03 5.18,-1.54 8.6,-1.54 5.65,0 10.71,1.15 15.16,3.46 4.45,2.3 8.56,5.42 12.33,9.34 0.51,7.35 1.71,14.86 3.6,22.54 l 17.78,75.8 h 30.98"
         style="fill:#505256;fill-opacity:1;fill-rule:nonzero;stroke:none"
         id="path230" /><path
         d="m 2557.52,4412.79 h 31.75 c -0.68,-6.32 -2.14,-12.59 -4.35,-18.82 -2.22,-6.23 -4.95,-12.21 -8.2,-17.93 -3.24,-5.72 -6.78,-11.13 -10.62,-16.26 -3.84,-5.11 -7.81,-9.72 -11.91,-13.83 l -19.46,8.2 c 5.97,9.05 10.92,18.4 14.85,28.04 3.93,9.64 6.57,19.85 7.94,30.6 z m -50.96,0 h 31.75 c -0.68,-6.32 -2.13,-12.59 -4.35,-18.82 -2.22,-6.23 -4.96,-12.21 -8.2,-17.93 -3.24,-5.72 -6.79,-11.13 -10.62,-16.26 -3.85,-5.11 -7.82,-9.72 -11.91,-13.83 l -19.47,8.2 c 5.98,9.05 10.93,18.4 14.86,28.04 3.92,9.64 6.57,19.85 7.94,30.6"
         style="fill:#505256;fill-opacity:1;fill-rule:nonzero;stroke:none"
         id="path232" /></g></g></svg>
