<?xml version="1.0" encoding="UTF-8" standalone="no"?>
<svg
   xmlns:dc="http://purl.org/dc/elements/1.1/"
   xmlns:cc="http://creativecommons.org/ns#"
   xmlns:rdf="http://www.w3.org/1999/02/22-rdf-syntax-ns#"
   xmlns:svg="http://www.w3.org/2000/svg"
   xmlns="http://www.w3.org/2000/svg"
   xmlns:sodipodi="http://sodipodi.sourceforge.net/DTD/sodipodi-0.dtd"
   xmlns:inkscape="http://www.inkscape.org/namespaces/inkscape"
   version="1.1"
   id="svg2"
   xml:space="preserve"
   width="2666.6667"
   height="2666.6667"
   viewBox="0 0 2666.6667 2666.6667"
   sodipodi:docname="2._Auto_Care-03.eps"><metadata
     id="metadata8"><rdf:RDF><cc:Work
         rdf:about=""><dc:format>image/svg+xml</dc:format><dc:type
           rdf:resource="http://purl.org/dc/dcmitype/StillImage" /></cc:Work></rdf:RDF></metadata><defs
     id="defs6"><clipPath
       clipPathUnits="userSpaceOnUse"
       id="clipPath66"><path
         d="m 14463.1,6605.7 -87,0.4 c 6.3,258.5 13.7,559.9 19.4,779.5 36,-81.3 65.1,-166.3 86.4,-254.4 l 865.7,-4.2 c -99.5,-266.6 -282.8,-459.7 -499.3,-507.7 -34.5,-7.7 -69.9,-11.7 -105.9,-11.7 -0.8,0 -1.6,0 -2.4,0 l -276.9,1.3 v -3.2 m -2699.9,16.2 -2770.89,13.4 c 1.8,27.1 2.9,54.4 2.98,81.8 0.01,2 0.02,4 0.02,6.1 0.04,690.7 -560.2,1254.5 -1251.71,1257.8 h -6.16 c -334.76,0 -649.77,-130 -887.02,-366.1 -113.79,-113.2 -203.27,-244.4 -265.78,-387.2 18.8,196.9 17.17,356.1 -24.84,413.2 -2.77,3.8 -5.84,7.6 -9.21,11.3 275.97,352.2 705.17,578.2 1186.59,578.2 2.53,0 5.08,0 7.6,0 679.14,-3.3 1251.24,-455.1 1436.57,-1073.6 l 2374.55,-11.4 c 165,653.9 757,1136.8 1461,1136.8 2.5,0 5.1,0 7.5,0 296.9,-1.4 573.3,-88.6 805.8,-237.9 0.4,-110.3 1.1,-190 2,-221.3 1.2,-39.3 3.6,-89.3 6.9,-147.3 -219.2,189.7 -504.3,305.1 -816.1,306.7 h -6.2 c -334.8,0 -649.8,-130 -887,-366.2 -237.5,-236.1 -369,-550.6 -370.7,-885.5 0,-2.3 0,-4.6 0,-6.9 0,-34.2 1.4,-68.2 4.1,-101.9 m -5724.41,24.5 -506.4,2.4 v 3.3 l -132.9,0.6 h -1.31 c -82.76,0.4 -162,21.8 -235.23,60.7 21.74,152.3 41.06,311.4 57.7,462.5 l 314.49,-1.5 491.08,-75.5 12.57,-452.5"
         id="path64" /></clipPath></defs><sodipodi:namedview
     pagecolor="#ffffff"
     bordercolor="#666666"
     borderopacity="1"
     objecttolerance="10"
     gridtolerance="10"
     guidetolerance="10"
     inkscape:pageopacity="0"
     inkscape:pageshadow="2"
     inkscape:window-width="640"
     inkscape:window-height="480"
     id="namedview4" /><g
     id="g10"
     inkscape:groupmode="layer"
     inkscape:label="ink_ext_XXXXXX"
     transform="matrix(1.3333333,0,0,-1.3333333,0,2666.6667)"><g
       id="g12"
       transform="scale(0.1)"><path
         d="M 0,0 H 20000 V 20000 H 0 Z"
         style="fill:#ffffff;fill-opacity:1;fill-rule:nonzero;stroke:none"
         id="path14" /><path
         d="m 6405.04,10678.1 c -345.19,0 -686.8,23.9 -1005.55,75.8 v 1754.8 h 3458.34 c 15.87,-132.3 38.5,-275.5 69.27,-373.6 72.69,-231.7 545.03,-598.6 545.03,-598.6 0,0 6.33,5.2 17.71,14.8 v 0 c 78.71,65.8 397.96,337.8 509.09,506.6 12.87,19.5 24.37,43 34.57,69.5 0.1,0.1 0.1,0.2 0.1,0.3 0,0 0,0 0,0 15.4,39.9 28,86.5 38.3,136.4 0.3,1.5 0.6,3.1 0.9,4.7 2.6,12.4 4.9,25.1 7.2,37.8 6.2,35.4 11.4,71.9 15.7,108.4 3.7,31.5 6.8,63 9.4,93.7 h 914.5 C 10452,11413.4 8542.25,10967.4 8129.16,10870.9 7608.45,10749.3 7001.32,10678 6405.04,10678.1 m -1831.45,300.8 c -400.47,167.5 -703.97,411.2 -839.9,745.9 -92.23,227.1 -116.34,518.3 -48.96,783.9 h 888.86 v -1529.8 m 5898.81,3531.6 h -559.78 c 94.88,39 188.78,61.2 284.88,61.2 78.4,0 158.4,-14.8 241.4,-47.2 11.3,-4.4 22.4,-9.1 33.5,-14"
         style="fill:#f3f8ff;fill-opacity:1;fill-rule:nonzero;stroke:none"
         id="path16" /><path
         d="m 17382,5565.6 c -1408.9,0 -2817.8,0 -4226.7,0 351.3,41.5 655,239.1 839.6,521.8 l 27.4,-10.1 c 55.5,-20.2 113.2,-30.5 171.1,-30.5 39.7,0 79.6,4.9 118.9,14.6 l 51,13 c 0,0 5.7,238.2 12.8,531.7 l 87,-0.4 v 3.2 l 276.9,-1.3 c 0.8,0 1.6,0 2.4,0 36,0 71.4,4 105.9,11.7 V 5579.6 h 825.9 v 5639.5 c 104.1,-62.5 207,-131.7 308,-208.2 1425.3,-1079.8 1946.5,-3236.2 1399.8,-5445.3 m -4503.4,0 c -1663.8,0 -3327.28,0 -4991.02,0 571.46,73.2 1014.24,560.1 1017.1,1151.9 3.11,644.6 -516.91,1169.7 -1161.51,1172.8 -1.89,0 -3.88,0 -5.77,0 -642,0 -1163.9,-518.8 -1167.01,-1161.5 -2.88,-595.7 441.07,-1089.3 1017.23,-1163.2 -729.47,0 -1458.66,0 -2188.13,0 v 1087.1 l 132.9,-0.6 v -3.3 l 506.4,-2.4 16.28,-585.9 317.26,-14.4 c 0,0 166.58,702.5 212.31,1181.6 62.51,142.8 151.99,274 265.78,387.2 237.25,236.1 552.26,366.1 887.02,366.1 h 6.16 c 691.51,-3.3 1251.75,-567.1 1251.71,-1257.8 0,-2.1 -0.01,-4.1 -0.02,-6.1 -0.08,-27.4 -1.18,-54.7 -2.98,-81.8 v 0 0 l 2770.89,-13.4 v 0 0 0 c -2.7,33.7 -4.1,67.7 -4.1,101.9 0,2.3 0,4.6 0,6.9 1.7,334.9 133.2,649.4 370.7,885.5 237.2,236.2 552.2,366.2 887,366.2 h 6.2 c 311.8,-1.6 596.9,-117 816.1,-306.7 2.2,-40 4.9,-83.8 7.9,-130.6 -210.3,212.7 -501.8,345.1 -824.5,346.7 -1.9,0 -3.9,0 -5.8,0 -642,0 -1163.9,-518.8 -1167,-1161.5 -2.9,-599.8 447.1,-1096.1 1028.9,-1164.7 m -8305.01,0 c -443.26,0 -886.58,0 -1329.84,0 -725.86,2832.1 -256.55,3928.3 293.96,4409.4 297.79,260.3 625.63,345.9 999.3,345.9 12.14,0 24.35,0 36.58,-0.2 V 8080.3 c -133.33,-1.5 -233.55,-37 -239.81,-138 -19.6,-316 91.7,-1407.3 91.7,-1407.3 l -1211.38,-243.8 14.42,-373.9 c 0,0 509.68,-58.7 993.67,-58.7 121.58,0 241.55,3.7 351.4,13 v -306 M 14848.3,8546.2 c -91.8,72.4 -153.9,212.5 -153.1,372.7 l 0.8,152.3 152.3,-0.7 v -524.3 m -9448.81,330.4 v 541.6 c 48.96,-51.8 93.48,-97.4 128.78,-132.9 v 0 0 c 49.7,-50.1 81.19,-80.2 81.19,-80.2 l -28,-56 226.5,-63.8 v 0 0 l 70.49,-19.9 c -187.82,-61.8 -345.93,-125.7 -478.96,-188.8 m 1466.64,429.9 c -281.63,72.5 -676.95,176.4 -699.53,193.8 -32.1,25 -401.96,451.8 -767.11,646.3 v 78.1 c 115.88,-19.8 235.63,-41.3 359.5,-62.7 459.41,-79.4 975.87,-158.9 1563.33,-158.9 348.68,0 722.22,28 1124.02,100.5 -194.02,-210.1 -410.12,-445.8 -626.25,-670.2 -29.27,-3.1 -58.36,-5.4 -87.09,-8.5 -321.54,-32.5 -609.35,-72.7 -866.87,-118.4 m 7982.17,47.6 -259.8,31.2 c 13,117.6 24.3,218.7 32.6,293 78.6,2.6 155.5,6.1 227.2,10 v -334.2 m -1017.6,163.4 c -324.6,244.6 -1751.8,1320.6 -1747.3,1325.3 -436.3,12 -828.2,17.2 -1173.8,17.2 -129.2,0 -251.7,-0.7 -367.9,-2.1 860.6,470.7 1446,941.1 2696.8,950.9 25.9,0.2 56.3,0.5 90.6,0.5 130.4,0 318.7,-3.5 544.4,-25.3 l -399.5,-267.1 -31.8,-21.2 -169.8,2.7 h -0.4 l -78.4,1.3 -177.2,2.6 -368.7,6 -302.5,4.9 h -0.7 l -48,0.9 h -12.4 c 0,0 -48.9,-183 -7,-267.5 26.5,-6.2 52.5,-12.5 77.8,-18.8 274.9,-65.3 494.7,-111.9 670.8,-144.3 71.8,-12.7 136.5,-23.6 195,-32.7 92.8,-13.8 177.3,-19.5 253.5,-19.5 126.4,0 230.2,15.7 311.8,35.9 l 66.5,13.3 c -0.8,-7.1 -1.5,-14.3 -2.3,-21.4 -0.8,-7.7 -1.7,-15.4 -2.5,-23.1 -11.3,-107.2 -19,-214.9 -24.2,-320.4 -1.7,-37.7 -3.2,-75.2 -4.2,-111.9 -5.5,-183.3 -3.7,-354.9 0.7,-496.6 1.3,-39.8 2.6,-77.7 4.3,-112.2 3.3,-75.9 7.1,-138.6 10.2,-184 h -3.2 c 0,0 -0.3,-116.5 -0.6,-293.4"
         style="fill:#f3f8ff;fill-opacity:1;fill-rule:nonzero;stroke:none"
         id="path18" /><path
         d="m 4573.59,5509.6 h 825.898 v 7853.02 H 4573.59 Z"
         style="fill:#dceeff;fill-opacity:1;fill-rule:nonzero;stroke:none"
         id="path20" /><path
         d="m 14848.3,5579.6 h 825.898 v 7853.01 H 14848.3 Z"
         style="fill:#dceeff;fill-opacity:1;fill-rule:nonzero;stroke:none"
         id="path22" /><path
         d="m 3635.7,12508.7 h 12948.4 v 2001.76 H 3635.7 Z"
         style="fill:#dceeff;fill-opacity:1;fill-rule:nonzero;stroke:none"
         id="path24" /><path
         d="m 17192.7,5514.8 c 157.9,314.8 174.4,686.2 334.1,1000.2 66,129.7 154.9,246.4 228.5,372 76.7,130.7 136.6,271.3 177.9,417.2 51.3,181.2 77.6,378.1 194.1,526.1 60.7,77.1 141.9,135 221.9,191.8 66.4,47.2 132.9,94.4 199.3,141.6 55,39 132.9,77.7 183.8,33.5 8.1,-7 14.8,-16.1 16.9,-26.5 6.4,-31.7 -28.2,-54.4 -55.8,-71.2 -133,-81.1 -204.7,-237.1 -226.6,-391.3 -22,-154.3 -1.7,-310.9 8.4,-466.4 10,-155.4 8.6,-316.8 -53.1,-459.8 -48.5,-112.7 -131.2,-206.4 -205.1,-304.3 -71.7,-95.1 -136.8,-197.6 -169.9,-312 -27.5,-95.1 -32.6,-197.3 -75.4,-286.5 -43.1,-89.6 -120.4,-157.6 -197.9,-220.1 -133.5,-107.8 -282,-210.4 -452.4,-230.8"
         style="fill:#10ac85;fill-opacity:1;fill-rule:nonzero;stroke:none"
         id="path26" /><path
         d="m 18257,7394.6 c -29.2,-83.5 -60.8,-166.2 -92.4,-248.8 -32.1,-82.5 -65.1,-164.6 -98.6,-246.5 -33.4,-82 -68.6,-163.2 -104.2,-244.3 -35.6,-81 -71.9,-161.8 -109.5,-242 -37.9,-79.9 -76.6,-159.6 -117,-238.4 -40.6,-78.7 -81.3,-157.4 -125.7,-234.1 -44.1,-76.8 -89.8,-152.8 -138.8,-226.6 l -37.8,-54.7 -39.4,-53.5 c -13.4,-17.6 -27.4,-34.8 -41.1,-52.1 -14.3,-16.9 -29.1,-33.4 -43.6,-50.1 56.7,68 107.4,140.5 154.3,215.4 47.3,74.6 91.5,151.1 134,228.5 84.8,155 163.8,313.3 238.4,473.5 75.9,159.7 147.2,321.5 217.3,483.9 35.1,81.1 69.5,162.6 103.4,244.3 34.3,81.5 67.6,163.5 100.7,245.5"
         style="fill:#ffffff;fill-opacity:1;fill-rule:nonzero;stroke:none"
         id="path28" /><path
         d="m 17133.8,5473.1 c 27.5,133.5 -37.4,266.2 -89.4,392.1 -87.6,212.2 -142.9,448.8 -86.2,671.3 36.3,142.6 116.2,269.9 168,407.7 83,220.5 91.9,462 77.8,697.2 -14.1,235.2 -50.1,469.1 -53.5,704.7 -3.9,274.9 52,577.7 266,750.2 48.9,39.4 117.5,71 172.7,40.8 43.4,-23.7 61.3,-78.7 57.4,-128 -3.8,-49.3 -24.9,-95.4 -41.8,-141.9 -47.2,-130 -63.3,-272.1 -39,-408.2 30.8,-173.4 124,-329.1 173.9,-498 47.3,-159.8 54.9,-331.2 22,-494.6 -34.3,-170.1 -111.5,-331.3 -126.9,-504.2 -21.1,-236.3 75,-478.2 16.7,-708.1 -32.7,-128.7 -110.8,-240.3 -187.5,-348.7 -78.6,-111.2 -157.3,-222.4 -235.9,-333.7"
         style="fill:#1cd0a1;fill-opacity:1;fill-rule:nonzero;stroke:none"
         id="path30" /><path
         d="m 17457.8,7990.6 c 32.5,-201.6 35.9,-407.6 19,-611.4 -2.1,-25.4 -4.2,-50.9 -7.6,-76.3 l -4.7,-38.1 -2.4,-19 -3.1,-19 c -4.2,-25.2 -8,-50.6 -12.5,-75.7 l -15.2,-75.3 c -21.5,-99.7 -42,-199.5 -60.5,-299.8 -38.9,-200.2 -72.8,-401.4 -107.3,-602.5 -17.4,-100.6 -34.2,-201.2 -50.8,-301.8 l -50.6,-302 c 12.9,101.3 27.4,202.3 41.6,303.4 14.8,100.9 30.1,201.8 45.7,302.7 7.8,50.4 15.7,100.8 24.2,151.2 l 25.3,150.9 c 17.2,100.6 34.9,201.2 53.8,301.5 19,100.3 40.2,200.3 62.2,300 22.6,99.2 37,200 47.8,301.2 10.4,101.2 14.9,203.1 14.1,304.9 -0.5,101.9 -5.9,203.9 -19,305.1"
         style="fill:#ffffff;fill-opacity:1;fill-rule:nonzero;stroke:none"
         id="path32" /><path
         d="m 17194.4,5521.9 c 77,206.1 111.9,440.4 28.6,644.1 -132.6,323.9 -525.4,489.8 -639,820.9 -86.3,251.4 10,545.9 -107.4,784.5 -44.3,90 -115.7,163.6 -190.3,230.8 -61,55 -125,106.8 -191.5,155.1 -12.7,9.2 -26.5,18.6 -42.1,18.9 -20.4,0.4 -37.4,-14.7 -52.1,-28.8 -54.9,-52.7 -113.9,-114.9 -111.7,-191 1.6,-53.5 33.7,-100.4 57.6,-148.3 144.4,-289.4 -3.8,-646.5 84.3,-957.7 50.6,-178.6 176.7,-332.3 204.9,-515.7 25.8,-168.6 -31.9,-355.4 53.2,-503.1 40.9,-70.9 109.7,-121.3 181,-161.3 190.1,-106.5 407.3,-152.3 620.6,-196.7"
         style="fill:#10ac85;fill-opacity:1;fill-rule:nonzero;stroke:none"
         id="path34" /><path
         d="m 16261.2,7560.9 c 10.4,-94.4 24.2,-188.4 40.9,-281.8 16.3,-93.5 35.6,-186.4 57.4,-278.7 22.1,-92.2 46.9,-183.7 74.5,-274.4 l 22.1,-67.5 11.1,-33.8 c 3.9,-11.2 8.1,-22.2 12.1,-33.4 l 24.5,-66.7 c 8.6,-22 17.9,-43.8 26.8,-65.7 70.7,-175.8 162.6,-342.4 264.3,-502.3 50.8,-80 105.6,-157.5 162.8,-233.2 56.9,-75.9 116.9,-149.6 180.8,-219.9 -133,135.9 -249.8,287.2 -355.5,445.4 -13.6,19.5 -25.9,39.9 -38.8,59.9 l -19.1,30.2 c -6.3,10.1 -12.2,20.5 -18.2,30.7 l -36.2,61.5 -34.4,62.7 c -11.7,20.7 -22.3,42 -33,63.3 -10.6,21.4 -21.7,42.4 -31.9,64 -19.5,43.4 -40.6,86.2 -57.9,130.6 -8.8,22.2 -18,44.2 -26.5,66.4 l -24.3,67.2 c -3.9,11.2 -8.1,22.4 -11.9,33.7 l -11,34 -21.8,68 c -13,45.8 -27.3,91.2 -38.7,137.4 -5.9,23.1 -12.3,46 -17.7,69.2 l -15.9,69.5 c -20.2,93 -37.9,186.5 -52.4,280.5 -7,47 -13.4,94.1 -18.8,141.3 -5.7,47.2 -10.2,94.5 -13.3,141.9"
         style="fill:#ffffff;fill-opacity:1;fill-rule:nonzero;stroke:none"
         id="path36" /><path
         d="m 3194.38,5556.7 c 157.97,314.9 174.43,686.3 334.16,1000.3 66.01,129.7 154.91,246.4 228.5,372 76.63,130.7 136.56,271.3 177.87,417.2 51.34,181.2 77.55,378.1 194.14,526.1 60.71,77.1 141.85,135 221.82,191.8 66.44,47.2 132.89,94.4 199.34,141.6 55,39 132.88,77.7 183.82,33.5 8.07,-7 14.8,-16.1 16.91,-26.5 6.37,-31.7 -28.21,-54.4 -55.78,-71.2 -133.02,-81.1 -204.79,-237.1 -226.7,-391.3 -21.92,-154.3 -1.6,-310.9 8.41,-466.4 10.01,-155.4 8.66,-316.8 -53.03,-459.8 -48.57,-112.7 -131.24,-206.4 -205.09,-304.3 -71.71,-95.1 -136.87,-197.6 -169.96,-312 -27.49,-95.1 -32.54,-197.3 -75.42,-286.5 -43.12,-89.7 -120.38,-157.6 -197.84,-220.1 -133.57,-107.8 -282.03,-210.4 -452.43,-230.8"
         style="fill:#10ac85;fill-opacity:1;fill-rule:nonzero;stroke:none"
         id="path38" /><path
         d="m 4258.72,7436.6 c -29.26,-83.5 -60.85,-166.2 -92.39,-248.8 -32.14,-82.5 -65.1,-164.6 -98.67,-246.5 -33.31,-82 -68.59,-163.2 -104.13,-244.3 -35.67,-81 -71.95,-161.8 -109.49,-242 -37.98,-79.9 -76.68,-159.6 -117.07,-238.4 -40.51,-78.7 -81.23,-157.4 -125.65,-234.1 -44.09,-76.8 -89.84,-152.8 -138.84,-226.6 l -37.77,-54.7 -39.37,-53.5 c -13.47,-17.6 -27.44,-34.8 -41.15,-52.1 -14.28,-17 -29.1,-33.4 -43.61,-50.1 56.69,68 107.39,140.5 154.31,215.4 47.32,74.6 91.56,151.1 134.02,228.5 84.83,155 163.8,313.3 238.43,473.5 75.9,159.7 147.21,321.5 217.28,483.9 35.13,81.1 69.51,162.6 103.35,244.3 34.35,81.5 67.6,163.5 100.75,245.5"
         style="fill:#ffffff;fill-opacity:1;fill-rule:nonzero;stroke:none"
         id="path40" /><path
         d="m 3135.52,5515.1 c 27.45,133.5 -37.4,266.2 -89.42,392.1 -87.59,212.2 -142.91,448.8 -86.2,671.3 36.35,142.6 116.23,269.9 168.05,407.7 82.97,220.5 91.88,462 77.79,697.2 -14.09,235.2 -50.17,469.1 -53.52,704.7 -3.93,274.9 51.93,577.7 265.95,750.2 48.93,39.4 117.56,71 172.72,40.8 43.42,-23.7 61.28,-78.7 57.42,-128 -3.85,-49.4 -24.9,-95.4 -41.81,-141.9 -47.22,-130 -63.25,-272.1 -39.04,-408.2 30.84,-173.4 124.02,-329.1 173.98,-498 47.26,-159.8 54.88,-331.2 21.98,-494.6 -34.28,-170.1 -111.53,-331.3 -126.93,-504.2 -21.05,-236.3 75.02,-478.2 16.69,-708.1 -32.63,-128.7 -110.79,-240.3 -187.43,-348.7 -78.65,-111.2 -157.3,-222.4 -235.96,-333.7"
         style="fill:#1cd0a1;fill-opacity:1;fill-rule:nonzero;stroke:none"
         id="path42" /><path
         d="m 3459.47,8032.6 c 32.5,-201.6 35.92,-407.6 19.07,-611.4 -2.17,-25.4 -4.24,-51 -7.64,-76.3 l -4.73,-38.1 -2.39,-19 -3.08,-19 c -4.19,-25.2 -8,-50.6 -12.51,-75.7 l -15.23,-75.3 c -21.45,-99.7 -42,-199.5 -60.46,-299.8 -38.87,-200.2 -72.78,-401.4 -107.33,-602.5 -17.34,-100.6 -34.18,-201.2 -50.8,-301.8 l -50.57,-302 c 12.87,101.3 27.4,202.3 41.62,303.3 14.8,101 30.08,201.9 45.72,302.8 7.73,50.4 15.7,100.8 24.16,151.1 l 25.33,151 c 17.18,100.6 34.87,201.2 53.74,301.5 19.02,100.3 40.19,200.3 62.2,300 22.66,99.2 37.07,200 47.87,301.2 10.35,101.2 14.84,203.1 14.04,304.9 -0.43,101.9 -5.88,203.9 -19.01,305.1"
         style="fill:#ffffff;fill-opacity:1;fill-rule:nonzero;stroke:none"
         id="path44" /><path
         d="m 3196.06,5563.9 c 77.07,206.1 111.99,440.4 28.62,644.1 -132.59,323.9 -525.41,489.8 -638.99,820.9 -86.3,251.4 9.99,545.9 -107.41,784.5 -44.3,90 -115.7,163.6 -190.22,230.8 -61.08,55 -125.06,106.8 -191.6,155.1 -12.62,9.2 -26.4,18.6 -42.01,18.9 -20.41,0.3 -37.42,-14.7 -52.15,-28.8 -54.9,-52.7 -113.93,-114.9 -111.69,-191 1.58,-53.5 33.7,-100.4 57.59,-148.3 144.43,-289.5 -3.78,-646.5 84.35,-957.8 50.55,-178.5 176.71,-332.2 204.82,-515.6 25.85,-168.6 -31.92,-355.4 53.28,-503.1 40.86,-70.9 109.63,-121.3 180.99,-161.3 190.09,-106.5 407.24,-152.3 620.58,-196.7"
         style="fill:#10ac85;fill-opacity:1;fill-rule:nonzero;stroke:none"
         id="path46" /><path
         d="m 2262.9,7602.9 c 10.43,-94.4 24.2,-188.4 40.95,-281.8 16.31,-93.5 35.53,-186.4 57.36,-278.7 22.12,-92.2 46.91,-183.8 74.5,-274.4 l 22.11,-67.6 11.12,-33.7 c 3.83,-11.2 8.08,-22.3 12.11,-33.4 l 24.47,-66.7 c 8.61,-22 17.87,-43.8 26.77,-65.7 70.75,-175.8 162.59,-342.4 264.28,-502.3 50.79,-80 105.64,-157.5 162.81,-233.2 56.9,-75.9 116.88,-149.6 180.79,-219.9 -132.97,135.9 -249.79,287.2 -355.5,445.4 -13.55,19.5 -25.82,39.9 -38.79,59.9 l -19.06,30.2 c -6.26,10.1 -12.16,20.4 -18.26,30.7 l -36.2,61.5 -34.33,62.7 c -11.75,20.7 -22.32,42 -33.02,63.3 -10.59,21.4 -21.76,42.4 -31.87,64 -19.5,43.4 -40.67,86.2 -57.92,130.6 -8.83,22.2 -18.02,44.1 -26.56,66.4 l -24.22,67.2 c -3.97,11.2 -8.19,22.4 -11.98,33.7 l -10.97,33.9 -21.82,68 c -12.98,45.8 -27.24,91.3 -38.66,137.5 -5.86,23.1 -12.34,46 -17.68,69.2 l -15.91,69.5 c -20.23,93 -37.96,186.5 -52.46,280.5 -6.91,47 -13.34,94.1 -18.78,141.3 -5.64,47.2 -10.17,94.5 -13.28,141.9"
         style="fill:#ffffff;fill-opacity:1;fill-rule:nonzero;stroke:none"
         id="path48" /><path
         d="m 4720.41,7594 c 3.17,-149.8 29.99,-290.9 75.3,-416 112.74,-311.1 339.85,-524 602.47,-525.3 l 134.21,-0.6 v -3.3 l 949.83,-4.6 c -1.72,28.1 -2.63,56.5 -2.46,85.1 1.64,334.9 133.23,649.4 370.66,885.6 237.25,236.1 552.26,366.1 887.02,366.1 h 6.16 c 693.54,-3.4 1255.05,-570.4 1251.69,-1263.9 -0.08,-27.4 -1.18,-54.7 -2.98,-81.8 l 2770.89,-13.4 c -2.9,36 -4.3,72.2 -4.1,108.8 1.7,334.9 133.2,649.4 370.7,885.5 237.2,236.2 552.2,366.2 887,366.2 h 6.2 c 693.5,-3.4 1255,-570.3 1251.6,-1263.9 -0.1,-37.6 -1.9,-74.9 -5.4,-111.9 l 193.9,-0.9 v 3.2 l 276.9,-1.3 c 262.8,-1.3 491.8,209.3 607.6,519.4 50.6,135.2 79.6,289.3 80.4,453 l 4.5,911.7 -442.6,2.2 c -163.6,0.8 -295.8,191.6 -294.7,425 l 0.8,152.3 720.3,-3.5 c -0.3,1.3 -0.6,2.6 -1,3.8 -37.9,135.4 -155.7,233.2 -295.2,250 l -1224.3,146.9 c 0,0 -1817.5,1369.1 -1812.4,1374.4 -1643.4,45.2 -2656.02,-6.1 -2942.66,-68.3 -139.29,-30.3 -729.97,-727.7 -1320.65,-1341.1 -29.27,-3.1 -58.36,-5.4 -87.09,-8.5 C 5506.39,9200.2 4897.67,8602.2 4759.28,8415.5 l 613.71,-3 -0.1,-24.3 c -1.27,-269.4 -155.05,-486.9 -343.64,-486 l -308.3,1.5 -1.27,-271.9 c -0.09,-12.7 -0.18,-25.5 0.73,-37.8"
         style="fill:#ff9f42;fill-opacity:1;fill-rule:nonzero;stroke:none"
         id="path50" /><path
         d="m 14695.9,9071.2 -0.7,-152.3 c -1.1,-233.4 131,-424.2 294.6,-425 l 442.6,-2.1 2.1,433.2 c 0.3,50.5 -6.2,98.6 -18.1,142.7 l -720.5,3.5"
         style="fill:#ff9f42;fill-opacity:1;fill-rule:nonzero;stroke:none"
         id="path52" /><path
         d="m 4723.16,8358.7 -2.2,-455 308.19,-1.5 c 188.69,-0.9 342.48,216.6 343.79,485.9 l 0.12,24.5 -613.79,2.9 c -27.02,-35.7 -36.11,-56.8 -36.11,-56.8"
         style="fill:#ff9f42;fill-opacity:1;fill-rule:nonzero;stroke:none"
         id="path54" /><path
         d="m 14695.9,9071.2 -0.7,-152.3 c -1.1,-233.4 131,-424.2 294.6,-425 l 442.6,-2.1 2.1,433.2 c 0.3,50.5 -6.2,98.6 -18.1,142.7 l -720.5,3.5"
         style="fill:#feca58;fill-opacity:1;fill-rule:nonzero;stroke:none"
         id="path56" /><path
         d="m 4723.16,8358.7 -2.2,-455 308.19,-1.5 c 188.69,-0.9 342.48,216.6 343.79,485.9 l 0.12,24.5 -613.79,2.9 c -27.02,-35.7 -36.11,-56.8 -36.11,-56.8"
         style="fill:#feca58;fill-opacity:1;fill-rule:nonzero;stroke:none"
         id="path58" /><g
         id="g60"><g
           id="g62"
           clip-path="url(#clipPath66)"><path
             d="m 5162.95,6605.7 h 10184.7 V 8282.2 H 5162.95 Z"
             style="fill:#de8a39;fill-opacity:1;fill-rule:nonzero;stroke:none"
             id="path68" /></g></g><path
         d="m 11849.7,6730.3 c -3.1,-644.6 516.9,-1169.7 1161.5,-1172.8 644.6,-3.1 1169.7,516.9 1172.8,1161.5 3.1,644.6 -516.9,1169.6 -1161.5,1172.8 -644.6,3.1 -1169.7,-516.9 -1172.8,-1161.5"
         style="fill:#2e4051;fill-opacity:1;fill-rule:nonzero;stroke:none"
         id="path70" /><path
         d="m 13016.9,5975.8 c -1.2,0 -2.4,0 -3.7,0 -413.5,2 -747.2,338.9 -745.2,752.4 2,412.4 336.9,745.3 748.8,745.3 1.2,0 2.5,0 3.7,0 413.6,-2 747.2,-338.9 745.2,-752.5 -2,-412.4 -336.8,-745.3 -748.8,-745.2"
         style="fill:#263442;fill-opacity:1;fill-rule:nonzero;stroke:none"
         id="path72" /><path
         d="m 12667.5,6726.3 c -0.9,-192.9 154.7,-350.1 347.7,-351 192.9,-1 350.1,154.7 351,347.6 1,193 -154.7,350.1 -347.6,351.1 -193,0.9 -350.2,-154.7 -351.1,-347.7"
         style="fill:#ffffff;fill-opacity:1;fill-rule:nonzero;stroke:none"
         id="path74" /><path
         d="M 6570.39,6728.8 C 6567.28,6084.2 7087.3,5559.2 7731.9,5556 c 644.6,-3.1 1169.66,517 1172.78,1161.5 3.11,644.6 -516.91,1169.7 -1161.51,1172.8 -644.59,3.1 -1169.66,-516.9 -1172.78,-1161.5"
         style="fill:#2e4051;fill-opacity:1;fill-rule:nonzero;stroke:none"
         id="path76" /><path
         d="m 7737.46,5936.1 c -1.22,0 -2.51,0 -3.73,0 -417.62,2 -754.52,342.2 -752.51,759.8 2.02,416.4 340.15,752.5 756.09,752.5 1.22,0 2.51,0 3.73,0 417.62,-2 754.53,-342.2 752.51,-759.8 -2.01,-416.4 -340.15,-752.5 -756.09,-752.5"
         style="fill:#263442;fill-opacity:1;fill-rule:nonzero;stroke:none"
         id="path78" /><path
         d="m 7372.48,6694 c -0.98,-201.5 161.61,-365.7 363.15,-366.6 201.53,-1 365.7,161.6 366.66,363.1 0.98,201.5 -161.61,365.7 -363.14,366.7 -201.53,1 -365.7,-161.6 -366.67,-363.2"
         style="fill:#ffffff;fill-opacity:1;fill-rule:nonzero;stroke:none"
         id="path80" /><path
         d="m 11922.4,10575.5 -1128.6,-20.4 -5.7,-1187.7 2659,10.4 -1524.7,1197.7"
         style="fill:#ffffff;fill-opacity:1;fill-rule:nonzero;stroke:none"
         id="path82" /><path
         d="m 8175.39,9356.9 2442.61,9.5 5.7,1184.6 -1360.51,-24.5 -1087.8,-1169.6"
         style="fill:#ffffff;fill-opacity:1;fill-rule:nonzero;stroke:none"
         id="path84" /><path
         d="m 10474.8,8671.9 c -0.1,0 -0.3,0.1 -0.5,0.1 l -399.6,1.9 c -53.3,0.2 -96.64,45.9 -96.38,101.4 l 0.43,88.5 c 0.27,55.4 43.85,100.5 96.95,100.5 0.1,0 0.3,0 0.4,0 l 399.7,-1.9 c 53.3,-0.3 96.6,-46 96.4,-101.5 l -0.5,-88.4 c -0.2,-55.4 -43.8,-100.6 -96.9,-100.6"
         style="fill:#d18236;fill-opacity:1;fill-rule:nonzero;stroke:none"
         id="path86" /><path
         d="m 10068,9016.7 416.4,-2 c 55.5,-0.3 100.8,-46 100.5,-101.5 l -0.4,-88.4 c -0.3,-55.6 -46,-100.8 -101.5,-100.5 l -416.4,2 c -55.5,0.2 -100.76,45.9 -100.5,101.4 l 0.43,88.5 c 0.28,55.5 45.97,100.8 101.47,100.5"
         style="fill:#ffae71;fill-opacity:1;fill-rule:nonzero;stroke:none"
         id="path88" /><path
         d="m 5290.74,7933.1 c 0,0 -120.34,-1667 -302.84,-1967 -367.89,-208.9 -1759.38,-48.8 -1759.38,-48.8 l -14.42,373.9 1211.38,243.8 c 0,0 -111.3,1091.3 -91.7,1407.3 19.59,315.9 956.96,-9.2 956.96,-9.2"
         style="fill:#54a0ff;fill-opacity:1;fill-rule:nonzero;stroke:none"
         id="path90" /><path
         d="m 5028.2,8050.7 h 429.3 c 0,0 958.1,-213.8 1102.3,-409.8 C 6704.01,7445 6372.33,6046.1 6372.33,6046.1 l -317.26,14.4 -28.85,1038.4 -1312.32,201.9 314.3,749.9"
         style="fill:#54a0ff;fill-opacity:1;fill-rule:nonzero;stroke:none"
         id="path92" /><path
         d="m 7093.23,9226.1 70.53,-24.3 c 0,0 141.67,38.8 210.37,47.5 68.7,8.7 34.42,-51.5 -72.89,-86 0,0 236.18,8.9 232.06,-124.2 -4.54,-146.8 -158.66,-180.6 -377.85,-47.7 l -78.86,18.1 16.64,216.6"
         style="fill:#f9dad2;fill-opacity:1;fill-rule:nonzero;stroke:none"
         id="path94" /><path
         d="m 7583.22,8730.2 c 0,-92 -55.43,-171 -134.67,-205.4 v 208 l -88.6,53.4 -76,-53.4 v -213.6 c -86.66,30.9 -148.67,113.7 -148.67,211 0,88.6 51.37,165.1 125.98,201.4 v 688 c -74.61,36.3 -125.98,112.8 -125.98,201.5 0,91.9 55.43,170.9 134.66,205.3 v -208 l 88.61,-53.3 76.01,53.3 v 213.6 c 86.65,-30.9 148.66,-113.7 148.66,-210.9 0,-94.1 -57.81,-174.5 -139.98,-207.6 v -675.7 c 82.17,-33.2 139.98,-113.6 139.98,-207.6"
         style="fill:#223040;fill-opacity:1;fill-rule:nonzero;stroke:none"
         id="path96" /><path
         d="m 7146.89,9234.9 -21.27,-264.7 -607.52,23.7 v 0.1 l -448.66,17.5 -261.48,73.8 -226.5,63.8 28,56 c 0,0 -31.49,30.1 -81.19,80.2 -219.49,220.8 -795.1,828.7 -581.77,927.7 423.73,196.5 1173.77,-676.7 1220.1,-712.7 35.28,-27.2 980.29,-265.4 980.29,-265.4"
         style="fill:#54a0ff;fill-opacity:1;fill-rule:nonzero;stroke:none"
         id="path98" /><path
         d="m 5807.96,9085.3 -226.5,63.8 28,56 v 0 c 0,0 -31.49,30.1 -81.19,80.2 13.06,189.2 38.48,338.6 83.23,338.6 16.64,0 35.95,-20.6 58.29,-67.5 58.66,-123.2 103.87,-294.7 138.17,-471.1"
         style="fill:#4583d1;fill-opacity:1;fill-rule:nonzero;stroke:none"
         id="path100" /><path
         d="m 4279.25,9574.8 c 0.72,-50.4 4.04,-105.2 9.8,-164.8 0.58,-5.6 0.87,-11.5 1.88,-17.3 1.87,-22.7 4.9,-45 8.07,-68.9 1.73,-15.2 3.75,-30.5 5.63,-45.3 2.02,-19.2 4.47,-38.2 6.2,-56.6 3.32,-29.4 6.35,-57.8 8.94,-85.5 8.66,-88.4 14.85,-170.9 18.75,-248 1.15,-20.2 2.16,-39.5 2.88,-59 1.73,-45.1 3.32,-88.1 3.89,-129.8 0.15,-2.7 0.15,-5.3 0.3,-8.4 0.28,-25 0.57,-49.4 0.86,-73.4 0,-20 0,-39.6 -0.29,-58.8 -0.14,-19.2 -0.29,-37.9 -0.57,-56.2 -0.3,-16.3 -0.58,-32.3 -1.01,-48.1 -4.19,-190.5 -20.05,-605.9 -20.05,-605.9 0,0 1337.41,-7.4 1458.12,11.1 5.91,0.8 7.07,271.2 7.36,287.5 0.86,35.6 1.15,74.6 1.29,115.7 0,7.8 0.15,15.6 0.15,23.5 0.29,141.3 -2.74,309.3 -12.84,488 -2.16,37.8 -4.62,76.3 -7.5,115.1 -8.22,108.4 -18.88,219.2 -33.45,329.2 -1.16,8.1 -2.16,15.9 -3.32,23.8 -8.36,62.5 -18.03,124.8 -29.27,185.8 -12.12,66.6 -25.82,131.9 -41.11,195.5 -1.15,5.1 -2.45,10 -3.75,14.9 -4.17,16.3 -8.35,32.1 -12.97,47.4 -12.84,45.7 -27.11,88.1 -42.41,126.8 -2.73,6.6 -5.33,13.4 -8.07,19.9 -4.04,9.8 -8.08,19.6 -12.4,29 -8.94,20.1 -18.32,39.2 -27.84,57.2 -5.76,11 -11.68,21.8 -17.58,32.2 -1.02,1.5 -2.03,3.3 -3.03,4.9 -25.38,43.4 -51.93,80.1 -79.03,111.2 -7.36,8.5 -14.57,16.4 -22.07,24 -27.97,29.3 -56.1,52.7 -83.78,71.7 -14.28,10 -28.41,18.5 -42.11,26.1 -10.38,5.6 -20.77,10.7 -30.72,15.2 -9.37,4.3 -17.89,8 -27.12,11.4 -11.1,4.1 -22.06,7.7 -32.29,10.6 l -0.59,0.2 c -1.15,0.4 -2.3,0.7 -3.45,1 -8.23,2.3 -16.01,4.2 -23.51,5.7 -1.45,0.3 -2.88,0.6 -4.18,0.9 -51.05,10.4 -84.36,6.5 -84.36,6.5 l -79.61,-5.3 -130.37,-8.6 -210.84,-14.1 -61.28,-4 c 0,0 -18.75,1.3 -47.31,-4.9 -17.16,-3.6 -37.64,-10 -59.99,-20.9 0,0 -0.28,0 -1.73,-0.5 -30.71,-14.8 -64.75,-38.6 -97.19,-75.7 -2.75,-3.1 -5.63,-6.5 -8.37,-9.9 -27.98,-34.6 -54.22,-79.6 -75.57,-138.2 -19.76,-54.2 -35.19,-120.3 -43.84,-200.6 -6.05,-54.3 -8.65,-115.1 -7.35,-183.3"
         style="fill:#54a0ff;fill-opacity:1;fill-rule:nonzero;stroke:none"
         id="path102" /><path
         d="m 4817.67,8762.9 40.28,-25.4 c 0,0 214.04,71.4 316.51,25.5 102.46,-45.9 -41.59,-274.1 -134.15,-272.1 -92.55,2.1 -262.15,90.4 -262.15,90.4 l -68.53,10.4 108.04,171.2"
         style="fill:#f9dad2;fill-opacity:1;fill-rule:nonzero;stroke:none"
         id="path104" /><path
         d="m 3507.12,9160.1 c -2.13,-4.4 -4.23,-8.5 -6.12,-12.6 -126.95,-267.1 791.8,-494.4 1101.74,-562.7 61.97,-13.6 99.59,-21 99.59,-21 l 136.62,216.4 -685.31,424.9 251.98,140 c 0,0 266.87,595.4 338.56,813.3 -343.72,161.2 -1077.42,-680.7 -1237.06,-998.3"
         style="fill:#54a0ff;fill-opacity:1;fill-rule:nonzero;stroke:none"
         id="path106" /><path
         d="m 4858.45,10516.3 -5.32,-273.7 c -0.01,-3.4 0.27,-6.7 0.83,-10 11.37,-75.5 156.22,-189.8 156.22,-189.8 0,0 113.53,129 109.12,205 l -15.9,270.6 -244.95,-2.1"
         style="fill:#f9dad2;fill-opacity:1;fill-rule:nonzero;stroke:none"
         id="path108" /><path
         d="m 4598.11,10819.5 c -9.59,-244.2 161.01,-449.1 381.03,-457.7 220.01,-8.6 406.12,182.3 415.7,426.5 9.57,244.1 -161.02,449 -381.04,457.6 -220.01,8.7 -406.13,-182.3 -415.69,-426.4"
         style="fill:#f9dad2;fill-opacity:1;fill-rule:nonzero;stroke:none"
         id="path110" /><path
         d="m 5092.67,10305.8 c -37.97,0 -114.19,7.4 -163.67,61.5 0,0 38.3,-8.2 82.82,-8.2 34.43,0 72.57,4.9 99.6,22.1 0.01,0 0.02,0 0.03,0 l 4.37,-74.4 c 0,0 -8.87,-1 -23.15,-1"
         style="fill:#ccb3ac;fill-opacity:1;fill-rule:nonzero;stroke:none"
         id="path112" /><path
         d="m 5111.42,10381.2 c 0.01,0 0.02,0 0.03,0 v 0 c -0.01,0 -0.02,0 -0.03,0"
         style="fill:#ccb3ac;fill-opacity:1;fill-rule:nonzero;stroke:none"
         id="path114" /><path
         d="m 4876.43,10949.5 c 0,0 25.02,-209.6 -40.99,-228.2 -66.01,-18.7 -96.17,173.8 -96.17,173.8 l 137.16,54.4"
         style="fill:#2d4d66;fill-opacity:1;fill-rule:nonzero;stroke:none"
         id="path116" /><path
         d="m 5408.89,10972.1 c -58.81,279 -195.87,388.8 -354.99,409.3 -229.06,29.6 -436.49,-135.8 -469.62,-364.3 -13.93,-96.1 -5.51,-204.2 13.46,-251.4 l 133.56,129.5 172.47,71.3 271.72,45.5 175.52,-30 57.88,-9.9"
         style="fill:#54a0ff;fill-opacity:1;fill-rule:nonzero;stroke:none"
         id="path118" /><path
         d="m 4667.08,10869.7 c 17.95,15 37.15,28.4 57.2,40.4 98.58,76.5 332.17,226.8 636.3,219.5 392.5,-9.6 219.34,-319.2 32.07,-310.5 l 2.42,6.3 -1.9,-0.5 c 0,0 16.44,126.1 -136.5,138.4 -596.88,27.7 -654.83,-232.3 -654.83,-232.3 -19.29,29.8 -4.74,80.2 65.24,138.7"
         style="fill:#48dcfc;fill-opacity:1;fill-rule:nonzero;stroke:none"
         id="path120" /><path
         d="m 4568.4,10766.9 c -3.4,-86.7 50.28,-159.1 119.91,-161.9 69.63,-2.7 128.82,65.4 132.22,152 3.4,86.7 -50.29,159.2 -119.91,161.9 -69.62,2.8 -128.82,-65.3 -132.22,-152"
         style="fill:#f9dad2;fill-opacity:1;fill-rule:nonzero;stroke:none"
         id="path122" /><path
         d="m 5003.07,9610.4 c 7.96,0.1 14.34,6.7 14.24,14.6 l -4.79,418.2 c -0.1,8 -6.62,14.4 -14.59,14.3 -7.96,-0.1 -14.35,-6.7 -14.25,-14.6 l 4.8,-418.2 c 0.08,-8 6.62,-14.4 14.59,-14.3"
         style="fill:#2d4d66;fill-opacity:1;fill-rule:nonzero;stroke:none"
         id="path124" /><path
         d="m 4761.94,9982.1 c 0,0 105.52,96.2 248.24,60.7 0,0 -144.85,114.3 -156.22,189.8 -24.6,-20.1 -109.92,-101.1 -92.02,-250.5"
         style="fill:#ffffff;fill-opacity:1;fill-rule:nonzero;stroke:none"
         id="path126" /><path
         d="m 5252.3,10027.3 c 0,0 -121.95,74.2 -255.25,12.1 0,0 120.32,139.8 117.05,216.1 28,-15 127.22,-78.2 138.2,-228.2"
         style="fill:#ffffff;fill-opacity:1;fill-rule:nonzero;stroke:none"
         id="path128" /><path
         d="M 4338.96,7964.1 H 5809.9 v 158.7 H 4338.96 v -158.7"
         style="fill:#223040;fill-opacity:1;fill-rule:nonzero;stroke:none"
         id="path130" /><path
         d="m 5074.42,7935.3 h 432.64 v 216.3 h -432.64 v -216.3"
         style="fill:#48dcfc;fill-opacity:1;fill-rule:nonzero;stroke:none"
         id="path132" /><path
         d="m 5204.22,7171 5.73,53.4 13.83,-2.1 -19.56,-51.3"
         style="fill:#4583d1;fill-opacity:1;fill-rule:nonzero;stroke:none"
         id="path134" /><path
         d="m 5223.78,7222.3 -13.83,2.1 37.53,350.4 288.43,115.3 -216.32,-216.3 -95.81,-251.5"
         style="fill:#4583d1;fill-opacity:1;fill-rule:nonzero;stroke:none"
         id="path136" /><path
         d="m 6058.28,6173.1 0.4,-259 263.14,-50.5 56.06,314.9 -319.6,-5.4"
         style="fill:#f9dad2;fill-opacity:1;fill-rule:nonzero;stroke:none"
         id="path138" /><path
         d="m 6336.55,5934.8 422.79,-363.1 -744.44,-1.6 43.42,365.7 278.23,-1"
         style="fill:#223040;fill-opacity:1;fill-rule:nonzero;stroke:none"
         id="path140" /><path
         d="M 6496.72,6020.4 H 5938.4 v 199.9 h 558.32 v -199.9"
         style="fill:#48dcfc;fill-opacity:1;fill-rule:nonzero;stroke:none"
         id="path142" /><path
         d="m 3286.43,6293.1 -258.28,-20.6 -29.76,-266.3 318.29,-31.3 -30.25,318.2"
         style="fill:#f9dad2;fill-opacity:1;fill-rule:nonzero;stroke:none"
         id="path144" /><path
         d="m 3168.32,5844.1 -43.54,556.6 199.28,15.6 43.55,-556.6 -199.29,-15.6"
         style="fill:#48dcfc;fill-opacity:1;fill-rule:nonzero;stroke:none"
         id="path146" /><path
         d="m 2733.19,5575.4 -56.97,709 367.89,-14.8 20.74,-277.4 -212.93,-291.1 111.36,-145.3 h -217.61 -10.9 l -1.58,19.6"
         style="fill:#223040;fill-opacity:1;fill-rule:nonzero;stroke:none"
         id="path148" /><path
         d="m 4872.81,8778 -146.93,-232.9 -75.67,15.2 156.63,259.3 65.97,-41.6"
         style="fill:#48dcfc;fill-opacity:1;fill-rule:nonzero;stroke:none"
         id="path150" /><path
         d="m 7179.59,9260 -31.59,-316 -63.99,-8.1 15.56,340 80.02,-15.9"
         style="fill:#48dcfc;fill-opacity:1;fill-rule:nonzero;stroke:none"
         id="path152" /><path
         d="m 7045.16,10984.3 c 0,-39.4 -31.98,-71.4 -71.4,-71.4 -39.42,0 -71.39,32 -71.39,71.4 0,39.4 31.97,71.4 71.39,71.4 39.42,0 71.4,-32 71.4,-71.4"
         style="fill:#ff9f42;fill-opacity:1;fill-rule:nonzero;stroke:none"
         id="path154" /><path
         d="m 7385.63,11593.9 c 0,-18.2 -14.75,-33 -32.94,-33 -18.21,0 -32.95,14.8 -32.95,33 0,18.2 14.74,32.9 32.95,32.9 18.19,0 32.94,-14.7 32.94,-32.9"
         style="fill:#ff9f42;fill-opacity:1;fill-rule:nonzero;stroke:none"
         id="path156" /><path
         d="m 7149.49,11346.8 c 0,-27.3 -22.13,-49.5 -49.42,-49.5 -27.3,0 -49.43,22.2 -49.43,49.5 0,27.3 22.13,49.4 49.43,49.4 27.29,0 49.42,-22.1 49.42,-49.4"
         style="fill:#ff9f42;fill-opacity:1;fill-rule:nonzero;stroke:none"
         id="path158" /><path
         d="m 7555.87,11072.2 c 0,-57.6 -46.71,-104.4 -104.34,-104.4 -57.62,0 -104.34,46.8 -104.34,104.4 0,57.6 46.72,104.3 104.34,104.3 57.63,0 104.34,-46.7 104.34,-104.3"
         style="fill:#ff9f42;fill-opacity:1;fill-rule:nonzero;stroke:none"
         id="path160" /><path
         d="m 6863.93,11379.7 c 0,-75.8 -61.47,-137.3 -137.29,-137.3 -75.83,0 -137.29,61.5 -137.29,137.3 0,75.8 61.46,137.3 137.29,137.3 75.82,0 137.29,-61.5 137.29,-137.3"
         style="fill:#ff9f42;fill-opacity:1;fill-rule:nonzero;stroke:none"
         id="path162" /><path
         d="m 16802,9976.4 c 0,-39.4 -32,-71.4 -71.4,-71.4 -39.5,0 -71.4,32 -71.4,71.4 0,39.5 31.9,71.4 71.4,71.4 39.4,0 71.4,-31.9 71.4,-71.4"
         style="fill:#ff9f42;fill-opacity:1;fill-rule:nonzero;stroke:none"
         id="path164" /><path
         d="m 17142.4,10586 c 0,-18.2 -14.7,-32.9 -32.9,-32.9 -18.2,0 -33,14.7 -33,32.9 0,18.2 14.8,33 33,33 18.2,0 32.9,-14.8 32.9,-33"
         style="fill:#ff9f42;fill-opacity:1;fill-rule:nonzero;stroke:none"
         id="path166" /><path
         d="m 16906.3,10338.9 c 0,-27.3 -22.1,-49.4 -49.4,-49.4 -27.3,0 -49.4,22.1 -49.4,49.4 0,27.3 22.1,49.4 49.4,49.4 27.3,0 49.4,-22.1 49.4,-49.4"
         style="fill:#ff9f42;fill-opacity:1;fill-rule:nonzero;stroke:none"
         id="path168" /><path
         d="m 17312.7,10064.3 c 0,-57.6 -46.7,-104.3 -104.4,-104.3 -57.6,0 -104.3,46.7 -104.3,104.3 0,57.6 46.7,104.3 104.3,104.3 57.7,0 104.4,-46.7 104.4,-104.3"
         style="fill:#ff9f42;fill-opacity:1;fill-rule:nonzero;stroke:none"
         id="path170" /><path
         d="m 16620.7,10371.8 c 0,-75.8 -61.4,-137.3 -137.3,-137.3 -75.8,0 -137.2,61.5 -137.2,137.3 0,75.9 61.4,137.3 137.2,137.3 75.9,0 137.3,-61.4 137.3,-137.3"
         style="fill:#ff9f42;fill-opacity:1;fill-rule:nonzero;stroke:none"
         id="path172" /><path
         d="M 18110.9,5439.6 H 2119.11 c -30.38,0 -55,24.6 -55,55 v 48.6 c 0,30.4 24.62,55 55,55 H 18110.9 c 30.4,0 55,-24.6 55,-55 v -48.6 c 0,-30.4 -24.6,-55 -55,-55"
         style="fill:#2d4d66;fill-opacity:1;fill-rule:nonzero;stroke:none"
         id="path174" /><path
         d="m 14308.3,6111.1 -12.8,-251.2 -258.7,-10.7 -21,311.2 292.5,-49.3"
         style="fill:#f9dad2;fill-opacity:1;fill-rule:nonzero;stroke:none"
         id="path176" /><path
         d="m 14034.1,5924.6 -390.1,-359 682.5,6.3 -23.4,357.2 -269,-4.5"
         style="fill:#223040;fill-opacity:1;fill-rule:nonzero;stroke:none"
         id="path178" /><path
         d="m 14543.3,8978 c -63.7,-571.5 -136.7,-1235.6 -139.3,-1291.7 -4.7,-99.6 -40.7,-1611.9 -40.7,-1611.9 l -51,-13 c -96.5,-23.9 -196.3,-18.3 -290,15.9 l -62.5,23.1 c 0,0 -115.8,1346.5 -127.6,1722.6 -5.4,181.5 -0.9,1987.9 -0.9,1987.9 l 804.8,1.5 c 0,0 -43.6,-388.9 -92.8,-834.4"
         style="fill:#54a0ff;fill-opacity:1;fill-rule:nonzero;stroke:none"
         id="path180" /><path
         d="m 14502.8,8704 -19.1,609.4 58,-335.2 -38.9,-274.2"
         style="fill:#4583d1;fill-opacity:1;fill-rule:nonzero;stroke:none"
         id="path182" /><path
         d="m 13891.5,6037.3 h 542 v 194 h -542 v -194"
         style="fill:#aadef6;fill-opacity:1;fill-rule:nonzero;stroke:none"
         id="path184" /><path
         d="m 15249.3,9743.1 307.4,-1814.9 522.1,-1511.7 -324.2,-151.6 -838,1482.3 -568,1997.1 900.7,-1.2"
         style="fill:#54a0ff;fill-opacity:1;fill-rule:nonzero;stroke:none"
         id="path186" /><path
         d="m 16028.1,6468.2 98.9,-231.4 -227.7,-123.2 -155.6,270.4 284.4,84.2"
         style="fill:#f9dad2;fill-opacity:1;fill-rule:nonzero;stroke:none"
         id="path188" /><path
         d="m 15863.7,6180.1 -192.8,-493.8 610.4,305.4 -177.9,310.7 -239.7,-122.3"
         style="fill:#223040;fill-opacity:1;fill-rule:nonzero;stroke:none"
         id="path190" /><path
         d="m 15686.1,6218.8 486.9,238 -85.2,174.3 -486.9,-238 85.2,-174.3"
         style="fill:#aadef6;fill-opacity:1;fill-rule:nonzero;stroke:none"
         id="path192" /><path
         d="m 12306.6,11490.2 -72.2,-5.2 c 0,0 -123,71.7 -185.2,97 -62.2,25.3 -45.1,-39.6 46.8,-98.7 0,0 -219,67.3 -248.4,-58.5 -32.3,-138.7 103.6,-208.7 342.1,-139 l 78.4,-2.7 38.5,207.1"
         style="fill:#f9dad2;fill-opacity:1;fill-rule:nonzero;stroke:none"
         id="path194" /><path
         d="m 12258.7,10899.9 c 0,-92 -55.5,-170.9 -134.7,-205.3 v 208 l -88.6,53.3 -76,-53.3 v -213.7 c -86.7,31 -148.7,113.7 -148.7,211 0,88.6 51.4,165.2 126,201.4 v 688.1 c -74.6,36.2 -126,112.8 -126,201.4 0,92 55.4,170.9 134.7,205.3 v -208 l 88.6,-53.3 76,53.3 v 213.6 c 86.6,-30.9 148.7,-113.6 148.7,-210.9 0,-94.1 -57.9,-174.4 -140,-207.6 v -675.7 c 82.1,-33.2 140,-113.5 140,-207.6"
         style="fill:#223040;fill-opacity:1;fill-rule:nonzero;stroke:none"
         id="path196" /><path
         d="m 12277.1,11246.6 c 26.5,-6.2 52.5,-12.5 77.8,-18.8 274.9,-65.3 494.7,-111.9 670.8,-144.3 71.8,-12.7 136.5,-23.6 195,-32.7 469.1,-70 724.3,68.3 782.6,98.5 14.4,7.8 28.9,15.1 43,22.8 33.8,18 66.5,36 97.6,53.8 l 2.4,1.4 c 25.6,14.4 50.1,28.7 73.9,42.9 14.4,8.6 28.5,17.2 42.4,25.6 1,0.5 1.9,1 2.9,1.5 l 0.7,0.1 c 0.9,0.5 1.5,0.9 2.1,1.4 1.8,0.5 2.4,1 2.4,1 8.1,4.9 15.1,9.4 21.3,13.6 82.5,56.8 -5.8,53.8 67.9,110.5 32.2,25.1 61.8,49.1 88.8,72.1 10.2,8.9 20.1,17.6 29.6,26.2 26.8,24.2 50.7,47.4 72,69.5 107.4,111.5 148,195.3 162.8,247.5 0.8,2.6 1.5,5.3 2.1,7.8 7,27.8 6.5,45.2 5.7,51.7 l -0.1,0.8 -0.1,0.4 c 0.1,1.3 0,1.7 0,1.7 -30.6,32.3 -62.1,57.8 -93.8,77.7 v 0 c -11.2,7.1 -22.5,13.4 -33.7,19.1 -187.4,94.3 -377,6.9 -452.4,-36.8 l -0.4,-0.1 -0.6,-0.4 c -20.8,-12.5 -32.6,-20.9 -32.6,-20.9 l -1.2,-0.8 -1,-0.7 v 0 l -101.4,-67.8 -529.6,-354 -31.8,-21.2 -169.8,2.7 h -0.4 l -78.4,1.3 -177.2,2.6 -368.7,6 -302.5,4.9 h -0.7 l -48,0.9 h -12.4 c 0,0 -48.9,-183 -7,-267.5"
         style="fill:#54a0ff;fill-opacity:1;fill-rule:nonzero;stroke:none"
         id="path198" /><path
         d="m 13820,10107.1 c 1.3,-39.8 2.6,-77.7 4.3,-112.2 7.1,-163 16.4,-265.3 16.4,-265.3 37.4,-14.9 88.1,-26.5 149,-35 2.7,-0.3 5.5,-0.7 8.2,-1.1 225.8,-29.8 577.4,-20 852.2,-5.1 75.1,4.2 144.8,9 204,13.4 h 0.4 c 25.4,1.6 49.1,3.3 70.4,4.7 82.5,6.8 133.4,11.5 133.4,11.5 0,0 -12.4,74.9 -13.3,141.5 -2.1,137.5 -17.1,285.9 -26,470.5 h -0.4 c -2.3,50.1 -4.2,102.5 -5.6,158.3 -0.3,23.3 -0.7,46.9 -1,71.3 v 0.3 c 0,2.6 -0.1,5.2 -0.1,7.8 -0.4,40.5 -0.1,82.2 0.5,125.9 0.2,19 0.8,37.8 1.3,57.4 1.8,74.9 5.8,155.2 11.9,241.2 1.8,27 4,54.6 6.5,83.2 1.2,17.9 3.1,36.4 4.6,55 1.4,14.4 2.9,29.3 4.3,44.1 2.3,23.3 4.7,45.1 5.9,67.1 l 0.4,-0.1 c 0.5,5.7 0.6,11.5 1.1,16.9 l 0.1,0.3 c 4,57.6 5.8,111 5.2,160 -0.5,66.2 -4.6,125.1 -11.8,177.6 -10.5,77.7 -27.2,141.4 -47.8,193.6 -22.1,56.3 -48.7,99.2 -76.8,132 -2.8,3.3 -5.6,6.5 -8.4,9.5 -32.4,35.1 -66,57.3 -96.3,71 h -0.4 c -0.9,0.4 -1.2,0.4 -1.2,0.4 -22,10 -42.1,15.6 -58.7,18.7 -28,5.3 -46.1,3.5 -46.1,3.5 l -59.6,2.4 -204.9,8.3 -126.8,5 -77.3,3.1 c 0,0 -32.4,2.9 -81.7,-8.5 -1.3,-0.3 -2.7,-0.6 -4,-0.9 -7.3,-1.8 -14.8,-3.8 -22.7,-6.2 v 0 c -1.2,-0.4 -2.3,-0.7 -3.4,-1 h -0.1 l -0.5,-0.2 c -9.8,-3.1 -20.2,-6.8 -31,-11.2 h -0.3 c -8.6,-3.5 -16.7,-7.3 -25.7,-11.7 -9.6,-4.7 -19.4,-9.9 -29.4,-15.6 -13.1,-7.7 -26.6,-16.4 -40.2,-26.3 l -0.2,-0.2 c -26.2,-19 -52.9,-42.5 -79.3,-71.6 -7,-7.6 -13.9,-15.5 -20.7,-23.8 -25.6,-30.9 -50.4,-67.3 -73.9,-110 -0.9,-1.6 -1.9,-3.2 -2.8,-4.9 -5.5,-10.1 -11,-20.8 -16.2,-31.6 -8.8,-17.7 -17.4,-36.5 -25.6,-56.3 v 0 c -3.9,-9.2 -7.6,-18.8 -11.3,-28.5 -16.7,-43.1 -32,-91 -45.3,-143.6 -4,-14.9 -7.7,-30.4 -11.3,-46.3 -1.1,-4.7 -2.2,-9.6 -3.3,-14.4 -13.2,-62.2 -24.8,-126 -34.8,-190.9 -9.4,-59.5 -17.2,-120.1 -23.7,-181 -0.8,-7.7 -1.7,-15.4 -2.5,-23.1 -11.3,-107.2 -19,-214.9 -24.2,-320.4 -1.7,-37.7 -3.2,-75.2 -4.2,-111.9 -5.5,-183.3 -3.7,-354.9 0.7,-496.6"
         style="fill:#54a0ff;fill-opacity:1;fill-rule:nonzero;stroke:none"
         id="path200" /><path
         d="m 13786,11067.2 c 24.4,6.1 46.7,12.5 67.2,19 -0.2,-1.9 -0.4,-3.8 -0.7,-5.7 l -66.5,-13.3"
         style="fill:#c7cbd1;fill-opacity:1;fill-rule:nonzero;stroke:none"
         id="path202" /><path
         d="m 13714.5,11052.9 185,333 c -9.4,-47.3 -17.9,-95.5 -25.4,-144.4 -11.9,-61 -16.6,-107.1 -18.4,-133.9 -0.9,-7.1 -1.7,-14.2 -2.5,-21.4 -20.5,-6.5 -42.8,-12.9 -67.2,-19 l -71.5,-14.3"
         style="fill:#4583d1;fill-opacity:1;fill-rule:nonzero;stroke:none"
         id="path204" /><path
         d="m 13852.5,11080.5 c 0.3,1.9 0.5,3.8 0.7,5.7 0.8,7.2 1.6,14.3 2.5,21.4 -1.2,-17.4 -1.2,-26.7 -1.2,-26.7 l -2,-0.4 m 21.6,161 c 7.5,48.9 16,97.1 25.4,144.4 l 25,45 c -24.2,-72.4 -40,-136.5 -50.4,-189.4"
         style="fill:#4583d1;fill-opacity:1;fill-rule:nonzero;stroke:none"
         id="path206" /><path
         d="m 14654.2,12334 23.4,-264.8 c 0.3,-3.2 0.2,-6.4 -0.1,-9.7 -6,-73.8 -138.6,-194.2 -138.6,-194.2 0,0 -118.5,117.3 -119.4,191.2 l -2.7,263.1 237.4,14.4"
         style="fill:#f9dad2;fill-opacity:1;fill-rule:nonzero;stroke:none"
         id="path208" /><path
         d="m 14843.7,12695.8 c 62.9,-228.7 -53.2,-460.1 -259.2,-516.7 -206.1,-56.7 -424.1,82.7 -487,311.4 -62.9,228.7 53.1,460 259.2,516.7 206.1,56.7 424.1,-82.8 487,-311.4"
         style="fill:#f9dad2;fill-opacity:1;fill-rule:nonzero;stroke:none"
         id="path210" /><path
         d="m 14424.3,12113.8 c -3.4,0 -5.3,0.1 -5.3,0.1 l -0.7,60 c 23.9,-4.9 48.2,-7.5 72.8,-7.5 31,0 62.3,4.1 93.4,12.7 2.9,0.8 5.7,1.6 8.6,2.5 -53.6,-63.7 -145.8,-67.8 -168.8,-67.8"
         style="fill:#ccb3ac;fill-opacity:1;fill-rule:nonzero;stroke:none"
         id="path212" /><path
         d="m 14491.1,12166.4 c -24.6,0 -48.9,2.6 -72.8,7.5 l -0.1,12.3 c 21.5,-11.6 49,-15.5 76,-15.5 51.9,0 101.6,14.2 101.6,14.2 -0.9,-1.1 -1.8,-2.2 -2.7,-3.3 -2.9,-0.9 -5.7,-1.7 -8.6,-2.5 -31.1,-8.6 -62.4,-12.7 -93.4,-12.7"
         style="fill:#ccb3ac;fill-opacity:1;fill-rule:nonzero;stroke:none"
         id="path214" /><path
         d="m 14551.9,12757.3 c 0,0 22.6,-203.7 89.1,-206.7 66.5,-3.1 52.6,185.5 52.6,185.5 l -141.7,21.2"
         style="fill:#2d4d66;fill-opacity:1;fill-rule:nonzero;stroke:none"
         id="path216" /><path
         d="m 14043.6,12661.3 c -5.9,276.6 99.4,410.6 245.3,465.1 210,78.5 442.6,-32 524.3,-240.8 34.4,-87.8 50.3,-191.8 42.7,-240.6 l -154.8,92.9 -178.7,29.4 -267,-16.9 -159.2,-67 -52.6,-22.1"
         style="fill:#54a0ff;fill-opacity:1;fill-rule:nonzero;stroke:none"
         id="path218" /><path
         d="m 14767.4,12728 c -20.2,10.3 -41.3,18.7 -62.9,25.6 -110.1,50.5 -364.1,141.2 -649.9,67.1 -368.9,-95.6 -137,-350 38.1,-300.5 l -3.6,5.4 1.9,-0.1 c 0,0 -43.4,115.6 98.5,161 558.1,157.8 670.2,-75.2 670.2,-75.2 11.7,32.4 -13.2,76.8 -92.3,116.7"
         style="fill:#aadef6;fill-opacity:1;fill-rule:nonzero;stroke:none"
         id="path220" /><path
         d="m 14883.4,12652.6 c 22.3,-81.2 -12.4,-161.5 -77.7,-179.5 -65.2,-17.9 -136.1,33.4 -158.5,114.6 -22.3,81.2 12.5,161.5 77.7,179.5 65.2,17.9 136.2,-33.4 158.5,-114.6"
         style="fill:#f9dad2;fill-opacity:1;fill-rule:nonzero;stroke:none"
         id="path222" /><path
         d="m 14478.5,11436.6 c -7.6,1.1 -13,8.1 -12,15.8 l 54.4,402.3 c 1.1,7.6 8.1,13 15.8,12 7.6,-1.1 13,-8.1 12,-15.8 l -54.4,-402.3 c -1.1,-7.7 -8.1,-13 -15.8,-12"
         style="fill:#2d4d66;fill-opacity:1;fill-rule:nonzero;stroke:none"
         id="path224" /><path
         d="m 14783.4,11823.2 c 0,0 -108.6,86 -244.5,42.1 0,0 132.6,120.4 138.6,194.2 25.2,-17.8 113.2,-90.5 105.9,-236.3"
         style="fill:#ffffff;fill-opacity:1;fill-rule:nonzero;stroke:none"
         id="path226" /><path
         d="m 14305.5,11834.1 c 0,0 113.1,80 246.4,28.7 0,0 -125.9,127.4 -127.8,201.5 -26.1,-16.4 -118,-84.2 -118.6,-230.2"
         style="fill:#ffffff;fill-opacity:1;fill-rule:nonzero;stroke:none"
         id="path228" /><path
         d="m 15265.8,9630.7 -1448.2,44.2 4.7,153.9 1448.2,-44.2 -4.7,-153.9"
         style="fill:#223040;fill-opacity:1;fill-rule:nonzero;stroke:none"
         id="path230" /><path
         d="m 14551.4,9624.5 -419.7,12.8 6.4,209.9 419.7,-12.8 -6.4,-209.9"
         style="fill:#aadef6;fill-opacity:1;fill-rule:nonzero;stroke:none"
         id="path232" /><path
         d="m 12314.4,11545.3 -17.2,-310.3 -111.4,18.2 47.8,303.6 80.8,-11.5"
         style="fill:#aadef6;fill-opacity:1;fill-rule:nonzero;stroke:none"
         id="path234" /><path
         d="m 14915.9,9595.8 -4.4,-72.2 c 0,0 -87.2,-112.5 -120.4,-170.9 -33.2,-58.3 33.4,-49.9 104,33.5 0,0 -95.4,-208.3 25.4,-253.9 133.3,-50.3 220.5,75.3 182.7,320.8 l 12.9,77.4 -200.2,65.3"
         style="fill:#f9dad2;fill-opacity:1;fill-rule:nonzero;stroke:none"
         id="path236" /><path
         d="m 15150,9513.9 c 10.8,24.9 21.5,49.4 32.1,73.3 112.6,259.1 197.2,467.3 259.9,634.9 25.2,68.5 47.2,130.3 66.5,186.3 151.4,449.5 60.1,725 40.5,787.7 -5.1,15.6 -9.8,31.1 -14.9,46.3 -11.7,36.5 -23.7,71.9 -35.8,105.6 l -0.9,2.6 c -9.7,27.7 -19.5,54.4 -29.2,80.3 -6,15.7 -18.5,48.2 -18.8,49.3 l 0.1,0.7 c -0.4,1 -0.7,1.7 -1.1,2.4 -0.1,1.8 -0.5,2.4 -0.5,2.4 -225,637.1 -581.2,497.9 -606.4,470.1 v 0 c -8.9,-9.8 -17.1,-19.7 -24.7,-29.8 -125.7,-167.9 -73,-370 -43.2,-451.8 l -0.1,-0.4 0.4,-0.7 c 8.6,-22.7 14.8,-35.7 14.8,-35.7 l 0.6,-1.4 0.5,-1 v -0.1 l 48.9,-111.8 255.4,-583.4 15.4,-35.1 -32.5,-166.7 -0.1,-0.4 -15.1,-76.9 -33.7,-174 -70.6,-362 -58,-296.8 -0.1,-0.8 -9.4,-47.1 -2.1,-12.2 c 0,0 171.6,-80.2 262.1,-53.8"
         style="fill:#54a0ff;fill-opacity:1;fill-rule:nonzero;stroke:none"
         id="path238" /><path
         d="m 14868.8,9626.8 305.2,-93.4 -25,-86.1 -277.7,78.6 -2.5,100.9"
         style="fill:#aadef6;fill-opacity:1;fill-rule:nonzero;stroke:none"
         id="path240" /><path
         d="m 9998.93,12057.9 c -111.13,-168.8 -430.38,-440.8 -509.09,-506.6 -11.38,-9.6 -17.71,-14.8 -17.71,-14.8 0,0 -472.34,366.9 -545.03,598.6 -72.63,231.7 -99.91,713.8 -99.91,713.8 l 672.16,231.7 5.58,-2.2 612.07,-248.8 c 0,0 9.1,-578.7 -118.07,-771.7"
         style="fill:#ffb37b;fill-opacity:1;fill-rule:nonzero;stroke:none"
         id="path242" /><path
         d="m 10095.7,12415 c -5.5,-45.9 -12.2,-91.9 -20.8,-135.6 v -0.1 c -1.4,-7.2 -2.8,-14.4 -4.3,-21.5 -17,-80.6 -40.2,-152.1 -71.67,-199.9 -111.13,-168.8 -430.38,-440.8 -509.09,-506.6 -72.22,57.4 -467.7,379.2 -533.72,589.6 -72.63,231.7 -99.91,713.8 -99.91,713.8 l 648.72,223.7 291.38,-118.5 320.69,-130.3 c 0,0 3.3,-206.9 -21.3,-414.6"
         style="fill:#ffb37b;fill-opacity:1;fill-rule:nonzero;stroke:none"
         id="path244" /><path
         d="m 9887.4,12123.2 c -28.5,-44.6 -74.48,-98.1 -125.58,-151.8 -128.47,-135 -289.69,-271.4 -289.69,-271.4 0,0 -372.32,297.8 -429.61,485.9 -57.25,188.1 -78.73,579.5 -78.73,579.5 l 11.61,4.1 518.2,184 486.86,-203.8 c 0,0 7.15,-469.8 -93.06,-626.5"
         style="fill:#ff9f42;fill-opacity:1;fill-rule:nonzero;stroke:none"
         id="path246" /><path
         d="m 9396.41,12186.9 c -13.2,0 -26.4,4.5 -37.17,13.5 l -154.42,128.7 c -24.62,20.5 -27.95,57.1 -7.43,81.7 20.53,24.7 57.14,28 81.77,7.5 l 116.72,-97.3 323.05,276.9 c 24.33,20.9 60.98,18 81.85,-6.3 20.87,-24.3 18.05,-61 -6.3,-81.9 l -360.29,-308.8 c -10.87,-9.3 -24.33,-14 -37.78,-14"
         style="fill:#ffffff;fill-opacity:1;fill-rule:nonzero;stroke:none"
         id="path248" /><path
         d="m 9472.13,11700 c 0,0 -372.32,297.8 -429.61,485.9 -57.25,188.1 -78.73,579.5 -78.73,579.5 l 11.61,4.1 c 42.5,-123.5 227.01,-622.8 484.53,-780.1 104.5,-63.9 136.32,-54.3 214.82,-81.3 C 9546.27,11773 9472.13,11700 9472.13,11700 v 0"
         style="fill:#ed943d;fill-opacity:1;fill-rule:nonzero;stroke:none"
         id="path250" /></g></g></svg>
