<?xml version="1.0" encoding="UTF-8" standalone="no"?>
<svg
   xmlns:dc="http://purl.org/dc/elements/1.1/"
   xmlns:cc="http://creativecommons.org/ns#"
   xmlns:rdf="http://www.w3.org/1999/02/22-rdf-syntax-ns#"
   xmlns:svg="http://www.w3.org/2000/svg"
   xmlns="http://www.w3.org/2000/svg"
   xmlns:sodipodi="http://sodipodi.sourceforge.net/DTD/sodipodi-0.dtd"
   xmlns:inkscape="http://www.inkscape.org/namespaces/inkscape"
   version="1.1"
   id="svg2"
   xml:space="preserve"
   width="2666.6667"
   height="2666.6667"
   viewBox="0 0 2666.6667 2666.6667"
   sodipodi:docname="8._FarmerArtboard_3.eps"><metadata
     id="metadata8"><rdf:RDF><cc:Work
         rdf:about=""><dc:format>image/svg+xml</dc:format><dc:type
           rdf:resource="http://purl.org/dc/dcmitype/StillImage" /></cc:Work></rdf:RDF></metadata><defs
     id="defs6" /><sodipodi:namedview
     pagecolor="#ffffff"
     bordercolor="#666666"
     borderopacity="1"
     objecttolerance="10"
     gridtolerance="10"
     guidetolerance="10"
     inkscape:pageopacity="0"
     inkscape:pageshadow="2"
     inkscape:window-width="640"
     inkscape:window-height="480"
     id="namedview4" /><g
     id="g10"
     inkscape:groupmode="layer"
     inkscape:label="ink_ext_XXXXXX"
     transform="matrix(1.3333333,0,0,-1.3333333,0,2666.6667)"><g
       id="g12"
       transform="scale(0.1)"><path
         d="M 0,0 H 20000 V 20000 H 0 Z"
         style="fill:#ffffff;fill-opacity:1;fill-rule:nonzero;stroke:none"
         id="path14" /><path
         d="m 16470.8,5157.8 c -277.8,0.3 -555.8,0.7 -833.6,1.1 -50.3,277.7 -230.9,537.9 -512.7,766.6 1.1,0.1 2.2,0.2 3.3,0.3 11.1,12.9 21.5,26.2 31.7,40.2 59.4,81.4 109.6,178.9 237.7,253.6 143.8,83.8 222.2,43.5 273.8,130.7 59,99.6 30.6,277.1 -54.5,324.6 -10.8,6 -21.5,9.4 -35.4,9.4 -39.1,0 -103,-26.8 -262.2,-97.7 -85.6,-38.1 -150.8,-67.1 -196.8,-87.9 v 0 c 170.3,260.2 295.9,311.2 290.1,424.7 -5.4,105.8 -120.9,190.9 -238.8,190.9 -30.6,0 -61.2,-5.8 -90.2,-18.3 -73.7,-31.8 -132.7,-125.5 -250.8,-312.7 -22.2,-35.2 -43.8,-69.6 -65.1,-106.2 29.8,124.6 41.2,196.1 21.4,249.3 -32.1,86 -123.2,138.3 -205.8,138.3 -38.2,0 -74.4,-11.1 -102.2,-35.2 -64,-55.4 -41.8,-143.4 -71.4,-331.7 l -65.9,4832.5 h -195 l -35.2,-4529.7 c -66.1,-25.1 -132.3,-88.1 -150.8,-154.7 -23.8,-85.3 49.1,-110.4 83.2,-251.9 9.5,-39.5 13,-75.5 12.9,-109 -172.6,59.8 -356.1,113 -548.7,158.7 2.3,6.1 4.4,12.3 6.5,18.6 32.2,95.5 50.9,203.5 150.7,313.1 112,123.2 198.9,108.2 222,206.9 26.4,112.7 -53.9,273.5 -149.3,293.3 -5.3,1.1 -10.5,1.7 -15.7,1.7 -40.2,0 -85,-36.7 -241.8,-175.2 -70.2,-62.1 -123.7,-109.3 -161.3,-142.9 v 0 c 84.4,299.3 188.8,385.6 149.3,492.2 -28.6,76.9 -116.5,122.1 -207,122.1 -56.5,0 -114,-17.6 -158.7,-56.2 -60.7,-52.5 -88.9,-159.5 -145.4,-373.6 -10.6,-40.2 -20.9,-79.5 -30.2,-120.8 -9,127.8 -19.5,199.5 -54.4,244.3 -41.7,53.6 -108.8,79.9 -172.8,79.9 -62.4,0 -121.8,-25 -152,-74 -52.1,-84.6 22.7,-176.5 43.9,-447.5 v -0.4 c 6.8,-87 5.8,-162.8 1.8,-228.8 -264.4,27 -538.9,41.2 -820.3,41.2 -267.5,0 -528.7,-12.8 -780.9,-37.3 -3.7,31.1 -8.4,65.1 -13.5,102.6 -15,109.3 -38.2,188 -63.1,271 -55.5,185.4 -83.2,278.2 -137.9,322.3 -38,30.7 -85.5,44.6 -132.4,44.6 -81.9,0 -161.7,-42.5 -185.2,-112.8 -31.5,-94.3 62.3,-166.8 144.8,-425.8 v 0 0 c -33.9,28.2 -82,68 -145.2,120.1 -138.5,114.5 -179.8,146.2 -214.5,146.2 -5.2,0 -10.3,-0.7 -15.5,-2 -82.8,-20 -148.3,-162.9 -122,-260.6 23,-85.6 98.5,-70 200,-174.4 37.3,-38.3 62.5,-76.7 81.4,-114.5 -258,-46.8 -502.78,-106.3 -730.91,-176.8 14.19,14.1 25.09,26.9 32.39,38.2 -2.68,16.7 -6.18,33.3 -10.34,50.1 -24.15,97.8 -66.49,199 -41.2,345.1 28.29,164 109.62,198.1 76.05,293.8 -32.73,93.3 -150.09,174.4 -240.39,174.4 -15.35,0 -29.93,-2.3 -43.17,-7.4 -43.94,-16.7 -58.6,-57.4 -123.88,-284.7 -10.89,-37.9 -20.69,-72 -29.41,-102.4 l -11.54,846.8 1284.7,805.5 c 114.8,-93.1 280.6,-156.5 506.7,-169.8 37.4,-2.2 73,-3.3 106.7,-3.3 685.9,0 621.8,434.2 621.8,434.2 72.8,-38.3 140.5,-55.5 202.1,-55.5 209.3,0 348.8,198.9 379.1,452.1 19.9,-2 40.3,-3.7 61.2,-4.9 37.5,-2.2 73,-3.3 106.8,-3.3 685.9,0 621.8,434.2 621.8,434.2 72.8,-38.3 140.5,-55.5 202.1,-55.5 330,0 486.6,494.8 315,917.2 -130.4,320.9 -385.9,378.7 -553,378.7 -93.9,0 -160,-18.3 -160,-18.3 0,0 -139.7,227.1 -435.4,227.1 -109.8,0 -241.2,-31.4 -395,-117.4 -391.7,-219.4 -242.8,-650.3 -242.8,-650.3 -61.6,-78.9 -108.9,-169.3 -138.5,-263.7 -93.6,-0.1 -159.2,-18.3 -159.2,-18.3 0,0 -139.8,227.1 -435.4,227.1 -109.9,0 -241.3,-31.3 -395,-117.4 -391.8,-219.4 -242.9,-650.3 -242.9,-650.3 -178.8,-229.2 -236.9,-555 -94.1,-795.3 -299.6,-186.8 -943,-585 -1160.21,-695.5 l -39.36,2888.1 c 38.51,20.5 71.66,43.8 100.14,68.5 157.7,13.8 311.7,37.3 460.77,72.6 42.61,-12 85.2,-17.8 127.32,-17.8 165.04,0 323.64,88.6 453.44,234 177.4,94.8 344,215.5 497.6,367.1 529.4,522.6 718.5,1229.4 1604.1,1543.7 265.6,94.3 528.3,130 776,130 537.9,0 1006.1,-167.9 1285.2,-267.9 758.2,-271.8 1508.3,-780 2094.5,-1476.7 -42.6,-8 -84.2,-21.9 -119.5,-46.6 -93.1,-65.4 -121.2,-188.6 -142.3,-300.5 -12.9,47.5 -66.2,73.3 -115.7,73.3 -1.9,0 -3.8,0 -5.7,-0.1 -68.3,-2.8 -133.4,-46.3 -162,-108.5 -28.6,-62.1 -19.4,-139.9 22.9,-193.6 l -1.5,0.3 c -1.9,2.2 -4.5,3.7 -7,3.7 -1.3,0 -2.7,-0.4 -3.9,-1.3 l 10.9,-2.4 c 2.6,-2.9 4.1,-7.1 3,-10.9 -2.2,-8 -10.4,-12.8 -17.9,-16.5 -109.6,-54.7 -232.2,-83.4 -354.7,-83.4 -7.3,0 -14.5,0.1 -21.7,0.3 -1.4,0 -2.7,0.1 -4.1,0.1 1.4,-0.1 2.7,-0.1 4.1,-0.1 309.4,-9.4 618.9,-14.1 928.5,-14.1 159.1,0 318.2,1.3 477.3,3.7 154.9,-266.3 286.8,-551.5 390.1,-853.8 895.8,-2621.8 -930.5,-4861.1 -1034.9,-4984.8 m -6058,6040.6 c 212.1,-6.4 424.4,-9.6 636.6,-9.6 172.2,0 344.4,2.1 516.5,6.3 116.5,2.9 233.3,6.8 348.1,26.6 -56,1.1 -118.2,4.8 -157,45 -18.3,18.9 -29,43.8 -45.7,64 -13.3,16.2 -33.5,29.5 -53.6,29.5 -5,0 -10.1,-0.8 -15,-2.7 -18.5,-7 -29.4,-25.7 -38.7,-43.1 10.2,45.6 -18.8,96.5 -63.2,110.9 -8.7,2.9 -17.7,4.2 -26.8,4.2 -37.2,0 -74.6,-22.5 -89.4,-57 0.5,69.4 -0.9,144.6 -43.4,199.4 -21.7,28 -52.5,47.8 -84.5,63 -56.6,26.9 -119.3,40.8 -181.9,40.8 -19.4,0 -38.9,-1.3 -58.1,-4 -34.8,-4.9 -69.8,-14.5 -98.5,-34.7 -63.9,-44.8 -83.2,-129.3 -97.6,-206 -8.8,32.5 -45.4,50.2 -79.3,50.2 -1.3,0 -2.6,0 -3.9,0 -46.9,-1.9 -91.5,-31.8 -111.1,-74.4 -19.7,-42.6 -13.4,-96 15.7,-132.8 l -1,0.2 c -1.4,1.5 -3.1,2.5 -4.9,2.5 -0.9,0 -1.8,-0.2 -2.6,-0.8 l 7.5,-1.7 c 1.7,-2 2.7,-4.8 2,-7.4 -1.5,-5.6 -7.1,-8.8 -12.2,-11.4 -75.3,-37.5 -159.3,-57.2 -243.3,-57.2 -4.9,0 -9.8,0.1 -14.7,0.2 -1,0 -2,0.1 -3,0.1 1,0 2,-0.1 3,-0.1 M 7729.77,5169.2 c -166.29,0.2 -332.53,0.4 -498.82,0.6 l 141.95,3.8 c 0,0 12.27,36.8 12.3,88.3 0.03,37.4 -6.35,82.4 -28.43,126.8 -15.32,30.8 -38.15,61.3 -71.63,88.7 -148.52,121.5 -735.85,222.8 -749.35,357.8 -11.19,111.9 -13.11,251.6 -13.44,296.2 l 53.55,2.7 c 0,0 75.07,769.7 91.66,1368.8 v 0 c 2.08,74.6 3.25,146.5 3.25,214 0.02,167.5 -7.16,307.5 -25.48,392.4 -7.1,32.8 -15.73,75.9 -25.61,127.3 -3.41,17.6 -6.96,36.3 -10.64,55.8 16.11,-2.6 31.78,-3.8 47.03,-3.8 278.51,0 410.61,417.5 265.78,774 -110.01,270.8 -325.63,319.6 -466.62,319.6 -13.43,0 -26.19,-0.5 -38.12,-1.2 -21.6,126.5 -42.56,250 -61.91,364.5 -47.67,282.3 -85.47,509.1 -98.47,587.3 45.4,142.4 204.92,628.3 342.28,870.3 29.95,52.8 58.6,109 83.92,167.2 136.96,-22 274.75,-45.1 412.89,-68.3 366.59,-61.4 735.79,-122.8 1097.66,-163.2 8.32,-3.6 16.78,-7.3 25.26,-10.9 280.23,-118.9 499.68,-163.6 671.44,-163.6 47.1,0 90.61,3.4 130.78,9.5 l -16.96,-2178.3 -979.7,689.8 c 33.2,58 52.18,125.1 52.18,196.7 v 27.1 c 57.54,-24.8 111.57,-36.2 161.65,-36.2 330.03,0 486.57,494.8 314.95,917.3 -130.36,320.9 -385.86,378.6 -552.93,378.6 -93.97,0 -159.98,-18.3 -159.98,-18.3 0,0 -139.77,227.2 -435.4,227.2 -109.87,0 -241.3,-31.4 -395.02,-117.5 -305.04,-170.8 -282.26,-469.9 -257.25,-593.9 h -10.76 v -90.3 c -198.43,-283.2 -220.73,-690.4 67.67,-915.5 65.77,-97.3 173.65,-163.9 297.44,-173.5 0.06,0 0.11,0 0.17,0 0.29,0 0.6,0 0.9,0 0.08,0 0.14,0 0.22,-0.1 0.29,0 0.6,0 0.89,0 0.05,0 0.1,0 0.15,0 0.96,-0.1 1.89,-0.2 2.84,-0.2 0.08,0 0.18,0 0.25,0 0.25,-0.1 0.51,-0.1 0.76,-0.1 0.13,0 0.27,0 0.41,0 0.23,0 0.47,0 0.7,-0.1 0.15,0 0.3,0 0.45,0 0.23,0 0.47,0 0.71,0 0.13,0 0.28,0 0.41,0 0.24,-0.1 0.49,-0.1 0.73,-0.1 0.12,0 0.24,0 0.36,0 0.44,0 0.9,0 1.34,-0.1 0.18,0 0.34,0 0.52,0 0.19,0 0.38,0 0.58,0 0.2,0 0.39,0 0.59,0 0.19,-0.1 0.38,-0.1 0.57,-0.1 0.21,0 0.41,0 0.62,0 0.19,0 0.36,0 0.55,0 0.22,0 0.42,0 0.65,0 0.17,-0.1 0.34,-0.1 0.52,-0.1 0.24,0 0.49,0 0.74,0 0.14,0 0.29,0 0.44,0 0.37,0 0.74,0 1.12,0 0.15,-0.1 0.33,-0.1 0.48,-0.1 0.23,0 0.45,0 0.68,0 0.18,0 0.36,0 0.54,0 0.22,0 0.43,0 0.65,0 0.18,0 0.35,0 0.54,0 0.22,0 0.45,0 0.67,0 0.16,0 0.33,-0.1 0.49,-0.1 0.25,0 0.51,0 0.77,0 0.14,0 0.27,0 0.42,0 0.39,0 0.76,0 1.15,0 0.09,0 0.2,0 0.3,0 0.29,0 0.58,0 0.87,0 0.15,0 0.32,0 0.46,0 0.25,0 0.5,0 0.75,0 0.15,0 0.32,0 0.46,0 0.25,0 0.49,0 0.74,0 0.16,0 0.3,0 0.46,0 0.27,0 0.53,0 0.8,0 0.12,0 0.27,0 0.39,0 0.39,-0.1 0.79,-0.1 1.18,-0.1 h 542.54 c 107.27,0 204.59,42.7 275.92,112 l 1045.81,-844.7 -8.43,-1082.6 c -94.61,-5.7 -195.48,-72.4 -225.72,-173.5 -17.52,-58.4 -2.22,-133.4 35.72,-258.5 -48.17,3.2 -98.6,5.9 -150.95,8 -20.6,1 -41.68,1.8 -63.06,2.4 -2.59,0.1 -5.18,0.2 -7.76,0.2 -51.55,1.7 -104.59,2.9 -158.95,3.5 -25.86,0.4 -52.02,0.5 -78.43,0.6 h -13.31 c -49.59,0 -98.32,-0.5 -145.96,-1.3 -3.21,-0.1 -6.42,-0.1 -9.55,-0.2 -38.78,-0.8 -76.78,-1.8 -113.99,-3.1 -52.42,-1.8 -103.1,-4.2 -151.83,-7 -47.16,-2.7 -92.44,-5.9 -135.45,-9.5 -8.61,-0.6 -17.15,-1.3 -25.54,-2.1 -107.33,-9.5 -199.62,-21.5 -271.53,-35.4 h -0.08 c -73.55,-14.2 -125.76,-30.3 -150.82,-47.7 H 7309.7 V 6924 c -0.01,-0.2 -0.02,-0.5 -0.02,-0.8 0,-0.2 0.01,-0.5 0.02,-0.8 v -1179.9 0 0 c 1.61,-268.1 177.51,-495.1 420.07,-573.3 m -1371.25,1.7 c -17.51,0.1 -34.74,0.1 -52.26,0.1 v 70.1 h 47.26 l 5,-70.2 m -368.72,0.5 c -61.71,0.1 -123.03,0.2 -184.75,0.3 11.13,25.9 24.35,66.7 24.33,114.3 -0.01,16.8 -1.67,34.5 -5.66,52.6 -6.86,31.1 -20.52,63.5 -44.44,95.7 -106.12,142.4 -610.83,365.1 -592.66,489.4 11.81,80.8 32.59,175.7 45.68,232.2 l 100.98,-15.5 c 0,0 367.16,836.3 559.58,1390.1 v 0 c 19.78,56.9 37.07,109.4 51.12,155.8 7.99,-73.1 13.13,-129.1 14.69,-163.4 1.86,-40.5 3.55,-91.6 5.17,-150.1 v 0 0 c 1.32,-46.6 2.55,-97.9 3.71,-152.3 9.48,-450.5 14.27,-1117.2 14.27,-1117.2 l 39.54,2 -24.96,-739.3 -6.6,-194.6 m -335.56,0.5 c -810.13,1 -1620.04,2.1 -2430.18,3.1 -298.06,1470.5 -395.44,2589.5 -362.26,3443.7 177.32,9.7 286.47,57.2 353.48,114.9 h 0.03 l 918.71,-742.2 -18.89,-2430.8 c -94.09,-7.7 -178.72,-49.1 -241.61,-112 -69.94,-69.9 -113.23,-166.6 -113.23,-273.3 h 979.45 v 0 c 0,81.8 -25.45,157.7 -68.86,220.2 l 155.17,-38.7 21.19,84.9 42.44,-10.7 -15.14,-86.3 779.7,-172.8 m -1092.31,328.8 c -51.94,33.4 -112.39,54.7 -177.37,59.9 l -25.6,1874.7 819.19,513.6 -455.94,-1714.5 47.45,-7.3 L 4597,5623.3 4561.93,5500.7 M 4297.26,7396.6 V 7628 c 7.4,0 28.01,8.8 58.77,24.5 l -33.25,2437.2 c 188.51,99.9 224.85,282.9 224.85,282.9 114.99,-124.8 237.45,-178.9 355.99,-178.9 176.03,0 343.27,119.4 463.92,304 -15.27,-71.2 -41.44,-133.3 -60.51,-172.5 -28.7,-4.5 -44.22,-30.7 -56.09,-59.1 -90.8,-216.4 -98.52,-540.5 9.5,-926.2 l 30.97,-673 c -28.98,-103.8 -32.73,-212.2 -5.26,-311.9 l -46.55,-175.1 c -275.06,-170.8 -720.94,-444.8 -883.57,-527.4 v 0 c -30.76,-15.7 -51.37,-24.5 -58.77,-24.5 v -231.4 m 33.08,436.3 v 0 l -26.45,244.6 -168.24,118.5 -860.8,606.1 -0.08,0.1 c 57.29,90.9 44.04,181.1 44.04,181.1 61.4,-32.3 118.52,-46.8 170.55,-46.8 278.51,0 410.61,417.5 265.79,774 -110.02,270.8 -325.64,319.6 -466.62,319.6 -79.3,0 -135,-15.5 -135,-15.5 0,0 -15.6,25.4 -47.46,57.7 29.92,84.8 62.03,164.5 95.92,239 76.91,-53.4 166.82,-102.8 270.99,-147 236.37,-100.3 421.59,-138.1 566.49,-138 39.81,0 76.6,2.8 110.54,8 l -14.36,-1838.3 168.24,-118.5 26.45,-244.6"
         style="fill:#f2f5f8;fill-opacity:1;fill-rule:nonzero;stroke:none"
         id="path16" /><path
         d="m 14428.7,5270.8 h -329 l 48.7,6259.5 h 195 l 85.3,-6259.5"
         style="fill:#4378a2;fill-opacity:1;fill-rule:nonzero;stroke:none"
         id="path18" /><path
         d="m 14319.1,8177.3 c 78.3,0 1386.6,822.5 1386.6,822.5 l 297.7,822.6 h 86.2 l -258.5,-971.4 -1512,-947.9 v 274.2"
         style="fill:#4378a2;fill-opacity:1;fill-rule:nonzero;stroke:none"
         id="path20" /><path
         d="m 14326.9,8710 -1324,932.2 -86.2,524.9 h -78.3 l 94,-595.4 1425.8,-1151.6 -31.3,289.9"
         style="fill:#4378a2;fill-opacity:1;fill-rule:nonzero;stroke:none"
         id="path22" /><path
         d="m 15643,9697.1 c 0,0 -148.8,430.9 242.9,650.2 567.4,317.7 830.4,-109.7 830.4,-109.7 0,0 509.2,141.1 712.9,-360.3 203.7,-501.4 -54.8,-1104.7 -517,-861.8 0,0 70.5,-477.9 -728.6,-430.9 -799.1,47 -846.1,720.8 -540.6,1112.5"
         style="fill:#5cbc8a;fill-opacity:1;fill-rule:nonzero;stroke:none"
         id="path24" /><path
         d="m 11890.5,10464.8 c 0,0 -148.9,430.9 242.8,650.3 567.4,317.7 830.4,-109.7 830.4,-109.7 0,0 509.3,141 713,-360.4 203.6,-501.4 -54.9,-1104.6 -517.1,-861.7 0,0 70.5,-477.9 -728.6,-430.9 -799.1,47 -846.1,720.7 -540.5,1112.4"
         style="fill:#5cbc8a;fill-opacity:1;fill-rule:nonzero;stroke:none"
         id="path26" /><path
         d="m 13134.7,13066.7 c 0,0 7,698.6 685.3,813.5 982.5,166.6 1142.2,-585.8 1142.2,-585.8 0,0 807.6,-58.5 843.5,-887.1 35.9,-828.5 -647.8,-1566.1 -1190,-977.7 0,0 -144.2,-726 -1273.4,-246.9 -1129.2,479.2 -850.2,1475.9 -207.6,1884"
         style="fill:#5cbc8a;fill-opacity:1;fill-rule:nonzero;stroke:none"
         id="path28" /><path
         d="m 9260.21,6977.4 c -6.83,1.9 -14,3.7 -21.52,5.6 -74.35,269.1 -40.5,389.5 -126.91,454.9 -29.84,22.6 -66.56,33 -104.93,33 -4.36,0 -8.73,-0.2 -13.13,-0.4 l 8.43,1082.6 232.54,-187.8 -31.34,289.8 -199.31,140.4 16.96,2178.3 c 81.11,12.4 148.69,35.9 204.83,65.7 l 39.36,-2888.1 c -36.42,-18.6 -60.85,-29 -69.67,-29 v -274.2 l 73.18,45.9 11.54,-846.8 c -7.46,-26 -14.14,-49.3 -20.03,-69.9"
         style="fill:#b8ccdc;fill-opacity:1;fill-rule:nonzero;stroke:none"
         id="path30" /><path
         d="m 9195.52,7848.2 v 274.2 c 8.82,0 33.25,10.4 69.67,29 217.21,110.5 860.61,508.7 1160.21,695.5 32.1,-54.1 74.5,-104 128,-147.3 l -1284.7,-805.5 -73.18,-45.9"
         style="fill:#b8ccdc;fill-opacity:1;fill-rule:nonzero;stroke:none"
         id="path32" /><path
         d="m 9234.69,8365.3 -232.54,187.8 -1045.81,844.7 c 26.54,25.8 49.48,55.2 68,87.5 l 979.7,-689.8 199.31,-140.4 31.34,-289.8"
         style="fill:#b8ccdc;fill-opacity:1;fill-rule:nonzero;stroke:none"
         id="path34" /><path
         d="m 11166.8,8526.5 c -33.7,0 -69.3,1.1 -106.7,3.3 -226.1,13.3 -391.9,76.7 -506.7,169.8 -53.5,43.3 -95.9,93.2 -128,147.3 -142.8,240.3 -84.7,566.1 94.1,795.3 0,0 -148.9,430.9 242.9,650.3 153.7,86.1 285.1,117.4 395,117.4 295.6,0 435.4,-227.1 435.4,-227.1 0,0 65.6,18.2 159.2,18.3 -113.7,-361.8 30.9,-782.6 617.8,-843.8 -30.3,-253.2 -169.8,-452.1 -379.1,-452.1 -61.6,0 -129.3,17.2 -202.1,55.5 0,0 64.1,-434.2 -621.8,-434.2"
         style="fill:#c1e2d4;fill-opacity:1;fill-rule:nonzero;stroke:none"
         id="path36" /><path
         d="m 12369.8,9357.3 c -586.9,61.2 -731.5,482 -617.8,843.8 0.2,0 0.5,0 0.7,0 167.1,0 422.6,-57.8 553,-378.7 62.8,-154.6 81.6,-318.9 64.1,-465.1"
         style="fill:#5cbc8a;fill-opacity:1;fill-rule:nonzero;stroke:none"
         id="path38" /><path
         d="m 6809.45,9460.5 c -288.4,225.1 -266.1,632.3 -67.67,915.5 v -696.5 0 0 c 0.49,-81.1 25.36,-156.4 67.67,-219 m 1428.72,212.4 c -50.08,0 -104.11,11.4 -161.65,36.2 v 18.6 0 729.2 0 9.4 h -10.96 c -0.07,0 -0.14,0.1 -0.22,0.1 -31.71,21.8 -129.08,40.7 -265.18,53.3 -2.39,0.1 -4.78,0.4 -7.25,0.6 -2.85,0.2 -5.78,0.5 -8.72,0.8 -50.46,4.4 -105.85,7.8 -164.95,10.3 -13.5,0.6 -27.24,1.2 -41.2,1.5 -1.7,0.1 -3.39,0.2 -5.09,0.2 -49.69,1.6 -101.61,2.6 -155.08,2.6 h -8.72 c -327.14,0 -599.33,-29.9 -656.37,-69.4 h -0.24 c -25.01,124 -47.79,423.1 257.25,593.9 153.72,86.1 285.15,117.5 395.02,117.5 295.63,0 435.4,-227.2 435.4,-227.2 0,0 66.01,18.3 159.98,18.3 167.07,0 422.57,-57.7 552.93,-378.6 171.62,-422.5 15.08,-917.3 -314.95,-917.3"
         style="fill:#c1e2d4;fill-opacity:1;fill-rule:nonzero;stroke:none"
         id="path40" /><path
         d="m 8947.78,11092.2 c -245.64,0 -498.15,18.1 -754.26,46.6 -1099.79,483.3 -820.14,1468 -182.32,1873.1 0,0 6.95,698.5 685.26,813.5 97.86,16.6 187.67,24.1 269.87,24.1 742.96,0 872.29,-609.9 872.29,-609.9 0,0 807.58,-58.6 843.48,-887.1 16.3,-375.6 -115.3,-732.6 -314.6,-955.7 -183,-97.8 -377.32,-168 -580.76,-216.2 -99.47,28.2 -199.13,90.6 -294.53,194.2 0,0 -29.55,-148.5 -166.24,-266.8 -123.9,-10.9 -250.04,-15.8 -378.19,-15.8"
         style="fill:#c9e9d8;fill-opacity:1;fill-rule:nonzero;stroke:none"
         id="path42" /><path
         d="m 8890.22,10964.3 c -171.76,0 -391.21,44.7 -671.44,163.6 -8.48,3.6 -16.94,7.3 -25.26,10.9 256.11,-28.5 508.62,-46.6 754.26,-46.6 128.15,0 254.29,4.9 378.19,15.8 -28.48,-24.7 -61.63,-48 -100.14,-68.5 -56.14,-29.8 -123.72,-53.3 -204.83,-65.7 -40.17,-6.1 -83.68,-9.5 -130.78,-9.5 m 1023.84,198.5 c -42.12,0 -84.71,5.8 -127.32,17.8 203.44,48.2 397.76,118.4 580.76,216.2 -129.8,-145.4 -288.4,-234 -453.44,-234"
         style="fill:#c1e2d4;fill-opacity:1;fill-rule:nonzero;stroke:none"
         id="path44" /><path
         d="m 4739.74,5175.3 h -979.45 c 0,106.7 43.29,203.4 113.23,273.3 62.89,62.9 147.52,104.3 241.61,112 l 18.89,2430.8 196.32,-158.5 -26.45,244.6 -168.24,118.5 14.36,1838.3 v 0 c 68.47,10.4 125.43,30.2 172.77,55.4 v 0 l 33.25,-2437.2 c -30.76,-15.7 -51.37,-24.5 -58.77,-24.5 v -231.4 l 61.7,38.7 25.6,-1874.7 c 64.98,-5.2 125.43,-26.5 177.37,-59.9 l -20.81,-72.7 129.76,-32.5 c 43.41,-62.5 68.86,-138.4 68.86,-220.2"
         style="fill:#b8ccdc;fill-opacity:1;fill-rule:nonzero;stroke:none"
         id="path46" /><path
         d="m 4297.26,7396.6 v 0 231.4 c 7.4,0 28.01,8.8 58.77,24.5 v 0 c 162.63,82.6 608.51,356.6 883.57,527.4 l -61.45,-231 -819.19,-513.6 -61.7,-38.7"
         style="fill:#b8ccdc;fill-opacity:1;fill-rule:nonzero;stroke:none"
         id="path48" /><path
         d="m 4330.34,7832.9 -196.32,158.5 -918.71,742.2 h -0.03 c 25.41,21.9 44.79,45.3 59.49,68.6 l 0.08,-0.1 860.8,-606.1 168.24,-118.5 26.45,-244.6"
         style="fill:#b8ccdc;fill-opacity:1;fill-rule:nonzero;stroke:none"
         id="path50" /><path
         d="m 6656.11,8288.6 c -15.25,0 -30.92,1.2 -47.03,3.8 -49.7,263.5 -123.96,690.6 -191.93,1088.6 11.93,0.7 24.69,1.2 38.12,1.2 140.99,0 356.61,-48.8 466.62,-319.6 144.83,-356.5 12.73,-774 -265.78,-774 M 5286.15,8355 c -27.47,99.7 -23.72,208.1 5.26,311.9 l 11.46,-249 -16.72,-62.9"
         style="fill:#c1e2d4;fill-opacity:1;fill-rule:nonzero;stroke:none"
         id="path52" /><path
         d="m 2794.04,8616.9 c -28.5,0 -58.43,0.9 -90.08,2.8 -674.33,39.6 -714,608.2 -456.17,938.8 0,0 -125.61,363.6 204.95,548.7 129.73,72.6 240.64,99.1 333.35,99.1 158.76,0 264.24,-77.6 319.98,-134 -130.8,-371.3 -220.64,-845.1 -244.27,-1453.6 -21.55,-1.2 -44.15,-1.8 -67.76,-1.8"
         style="fill:#c9e9d8;fill-opacity:1;fill-rule:nonzero;stroke:none"
         id="path54" /><path
         d="m 2861.8,8618.7 c 23.63,608.5 113.47,1082.3 244.27,1453.6 31.86,-32.3 47.46,-57.7 47.46,-57.7 0,0 55.7,15.5 135,15.5 140.98,0 356.6,-48.8 466.62,-319.6 144.82,-356.5 12.72,-774 -265.79,-774 -52.03,0 -109.15,14.5 -170.55,46.8 0,0 13.25,-90.2 -44.04,-181.1 -14.7,-23.3 -34.08,-46.7 -59.49,-68.6 -67.01,-57.7 -176.16,-105.2 -353.48,-114.9"
         style="fill:#c1e2d4;fill-opacity:1;fill-rule:nonzero;stroke:none"
         id="path56" /><path
         d="m 3201.99,10311.3 c -626.72,435.3 -387.22,1136.1 95.8,1442.9 0,0 5.93,589.4 578.31,686.5 82.59,14 158.3,20.3 227.66,20.3 626.97,0 736.24,-514.6 736.24,-514.6 0,0 462.49,-33.6 642.43,-436.3 -0.13,-0.8 -0.26,-1.5 -0.38,-2.3 -66.17,2.6 -131.7,4 -196.51,4 -544.48,0 -1038.79,-97.4 -1440.54,-386.1 -235.75,-169.3 -464.78,-422.6 -643.01,-814.4"
         style="fill:#c9e9d8;fill-opacity:1;fill-rule:nonzero;stroke:none"
         id="path58" /><path
         d="m 4039.47,10026.3 c -144.9,-0.1 -330.12,37.7 -566.49,138 -104.17,44.2 -194.08,93.6 -270.99,147 178.23,391.8 407.26,645.1 643.01,814.4 401.75,288.7 896.06,386.1 1440.54,386.1 64.81,0 130.34,-1.4 196.51,-4 -60.05,-353.1 -87.35,-601.2 -97.32,-763.5 -1.31,-21.2 -2.32,-40.8 -3.01,-59 -1.15,-28.9 -1.7,-54.3 -1.7,-76.3 0,-38.2 -4.9,-75.9 -12.48,-111.3 -120.65,-184.6 -287.89,-304 -463.92,-304 -118.54,0 -241,54.1 -355.99,178.9 0,0 -36.34,-183 -224.85,-282.9 v 0 c -47.34,-25.2 -104.3,-45 -172.77,-55.4 v 0 c -33.94,-5.2 -70.73,-8 -110.54,-8"
         style="fill:#c1e2d4;fill-opacity:1;fill-rule:nonzero;stroke:none"
         id="path60" /><path
         d="m 15122.1,6498.7 -0.2,-0.3 c -88.9,-135.8 -140.8,-253.5 -179.6,-346.9 -2.1,-5.1 -4.2,-10.2 -6.3,-15.1 -1.6,-4 -3.3,-8 -4.9,-12 -26.2,-63.6 -46.9,-114.4 -70.9,-150.1 -24.4,7.3 -49.9,15.3 -76.2,24.1 -2.3,0.8 -4.6,1.6 -6.9,2.3 -31.4,10.6 -64,22.1 -97.6,34.6 -27.4,10.2 -55.5,21 -84.1,32.4 -6,15.6 -10.8,31.8 -14.2,47.8 -12.3,59.3 -4.5,117.1 17.6,186.3 18.3,57.2 46.4,122.2 80.9,202.2 50.1,115.8 99.8,195.4 152.7,279.3 118.1,187.2 177.1,280.9 250.8,312.7 140.9,60.9 322.3,-39.5 329,-172.6 5.8,-113.5 -119.8,-164.5 -290.1,-424.7"
         style="fill:#66cc94;fill-opacity:1;fill-rule:nonzero;stroke:none"
         id="path62" /><path
         d="m 15147.2,6901.9 c -21.9,-33.7 -43.9,-67.4 -65.4,-101.4 -21.7,-33.9 -43.3,-67.9 -64.6,-102.1 -42.7,-68.3 -85,-136.9 -126.1,-206.4 -41.5,-69.1 -81.5,-139.3 -121,-209.9 -19.3,-35.5 -39,-70.8 -57.6,-106.8 -19.3,-35.6 -36.9,-72.1 -55.5,-108.2 33.4,74 69.9,146.6 108.1,218.2 38.5,71.3 78.6,141.7 119.7,211.3 41.7,69.1 84,137.9 127.7,205.5 43.8,67.6 88.3,134.5 134.7,199.8"
         style="fill:#ffffff;fill-opacity:1;fill-rule:nonzero;stroke:none"
         id="path64" /><path
         d="m 15671,6350.3 c -51.6,-87.2 -130,-46.9 -273.8,-130.7 -128.1,-74.7 -178.3,-172.2 -237.7,-253.6 -10.2,-14 -20.6,-27.3 -31.7,-40.2 -49,-6.1 -145,11.7 -267.6,48.5 -24.4,7.3 -49.9,15.3 -76.2,24.1 -2.3,0.8 -4.6,1.6 -6.9,2.3 -31.4,10.6 -64,22.1 -97.6,34.6 17.3,57.2 54.7,120.7 102.3,182.4 72.3,93.8 168.7,183.5 256.1,241.2 6.5,4.2 34,17.1 84.2,39.8 46,20.8 111.2,49.8 196.8,87.9 216,96.2 256.6,111.2 297.6,88.3 85.1,-47.5 113.5,-225 54.5,-324.6"
         style="fill:#5cbc8a;fill-opacity:1;fill-rule:nonzero;stroke:none"
         id="path66" /><path
         d="m 15461.3,6429 c -33.1,-15.2 -66.1,-30.6 -98.9,-47.1 -32.8,-16.1 -65.4,-32.9 -98,-50.1 -32.5,-17.4 -64.9,-34.9 -97,-53.6 -32.2,-18.4 -64.2,-37.4 -95.9,-57.6 -31.6,-19.8 -63.1,-40.6 -94,-62.5 -11.8,-8.2 -23.5,-16.6 -35.1,-25.2 -3.8,-2.8 -7.6,-5.6 -11.3,-8.5 -15.2,-11.3 -30.3,-23.1 -45.1,-35.1 -35,-28.2 -69.4,-58.3 -102,-90.9 -2.3,0.8 -4.6,1.6 -6.9,2.3 32.2,36.4 67,69.8 102.9,100.4 15.9,13.7 32,26.9 48.4,39.7 4.5,3.6 9.2,7.2 13.9,10.7 40.4,30.9 81.9,59.1 123.8,85.7 64,40.2 129.3,76.1 195.2,108.2 66,32.1 132.8,60.5 200,83.6"
         style="fill:#ffffff;fill-opacity:1;fill-rule:nonzero;stroke:none"
         id="path68" /><path
         d="m 14388.3,6589.4 -0.1,-0.3 c -31.9,-138.3 -74.7,-242.3 -110.2,-323.3 -1.9,-4.5 -3.9,-8.8 -5.7,-13.1 -1.5,-3.5 -3.1,-7 -4.6,-10.4 -24.2,-55 -43.8,-98.8 -51.8,-135.6 19.4,-11 39.9,-22.2 61.4,-33.5 1.8,-1 3.8,-1.9 5.6,-3 25.7,-13.4 52.6,-26.9 80.9,-40.6 23,-11.1 46.8,-22.3 71.3,-33.4 13.5,5.6 26.6,12.4 38.8,20 44.8,28.1 76.6,68 106.8,123.8 25.1,46.1 49.1,103.3 78.6,173.5 42.8,101.7 63,181.2 83.9,265.3 46.6,187.9 70,281.8 45.5,347.6 -46.8,125.7 -220,179.4 -308,103.1 -75.2,-65.1 -31.4,-175.2 -92.4,-440.1"
         style="fill:#5cbc8a;fill-opacity:1;fill-rule:nonzero;stroke:none"
         id="path70" /><path
         d="m 14627.5,6849.3 c -8,-34.3 -16,-68.5 -24.4,-102.7 -8.2,-34.2 -16.7,-68.4 -25.3,-102.5 -17.3,-68.3 -35,-136.5 -53.9,-204.5 -18.5,-68.1 -38.6,-135.8 -59.3,-203.4 -10.6,-33.7 -21,-67.5 -32.5,-101 -10.7,-33.8 -23.1,-67 -34.7,-100.6 26.5,66 50.2,132.9 72.3,200.3 21.7,67.5 41.8,135.4 60.8,203.5 18.4,68.1 36.2,136.4 52.4,204.9 16.2,68.6 31.5,137.2 44.6,206"
         style="fill:#ffffff;fill-opacity:1;fill-rule:nonzero;stroke:none"
         id="path72" /><path
         d="m 13962.4,6845.9 c -23.8,-85.3 49.1,-110.4 83.2,-251.9 30.5,-126 -0.7,-216.7 -16.1,-303.5 -2.7,-14.8 -4.8,-29.5 -6.1,-44.3 25.7,-34.6 95.1,-84.4 192.5,-139.5 19.4,-11 39.9,-22.2 61.4,-33.5 1.8,-1 3.8,-1.9 5.6,-3 25.7,-13.4 52.6,-26.9 80.9,-40.6 25.5,45.6 43,107.6 53.1,175 15.4,102.4 13.7,217.5 -2.8,307.6 -1.2,6.6 -9.7,31.8 -25.8,77.2 -14.8,41.6 -36,100.3 -63.7,177.3 -70,194.6 -85.1,229.2 -124.5,241.3 -81.4,24.9 -210.6,-64.6 -237.7,-162.1"
         style="fill:#66cc94;fill-opacity:1;fill-rule:nonzero;stroke:none"
         id="path74" /><path
         d="m 14138.9,6761.2 c 10.5,-30 20.8,-60.2 30.2,-90.9 9.7,-30.4 18.9,-61.2 27.7,-92.1 8.7,-31.1 17.2,-62.1 24.9,-93.7 7.9,-31.5 15.2,-63.2 21.7,-95.4 6.7,-31.9 12.6,-64.3 17.4,-97.1 2,-12.4 3.8,-24.9 5.4,-37.5 0.5,-4.1 1.1,-8.1 1.5,-12.2 2,-16.5 3.7,-33.1 5.2,-49.7 3.4,-39.2 5.1,-79.1 4.4,-119.4 1.8,-1 3.8,-1.9 5.6,-3 3.4,42.4 3.4,84.6 1,125.8 -1,18.3 -2.4,36.5 -4.2,54.5 -0.5,5.1 -1,10.2 -1.7,15.3 -5,44.1 -12.2,87.4 -20.9,130 -13.3,64.7 -30.2,127.6 -49.8,188.6 -19.7,61.1 -42.2,120.4 -68.4,176.8"
         style="fill:#ffffff;fill-opacity:1;fill-rule:nonzero;stroke:none"
         id="path76" /><path
         d="m 13320.9,7159.2 -0.2,-0.4 c -44,-156.2 -58.2,-284 -67.3,-384.7 -0.4,-5.6 -0.9,-11 -1.4,-16.3 -0.4,-4.4 -0.7,-8.7 -1.1,-12.9 -5.9,-68.6 -10.4,-123.3 -22.6,-164.5 -25.5,-0.4 -52.2,-0.3 -79.9,0.1 -2.4,0 -4.9,0.2 -7.3,0.1 -33.1,0.7 -67.7,1.9 -103.5,3.8 -29.2,1.5 -59.2,3.3 -89.9,5.7 -10.5,13 -19.9,27 -27.9,41.3 -29.5,52.9 -39.4,110.4 -39.1,182.9 0.3,60.1 7.6,130.6 16.6,217.2 13,125.6 36.5,216.4 61.8,312.2 56.5,214.1 84.7,321.1 145.4,373.6 116.2,100.4 319.3,59 365.7,-65.9 39.5,-106.6 -64.9,-192.9 -149.3,-492.2"
         style="fill:#66cc94;fill-opacity:1;fill-rule:nonzero;stroke:none"
         id="path78" /><path
         d="m 13223.8,7551.4 c -10.8,-38.8 -21.6,-77.5 -31.9,-116.4 -10.6,-38.8 -20.9,-77.8 -31,-116.8 -20.2,-77.9 -40,-156.1 -58.4,-234.6 -18.9,-78.5 -36,-157.5 -52.5,-236.6 -7.8,-39.7 -16,-79.3 -22.8,-119.2 -7.8,-39.8 -13.7,-79.9 -20.6,-119.9 9.7,80.7 22.7,160.9 37.7,240.6 15.3,79.6 32.5,158.7 50.8,237.5 19.1,78.5 38.8,156.7 60.2,234.4 21.4,77.6 43.9,154.8 68.5,231"
         style="fill:#ffffff;fill-opacity:1;fill-rule:nonzero;stroke:none"
         id="path80" /><path
         d="m 13889,7182.3 c -23.1,-98.7 -110,-83.7 -222,-206.9 -99.8,-109.6 -118.5,-217.6 -150.7,-313.1 -5.5,-16.4 -11.5,-32.3 -18.2,-47.9 -44.8,-20.5 -141.8,-32.3 -269.8,-34 -25.5,-0.4 -52.2,-0.3 -79.9,0.1 -2.4,0 -4.9,0.2 -7.3,0.1 -33.1,0.7 -67.7,1.9 -103.5,3.8 -0.6,59.7 16,131.5 43,204.6 40.8,111.2 105.8,225.7 171.9,306.9 4.9,6 27.2,26.6 68.4,63.3 37.6,33.6 91.1,80.8 161.3,142.9 177.2,156.5 211.4,183 257.5,173.5 95.4,-19.8 175.7,-180.6 149.3,-293.3"
         style="fill:#5cbc8a;fill-opacity:1;fill-rule:nonzero;stroke:none"
         id="path82" /><path
         d="m 13665.4,7194.4 c -27.1,-24.3 -53.9,-48.9 -80.3,-74.5 -26.4,-25.2 -52.5,-51 -78.4,-77.2 -25.8,-26.4 -51.5,-52.8 -76.5,-80.3 -25.2,-27.1 -50,-54.9 -74.2,-83.7 -24.2,-28.3 -48,-57.6 -70.9,-87.8 -8.8,-11.3 -17.4,-22.9 -26,-34.6 -2.7,-3.8 -5.5,-7.6 -8.2,-11.4 -11.1,-15.5 -21.9,-31.2 -32.5,-47.1 -24.9,-37.4 -48.6,-76.4 -70,-117.3 -2.4,0 -4.9,0.2 -7.3,0.1 19.9,44.4 43,86.7 68.1,126.7 11,17.8 22.5,35.3 34.2,52.3 3.3,4.9 6.6,9.7 10,14.5 29.4,41.5 60.5,80.9 92.5,118.8 48.9,57.6 100.5,111.4 153.7,161.8 53.4,50.5 108.5,97.6 165.8,139.7"
         style="fill:#ffffff;fill-opacity:1;fill-rule:nonzero;stroke:none"
         id="path84" /><path
         d="m 12593.6,7025.6 v -0.4 c 11.1,-141.4 1.4,-253.5 -8.1,-341.4 -0.5,-4.8 -1,-9.6 -1.5,-14.2 -0.4,-3.8 -0.9,-7.6 -1.2,-11.3 -6.7,-59.8 -12.2,-107.4 -8.8,-144.9 21.8,-4.7 44.6,-9.2 68.6,-13.6 2,-0.3 4.2,-0.6 6.2,-1.1 28.5,-5.1 58.3,-9.9 89.4,-14.5 25.3,-3.7 51.3,-7.2 78,-10.5 11.3,9.5 21.7,19.8 31.1,30.7 34.3,40.3 52.6,87.9 64.7,150.2 10.1,51.5 15.8,113.2 23,189.1 10.3,109.8 5.6,191.7 0.3,278.2 -11.8,193.3 -17.7,289.9 -60.8,345.3 -82.4,105.9 -263.7,105.1 -324.8,5.9 -52.1,-84.6 22.7,-176.5 43.9,-447.5"
         style="fill:#5cbc8a;fill-opacity:1;fill-rule:nonzero;stroke:none"
         id="path86" /><path
         d="m 12743.8,7345.2 c 2.7,-35 5.4,-70.1 7.5,-105.2 2.5,-35.1 4.7,-70.3 6.7,-105.4 3.9,-70.4 7.6,-140.7 9.9,-211.3 2.8,-70.4 3.9,-141.1 4.5,-211.8 -0.1,-35.3 0.2,-70.7 -0.7,-106.1 -0.1,-35.4 -2,-70.8 -2.9,-106.3 5.4,70.8 8,141.8 8.8,212.7 0.5,70.9 -0.7,141.7 -3,212.4 -2.9,70.5 -6.4,141 -11.5,211.2 -5.1,70.2 -11.1,140.3 -19.3,209.8"
         style="fill:#ffffff;fill-opacity:1;fill-rule:nonzero;stroke:none"
         id="path88" /><path
         d="m 12110.4,7142.5 c 2.9,-88.6 80,-90.6 154.9,-215.3 66.9,-111.1 64.4,-207 75.7,-294.3 1.9,-15 4.3,-29.7 7.5,-44.2 34.9,-25.3 116,-52 225.5,-75.3 21.8,-4.7 44.7,-9.2 68.6,-13.6 2,-0.3 4.2,-0.6 6.2,-1.1 28.5,-5.1 58.3,-9.9 89.4,-14.5 10.7,51.2 8.8,115.5 -1.9,182.9 -16,102.3 -52.1,211.6 -94.9,292.5 -3.2,6 -18.8,27.5 -47.8,66 -26.6,35.2 -64.4,84.9 -113.9,150 -125.2,164.6 -150,193.1 -191.1,192.8 -85.2,-0.6 -181.6,-124.8 -178.2,-225.9"
         style="fill:#66cc94;fill-opacity:1;fill-rule:nonzero;stroke:none"
         id="path90" /><path
         d="m 12304.2,7114.7 c 19,-25.6 37.8,-51.2 56.1,-77.7 18.3,-26.1 36.3,-52.7 54,-79.6 17.6,-27 35.1,-54.1 51.9,-81.9 17,-27.6 33.5,-55.7 49.3,-84.4 15.9,-28.5 31.3,-57.7 45.8,-87.5 5.6,-11.2 11,-22.6 16.3,-34.1 1.8,-3.7 3.5,-7.5 5.2,-11.2 6.8,-15.1 13.4,-30.5 19.8,-45.9 14.9,-36.3 28.6,-73.9 40,-112.6 2,-0.3 4.2,-0.6 6.2,-1.1 -9.4,41.5 -22.1,81.7 -36.7,120.3 -6.5,17.1 -13.3,34.1 -20.4,50.7 -2,4.7 -4,9.4 -6.2,14.1 -18,40.6 -37.9,79.7 -58.9,117.7 -32.1,57.7 -67.1,112.7 -104.2,165 -37.1,52.4 -76.3,102.2 -118.2,148.2"
         style="fill:#ffffff;fill-opacity:1;fill-rule:nonzero;stroke:none"
         id="path92" /><path
         d="m 11284.5,7298.1 v -0.4 c -7.3,-162.1 8,-289.8 22.2,-390 0.8,-5.5 1.6,-10.9 2.3,-16.2 0.6,-4.3 1.3,-8.6 1.8,-12.8 9.9,-68.1 18,-122.4 15.5,-165.3 -24.7,-6.2 -50.7,-12.2 -77.8,-18.1 -2.4,-0.5 -4.8,-0.9 -7.1,-1.6 -32.4,-6.8 -66.3,-13.5 -101.6,-19.9 -28.8,-5.2 -58.4,-10.2 -88.9,-14.9 -13.1,10.3 -25.5,21.7 -36.6,33.9 -40.8,44.7 -63.5,98.4 -79.7,169.1 -13.4,58.6 -22.4,128.9 -33.4,215.3 -15.9,125.2 -13.7,219 -11,318.1 6.2,221.3 9.3,331.9 56.5,396.9 90.2,124.2 297.4,130.2 371,19.1 62.8,-94.7 -19.2,-202.6 -33.2,-513.2"
         style="fill:#66cc94;fill-opacity:1;fill-rule:nonzero;stroke:none"
         id="path94" /><path
         d="m 11100.7,7657.8 c -1.7,-40.2 -3.5,-80.4 -4.6,-120.6 -1.5,-40.2 -2.7,-80.5 -3.6,-120.7 -1.9,-80.6 -3.3,-161.2 -3.3,-241.9 -0.5,-80.6 0.8,-161.4 2.8,-242.3 1.4,-40.4 2.5,-80.8 4.9,-121.2 1.5,-40.5 4.9,-80.9 7.3,-121.4 -8.9,80.7 -14.5,161.8 -18.2,242.8 -3.2,81 -4.5,162 -4.6,242.8 0.7,80.8 2,161.5 5.2,241.9 3.2,80.5 7.4,160.8 14.1,240.6"
         style="fill:#ffffff;fill-opacity:1;fill-rule:nonzero;stroke:none"
         id="path96" /><path
         d="m 11832.5,7450.1 c 0,-101.4 -88,-106.6 -169,-252.1 -72.2,-129.4 -65.8,-238.9 -75.4,-339.2 -1.6,-17.2 -3.8,-34.1 -6.8,-50.8 -39,-30.2 -130.7,-63.8 -255,-94.6 -24.7,-6.2 -50.7,-12.2 -77.8,-18.1 -2.4,-0.5 -4.8,-0.9 -7.1,-1.6 -32.4,-6.8 -66.3,-13.5 -101.6,-19.9 -14.2,58 -14.5,131.7 -4.9,209.1 14.4,117.5 51.7,243.9 97.5,338 3.4,6.9 20.4,32.1 52.1,77.2 29,41.3 70.4,99.5 124.5,175.8 136.9,192.9 164.2,226.5 211.2,227.7 97.4,2.5 212.3,-135.8 212.3,-251.5"
         style="fill:#5cbc8a;fill-opacity:1;fill-rule:nonzero;stroke:none"
         id="path98" /><path
         d="m 11611.9,7410.9 c -20.7,-29.9 -41.3,-60 -61.1,-90.9 -20,-30.6 -39.5,-61.6 -58.8,-93 -19.1,-31.6 -38,-63.2 -56.2,-95.6 -18.3,-32.2 -36.1,-64.9 -53.1,-98.4 -17.2,-33.1 -33.6,-67.1 -49,-101.7 -6,-13 -11.8,-26.3 -17.4,-39.6 -1.9,-4.4 -3.7,-8.7 -5.5,-13 -7.2,-17.6 -14.2,-35.4 -20.9,-53.2 -15.7,-42.1 -29.9,-85.5 -41.4,-130.2 -2.4,-0.5 -4.8,-0.9 -7.1,-1.6 9.2,47.8 22.1,94.2 37.4,138.9 6.7,19.9 13.8,39.5 21.4,58.8 2.1,5.4 4.2,10.9 6.5,16.3 19,47.1 40.3,92.6 62.9,136.8 34.5,67.2 72.4,131.3 112.8,192.6 40.5,61.3 83.4,119.7 129.5,173.8"
         style="fill:#ffffff;fill-opacity:1;fill-rule:nonzero;stroke:none"
         id="path100" /><path
         d="m 10606.9,7002.2 0.1,-0.4 c 43,-135.2 59.1,-246.5 69.9,-334.3 0.6,-4.8 1.2,-9.5 1.8,-14.1 0.4,-3.8 0.8,-7.6 1.3,-11.3 7.2,-59.7 12.7,-107.4 24.5,-143.1 22.3,0.4 45.6,1.3 69.9,2.5 2.1,0.1 4.2,0.3 6.3,0.3 28.9,1.5 59.1,3.6 90.3,6.2 25.5,2.2 51.7,4.7 78.4,7.6 8.8,11.7 16.6,24.2 23.2,37 24.3,47 31.3,97.5 28.9,160.9 -2,52.5 -10.4,113.9 -20.8,189.4 -15,109.3 -38.2,188 -63.1,271 -55.5,185.4 -83.2,278.2 -137.9,322.3 -104.4,84.3 -280.7,42.3 -317.6,-68.2 -31.5,-94.3 62.3,-166.8 144.8,-425.8"
         style="fill:#5cbc8a;fill-opacity:1;fill-rule:nonzero;stroke:none"
         id="path102" /><path
         d="m 10680.3,7347.7 c 10.6,-33.6 21.2,-67.1 31.3,-100.8 10.4,-33.6 20.5,-67.3 30.5,-101.1 19.9,-67.6 39.4,-135.3 57.8,-203.4 18.8,-68 36,-136.5 52.7,-205.2 8,-34.5 16.3,-68.9 23.4,-103.5 8,-34.5 14.2,-69.4 21.4,-104.2 -10.8,70.2 -24.5,139.9 -39.8,209.2 -15.7,69.1 -33,137.7 -51.3,206 -18.9,68.1 -38.4,135.9 -59.4,203.1 -21,67.2 -42.8,134 -66.6,199.9"
         style="fill:#ffffff;fill-opacity:1;fill-rule:nonzero;stroke:none"
         id="path104" /><path
         d="m 10109.7,7005.9 c 23,-85.6 98.5,-70 200,-174.4 90.4,-92.8 109.8,-186.8 140.8,-269.3 5.2,-14.1 10.9,-27.9 17.3,-41.3 39.7,-16.6 124.8,-24.1 236.7,-21.9 22.3,0.4 45.6,1.3 69.9,2.5 2.1,0.1 4.2,0.3 6.3,0.3 28.9,1.5 59.1,3.6 90.3,6.2 -1.2,52.3 -17.7,114.5 -43.4,177.6 -38.9,96 -99.1,194.2 -159.2,263.3 -4.4,5.1 -24.5,22.4 -61.5,53.3 -33.9,28.2 -82,68 -145.2,120.1 -159.3,131.7 -190,153.9 -230,144.2 -82.8,-20 -148.3,-162.9 -122,-260.6"
         style="fill:#66cc94;fill-opacity:1;fill-rule:nonzero;stroke:none"
         id="path106" /><path
         d="m 10304.8,7023 c 24.3,-20.5 48.5,-41.3 72.2,-62.8 23.9,-21.3 47.5,-43.1 70.9,-65.2 23.3,-22.4 46.4,-44.7 69.1,-68 22.9,-23 45.3,-46.5 67.2,-71 22.1,-24 43.7,-48.9 64.6,-74.6 8,-9.7 15.9,-19.6 23.7,-29.6 2.5,-3.2 5.1,-6.4 7.5,-9.7 10.1,-13.1 20.1,-26.6 29.8,-40.1 22.8,-32 44.7,-65.5 64.6,-100.5 2.1,0.1 4.2,0.3 6.3,0.3 -18.6,38.2 -40.1,74.5 -63.1,108.7 -10.2,15.2 -20.7,30.2 -31.5,44.7 -3,4.2 -6,8.3 -9.2,12.3 -26.8,35.5 -55.1,69.1 -84.2,101.3 -44.4,48.8 -91,94.3 -139,136.9 -48.1,42.5 -97.7,82.1 -148.9,117.3"
         style="fill:#ffffff;fill-opacity:1;fill-rule:nonzero;stroke:none"
         id="path108" /><path
         d="m 9250.34,6942.6 0.11,-0.4 c 46.8,-155.4 103.48,-270.8 150.02,-360.7 2.57,-4.9 5.1,-9.7 7.52,-14.5 2.03,-3.8 4.07,-7.7 5.99,-11.5 31.85,-61 57.46,-109.5 69.34,-150.8 -21.28,-14 -43.8,-28.3 -67.47,-42.9 -2.05,-1.2 -4.21,-2.4 -6.2,-3.8 -28.3,-17.2 -58.08,-34.7 -89.26,-52.4 -25.46,-14.5 -51.74,-29 -78.89,-43.5 -15.87,5.4 -31.29,12.1 -45.78,19.8 -53.29,28.8 -92.53,71.9 -131.25,133.3 -32.04,50.8 -63.73,114.2 -102.74,192.1 -56.5,112.9 -85.42,202.1 -115.63,296.5 -67.39,210.9 -101.15,316.3 -78.1,393.2 44,147.1 237.54,221.4 343.78,140.9 90.62,-68.6 48.97,-197.6 138.56,-495.3"
         style="fill:#66cc94;fill-opacity:1;fill-rule:nonzero;stroke:none"
         id="path110" /><path
         d="m 8957.77,7221.2 c 11.73,-38.5 23.37,-77 35.61,-115.4 11.94,-38.4 24.14,-76.8 36.6,-115.1 24.86,-76.6 50.16,-153.1 76.89,-229.3 26.2,-76.3 54.22,-152 82.85,-227.7 14.73,-37.6 29.12,-75.4 44.78,-112.8 14.77,-37.7 31.42,-74.7 47.08,-112.1 -35.14,73.2 -67.28,147.9 -97.53,223.1 -29.87,75.4 -57.89,151.3 -84.72,227.6 -26.14,76.4 -51.58,153 -75.22,230 -23.59,77 -46.19,154.2 -66.34,231.7"
         style="fill:#ffffff;fill-opacity:1;fill-rule:nonzero;stroke:none"
         id="path112" /><path
         d="m 9717.09,7267.4 c 33.57,-95.7 -47.76,-129.8 -76.05,-293.8 -25.29,-146.1 17.05,-247.3 41.2,-345.1 4.16,-16.8 7.66,-33.4 10.34,-50.1 -26.76,-41.4 -102.21,-103.5 -209.26,-173.7 -21.28,-14 -43.8,-28.3 -67.47,-42.9 -2.05,-1.2 -4.21,-2.4 -6.2,-3.8 -28.3,-17.2 -58.08,-34.7 -89.26,-52.4 -32.62,50.1 -57.24,119.5 -73.77,195.7 -25.31,115.6 -32.01,247.2 -19.91,351.2 0.87,7.6 8.66,37 23.63,90.1 13.71,48.5 33.46,117.1 59.31,207.1 65.28,227.3 79.94,268 123.88,284.7 91.1,34.6 245.27,-57.8 283.56,-167"
         style="fill:#5cbc8a;fill-opacity:1;fill-rule:nonzero;stroke:none"
         id="path114" /><path
         d="m 9521.97,7157.4 c -9.71,-35.1 -19.14,-70.3 -27.61,-106 -8.74,-35.5 -16.92,-71.2 -24.7,-107.2 -7.56,-36.2 -14.99,-72.2 -21.35,-108.8 -6.69,-36.5 -12.64,-73.2 -17.57,-110.5 -5.23,-36.9 -9.53,-74.4 -12.62,-112.1 -1.32,-14.3 -2.41,-28.8 -3.31,-43.2 -0.3,-4.7 -0.59,-9.4 -0.83,-14.1 -1.04,-18.9 -1.73,-38 -2.11,-57.1 -0.92,-44.9 0.06,-90.6 3.98,-136.6 -2.05,-1.2 -4.21,-2.4 -6.2,-3.8 -7.09,48.1 -10.27,96.3 -10.65,143.4 -0.24,21 0,41.9 0.77,62.6 0.14,5.8 0.37,11.7 0.7,17.5 2.37,50.8 7.42,100.8 14.07,150 10.35,74.8 24.89,147.9 42.73,219 17.89,71.2 39.08,140.6 64.7,206.9"
         style="fill:#ffffff;fill-opacity:1;fill-rule:nonzero;stroke:none"
         id="path116" /><path
         d="m 8708.82,6439.1 0.21,-0.3 c 85.34,-113.4 137.41,-213 176.66,-292.3 2.14,-4.4 4.23,-8.7 6.34,-12.8 1.66,-3.5 3.32,-6.9 5,-10.2 26.52,-54 47.47,-97.1 70.5,-126.9 20.87,7.8 42.59,16.2 65.09,25.4 1.94,0.8 3.91,1.7 5.89,2.4 26.78,11 54.54,23 83.12,35.8 23.36,10.5 47.2,21.5 71.48,33.1 4.42,14 7.66,28.3 9.68,42.6 7.33,52.4 -2.8,102.4 -26.05,161.4 -19.24,48.9 -47.54,104 -82.27,171.8 -50.35,98.2 -98.27,164.7 -149.24,234.9 -113.8,156.6 -170.64,234.9 -236.78,258.4 -126.42,45.1 -278.9,-53 -277.13,-169.5 1.49,-99.3 113.95,-136.7 277.5,-353.8"
         style="fill:#5cbc8a;fill-opacity:1;fill-rule:nonzero;stroke:none"
         id="path118" /><path
         d="m 8663.76,6789.4 c 21.06,-28.2 42.18,-56.3 62.9,-84.8 20.91,-28.2 41.64,-56.7 62.21,-85.3 41.15,-57.2 82.01,-114.6 121.87,-172.8 40.22,-57.9 79.16,-116.9 117.65,-176.2 18.94,-29.8 38.15,-59.5 56.38,-89.9 18.94,-29.9 36.4,-60.8 54.68,-91.2 -33.44,62.7 -69.44,123.9 -106.83,184.2 -37.69,60 -76.75,119.1 -116.62,177.4 -40.37,58 -81.22,115.5 -123.24,172 -42.07,56.5 -84.78,112.3 -129,166.6"
         style="fill:#ffffff;fill-opacity:1;fill-rule:nonzero;stroke:none"
         id="path120" /><path
         d="m 8238.44,6278 c 50.06,-73.1 116.15,-33.4 246.43,-98.3 116.06,-57.7 165.48,-139.9 221.97,-207.6 9.66,-11.6 19.59,-22.6 29.99,-33.2 43.03,-2.5 125.83,18.5 230.7,57.7 20.87,7.8 42.59,16.2 65.09,25.4 1.94,0.8 3.91,1.7 5.89,2.4 26.78,11 54.54,23 83.12,35.8 -18.41,48.9 -54.62,102.2 -99.76,153.2 -68.47,77.7 -157.74,150.5 -237.31,195.7 -5.85,3.4 -30.58,13.1 -75.74,30 -41.33,15.4 -99.89,37 -176.71,65.3 -193.98,71.5 -230.27,82.3 -264.78,59.9 -71.51,-46.3 -86.08,-202.8 -28.89,-286.3"
         style="fill:#66cc94;fill-opacity:1;fill-rule:nonzero;stroke:none"
         id="path122" /><path
         d="m 8416.88,6358.7 c 29.77,-11.3 59.44,-22.9 88.98,-35.3 29.55,-12.3 58.99,-25 88.41,-38.1 29.37,-13.4 58.63,-26.8 87.73,-41.3 29.17,-14.1 58.15,-28.9 86.94,-44.7 28.77,-15.4 57.39,-31.8 85.61,-49.1 10.76,-6.5 21.49,-13.2 32.14,-20 3.47,-2.2 6.93,-4.4 10.34,-6.7 13.9,-9.1 27.73,-18.5 41.36,-28 32.18,-22.7 63.85,-47 94.23,-73.5 1.94,0.8 3.91,1.7 5.89,2.4 -30.26,29.9 -62.53,57 -95.6,81.7 -14.65,11 -29.49,21.6 -44.47,31.8 -4.2,2.9 -8.46,5.8 -12.75,8.6 -37.04,24.6 -74.86,46.9 -112.98,67.6 -58.1,31.4 -117.13,59 -176.52,83.2 -59.45,24.2 -119.29,45.1 -179.31,61.4"
         style="fill:#ffffff;fill-opacity:1;fill-rule:nonzero;stroke:none"
         id="path124" /><path
         d="m 6599.05,11203.1 c -162.03,-285.5 -354.91,-910.4 -354.91,-910.4 l -960.55,-11.6 c 0,0 96.43,158.2 96.43,327.9 0,22 0.55,47.4 1.7,76.3 0.69,18.2 1.7,37.8 3.01,59 12.5,203.4 52.23,541.8 149.6,1052.9 0.23,1.1 0.47,2.3 0.7,3.5 89.18,465.4 258,727.1 345.26,836.9 33.72,42.5 55.23,62.3 55.23,62.3 0,0 108.03,-46.3 339.48,-108 231.45,-61.8 177.45,-200.6 177.45,-200.6 l -0.53,-0.1 c -2.94,-0.9 -8.49,-17 201.13,-254.5 28.4,-32.2 51.38,-66.2 69.67,-101.6 130.93,-253.8 18.52,-581.6 -123.67,-832"
         style="fill:#4378a2;fill-opacity:1;fill-rule:nonzero;stroke:none"
         id="path126" /><path
         d="m 5761.93,11446.1 -100.3,385.8 54.01,84.9 46.29,-470.7"
         style="fill:#3a688d;fill-opacity:1;fill-rule:nonzero;stroke:none"
         id="path128" /><path
         d="m 7372.9,5173.6 -1012.64,-27 -6.74,94.5 h -47.26 v -94.5 h -317.3 l 7.44,219.4 26.32,779.7 h 499.57 c 0,0 0,-175.5 13.5,-310.5 13.5,-135 600.83,-236.3 749.35,-357.8 33.48,-27.4 56.31,-57.9 71.63,-88.7 52.58,-105.8 16.13,-215.1 16.13,-215.1"
         style="fill:#4378a2;fill-opacity:1;fill-rule:nonzero;stroke:none"
         id="path130" /><path
         d="m 6360.26,5146.6 -1.74,24.3 -5,70.2 h -47.26 v -70.1 -24.4 h -317.3 l 7.44,219.4 c 78.43,-7.1 285.51,-23.1 563.89,-23.1 228.12,0 504.11,10.8 796.48,45.8 22.08,-44.4 28.46,-89.4 28.43,-126.8 -0.03,-51.5 -12.3,-88.3 -12.3,-88.3 l -141.95,-3.8 -870.69,-23.2"
         style="fill:#386487;fill-opacity:1;fill-rule:nonzero;stroke:none"
         id="path132" /><path
         d="m 6120.69,11226.3 c -291.17,-145.6 -508.05,-295.7 -659.81,-418.1 7.33,14.7 11.73,24.6 11.73,24.6 -15.43,586.3 192.88,1365.6 678.94,1357.9 361.62,-5.7 496.87,-216.5 542.47,-324 -52.85,-190.1 -195.5,-451.6 -573.33,-640.4 z m 602.03,808.8 c -0.23,-4.8 -0.62,-9.8 -1.08,-15 -193.73,230.6 -454.35,471.5 -847.83,270.9 -144.67,-73.8 -255.92,-265.3 -338.78,-490.3 -0.24,-1.2 -0.47,-2.4 -0.7,-3.5 -97.37,-511.2 -137.1,-849.5 -149.6,-1052.9 -1.31,-21.2 -2.32,-40.8 -3.01,-59 -1.15,-28.9 -1.7,-54.3 -1.7,-76.3 0,-169.7 -119.58,-320.2 -119.58,-320.2 l 983.7,3.9 c 0,0 192.88,624.9 354.9,910.4 142.2,250.4 254.61,578.2 123.68,832"
         style="fill:#f4c434;fill-opacity:1;fill-rule:nonzero;stroke:none"
         id="path134" /><path
         d="m 6336.72,12499.3 65.58,397.3 -270.03,69.5 c 0,0 -165.88,-374.2 -158.17,-374.2 7.72,0 362.62,-92.6 362.62,-92.6"
         style="fill:#f9dad2;fill-opacity:1;fill-rule:nonzero;stroke:none"
         id="path136" /><path
         d="m 6360.96,12645.4 c -0.04,0 -0.08,0 -0.11,0.1 l 23.32,141.2 c -0.59,-4.1 -20.01,-141.3 -23.21,-141.3"
         style="fill:#dedede;fill-opacity:1;fill-rule:nonzero;stroke:none"
         id="path138" /><path
         d="m 6360.85,12645.5 c 0,0 0,0 0,0 -94.26,113.9 -213.16,258.8 -213.16,258.8 l 236.49,-117.5 c 0,0 -0.01,0 -0.01,-0.1 l -23.32,-141.2"
         style="fill:#d9beb7;fill-opacity:1;fill-rule:nonzero;stroke:none"
         id="path140" /><path
         d="m 6699.35,13587.1 c 0,0 7.71,-455.2 61.71,-516.9 l -61.71,-30.8 c 0,0 -38.59,-285.5 -254.61,-262.4 -216.03,23.2 -447.49,177.5 -478.35,347.2 -30.86,169.8 146.59,856.4 732.96,462.9"
         style="fill:#f9dad2;fill-opacity:1;fill-rule:nonzero;stroke:none"
         id="path142" /><path
         d="m 6182.41,13031.6 c 0,0 77.16,192.9 100.3,331.8 0,0 146.6,54 231.46,138.9 84.87,84.8 185.18,84.8 185.18,84.8 V 13456 c 0,0 173.59,258.4 3.85,351 -169.73,92.6 -227.6,19.3 -227.6,19.3 0,0 -27.01,73.3 -142.74,96.5 -115.72,23.1 -389.62,65.5 -513.07,-212.2 -123.44,-277.8 -54,-524.7 208.32,-679 l 77.15,162.1 77.15,-162.1"
         style="fill:#2d4d66;fill-opacity:1;fill-rule:nonzero;stroke:none"
         id="path144" /><path
         d="m 5925.84,13867.6 c -77.52,-112.2 -208.56,-155.9 -292.7,-97.8 -84.13,58.1 -89.49,196.2 -11.97,308.4 77.52,112.2 208.57,156 292.7,97.8 84.13,-58.1 89.49,-196.2 11.97,-308.4"
         style="fill:#2d4d66;fill-opacity:1;fill-rule:nonzero;stroke:none"
         id="path146" /><path
         d="M 6667.56,7502.9 C 6650.97,6903.8 6575.9,6134.1 6575.9,6134.1 l -594.08,-30.8 c 0,0 -4.79,666.7 -14.27,1117.2 -1.16,54.4 -2.39,105.7 -3.71,152.3 -1.62,58.5 -3.31,109.6 -5.17,150.1 -4.79,105.4 -43.44,416.3 -94.51,795.1 -108.16,802.5 -271.97,1909.7 -286.94,2010.9 -0.77,4.9 -1.15,7.5 -1.15,7.5 l 675.78,25.7 c 0,0 0.38,-2.1 1.08,-6.2 6.95,-42 48.3,-290.5 102.31,-610.4 84.71,-501.2 200.6,-1177.5 264.48,-1508.9 9.88,-51.4 18.51,-94.5 25.61,-127.3 25.69,-119 29.47,-346.7 22.23,-606.4"
         style="fill:#f4c434;fill-opacity:1;fill-rule:nonzero;stroke:none"
         id="path148" /><path
         d="m 5963.84,7372.8 v 0 0 c -1.62,75.2 -3.31,140.8 -5.17,192.8 -1.14,32.4 -4.22,79.8 -8.94,139.9 16.21,55.1 27.36,100.7 32.09,133.7 9.95,69.8 26.77,226.5 46.99,429.4 v 0 0 c 36.51,367.7 84.22,887.1 122.96,1316.6 11.57,-447.8 9.41,-1127.9 -81.22,-1618.1 -39.82,-215.4 -75.62,-416.1 -106.71,-594.3"
         style="fill:#d4ab2d;fill-opacity:1;fill-rule:nonzero;stroke:none"
         id="path150" /><path
         d="m 6645.33,6083 h -720.4 v 200.6 h 720.4 V 6083"
         style="fill:#2d4d66;fill-opacity:1;fill-rule:nonzero;stroke:none"
         id="path152" /><path
         d="m 6667.56,7502.9 c -133.1,75.6 -222.82,218.7 -222.82,382.6 0,143.4 68.67,270.9 174.98,351.1 9.88,-51.4 18.51,-94.5 25.61,-127.3 18.32,-84.9 25.5,-224.9 25.48,-392.4 0,-67.5 -1.17,-139.4 -3.25,-214 v 0"
         style="fill:#f7d369;fill-opacity:1;fill-rule:nonzero;stroke:none"
         id="path154" /><path
         d="M 8076.52,10466.3 V 9682 c 0,-218.8 -177.37,-396.2 -396.1,-396.2 h -542.54 c -217.88,0 -394.79,176.1 -396.1,393.7 v 786.8 h 1334.74"
         style="fill:#f4c434;fill-opacity:1;fill-rule:nonzero;stroke:none"
         id="path156" /><path
         d="m 7239.19,10003.1 c -6.32,0 -12.65,0.1 -19.06,0.3 -181.47,4.9 -342.87,79.6 -478.35,178.5 v 284.4 h 11 c -7.22,-5 -11,-10.2 -11,-15.4 0,-47 298.81,-84.9 667.37,-84.9 33.09,0 65.65,0.3 97.44,0.9 30.79,0.6 60.8,1.4 90.04,2.5 35.8,1.3 70.29,3 103.31,5 2.39,0.2 4.86,0.3 7.26,0.5 27.69,1.7 54.24,3.8 79.54,6 27.77,2.4 54.02,5.1 78.54,8 -117.89,-180.8 -319.25,-385.8 -626.09,-385.8"
         style="fill:#f5c73e;fill-opacity:1;fill-rule:nonzero;stroke:none"
         id="path158" /><path
         d="m 6452.45,12391.3 -0.54,-0.1 c -36.26,20.3 -120.2,58.6 -292.64,100.4 -180.46,43.7 -252.44,110.8 -278.99,146 33.72,42.5 55.25,62.3 55.25,62.3 0,0 108.01,-46.3 339.47,-108 231.46,-61.8 177.45,-200.6 177.45,-200.6"
         style="fill:#2d4d66;fill-opacity:1;fill-rule:nonzero;stroke:none"
         id="path160" /><path
         d="m 5789.95,5141.8 -915.41,202.9 15.14,86.3 -42.44,10.7 -21.19,-84.9 -284.93,71.2 55.88,195.3 198.54,694.3 448.61,-112.1 c 0,0 -39.38,-157.6 -57.53,-281.8 -18.17,-124.3 486.54,-347 592.66,-489.4 23.92,-32.2 37.58,-64.6 44.44,-95.7 23.5,-106.8 -33.77,-196.8 -33.77,-196.8"
         style="fill:#4378a2;fill-opacity:1;fill-rule:nonzero;stroke:none"
         id="path162" /><path
         d="m 5789.95,5141.8 -915.41,202.9 15.14,86.3 -42.44,10.7 -21.19,-84.9 -155.17,38.7 -129.76,32.5 55.88,195.3 c 125.26,-43.6 626.29,-209 1226.72,-284.7 3.99,-18.1 5.65,-35.8 5.66,-52.6 0.02,-47.6 -13.2,-88.4 -24.33,-114.3 -8.1,-18.9 -15.1,-29.9 -15.1,-29.9"
         style="fill:#386487;fill-opacity:1;fill-rule:nonzero;stroke:none"
         id="path164" /><path
         d="m 6221,10362.1 c 0,0 -118.74,-1353.9 -192.19,-2093.5 -20.22,-202.9 -37.04,-359.6 -46.99,-429.4 -9.1,-63.6 -41.98,-173.4 -88.96,-308.7 -192.42,-553.8 -559.58,-1390.1 -559.58,-1390.1 l -611.07,94 580.66,2183.5 -42.43,922 c -108.02,385.7 -100.3,709.8 -9.5,926.2 12.75,30.5 29.7,58.4 62.65,59.7 l 907.41,36.3"
         style="fill:#f4c434;fill-opacity:1;fill-rule:nonzero;stroke:none"
         id="path166" /><path
         d="m 5892.86,7530.5 c -109.25,73.4 -181.08,198.1 -181.08,339.6 0,194.3 135.41,356.8 317.03,398.5 -20.22,-202.9 -37.04,-359.6 -46.99,-429.4 -4.73,-33 -15.88,-78.6 -32.09,-133.7 -1.85,-6.3 -3.77,-12.7 -5.75,-19.2 -14.05,-46.4 -31.34,-98.9 -51.12,-155.8 v 0"
         style="fill:#f7d369;fill-opacity:1;fill-rule:nonzero;stroke:none"
         id="path168" /><path
         d="m 5342.26,6066.1 -680.65,150.7 43.36,195.8 680.64,-150.6 -43.35,-195.9"
         style="fill:#2d4d66;fill-opacity:1;fill-rule:nonzero;stroke:none"
         id="path170" /><path
         d="m 8076.52,10450.9 c 0,-8 -8.56,-15.7 -24.6,-23 -42.59,-19.3 -137.96,-35.9 -265.18,-47 -25.3,-2.2 -51.85,-4.3 -79.54,-6 -2.4,-0.2 -4.87,-0.3 -7.26,-0.5 -33.02,-2 -67.51,-3.7 -103.31,-5 -29.24,-1.1 -59.25,-1.9 -90.04,-2.5 -31.79,-0.6 -64.35,-0.9 -97.44,-0.9 -368.56,0 -667.37,37.9 -667.37,84.9 0,46.9 298.81,84.8 667.37,84.8 h 8.72 c 53.47,0 105.39,-1 155.08,-2.6 1.7,0 3.39,-0.1 5.09,-0.2 13.96,-0.3 27.7,-0.9 41.2,-1.5 59.1,-2.5 114.49,-5.9 164.95,-10.3 2.94,-0.3 5.87,-0.6 8.72,-0.8 2.47,-0.2 4.86,-0.5 7.25,-0.6 136.1,-12.6 233.47,-31.5 265.18,-53.3 7.32,-5 11.18,-10.2 11.18,-15.5"
         style="fill:#af8723;fill-opacity:1;fill-rule:nonzero;stroke:none"
         id="path172" /><path
         d="m 7822,10836.9 -0.08,-0.3 c -28.47,-124.5 -30.09,-224.7 -29.17,-303.6 0.08,-4.3 0.16,-8.5 0.16,-12.7 0.08,-3.4 0.16,-6.8 0.16,-10.1 0.85,-53.6 1.77,-96.4 -6.33,-129.3 -25.3,-2.2 -51.85,-4.3 -79.54,-6 -2.4,-0.2 -4.87,-0.3 -7.26,-0.5 -33.02,-2 -67.51,-3.7 -103.31,-5 -29.24,-1.1 -59.25,-1.9 -90.04,-2.5 -11.73,9.4 -22.45,19.5 -31.86,30 -34.56,38.7 -50.07,82.5 -56.86,138.8 -5.63,46.6 -5.24,101.9 -4.86,169.8 0.61,98.3 15.12,170.6 30.86,246.9 35.18,170.3 52.69,255.5 108.01,300.9 105.71,86.7 311.94,70.2 370.34,-23.2 49.84,-79.6 -45.6,-154.6 -100.22,-393.2"
         style="fill:#66cc94;fill-opacity:1;fill-rule:nonzero;stroke:none"
         id="path174" /><path
         d="m 7686.9,11133.7 c -6.93,-30.9 -13.94,-61.8 -20.36,-92.8 -6.72,-30.9 -13.17,-61.9 -19.37,-92.9 -12.43,-62 -24.46,-124.1 -35.03,-186.5 -11.1,-62.2 -20.35,-124.8 -28.98,-187.5 -3.87,-31.3 -8.13,-62.7 -11.04,-94.2 -3.87,-31.4 -5.72,-63 -8.66,-94.5 1.74,63.3 6.79,126.5 13.82,189.5 7.42,62.9 16.74,125.6 27.27,188 11.22,62.4 23.15,124.6 36.85,186.4 13.73,61.9 28.44,123.5 45.5,184.5"
         style="fill:#ffffff;fill-opacity:1;fill-rule:nonzero;stroke:none"
         id="path176" /><path
         d="m 8385.14,10898.4 c -13.27,-78.4 -101.22,-73.4 -200.6,-177.5 -88.57,-92.7 -96.52,-177.9 -119.2,-254.5 -3.86,-13.1 -8.26,-25.9 -13.43,-38.5 -42.58,-19.3 -137.95,-35.9 -265.17,-47 -25.3,-2.2 -51.85,-4.3 -79.54,-6 -2.4,-0.2 -4.87,-0.3 -7.26,-0.5 -33.02,-2 -67.51,-3.7 -103.31,-5 -6.47,46.3 2.93,103.2 22.61,162 29.71,89.4 83.17,183.2 140.96,251.2 4.24,5 24.46,22.7 61.8,54.3 34.17,29 82.79,69.7 146.52,123.2 160.93,135 192.41,158.1 239.17,154.3 96.9,-8 192.65,-126.6 177.45,-216"
         style="fill:#5cbc8a;fill-opacity:1;fill-rule:nonzero;stroke:none"
         id="path178" /><path
         d="m 8161.4,10890.6 c -24.54,-20.9 -48.84,-42.1 -72.53,-63.9 -23.84,-21.6 -47.3,-43.6 -70.52,-65.9 -23.07,-22.5 -45.98,-44.9 -68.2,-68.1 -22.45,-23 -44.37,-46.5 -65.58,-70.6 -21.38,-23.9 -42.13,-48.4 -61.95,-73.6 -7.64,-9.4 -15.13,-19.1 -22.45,-28.8 -2.4,-3.2 -4.79,-6.3 -7.1,-9.5 -9.5,-12.8 -18.75,-25.8 -27.7,-39 -21.14,-30.9 -40.9,-63 -58.17,-96.3 -2.4,-0.2 -4.87,-0.3 -7.26,-0.5 15.43,36 34.34,70.5 55.32,103.5 9.26,14.6 18.9,29 28.93,43.2 2.78,4 5.63,8 8.56,11.9 25.08,34.5 52.16,67.5 80.33,99.3 43.04,48.4 89.03,94.1 137.1,137.3 48.14,43.2 98.36,83.9 151.22,121"
         style="fill:#ffffff;fill-opacity:1;fill-rule:nonzero;stroke:none"
         id="path180" /><path
         d="m 7111.38,10677.6 0.07,-0.3 c 24.89,-108.9 26.3,-196.5 25.49,-265.4 -0.06,-3.8 -0.12,-7.5 -0.12,-11.2 -0.07,-2.9 -0.14,-5.9 -0.14,-8.8 -0.74,-46.9 -1.55,-84.3 5.53,-113.1 22.13,-1.9 45.33,-3.7 69.55,-5.2 2.09,-0.2 4.26,-0.2 6.35,-0.4 28.86,-1.8 59.02,-3.3 90.32,-4.4 25.56,-1 51.81,-1.7 78.73,-2.2 10.25,8.2 19.63,17 27.86,26.2 30.21,33.9 43.78,72.2 49.72,121.4 4.92,40.8 4.59,89.1 4.24,148.4 -0.53,86 -13.22,149.2 -26.98,215.9 -30.76,149 -46.07,223.4 -94.44,263.1 -92.42,75.8 -272.75,61.4 -323.81,-20.2 -43.57,-69.7 39.87,-135.2 87.63,-343.8"
         style="fill:#5cbc8a;fill-opacity:1;fill-rule:nonzero;stroke:none"
         id="path182" /><path
         d="m 7229.5,10937 c 6.07,-27 12.2,-53.9 17.8,-81.1 5.88,-27 11.52,-54.1 16.94,-81.2 10.88,-54.2 21.39,-108.5 30.63,-163.1 9.71,-54.4 17.8,-109.1 25.34,-163.9 3.38,-27.4 7.11,-54.8 9.65,-82.4 3.38,-27.4 5.01,-55 7.58,-82.6 -1.52,55.3 -5.95,110.6 -12.09,165.6 -6.48,55.1 -14.64,109.9 -23.84,164.5 -9.81,54.5 -20.24,108.9 -32.21,163 -12.01,54 -24.88,107.9 -39.8,161.2"
         style="fill:#ffffff;fill-opacity:1;fill-rule:nonzero;stroke:none"
         id="path184" /><path
         d="m 6618.99,10731.3 c 11.61,-68.5 88.51,-64.2 175.39,-155.2 77.46,-81 84.4,-155.5 104.23,-222.5 3.37,-11.4 7.22,-22.6 11.74,-33.6 37.24,-16.9 120.62,-31.5 231.86,-41.2 22.13,-1.9 45.33,-3.7 69.55,-5.2 2.09,-0.2 4.26,-0.2 6.35,-0.4 28.86,-1.8 59.02,-3.3 90.32,-4.4 5.67,40.5 -2.56,90.2 -19.77,141.6 -25.96,78.2 -72.71,160.2 -123.24,219.7 -3.71,4.4 -21.39,19.8 -54.04,47.5 -29.89,25.3 -72.39,60.9 -128.11,107.7 -140.71,118 -168.24,138.2 -209.12,134.9 -84.73,-7 -168.45,-110.7 -155.16,-188.9"
         style="fill:#66cc94;fill-opacity:1;fill-rule:nonzero;stroke:none"
         id="path186" /><path
         d="m 6814.63,10724.5 c 21.44,-18.3 42.69,-36.8 63.41,-55.9 20.85,-18.9 41.35,-38.1 61.66,-57.6 20.16,-19.6 40.2,-39.3 59.63,-59.6 19.63,-20.1 38.8,-40.6 57.34,-61.7 18.69,-20.8 36.84,-42.3 54.17,-64.3 6.68,-8.3 13.22,-16.7 19.63,-25.2 2.1,-2.8 4.19,-5.5 6.21,-8.3 8.3,-11.2 16.39,-22.6 24.22,-34.1 18.48,-27 35.75,-55.1 50.86,-84.2 2.09,-0.2 4.26,-0.2 6.35,-0.4 -13.5,31.4 -30.02,61.6 -48.37,90.4 -8.1,12.8 -16.54,25.5 -25.31,37.8 -2.42,3.5 -4.92,7 -7.49,10.5 -21.92,30.1 -45.59,58.9 -70.22,86.8 -37.64,42.3 -77.84,82.2 -119.87,120 -42.09,37.8 -86.01,73.4 -132.22,105.8"
         style="fill:#ffffff;fill-opacity:1;fill-rule:nonzero;stroke:none"
         id="path188" /><path
         d="m 5711.78,11912.9 46.3,-462.9 736.8,3.9 42.44,497.6 -825.54,-38.6"
         style="fill:#4378a2;fill-opacity:1;fill-rule:nonzero;stroke:none"
         id="path190" /><path
         d="m 6432.51,11525.7 c 0,0 16.22,-488 -21.16,-717.6 0,0 902.65,-403.6 1088.42,-399.6 185.77,4 236.33,-53.3 189.19,-65.8 -47.16,-12.6 -47.16,-12.6 -47.16,-12.6 0,0 280.08,29.1 268.09,-39.7 -11.98,-68.9 -43.65,-206 -257.37,-161.9 -213.71,44.1 -393.77,132.5 -661.39,180 -267.61,47.5 -1010.68,31.6 -1048.96,412.7 -38.28,381.1 -65.53,815.7 -65.53,815.7 l 555.87,-11.2"
         style="fill:#f9dad2;fill-opacity:1;fill-rule:nonzero;stroke:none"
         id="path192" /><path
         d="m 5731.07,11619.7 h 771.53 v -185.1 h -764.51 l -7.02,185.1"
         style="fill:#2d4d66;fill-opacity:1;fill-rule:nonzero;stroke:none"
         id="path194" /><path
         d="m 7332.33,9365.2 c -289.6,0 -471.11,111.3 -577.36,215.1 v 0 c -8.41,31.7 -12.96,64.9 -13.19,99.2 v 0 292.9 c 73,-100.2 241.48,-262.1 567.17,-262.1 55.71,0 116,4.7 181.21,15.3 524.32,85.2 580.97,576.8 586.11,722.9 0.17,0.8 0.25,1.6 0.25,2.4 v -723.2 c -96.51,-157.6 -259.85,-300.1 -535.59,-344.9 -75.08,-12.2 -144.48,-17.6 -208.6,-17.6 m 744.19,1085.7 c 0,0.5 -0.04,1 -0.12,1.6 0.05,1.5 0.09,3 0.12,4.4 v -6"
         style="fill:#e8ba31;fill-opacity:1;fill-rule:nonzero;stroke:none"
         id="path196" /><path
         d="m 8076.27,10448.5 c 0.05,1.4 0.09,2.7 0.13,4 0.08,-0.6 0.12,-1.1 0.12,-1.6 v 0 0 c 0,-0.8 -0.08,-1.6 -0.25,-2.4"
         style="fill:#a68021;fill-opacity:1;fill-rule:nonzero;stroke:none"
         id="path198" /><path
         d="m 7680.42,9285.8 h -542.54 c -0.39,0 -0.79,0 -1.18,0.1 0.39,-0.1 0.78,-0.1 1.18,-0.1 h 542.54 c 107.27,0 204.59,42.7 275.92,112 v 0 c -71.33,-69.3 -168.65,-112 -275.92,-112"
         style="fill:#dadddf;fill-opacity:1;fill-rule:nonzero;stroke:none"
         id="path200" /><path
         d="m 7136.31,9285.9 c -0.27,0 -0.53,0 -0.8,0 0.27,0 0.53,0 0.8,0 m -1.26,0 c -0.25,0 -0.49,0 -0.74,0 0.25,0 0.48,0 0.74,0 m -1.2,0 c -0.25,0 -0.5,0 -0.75,0 0.26,0 0.5,0 0.75,0 m -1.21,0 c -0.29,0 -0.58,0 -0.87,0 0.3,0 0.57,0 0.87,0 m -1.17,0 c -0.39,0 -0.76,0 -1.15,0 0.38,0 0.77,0 1.15,0 m -1.57,0 c -0.26,0 -0.52,0 -0.77,0 0.25,0 0.52,0 0.77,0 m -1.26,0.1 c -0.22,0 -0.45,0 -0.67,0 0.22,0 0.44,0 0.67,0 m -1.21,0 c -0.22,0 -0.43,0 -0.65,0 0.22,0 0.43,0 0.65,0 m -1.19,0 c -0.23,0 -0.45,0 -0.68,0 0.23,0 0.45,0 0.68,0 m -1.16,0.1 c -0.38,0 -0.75,0 -1.12,0 0.38,0 0.73,0 1.12,0 m -1.56,0 c -0.25,0 -0.5,0 -0.74,0 0.23,0 0.5,0 0.74,0 m -1.26,0.1 c -0.23,0 -0.43,0 -0.65,0 0.22,0 0.42,0 0.65,0 m -1.2,0 c -0.21,0 -0.41,0 -0.62,0 0.21,0 0.41,0 0.62,0 m -1.19,0.1 c -0.2,0 -0.39,0 -0.59,0 0.19,0 0.39,0 0.59,0 m -1.17,0 c -0.18,0 -0.34,0 -0.52,0 0.17,0 0.34,0 0.52,0 m -1.86,0.1 c -0.12,0 -0.24,0 -0.36,0 0.12,0 0.24,0 0.36,0 m -1.09,0.1 c -0.13,0 -0.28,0 -0.41,0 0.14,0 0.27,0 0.41,0 m -1.12,0 c -0.15,0 -0.3,0 -0.45,0 0.15,0 0.3,0 0.45,0 m -1.15,0.1 c -0.14,0 -0.28,0 -0.41,0 0.14,0 0.26,0 0.41,0 m -1.17,0.1 c -0.07,0 -0.17,0 -0.25,0 0.08,0 0.17,0 0.25,0 m -3.09,0.2 c -0.05,0 -0.1,0 -0.15,0 0.05,0 0.1,0 0.15,0 m -1.04,0 c -0.08,0.1 -0.14,0.1 -0.22,0.1 0.08,0 0.14,0 0.22,-0.1 m -1.12,0.1 c -0.06,0 -0.11,0 -0.17,0 0.06,0 0.11,0 0.17,0"
         style="fill:#dadddf;fill-opacity:1;fill-rule:nonzero;stroke:none"
         id="path202" /><path
         d="m 7680.42,9285.8 h -542.54 c -0.4,0 -0.79,0 -1.18,0.1 -0.14,0 -0.26,0 -0.39,0 -0.27,0 -0.53,0 -0.8,0 -0.14,0 -0.32,0 -0.46,0 -0.26,0 -0.49,0 -0.74,0 -0.15,0 -0.3,0 -0.46,0 -0.25,0 -0.49,0 -0.75,0 -0.15,0 -0.3,0 -0.46,0 -0.3,0 -0.57,0 -0.87,0 -0.1,0 -0.2,0 -0.3,0 -0.38,0 -0.77,0 -1.15,0 -0.14,0 -0.29,0 -0.42,0 -0.25,0 -0.52,0 -0.77,0 -0.17,0 -0.32,0.1 -0.49,0.1 -0.23,0 -0.45,0 -0.67,0 -0.18,0 -0.37,0 -0.54,0 -0.22,0 -0.43,0 -0.65,0 -0.19,0 -0.35,0 -0.54,0 -0.23,0 -0.45,0 -0.68,0 -0.15,0 -0.33,0 -0.48,0.1 -0.39,0 -0.74,0 -1.12,0 -0.15,0 -0.3,0 -0.44,0 -0.24,0 -0.51,0 -0.74,0 -0.18,0 -0.35,0 -0.52,0.1 -0.23,0 -0.43,0 -0.65,0 -0.18,0 -0.37,0 -0.55,0 -0.21,0 -0.41,0 -0.62,0 -0.19,0 -0.38,0 -0.57,0.1 -0.2,0 -0.4,0 -0.59,0 -0.19,0 -0.4,0 -0.58,0 -0.18,0 -0.35,0 -0.52,0 -0.44,0.1 -0.9,0.1 -1.34,0.1 -0.12,0 -0.24,0 -0.36,0 -0.24,0 -0.48,0 -0.73,0.1 -0.14,0 -0.27,0 -0.41,0 -0.24,0 -0.47,0 -0.71,0 -0.15,0 -0.3,0 -0.45,0 -0.24,0.1 -0.46,0.1 -0.7,0.1 -0.15,0 -0.27,0 -0.41,0 -0.25,0 -0.5,0 -0.76,0.1 -0.08,0 -0.17,0 -0.25,0 -0.94,0 -1.89,0.1 -2.84,0.2 -0.05,0 -0.1,0 -0.15,0 -0.3,0 -0.59,0 -0.89,0 -0.08,0.1 -0.14,0.1 -0.22,0.1 -0.3,0 -0.61,0 -0.9,0 -0.06,0 -0.11,0 -0.17,0 -169.75,13.2 -309.57,133.5 -351.92,293.3 106.25,-103.8 287.76,-215.1 577.36,-215.1 64.12,0 133.52,5.4 208.6,17.6 275.74,44.8 439.08,187.3 535.59,344.9 v -18.6 -27.1 c 0,-71.6 -18.98,-138.7 -52.18,-196.7 -18.52,-32.3 -41.46,-61.7 -68,-87.5 -71.33,-69.3 -168.65,-112 -275.92,-112"
         style="fill:#dcb12f;fill-opacity:1;fill-rule:nonzero;stroke:none"
         id="path204" /><path
         d="m 3801.98,13041.8 c -386.24,0 -772.51,5.8 -1158.57,17.5 9.02,-0.2 18.05,-0.4 27.07,-0.4 152.93,0 305.8,35.9 442.67,104.1 9.36,4.7 19.54,10.6 22.32,20.7 1.29,4.7 -0.55,9.9 -3.75,13.5 l 1.86,-0.4 c -52.82,67.1 -64.32,164.1 -28.63,241.7 35.7,77.5 116.96,131.8 202.23,135.3 2.33,0.1 4.69,0.1 7.05,0.1 61.74,0 128.32,-32.2 144.34,-91.4 26.29,139.5 61.36,293.3 177.57,374.9 52.37,36.7 115.99,54.2 179.34,63.1 34.97,4.9 70.3,7.3 105.6,7.3 114.01,0 228.03,-25.3 331.03,-74.2 58.32,-27.7 114.22,-63.8 153.82,-114.7 77.39,-99.7 79.9,-236.5 79,-362.7 26.88,62.7 94.96,103.6 162.6,103.6 16.51,0 32.98,-2.5 48.83,-7.6 80.81,-26.2 133.61,-118.9 114.88,-201.8 17.08,31.6 36.85,65.7 70.49,78.4 8.98,3.4 18.18,4.9 27.38,4.9 36.54,0 73.2,-24.3 97.5,-53.7 30.43,-36.8 49.89,-82.1 83.06,-116.4 70.7,-73.3 183.89,-79.9 285.69,-81.9 -208.8,-36.1 -421.44,-43.2 -633.28,-48.4 -313.29,-7.7 -626.71,-11.5 -940.1,-11.5 m -1158.57,17.5 c -1.7,0.1 -3.38,0.1 -5.08,0.2 1.71,-0.1 3.37,-0.1 5.08,-0.2 m 488.31,137.9 -13.63,3 c 1.55,1.1 3.2,1.6 4.84,1.6 3.2,0 6.38,-1.8 8.79,-4.6"
         style="fill:#e4ecf2;fill-opacity:1;fill-rule:nonzero;stroke:none"
         id="path206" /><path
         d="m 11049.4,11188.8 c -212.2,0 -424.5,3.2 -636.6,9.6 4.9,-0.1 9.8,-0.2 14.7,-0.2 84,0 168,19.7 243.3,57.2 5.1,2.6 10.7,5.8 12.2,11.4 0.7,2.6 -0.3,5.4 -2,7.4 l 1,-0.2 c -29.1,36.8 -35.4,90.2 -15.7,132.8 19.6,42.6 64.2,72.5 111.1,74.4 1.3,0 2.6,0 3.9,0 33.9,0 70.5,-17.7 79.3,-50.2 14.4,76.7 33.7,161.2 97.6,206 28.7,20.2 63.7,29.8 98.5,34.7 19.2,2.7 38.7,4 58.1,4 62.6,0 125.3,-13.9 181.9,-40.8 32,-15.2 62.8,-35 84.5,-63 42.5,-54.8 43.9,-130 43.4,-199.4 14.8,34.5 52.2,57 89.4,57 9.1,0 18.1,-1.3 26.8,-4.2 44.4,-14.4 73.4,-65.3 63.2,-110.9 9.3,17.4 20.2,36.1 38.7,43.1 4.9,1.9 10,2.7 15,2.7 20.1,0 40.3,-13.3 53.6,-29.5 16.7,-20.2 27.4,-45.1 45.7,-64 38.8,-40.2 101,-43.9 157,-45 -114.8,-19.8 -231.6,-23.7 -348.1,-26.6 -172.1,-4.2 -344.3,-6.3 -516.5,-6.3 m -636.6,9.6 c -1,0 -2,0.1 -3,0.1 1,0 2,-0.1 3,-0.1 m 268.2,75.8 -7.5,1.7 c 0.8,0.6 1.7,0.8 2.6,0.8 1.8,0 3.5,-1 4.9,-2.5"
         style="fill:#d9e3ec;fill-opacity:1;fill-rule:nonzero;stroke:none"
         id="path208" /><path
         d="m 11265.1,13469.2 c -411.3,0 -822.6,6.2 -1233.7,18.6 9.6,-0.2 19.2,-0.4 28.8,-0.4 162.8,0 325.6,38.2 471.3,110.9 10,4.9 20.8,11.2 23.8,21.9 1.4,5 -0.6,10.6 -4,14.5 l 2,-0.4 c -56.3,71.3 -68.5,174.7 -30.5,257.3 38,82.5 124.5,140.4 215.3,144 2.5,0.1 5,0.2 7.5,0.2 65.7,0 136.7,-34.3 153.7,-97.4 28,148.6 65.3,312.3 189.1,399.2 55.7,39.1 123.5,57.7 190.9,67.2 37.3,5.2 74.9,7.8 112.5,7.8 121.4,0 242.8,-26.9 352.4,-79 62.1,-29.5 121.7,-67.9 163.8,-122.2 82.4,-106.2 85.1,-251.8 84.1,-386.2 28.7,66.8 101.1,110.3 173.2,110.3 17.5,0 35.1,-2.6 52,-8 86,-27.9 142.2,-126.7 122.3,-214.9 18.2,33.7 39.2,69.9 75,83.5 9.6,3.6 19.4,5.2 29.2,5.2 38.9,0 77.9,-25.9 103.8,-57.2 32.4,-39.1 53.1,-87.4 88.4,-123.9 75.3,-78.1 195.9,-85.1 304.2,-87.2 -222.3,-38.5 -448.7,-46 -674.3,-51.6 -333.5,-8.1 -667.2,-12.2 -1000.8,-12.2 m -1233.7,18.6 c -1.8,0.1 -3.7,0.1 -5.5,0.2 1.9,-0.1 3.6,-0.1 5.5,-0.2 m 519.9,146.9 -14.5,3.2 c 1.6,1.2 3.4,1.7 5.1,1.7 3.4,0 6.8,-2 9.4,-4.9"
         style="fill:#e4ecf2;fill-opacity:1;fill-rule:nonzero;stroke:none"
         id="path210" /><path
         d="m 17115.6,10996.4 c -145,249.2 -310,481.8 -490.7,696.6 8,1.5 16.1,2.8 24.2,3.9 28.1,4 56.4,5.9 84.7,5.9 91.3,0 182.7,-20.2 265.3,-59.4 46.7,-22.2 91.5,-51.1 123.2,-92 62.1,-79.9 64.1,-189.6 63.3,-290.7 21.6,50.3 76.1,83 130.4,83 13.2,0 26.4,-1.9 39.1,-6 64.8,-21 107.1,-95.4 92.1,-161.8 13.6,25.4 29.5,52.7 56.4,62.9 7.3,2.7 14.6,3.9 22,3.9 29.3,0 58.7,-19.5 78.1,-43 24.4,-29.5 40,-65.8 66.6,-93.3 56.7,-58.7 147.4,-64.1 229,-65.6 -167.4,-29 -337.8,-34.7 -507.6,-38.8 -92,-2.3 -184.1,-4.1 -276.1,-5.6"
         style="fill:#e4ecf2;fill-opacity:1;fill-rule:nonzero;stroke:none"
         id="path212" /><path
         d="m 16638.3,10992.7 c -309.6,0 -619.1,4.7 -928.5,14.1 7.2,-0.2 14.4,-0.3 21.7,-0.3 122.5,0 245.1,28.7 354.7,83.4 7.5,3.7 15.7,8.5 17.9,16.5 1.1,3.8 -0.4,8 -3,10.9 l 1.5,-0.3 c -42.3,53.7 -51.5,131.5 -22.9,193.6 28.6,62.2 93.7,105.7 162,108.5 1.9,0.1 3.8,0.1 5.7,0.1 49.5,0 102.8,-25.8 115.7,-73.3 21.1,111.9 49.2,235.1 142.3,300.5 35.3,24.7 76.9,38.6 119.5,46.6 180.7,-214.8 345.7,-447.4 490.7,-696.6 -159.1,-2.4 -318.2,-3.7 -477.3,-3.7 m -928.5,14.1 c -1.4,0 -2.7,0 -4.1,0.1 1.4,0 2.7,-0.1 4.1,-0.1 m 391.3,110.5 -10.9,2.4 c 1.2,0.9 2.6,1.3 3.9,1.3 2.5,0 5.1,-1.5 7,-3.7"
         style="fill:#d9e3ec;fill-opacity:1;fill-rule:nonzero;stroke:none"
         id="path214" /><path
         d="m 7511.48,14149.9 c -309.55,0 -619.09,4.7 -928.49,14 7.23,-0.2 14.46,-0.3 21.7,-0.3 122.56,0 245.07,28.8 354.76,83.5 7.5,3.7 15.67,8.4 17.88,16.5 1.04,3.8 -0.43,8 -2.99,10.9 l 1.48,-0.3 c -42.34,53.7 -51.54,131.5 -22.94,193.6 28.61,62.1 93.73,105.7 162.07,108.5 1.88,0 3.77,0.1 5.66,0.1 49.47,0 102.84,-25.9 115.67,-73.3 21.07,111.8 49.19,235 142.32,300.4 41.95,29.5 92.95,43.5 143.72,50.6 28.04,4 56.35,5.9 84.65,5.9 91.37,0 182.74,-20.3 265.29,-59.5 46.74,-22.2 91.54,-51.1 123.27,-92 62.03,-79.8 64.04,-189.5 63.32,-290.6 21.54,50.3 76.1,83 130.31,83 13.23,0 26.43,-1.9 39.13,-6.1 64.77,-20.9 107.09,-95.3 92.07,-161.7 13.69,25.4 29.54,52.7 56.5,62.8 7.2,2.8 14.56,4 21.94,4 29.28,0 58.66,-19.5 78.14,-43 24.39,-29.5 39.99,-65.8 66.57,-93.4 56.66,-58.7 147.38,-64 228.96,-65.6 -167.33,-29 -337.76,-34.6 -507.53,-38.8 -251.08,-6.1 -502.3,-9.2 -753.46,-9.2 m -928.49,14 c -1.36,0.1 -2.72,0.1 -4.07,0.2 1.37,-0.1 2.69,-0.1 4.07,-0.2 m 391.35,110.6 -10.93,2.4 c 1.24,0.9 2.56,1.3 3.88,1.3 2.56,0 5.12,-1.5 7.05,-3.7"
         style="fill:#e4ecf2;fill-opacity:1;fill-rule:nonzero;stroke:none"
         id="path216" /><path
         d="M 15639.5,5145.4 H 7910.72 c 65.62,395.8 395.54,756.3 906.12,1041.9 711.04,397.8 1772.46,650.3 2958.26,650.3 516.1,0 1008.7,-47.8 1459,-134.7 1327.4,-255.8 2288.3,-850.4 2405.4,-1557.5"
         style="fill:#b04475;fill-opacity:1;fill-rule:nonzero;stroke:none"
         id="path218" /><path
         d="m 14376.3,6362.3 c -0.1,0.1 -0.2,0.1 -0.4,0.2 0.2,-0.1 0.3,-0.1 0.4,-0.2 m -2.1,0.9 c -0.3,0.2 -0.6,0.3 -0.9,0.4 0.3,-0.1 0.6,-0.2 0.9,-0.4 m -3.2,1.4 c -0.5,0.2 -1.1,0.5 -1.6,0.7 0.5,-0.2 1,-0.5 1.6,-0.7 m -2.7,1.2 c -0.7,0.2 -1.3,0.5 -1.9,0.8 0.6,-0.3 1.2,-0.6 1.9,-0.8 m -2.6,1.1 c -0.9,0.4 -1.9,0.8 -2.8,1.1 0.9,-0.3 1.9,-0.7 2.8,-1.1 m -3.2,1.3 c -0.9,0.4 -1.8,0.8 -2.7,1.2 0.9,-0.4 1.8,-0.8 2.7,-1.2"
         style="fill:#61c28c;fill-opacity:1;fill-rule:nonzero;stroke:none"
         id="path220" /><path
         d="m 14058.5,6485 c -172.6,59.8 -356.1,112.9 -548.7,158.7 v 0 c 192.6,-45.7 376.1,-98.9 548.7,-158.7 v 0"
         style="fill:#e6e9eb;fill-opacity:1;fill-rule:nonzero;stroke:none"
         id="path222" /><path
         d="m 14359.6,6369.4 c -34.8,14.8 -70.1,29.3 -106.1,43.5 v 0 c 36,-14.2 71.3,-28.7 106.1,-43.5 m -122.5,49.9 c -58.2,22.7 -117.7,44.6 -178.6,65.7 v 0 c 60.9,-21.1 120.4,-43 178.6,-65.6 v -0.1"
         style="fill:#61c28c;fill-opacity:1;fill-rule:nonzero;stroke:none"
         id="path224" /><path
         d="m 14253.5,6412.9 c -5.5,2.2 -10.9,4.3 -16.4,6.4 v 0.1 c 5.5,-2.2 10.9,-4.3 16.4,-6.5 v 0"
         style="fill:#f2f2f2;fill-opacity:1;fill-rule:nonzero;stroke:none"
         id="path226" /><path
         d="m 13509.8,6643.7 c -90,21.4 -181.9,41.2 -275.7,59.2 93.8,-18 185.7,-37.8 275.7,-59.2 v 0"
         style="fill:#57b283;fill-opacity:1;fill-rule:nonzero;stroke:none"
         id="path228" /><path
         d="m 9925.66,5263.1 c -270.21,0 -531.08,9.3 -782.55,24.7 128.4,111.2 209.65,275.4 209.65,458.5 v 70 0 306.7 c 350.93,-43.1 743.24,-85.4 1178.34,-85.4 449.3,0 944.3,45.1 1487.3,181.1 653.9,163.7 895.8,338.8 1215.7,484.2 v 0 c 93.8,-18 185.7,-37.8 275.7,-59.2 192.6,-45.8 376.1,-98.9 548.7,-158.7 60.9,-21.1 120.4,-43 178.6,-65.7 5.5,-2.1 10.9,-4.2 16.4,-6.4 36,-14.2 71.3,-28.7 106.1,-43.5 0.1,0 0.1,0 0.2,0 0.9,-0.4 1.8,-0.8 2.7,-1.2 0.2,0 0.3,-0.1 0.4,-0.2 0.9,-0.3 1.9,-0.7 2.8,-1.1 0.2,-0.1 0.4,-0.2 0.7,-0.3 0.6,-0.3 1.2,-0.6 1.9,-0.8 0.4,-0.2 0.7,-0.4 1.1,-0.5 0.5,-0.2 1.1,-0.5 1.6,-0.7 0.7,-0.3 1.5,-0.6 2.3,-1 0.3,-0.1 0.6,-0.2 0.9,-0.4 0.6,-0.2 1.2,-0.5 1.7,-0.7 0.2,-0.1 0.3,-0.1 0.4,-0.2 26.6,-11.4 52.9,-23 78.8,-34.8 9.8,-4.4 19.5,-8.8 29.1,-13.3 v 0 c -9.6,4.5 -19.3,8.9 -29.1,13.3 -468.9,-232.5 -920.7,-496.8 -1916.9,-746.3 -953.9,-238.8 -1823.4,-318.1 -2612.54,-318.1"
         style="fill:#a7416f;fill-opacity:1;fill-rule:nonzero;stroke:none"
         id="path230" /><path
         d="m 15639.5,5145.4 c -0.1,0.7 -0.2,1.4 -0.3,2 0.1,-0.6 0.2,-1.3 0.3,-2 m -0.4,2.2 c -0.6,3.7 -1.2,7.5 -1.9,11.3 v 0 c 0.7,-3.8 1.3,-7.6 1.9,-11.3"
         style="fill:#e6e6e6;fill-opacity:1;fill-rule:nonzero;stroke:none"
         id="path232" /><path
         d="m 15637.2,5158.9 v 0 c -50.3,277.7 -231,537.9 -512.8,766.6 0.1,0 0.1,0 0.1,0 281.8,-228.7 462.4,-488.9 512.7,-766.6"
         style="fill:#dadddf;fill-opacity:1;fill-rule:nonzero;stroke:none"
         id="path234" /><path
         d="m 14752,6176.9 c -9.9,5.6 -19.8,11.2 -29.9,16.8 v 0 c 10.1,-5.6 20,-11.2 29.9,-16.8 v 0 m -33.5,18.7 c -29.1,16.1 -58.8,32 -89,47.6 v 0 c 30.3,-15.6 59.9,-31.5 89,-47.6 v 0"
         style="fill:#5cb885;fill-opacity:1;fill-rule:nonzero;stroke:none"
         id="path236" /><path
         d="m 14722.1,6193.7 c -1.2,0.6 -2.4,1.3 -3.6,1.9 v 0 c 1.2,-0.6 2.4,-1.3 3.6,-1.9 v 0"
         style="fill:#e6e6e6;fill-opacity:1;fill-rule:nonzero;stroke:none"
         id="path238" /><path
         d="m 15124.4,5925.5 c -71.5,58 -149.5,114 -233.5,167.8 v 0 c 84,-53.8 162.1,-109.8 233.6,-167.8 0,0 0,0 -0.1,0 m -245,175.1 c -41.1,25.9 -83.5,51.4 -127.4,76.3 v 0 c 43.8,-24.9 86.4,-50.4 127.4,-76.3 v 0"
         style="fill:#53a97c;fill-opacity:1;fill-rule:nonzero;stroke:none"
         id="path240" /><path
         d="m 14890.9,6093.3 c -3.8,2.4 -7.7,4.8 -11.5,7.3 v 0 c 3.8,-2.5 7.6,-4.9 11.5,-7.3 v 0"
         style="fill:#e6e6e6;fill-opacity:1;fill-rule:nonzero;stroke:none"
         id="path242" /><path
         d="m 14629.5,6243.2 c -44.3,22.8 -89.7,45.1 -136.3,66.8 v 0 c 46.6,-21.7 92,-44 136.3,-66.8 v 0"
         style="fill:#53a97c;fill-opacity:1;fill-rule:nonzero;stroke:none"
         id="path244" /><path
         d="m 14493.2,6310 c -1.2,0.6 -2.4,1.1 -3.6,1.7 1.2,-0.6 2.4,-1.1 3.6,-1.7 v 0"
         style="fill:#e6e6e6;fill-opacity:1;fill-rule:nonzero;stroke:none"
         id="path246" /><path
         d="m 14487.7,6312.6 c -0.2,0.1 -0.4,0.2 -0.5,0.2 0.1,0 0.3,-0.1 0.5,-0.2 v 0"
         style="fill:#53a97c;fill-opacity:1;fill-rule:nonzero;stroke:none"
         id="path248" /><path
         d="m 14488.8,6312.1 c -0.4,0.1 -0.8,0.3 -1.1,0.5 v 0 c 0.4,-0.2 0.7,-0.4 1.1,-0.5"
         style="fill:#e6e6e6;fill-opacity:1;fill-rule:nonzero;stroke:none"
         id="path250" /><path
         d="m 14484.9,6313.9 c -0.2,0.1 -0.5,0.2 -0.7,0.3 0.2,-0.1 0.5,-0.2 0.7,-0.3"
         style="fill:#53a97c;fill-opacity:1;fill-rule:nonzero;stroke:none"
         id="path252" /><path
         d="M 15639.5,5145.4 H 8827.95 c 119.64,16.1 228.2,67.1 315.16,142.4 251.47,-15.4 512.34,-24.7 782.55,-24.7 789.14,0 1658.64,79.3 2612.54,318.1 996.2,249.5 1448,513.8 1916.9,746.3 9.8,-4.4 19.5,-8.8 29.1,-13.3 0.2,-0.1 0.5,-0.2 0.7,-0.3 0.8,-0.4 1.5,-0.7 2.3,-1.1 0.1,0 0.3,-0.1 0.5,-0.2 0.3,-0.2 0.7,-0.4 1.1,-0.5 0.3,-0.2 0.5,-0.3 0.8,-0.4 1.2,-0.6 2.4,-1.1 3.6,-1.7 46.6,-21.7 92,-44 136.3,-66.8 30.2,-15.6 59.9,-31.5 89,-47.6 1.2,-0.6 2.4,-1.3 3.6,-1.9 10.1,-5.6 20,-11.2 29.9,-16.8 43.9,-24.9 86.3,-50.4 127.4,-76.3 3.8,-2.5 7.7,-4.9 11.5,-7.3 84,-53.8 162,-109.8 233.5,-167.8 281.8,-228.7 462.5,-488.9 512.8,-766.6 0.7,-3.8 1.3,-7.6 1.9,-11.3 0.1,-0.1 0.1,-0.1 0.1,-0.2 0.1,-0.6 0.2,-1.3 0.3,-2 v 0"
         style="fill:#9e3e69;fill-opacity:1;fill-rule:nonzero;stroke:none"
         id="path254" /><path
         d="m 10055.9,6127.1 c -250.18,0 -439.67,28.6 -462.4,107.3 -23.42,81.1 136.59,193.1 234.94,242.8 89.85,45.5 169.21,59.6 251.46,59.6 67.5,0 137,-9.5 215.9,-19 78.9,-9.5 167.1,-19 272.2,-19 26.5,0 54,0.6 82.7,1.9 409.2,19.4 426.8,162 855.9,180.2 29.6,1.3 59.7,1.9 90.1,1.9 281.6,0 582.3,-52.3 589.6,-127.2 11.4,-118 -707.5,-271.7 -1116,-336.9 -295.1,-47.1 -702.1,-91.6 -1014.4,-91.6"
         style="fill:#b44e7c;fill-opacity:1;fill-rule:nonzero;stroke:none"
         id="path256" /><path
         d="M 9352.76,6946.9 V 5746.3 c 0,-334.8 -271.51,-606.3 -606.31,-606.3 H 7916 c -333.5,0 -604.3,269.5 -606.3,602.5 v 1204.4 h 2043.06"
         style="fill:#f4c434;fill-opacity:1;fill-rule:nonzero;stroke:none"
         id="path258" /><path
         d="m 8071.06,6237.9 c -9.67,0 -19.36,0.1 -29.17,0.4 -277.76,7.6 -524.82,121.9 -732.19,273.3 v 410.8 c 1.46,-30.2 84.18,-58.1 221.84,-80 101.22,-16.2 232.13,-29.2 382.23,-37.8 7.21,-0.4 14.41,-0.8 21.71,-1.2 7.05,-0.4 14.1,-0.7 21.23,-1.1 66.58,-3.3 136.54,-5.8 209.09,-7.2 14.49,-0.4 29.14,-0.7 43.87,-0.8 1.73,-0.1 3.37,-0.1 5.1,-0.1 38.22,-0.6 77.08,-0.9 116.49,-0.9 23.73,0 47.23,0.1 70.59,0.3 26.47,0.3 52.63,0.7 78.57,1.1 47.08,0.9 92.99,2.2 137.8,3.8 54.76,2 107.56,4.6 158.1,7.7 3.68,0.4 7.44,0.5 11.12,0.7 42.39,2.7 83.04,5.8 121.74,9.2 42.51,3.7 82.69,7.9 120.22,12.3 -180.44,-276.8 -488.66,-590.5 -958.34,-590.5 M 7309.7,6924 v 22.9 h 16.81 c -10.68,-7.4 -16.43,-15.1 -16.81,-22.9"
         style="fill:#f5c73e;fill-opacity:1;fill-rule:nonzero;stroke:none"
         id="path260" /><path
         d="m 9352.76,6923.2 c 0,-12.1 -13.09,-23.9 -37.69,-35 -65.18,-29.7 -211.13,-55.1 -405.89,-72.1 -38.7,-3.4 -79.35,-6.5 -121.74,-9.2 -3.68,-0.2 -7.44,-0.3 -11.12,-0.7 -50.54,-3.1 -103.34,-5.7 -158.1,-7.7 -44.81,-1.6 -90.72,-2.9 -137.8,-3.8 -25.94,-0.4 -52.1,-0.8 -78.57,-1.1 -23.36,-0.2 -46.86,-0.3 -70.59,-0.3 -39.41,0 -78.27,0.3 -116.49,0.9 -1.73,0 -3.37,0 -5.1,0.1 -14.73,0.1 -29.38,0.4 -43.87,0.8 -72.55,1.4 -142.51,3.9 -209.09,7.2 -7.13,0.4 -14.18,0.7 -21.23,1.1 -7.3,0.4 -14.5,0.8 -21.71,1.2 -150.1,8.6 -281.01,21.6 -382.23,37.8 -138.89,22.1 -221.86,50.3 -221.86,80.8 0,26.4 61.66,50.9 167.65,71.4 h 0.08 c 71.91,13.9 164.2,25.9 271.53,35.4 8.39,0.8 16.93,1.5 25.54,2.1 43.01,3.6 88.29,6.8 135.45,9.5 48.73,2.8 99.41,5.2 151.83,7 37.21,1.3 75.21,2.3 113.99,3.1 3.13,0.1 6.34,0.1 9.55,0.2 47.64,0.8 96.37,1.3 145.96,1.3 h 13.31 c 26.41,-0.1 52.57,-0.2 78.43,-0.6 54.36,-0.6 107.4,-1.8 158.95,-3.5 2.58,0 5.17,-0.1 7.76,-0.2 21.38,-0.6 42.46,-1.4 63.06,-2.4 90.48,-3.7 175.25,-9.1 252.49,-15.8 4.54,-0.3 9.02,-0.8 13.4,-1.2 3.76,-0.3 7.44,-0.7 11.05,-0.9 208.38,-19.3 357.39,-48.2 405.89,-81.5 11.28,-7.8 17.16,-15.7 17.16,-23.9"
         style="fill:#af8723;fill-opacity:1;fill-rule:nonzero;stroke:none"
         id="path262" /><path
         d="m 8963.15,7514.2 -0.11,-0.5 c -43.58,-190.6 -46.06,-344 -44.64,-464.7 0.12,-6.6 0.23,-13.1 0.23,-19.5 0.12,-5.2 0.24,-10.4 0.24,-15.4 1.3,-82.1 2.72,-147.5 -9.68,-198 -38.74,-3.4 -79.37,-6.5 -121.76,-9.2 -3.66,-0.2 -7.44,-0.3 -11.1,-0.7 -50.55,-3.1 -103.33,-5.7 -158.13,-7.7 -44.76,-1.6 -90.7,-2.9 -137.82,-3.7 -17.95,14.3 -34.36,29.7 -48.77,45.8 -52.91,59.3 -76.65,126.3 -87.04,212.6 -8.62,71.3 -8.03,155.8 -7.44,259.8 0.95,150.5 23.14,261.1 47.24,377.9 53.85,260.7 80.66,391.1 165.34,460.6 161.78,132.7 477.46,107.4 566.85,-35.5 76.29,-121.9 -69.79,-236.6 -153.41,-601.8"
         style="fill:#66cc94;fill-opacity:1;fill-rule:nonzero;stroke:none"
         id="path264" /><path
         d="m 8756.37,7968.4 c -10.62,-47.3 -21.35,-94.5 -31.16,-141.9 -10.29,-47.4 -20.16,-94.8 -29.65,-142.3 -19.05,-94.9 -37.43,-190 -53.63,-285.4 -16.98,-95.4 -31.15,-191.1 -44.34,-287 -5.94,-48 -12.46,-96 -16.91,-144.2 -5.92,-48.1 -8.77,-96.5 -13.26,-144.7 2.67,96.9 10.4,193.6 21.15,290 11.35,96.3 25.64,192.3 41.74,287.9 17.19,95.4 35.43,190.7 56.4,285.3 21.02,94.6 43.55,189 69.66,282.3"
         style="fill:#ffffff;fill-opacity:1;fill-rule:nonzero;stroke:none"
         id="path266" /><path
         d="m 9825.14,7608.2 c -20.32,-119.9 -154.94,-112.3 -307.04,-271.6 -135.58,-141.8 -147.75,-272.3 -182.47,-389.5 -5.9,-20.1 -12.63,-39.7 -20.54,-58.9 -65.2,-29.7 -211.16,-55.1 -405.9,-72.1 -38.74,-3.4 -79.37,-6.5 -121.76,-9.2 -3.66,-0.2 -7.44,-0.3 -11.1,-0.7 -50.55,-3.1 -103.33,-5.7 -158.13,-7.7 -9.92,70.9 4.49,158.1 34.6,248 45.47,136.8 127.31,280.4 215.76,384.6 6.5,7.6 37.44,34.7 94.59,83.1 52.33,44.3 126.72,106.6 224.27,188.5 246.35,206.7 294.53,242.1 366.1,236.2 148.33,-12.3 294.89,-193.8 271.62,-330.7"
         style="fill:#5cbc8a;fill-opacity:1;fill-rule:nonzero;stroke:none"
         id="path268" /><path
         d="m 9482.67,7596.4 c -37.56,-32.1 -74.76,-64.5 -111.02,-97.9 -36.49,-33.1 -72.39,-66.7 -107.94,-100.9 -35.31,-34.3 -70.38,-68.7 -104.39,-104.2 -34.37,-35.2 -67.91,-71.1 -100.38,-108.1 -32.72,-36.5 -64.49,-74 -94.84,-112.5 -11.69,-14.6 -23.14,-29.3 -34.36,-44.2 -3.67,-4.9 -7.33,-9.7 -10.87,-14.5 -14.52,-19.6 -28.69,-39.6 -42.4,-59.7 -32.35,-47.3 -62.58,-96.5 -89.04,-147.5 -3.66,-0.2 -7.44,-0.3 -11.1,-0.7 23.62,55 52.56,108 84.68,158.4 14.17,22.4 28.93,44.5 44.28,66.1 4.25,6.2 8.63,12.3 13.11,18.3 38.38,52.8 79.83,103.2 122.94,152 65.9,74.1 136.28,144 209.85,210.1 73.69,66.1 150.58,128.5 231.48,185.3"
         style="fill:#ffffff;fill-opacity:1;fill-rule:nonzero;stroke:none"
         id="path270" /><path
         d="m 8416.34,6867.1 c -3.21,-26.4 -7.77,-50.7 -14.49,-73.5 -23.35,-0.2 -46.86,-0.3 -70.59,-0.3 -39.41,0 -78.27,0.3 -116.49,0.9 -1.73,0 -3.37,0 -5.1,0.1 -14.73,0.1 -29.38,0.4 -43.87,0.8 -72.55,1.4 -142.51,3.9 -209.09,7.2 -7.13,0.4 -14.18,0.7 -21.23,1.1 -7.3,0.4 -14.5,0.8 -21.71,1.2 0.08,9.2 0.23,18.7 0.4,28.4 0,4.4 0.08,9 0.23,13.5 0,5.6 0.08,11.2 0.16,17 0.63,52.2 0.39,111.4 -4.63,178.1 -5.09,68.2 -15.12,144.1 -34.38,228.3 l -0.08,0.4 c -73.18,319.3 -200.87,419.7 -134.12,526.2 78.1,125 354.1,147 495.58,30.9 74.04,-60.7 97.45,-174.7 144.54,-402.6 21.08,-102.2 40.5,-198.8 41.36,-330.5 0.09,-14.3 0.17,-28.2 0.17,-41.7 0.31,-72.1 -0.32,-132.9 -6.66,-185.5"
         style="fill:#5cbc8a;fill-opacity:1;fill-rule:nonzero;stroke:none"
         id="path272" /><path
         d="m 8214.77,6794.2 c -1.73,0 -3.37,0 -5.1,0.1 -3.84,41.5 -9.48,82.8 -14.57,124.1 -6.12,44.5 -12.54,89 -19.35,133.3 -6.03,39.3 -12.46,78.5 -19.43,117.7 -14.18,83.4 -30.25,166.5 -46.93,249.6 -8.31,41.5 -16.92,82.9 -25.93,124.3 -8.54,41.5 -17.94,82.8 -27.18,124.1 22.79,-81.6 42.46,-164.1 60.87,-246.8 18.33,-82.8 34.31,-166.1 49.28,-249.5 6.66,-39.7 13,-79.4 18.87,-119.2 6.51,-44.1 12.46,-88.3 17.63,-132.5 4.63,-41.7 8.7,-83.4 11.84,-125.2"
         style="fill:#ffffff;fill-opacity:1;fill-rule:nonzero;stroke:none"
         id="path274" /><path
         d="m 8165.8,6795.1 c -72.55,1.4 -142.51,3.9 -209.09,7.2 -7.13,0.4 -14.18,0.7 -21.23,1.1 -7.3,0.4 -14.5,0.8 -21.71,1.2 -150.1,8.6 -281.01,21.6 -382.23,37.8 -12.53,48.5 -26.63,99.2 -54.13,152.2 h -0.08 c -20.21,39 -47.71,79.2 -87.12,120.4 -133.01,139.3 -250.69,132.6 -268.47,237.5 -20.29,119.7 107.8,278.4 237.53,289.1 62.52,5.2 104.67,-25.8 320.11,-206.5 85.23,-71.6 150.34,-126.1 196.09,-164.8 49.98,-42.3 77,-66 82.65,-72.7 36.81,-43.3 72.22,-94.4 103.64,-149 34.63,-60.1 64.24,-124.5 85.08,-187.2 7.52,-22.4 13.86,-44.6 18.96,-66.3"
         style="fill:#66cc94;fill-opacity:1;fill-rule:nonzero;stroke:none"
         id="path276" /><path
         d="m 7956.71,6802.3 c -7.13,0.4 -14.18,0.7 -21.23,1.1 -6.97,10 -14.1,19.8 -21.31,29.6 -3.13,4.2 -6.27,8.4 -9.48,12.7 -9.88,13 -19.83,25.9 -30.09,38.6 -26.55,33.7 -54.29,66.5 -82.88,98.4 -14.02,16 -28.28,31.7 -42.77,47.3 -14.81,15.9 -29.86,31.7 -45.05,47.2 -29.69,31.1 -60.4,61.1 -91.27,91.2 -31.11,29.8 -62.44,59.3 -94.33,88.2 -31.73,29.2 -64.24,57.5 -97.06,85.5 70.66,-49.7 137.88,-104.1 202.35,-162 52.42,-47.1 102.94,-96.4 150.89,-148 11.05,-11.7 21.94,-23.6 32.59,-35.6 37.69,-42.7 73.96,-86.8 107.49,-133 3.92,-5.2 7.75,-10.5 11.51,-16 10.5,-14.8 20.77,-29.9 30.64,-45.2"
         style="fill:#ffffff;fill-opacity:1;fill-rule:nonzero;stroke:none"
         id="path278" /><path
         d="m 8213.65,5261.4 c -443.28,0 -721.13,170.5 -883.76,329.3 v 0 c -12.87,48.5 -19.84,99.4 -20.19,151.8 v 0 448.3 c 111.74,-153.3 369.62,-401.1 868.14,-401.1 85.26,0 177.56,7.2 277.38,23.4 802.51,130.4 889.25,882.9 897.15,1106.5 0.26,1.2 0.39,2.4 0.39,3.6 V 5816.3 c -147.74,-241.2 -397.75,-459.4 -819.83,-527.9 -114.92,-18.6 -221.14,-27 -319.28,-27 m 1139.11,1661.8 c 0,0.9 -0.07,1.7 -0.19,2.5 0.07,2.3 0.13,4.6 0.19,6.8 v -9.3"
         style="fill:#e8ba31;fill-opacity:1;fill-rule:nonzero;stroke:none"
         id="path280" /><path
         d="m 9352.37,6919.6 c 0.07,2.1 0.14,4.1 0.2,6.1 0.12,-0.8 0.19,-1.6 0.19,-2.5 v 0 0 c 0,-1.2 -0.13,-2.4 -0.39,-3.6"
         style="fill:#a68021;fill-opacity:1;fill-rule:nonzero;stroke:none"
         id="path282" /><path
         d="m 7914.52,5140 c -0.09,0 -0.19,0 -0.28,0 0.11,0 0.18,0 0.28,0 m -1.69,0 c -0.09,0 -0.19,0 -0.28,0 0.08,0 0.2,0 0.28,0 m -1.75,0 c -0.02,0 -0.05,0 -0.07,0 0.02,0 0.05,0 0.07,0 m -1.51,0 c -0.08,0 -0.15,0 -0.24,0 0.08,0 0.16,0 0.24,0 m -1.69,0.1 c -0.08,0 -0.15,0 -0.23,0 0.08,0 0.15,0 0.23,0 m -1.71,0 c -0.05,0 -0.06,0 -0.11,0 0.04,0 0.07,0 0.11,0 m -1.55,0 c -0.05,0 -0.13,0 -0.18,0 0.06,0 0.12,0 0.18,0 m -1.64,0 c -0.07,0 -0.17,0 -0.24,0 0.08,0 0.15,0 0.24,0 m -1.73,0.1 c -0.03,0 -0.06,0 -0.09,0 0.04,0 0.05,0 0.09,0 m -1.66,0 v 0 0 m -1.57,0.1 c -0.03,0 -0.1,0 -0.14,0 0.06,0 0.08,0 0.14,0 m -1.69,0 h -0.04 c 0.02,0 0.02,0 0.04,0 m -3.26,0.1 h -0.03 c 0.02,0 0.01,0 0.03,0"
         style="fill:#e6e6e6;fill-opacity:1;fill-rule:nonzero;stroke:none"
         id="path284" /><path
         d="M 8746.45,5140 H 7916 v 0 c -0.5,0 -0.98,0 -1.48,0 -0.1,0 -0.17,0 -0.28,0 -0.47,0 -0.93,0 -1.41,0 -0.08,0 -0.2,0 -0.28,0 -0.5,0 -0.98,0 -1.47,0 -0.02,0 -0.05,0 -0.07,0 -0.47,0 -0.96,0 -1.44,0 -0.08,0 -0.16,0 -0.24,0 -0.48,0 -0.97,0 -1.45,0.1 -0.08,0 -0.15,0 -0.23,0 -0.48,0 -1,0 -1.48,0 -0.04,0 -0.07,0 -0.11,0 -0.48,0 -0.96,0 -1.44,0 -0.06,0 -0.12,0 -0.18,0 -0.49,0 -0.97,0 -1.46,0 -0.09,0 -0.16,0 -0.24,0 -0.5,0.1 -0.99,0.1 -1.49,0.1 -0.04,0 -0.05,0 -0.09,0 -0.53,0 -1.04,0 -1.57,0 v 0 c -0.53,0 -1.04,0 -1.57,0.1 -0.06,0 -0.08,0 -0.14,0 -0.52,0 -1.02,0 -1.55,0 -0.02,0 -0.02,0 -0.04,0 -1.09,0.1 -2.13,0.1 -3.22,0.1 -0.02,0 -0.01,0 -0.03,0 -270.81,10.1 -496.3,198 -563.15,450.3 162.63,-158.8 440.48,-329.3 883.76,-329.3 98.14,0 204.36,8.4 319.28,27 422.08,68.5 672.09,286.7 819.83,527.9 v -70 c 0,-183.1 -81.25,-347.3 -209.65,-458.5 -86.96,-75.3 -195.52,-126.3 -315.16,-142.4 v 0 0 c -26.65,-3.5 -53.87,-5.4 -81.5,-5.4"
         style="fill:#dcb12f;fill-opacity:1;fill-rule:nonzero;stroke:none"
         id="path286" /></g></g></svg>
