<?xml version="1.0" encoding="UTF-8" standalone="no"?>
<svg
   xmlns:dc="http://purl.org/dc/elements/1.1/"
   xmlns:cc="http://creativecommons.org/ns#"
   xmlns:rdf="http://www.w3.org/1999/02/22-rdf-syntax-ns#"
   xmlns:svg="http://www.w3.org/2000/svg"
   xmlns="http://www.w3.org/2000/svg"
   xmlns:sodipodi="http://sodipodi.sourceforge.net/DTD/sodipodi-0.dtd"
   xmlns:inkscape="http://www.inkscape.org/namespaces/inkscape"
   version="1.1"
   id="svg2"
   xml:space="preserve"
   width="2666.6667"
   height="2666.6667"
   viewBox="0 0 2666.6667 2666.6667"
   sodipodi:docname="1._Health_Insurance_1Artboard_4.eps"><metadata
     id="metadata8"><rdf:RDF><cc:Work
         rdf:about=""><dc:format>image/svg+xml</dc:format><dc:type
           rdf:resource="http://purl.org/dc/dcmitype/StillImage" /></cc:Work></rdf:RDF></metadata><defs
     id="defs6" /><sodipodi:namedview
     pagecolor="#ffffff"
     bordercolor="#666666"
     borderopacity="1"
     objecttolerance="10"
     gridtolerance="10"
     guidetolerance="10"
     inkscape:pageopacity="0"
     inkscape:pageshadow="2"
     inkscape:window-width="640"
     inkscape:window-height="480"
     id="namedview4" /><g
     id="g10"
     inkscape:groupmode="layer"
     inkscape:label="ink_ext_XXXXXX"
     transform="matrix(1.3333333,0,0,-1.3333333,0,2666.6667)"><g
       id="g12"
       transform="scale(0.1)"><path
         d="M 0,0 H 20000 V 20000 H 0 Z"
         style="fill:#ffffff;fill-opacity:1;fill-rule:nonzero;stroke:none"
         id="path14" /><path
         d="m 16346.9,4742.4 c -2341.2,13.5 -4658.3,10.4 -6975.51,7.4 -2317.52,-3.1 -4635.04,-6.2 -6976.54,7.3 -533.6,5256.7 300.81,7016.7 1328.06,7511 826.46,397.6 1783.75,-21.2 2869,-440 1182.65,-456.4 2517.24,-912.8 3999.99,-312.6 1138.2,460.7 1516.7,1201.1 2892.3,1342.8 1055.3,108.7 2266.2,-179.4 3039.8,-826.3 1568,-1311.4 1698.2,-4410.8 -177.1,-7289.6"
         style="fill:#deffff;fill-opacity:1;fill-rule:nonzero;stroke:none"
         id="path16" /><path
         d="m 3211.05,8040.1 c -13.25,109.1 -31.11,217.8 -59.5,324 -17.69,66.2 -39.71,131.8 -74.57,190.8 -70.3,118.9 -187.89,202.5 -310.47,266.2 -122.57,63.7 -253.29,111 -373.87,178.4 69.33,-131 139.71,-265.1 162.51,-411.6 17.03,-109.5 6.7,-221.9 24.47,-331.3 32.08,-197.5 160.68,-377 337.37,-470.8 81.88,-43.5 172.45,-69.3 252.97,-115.2 l 2.59,-31.2 c 62.8,121 54.95,265.4 38.5,400.7"
         style="fill:#33d5dd;fill-opacity:1;fill-rule:nonzero;stroke:none"
         id="path18" /><path
         d="m 3407.48,7003.3 c -6.94,49 -49.44,84.4 -90.24,112.5 -119.59,82.3 -251.81,146.3 -390.6,189 -134.44,41.3 -274.52,62.7 -408.23,106.3 -133.71,43.7 -264.95,113.7 -345.91,228.7 -13.22,-92.5 -10.89,-187 3.82,-279.3 14.49,-91 42.13,-182.4 98.8,-255.1 37.72,-48.3 86.88,-86.6 138.41,-119.9 140.69,-90.9 303.19,-147.7 469.84,-164.3 58.23,-5.8 118.28,-6.6 173.83,11.8 86.37,28.6 152.52,100.2 237.14,133.6 39.4,15.5 81.65,22.3 122.04,35.1 l -8.9,1.6"
         style="fill:#33d5dd;fill-opacity:1;fill-rule:nonzero;stroke:none"
         id="path20" /><path
         d="m 3600.43,6263.4 c -3.96,28 -28.19,48.1 -51.47,64.1 -68.21,47 -143.63,83.5 -222.79,107.8 -76.69,23.6 -156.58,35.8 -232.85,60.7 -76.27,24.9 -151.13,64.8 -197.3,130.4 -7.54,-52.7 -6.22,-106.6 2.17,-159.3 8.27,-51.9 24.04,-104 56.36,-145.5 21.51,-27.6 49.56,-49.4 78.95,-68.4 80.25,-51.8 172.94,-84.2 267.99,-93.7 33.21,-3.3 67.47,-3.7 99.15,6.7 49.26,16.4 86.99,57.2 135.26,76.2 22.47,8.9 46.58,12.8 69.61,20.1 l -5.08,0.9"
         style="fill:#20adbc;fill-opacity:1;fill-rule:nonzero;stroke:none"
         id="path22" /><path
         d="m 3697.95,7748.7 c -8.55,48.5 -34.9,92.1 -65.83,130.5 -31.36,38.9 -68.03,73.6 -109.48,101.5 16.66,-73.3 -2.56,-150.4 -33.11,-219.1 -30.55,-68.7 -72.22,-132 -103.94,-200.1 -32.76,-70.4 -54.71,-145.7 -64.85,-222.7 -3.46,-26.2 -4.66,-55.7 12.32,-76 l -2.55,-4.2 c 19.52,11.5 37.35,25.8 57.62,35.9 43.56,21.6 95.64,22.2 137.91,46.3 27.19,15.4 48.38,39.6 66.92,64.7 53.08,72.1 88.71,156.9 103.03,245.3 5.24,32.4 7.65,65.6 1.96,97.9"
         style="fill:#20adbc;fill-opacity:1;fill-rule:nonzero;stroke:none"
         id="path24" /><path
         d="m 3793.6,6842.4 c -5.78,32.9 -23.62,62.4 -44.56,88.4 -21.23,26.3 -46.05,49.8 -74.11,68.7 11.27,-49.6 -1.73,-101.8 -22.41,-148.3 -20.68,-46.5 -48.89,-89.3 -70.37,-135.5 -22.17,-47.6 -37.03,-98.6 -43.9,-150.7 -2.34,-17.8 -3.15,-37.7 8.34,-51.5 l -1.72,-2.8 c 13.21,7.8 25.28,17.5 39.01,24.3 29.48,14.6 64.73,15.1 93.35,31.3 18.4,10.5 32.75,26.8 45.3,43.9 35.93,48.8 60.05,106.2 69.75,166 3.55,21.9 5.18,44.4 1.32,66.2"
         style="fill:#33d5dd;fill-opacity:1;fill-rule:nonzero;stroke:none"
         id="path26" /><path
         d="m 4715.75,9869 c -32.32,131.8 -76.83,264.7 -82.94,398.7 -11.16,-91.5 -41.75,-181.1 -84.25,-263.3 -58.71,-113.6 -139.28,-214.6 -225.18,-309.3 -77.43,-85.5 -161.08,-168.6 -210.11,-273 -73.08,-155.6 -59.57,-337.2 -29.42,-506.5 25.98,-145.8 63.16,-289.7 111.11,-429.9 l 0.15,-14.1 c 163.81,102.4 333.03,209.9 437.26,372.5 64.95,101.4 100.84,219 120.52,337.7 37.75,227.9 17.85,462.9 -37.14,687.2"
         style="fill:#33d5dd;fill-opacity:1;fill-rule:nonzero;stroke:none"
         id="path28" /><path
         d="m 4636.7,10373.3 c -4.61,-35.3 -5.49,-70.5 -3.89,-105.6 4.25,35 5.77,70.3 3.89,105.6"
         style="fill:#33d5dd;fill-opacity:1;fill-rule:nonzero;stroke:none"
         id="path30" /><path
         d="m 4925.41,8202.9 c -6.69,-85.2 -59.84,-161.8 -128.32,-212.9 -68.5,-51.1 -151.2,-79.5 -234.15,-100 -82.96,-20.4 -167.72,-33.7 -249.48,-58.5 -127.11,-38.6 -248.8,-108 -327.02,-215.3 l -14.49,-17.4 c 119.4,-92 279.86,-110.4 430.48,-104.1 124.03,5.1 253.8,27.2 350.69,104.8 84.87,68 134.91,172 157.25,278.4 22.34,106.5 19.48,216.4 15.04,325"
         style="fill:#33d5dd;fill-opacity:1;fill-rule:nonzero;stroke:none"
         id="path32" /><path
         d="m 4503.88,7258.9 c -4.54,-57.8 -40.61,-109.8 -87.1,-144.5 -46.48,-34.7 -102.61,-53.9 -158.92,-67.8 -56.31,-13.9 -113.84,-22.9 -169.33,-39.8 -86.27,-26.1 -168.87,-73.3 -221.96,-146.1 l -9.83,-11.8 c 81.03,-62.4 189.95,-74.9 292.18,-70.7 84.18,3.5 172.26,18.5 238.02,71.2 57.61,46.1 91.58,116.7 106.74,189 15.15,72.2 13.21,146.8 10.2,220.5"
         style="fill:#20adbc;fill-opacity:1;fill-rule:nonzero;stroke:none"
         id="path34" /><path
         d="m 4049.73,8274.7 c -42.15,58 -101.38,100.8 -156.4,146.8 -62.7,52.4 -121.01,110 -174.09,172.2 -41.04,48 -80.5,102.5 -85.48,165.5 -54.47,-128.2 -83.69,-267 -85.47,-406.2 -0.39,-30.8 0.74,-62.5 13.42,-90.5 22.86,-50.5 77.13,-77.6 127.43,-100.9 86.32,-39.9 176.33,-80.7 271.44,-79.4 49.42,0.7 82.82,10.8 124.42,-16 l 1.25,6.2 c 28.23,65.9 5.63,144.3 -36.52,202.3"
         style="fill:#20adbc;fill-opacity:1;fill-rule:nonzero;stroke:none"
         id="path36" /><path
         d="M 4618.84,4742.4 H 2989.31 c 72.61,256.2 409.8,450 814.76,450 404.97,0 742.16,-193.8 814.77,-450"
         style="fill:#2d4d66;fill-opacity:1;fill-rule:nonzero;stroke:none"
         id="path38" /><path
         d="m 3641.75,4989.6 c 32.44,371 45.05,745.3 2.69,1116.1 -37.42,327.5 -119.95,646.6 -228.3,957.5 -72.4,207.8 -154.64,412 -239.6,614.9 -5.42,13 -26.85,7.3 -21.34,-5.9 141.4,-337.7 276.72,-679.9 368.03,-1035.1 82.88,-322.4 122.93,-652.5 126,-985.2 2.04,-221.1 -10.36,-442.1 -29.61,-662.3 -1.24,-14.2 20.9,-14.2 22.13,0"
         style="fill:#2d4d66;fill-opacity:1;fill-rule:nonzero;stroke:none"
         id="path40" /><path
         d="m 3851.91,5028.4 c 18.83,458.5 0.09,917.4 8.98,1376 4.38,226.5 15.59,453 41.62,678 26.32,227.5 68.47,452.9 118.63,676.2 55.7,248 121.33,493.5 186.95,739 3.68,13.8 -17.67,19.7 -21.35,5.9 -116.5,-435.8 -233.33,-873.2 -293.8,-1321 -61.37,-454.6 -58.26,-914.1 -55.36,-1371.9 1.66,-260.7 2.9,-521.5 -7.8,-782.2 -0.59,-14.2 21.55,-14.2 22.13,0"
         style="fill:#2d4d66;fill-opacity:1;fill-rule:nonzero;stroke:none"
         id="path42" /><path
         d="m 6676.82,6821.1 c -0.36,0 -0.73,0.1 -1.1,0.1 -166.64,16.6 -329.14,73.5 -469.84,164.3 -11.33,7.3 -22.55,14.9 -33.56,22.7 18.24,141.1 36.84,285.7 55.47,431.5 0.88,0.4 2.09,0.8 2.96,1.1 26.31,-11 53.12,-20.9 80.01,-29.7 96.02,-31.3 195.31,-51.2 293.44,-75.2 l 72.62,-514.8"
         style="fill:#94edf0;fill-opacity:1;fill-rule:nonzero;stroke:none"
         id="path44" /><path
         d="m 6747.36,6321.1 c -0.15,0.1 -0.3,0.3 -0.45,0.5 -32.33,41.5 -48.09,93.6 -56.37,145.5 -8.38,52.7 -9.71,106.6 -2.17,159.3 5.98,-8.4 12.44,-16.5 19.33,-24.2 l 39.66,-281.1"
         style="fill:#8cdce2;fill-opacity:1;fill-rule:nonzero;stroke:none"
         id="path46" /><path
         d="m 7423.28,7464.5 c -0.11,9.4 -0.23,18.9 -0.34,28.3 5.26,0.4 10.53,0.8 15.76,1.2 -4.85,-10 -9.99,-19.8 -15.42,-29.5"
         style="fill:#8cdce2;fill-opacity:1;fill-rule:nonzero;stroke:none"
         id="path48" /><path
         d="m 7432.96,6552.5 c -0.79,86.8 -1.65,176.6 -2.57,268.7 5.09,9.8 9.97,19.8 14.48,30 20.68,46.5 33.68,98.7 22.41,148.3 28.06,-18.9 52.88,-42.4 74.12,-68.7 20.93,-26 38.77,-55.5 44.56,-88.4 3.85,-21.8 2.22,-44.3 -1.33,-66.2 -9.7,-59.8 -33.81,-117.2 -69.74,-166 -12.55,-17.1 -26.9,-33.4 -45.3,-43.9 -11.42,-6.5 -23.89,-10.4 -36.63,-13.8"
         style="fill:#94edf0;fill-opacity:1;fill-rule:nonzero;stroke:none"
         id="path50" /><path
         d="m 7994.7,8476.1 c 1.92,7.2 3.83,14.3 5.74,21.5 2.22,8.3 -4.65,13.7 -11.26,13.7 -3.48,0 -6.9,-1.5 -8.88,-4.9 -44.57,133.7 -79.4,270.6 -104.1,409.2 -30.14,169.3 -43.65,350.9 29.43,506.5 49.02,104.4 132.67,187.5 210.1,273 85.9,94.7 166.47,195.7 225.19,309.3 5.91,11.5 11.6,23.1 17.04,34.8 v -1283 c -100.42,-113.7 -233.2,-198.8 -363.26,-280.1"
         style="fill:#94edf0;fill-opacity:1;fill-rule:nonzero;stroke:none"
         id="path52" /><path
         d="m 8143.11,7493.6 c -129.48,0 -261.9,21.8 -365.9,95.7 2.32,11.4 4.66,22.8 7.03,34.2 78.36,103.2 197.38,170.3 321.57,208 81.76,24.8 166.52,38.1 249.48,58.5 0.89,0.3 1.78,0.5 2.67,0.7 v -376.2 c -53.33,-12.1 -108.81,-17.6 -163.18,-19.8 -17.12,-0.7 -34.36,-1.1 -51.67,-1.1"
         style="fill:#94edf0;fill-opacity:1;fill-rule:nonzero;stroke:none"
         id="path54" /><path
         d="m 7906.24,6777.5 c -82.22,0 -166.22,12.9 -234.51,55.7 1.15,16 2.37,32.1 3.64,48.2 52.88,61.2 127.7,101.8 205.51,125.4 55.49,16.9 113.03,25.9 169.33,39.8 56.31,13.9 112.44,33.1 158.92,67.8 46.5,34.7 82.56,86.7 87.1,144.5 3.02,-73.7 4.95,-148.3 -10.2,-220.5 -15.16,-72.3 -49.13,-142.9 -106.73,-189 -65.77,-52.7 -153.85,-67.7 -238.03,-71.2 -11.61,-0.5 -23.29,-0.7 -35.03,-0.7 m -255.39,70.1 c -0.59,0.4 -1.18,0.9 -1.76,1.3 l 2.04,2.5 c -0.1,-1.3 -0.19,-2.5 -0.28,-3.8"
         style="fill:#8cdce2;fill-opacity:1;fill-rule:nonzero;stroke:none"
         id="path56" /><path
         d="m 7867.94,8080.1 c -14.46,3.8 -29.75,4.9 -45.36,4.9 -23.07,0 -46.84,-2.5 -69.65,-2.8 -1.49,0 -2.97,0 -4.46,0 -12.88,0 -25.67,0.7 -38.36,2.2 l -33.9,345.1 c 3.15,-2.7 6.31,-5.4 9.48,-8 55.02,-46 114.24,-88.8 156.4,-146.8 23.81,-32.8 41.34,-72 46.99,-111.9 -7.11,-27.6 -14.15,-55.1 -21.14,-82.7"
         style="fill:#8cdce2;fill-opacity:1;fill-rule:nonzero;stroke:none"
         id="path58" /><path
         d="m 7897.92,8067.3 -9.75,2.6 c 0.22,0.8 0.44,1.7 0.65,2.5 3.09,-1.5 6.13,-3.2 9.1,-5.1"
         style="fill:#8cdce2;fill-opacity:1;fill-rule:nonzero;stroke:none"
         id="path60" /><path
         d="M 8411.19,4742.4 H 6781.66 c 0.45,1.6 0.92,3.2 1.39,4.8 542.39,0.2 1084.63,0.7 1626.35,1.3 0.61,-2 1.21,-4.1 1.79,-6.1"
         style="fill:#a4b2bd;fill-opacity:1;fill-rule:nonzero;stroke:none"
         id="path62" /><path
         d="m 6783.05,4747.2 c 31.89,107.3 110.24,203.4 220.45,278.7 l 2.6,-28.1 274.27,25.2 13.12,131.3 c 42.81,11.3 87.35,20.2 133.29,26.5 -4.24,-63.8 -9.24,-127.5 -14.81,-191.2 -0.62,-7.1 4.59,-10.7 10.12,-10.7 5.54,0 11.4,3.6 12.02,10.7 5.65,64.6 10.7,129.3 14.96,194.1 47.83,5.8 97.06,8.7 147.36,8.7 10.35,0 20.69,-0.1 30.96,-0.3 -1.3,-54.6 -3.02,-109.1 -5.26,-163.7 -0.29,-7.1 5.1,-10.6 10.63,-10.6 5.53,0 11.22,3.5 11.51,10.6 2.23,54.3 3.93,108.6 5.21,162.9 327.27,-13.8 603.01,-154.3 718.33,-348.9 6.3,-19.2 15.44,-37.1 26.93,-53.2 5.63,-13.4 10.52,-26.9 14.66,-40.7 -541.72,-0.6 -1083.96,-1.1 -1626.35,-1.3"
         style="fill:#92b2bd;fill-opacity:1;fill-rule:nonzero;stroke:none"
         id="path64" /><path
         d="m 7422.09,4978.9 c -5.53,0 -10.74,3.6 -10.12,10.7 5.57,63.7 10.57,127.4 14.81,191.2 5.63,84.8 9.92,169.7 12.45,254.7 l 2.21,1.1 c 0,0 -0.14,26.2 -0.44,74.4 0.8,47 1.02,93.9 0.58,140.9 -0.32,34.9 -1.05,69.7 -2.19,104.6 -0.69,98.5 -1.55,216.3 -2.6,349.2 v 0 c 34.98,-306.2 32.48,-614.8 12.28,-922 -4.26,-64.8 -9.31,-129.5 -14.96,-194.1 -0.62,-7.1 -6.48,-10.7 -12.02,-10.7"
         style="fill:#92b2bd;fill-opacity:1;fill-rule:nonzero;stroke:none"
         id="path66" /><path
         d="m 7632.76,5017.8 c -5.53,0 -10.92,3.5 -10.63,10.6 2.24,54.6 3.96,109.1 5.26,163.7 4.9,206.1 3.86,412.3 2.55,618.5 -2.2,345.6 -4.51,692.3 20.91,1037 0.09,1.3 0.18,2.5 0.28,3.8 8.22,110.5 19.3,221 34.17,331.1 15.68,116.1 35.14,231.5 57.42,346.4 7.52,1.4 14.7,2.8 21.52,4.3 l -6.83,69.5 c 32.69,160 70.44,319 110.53,477.4 6.99,27.6 14.03,55.1 21.14,82.7 29.36,113.8 59.7,227.3 90.02,340.7 0.29,1.1 0.7,2.1 1.2,2.9 1.98,3.4 5.4,4.9 8.88,4.9 6.61,0 13.48,-5.4 11.26,-13.7 -1.91,-7.2 -3.82,-14.3 -5.74,-21.5 -35.92,-134.3 -71.76,-268.8 -105.88,-403.7 -0.21,-0.8 -0.43,-1.7 -0.65,-2.5 -26.15,-103.5 -51.28,-207.2 -74.67,-311.3 -10.1,-45 -19.87,-90 -29.26,-135.1 -2.37,-11.4 -4.71,-22.8 -7.03,-34.2 -34.12,-167.8 -62.66,-336.8 -82.34,-506.9 -7.74,-66.9 -14.17,-133.9 -19.5,-201 -1.27,-16.1 -2.49,-32.2 -3.64,-48.2 -10.23,-142.7 -15.72,-285.7 -18.49,-428.8 -7.84,-404.3 5.8,-808.8 -3.76,-1213.1 -1.28,-54.3 -2.98,-108.6 -5.21,-162.9 -0.29,-7.1 -5.98,-10.6 -11.51,-10.6"
         style="fill:#92b2bd;fill-opacity:1;fill-rule:nonzero;stroke:none"
         id="path68" /><path
         d="M 15984.1,14241 V 4904.4 c 0,-109.8 -89.1,-198.9 -198.9,-198.9 H 8556.86 c -109.81,0 -198.9,89.1 -198.9,198.9 V 14241 c 0,109.8 89.09,198.9 198.9,198.9 h 7228.34 c 109.8,0 198.9,-89.1 198.9,-198.9"
         style="fill:#48dcfc;fill-opacity:1;fill-rule:nonzero;stroke:none"
         id="path70" /><path
         d="M 15439,5457.1 H 8903.12 c -46.07,0 -83.42,37.4 -83.42,83.4 v 8082.7 c 0,46 37.35,83.4 83.42,83.4 H 15439 c 46,0 83.4,-37.4 83.4,-83.4 V 5540.5 c 0,-46 -37.4,-83.4 -83.4,-83.4"
         style="fill:#c5faff;fill-opacity:1;fill-rule:nonzero;stroke:none"
         id="path72" /><path
         d="M 12811.9,9893.5 H 9675.09 c -79.46,0 -143.87,64.4 -143.87,143.9 v 69.7 c 0,79.5 64.41,143.9 143.87,143.9 h 3257.71 c -43.8,-123.9 -83.3,-243.2 -120.9,-357.5"
         style="fill:#6cb6ec;fill-opacity:1;fill-rule:nonzero;stroke:none"
         id="path74" /><path
         d="M 12307.5,8784.4 H 9789.66 c -89.46,44.1 -178.58,88.8 -267.18,132.7 -0.29,3.7 -0.44,7.4 -0.44,11.2 v 69.7 c 0,79.5 64.42,143.9 143.88,143.9 H 12533 c -63.8,-132.4 -136.3,-251.9 -225.5,-357.5"
         style="fill:#80c5f0;fill-opacity:1;fill-rule:nonzero;stroke:none"
         id="path76" /><path
         d="M 9531.22,10993.4 H 14820 v 2080.7 H 9531.22 Z"
         style="fill:#2e86de;fill-opacity:1;fill-rule:nonzero;stroke:none"
         id="path78" /><path
         d="m 12778.5,12274.9 v -473.4 l -457.1,-6.7 v -462.2 H 11848 v 462.2 h -458.5 v 473.4 h 458.5 l -6.7,466.8 h 473.4 l 6.7,-466.8 457.1,6.7"
         style="fill:#ffffff;fill-opacity:1;fill-rule:nonzero;stroke:none"
         id="path80" /><path
         d="m 11966.5,4873.6 c -643.1,0 -1300.1,271.5 -1946.4,583.5 h 3367 c -134.1,-139.4 -292.7,-259.7 -486.3,-359.8 -306.1,-158.2 -618.5,-223.7 -934.3,-223.7 m -3608.54,30.8 v 0 4442.5 c 150.3,-19 304.57,-60.8 461.74,-117 V 6036.5 C 8663.98,6104.4 8510,6165.7 8357.96,6217 V 4904.4 m 7164.44,5037 v 3603.7 c 158.6,104.3 313.5,197.4 461.7,280.6 v -3284.1 c -158.5,-189 -312.9,-388.9 -461.7,-600.2"
         style="fill:#45d3f2;fill-opacity:1;fill-rule:nonzero;stroke:none"
         id="path82" /><path
         d="m 13387.1,5457.1 h -3367 c -406.37,196.2 -808.68,408.5 -1200.4,579.4 v 3193.4 c 228.87,-81.9 463.91,-194.5 702.78,-312.8 5.72,-74.3 67.76,-132.7 143.44,-132.7 h 123.74 c 488.84,-241.1 988.74,-466.8 1476.84,-466.8 219,0 435.6,45.4 647.9,155.1 162.2,83.9 289,188.3 393.1,311.7 H 13742 c -15.3,-97.8 -45.6,-323.7 -55,-623.3 H 9665.92 c -79.46,0 -143.88,-64.4 -143.88,-143.9 v -69.7 c 0,-79.5 64.42,-143.9 143.88,-143.9 h 4020.98 c 1.9,-62.6 5,-127.1 9.4,-193 11.2,-169.4 31.3,-348.2 63.8,-531.1 H 9665.92 c -79.46,0 -143.88,-64.4 -143.88,-143.9 v -69.7 c 0,-79.5 64.42,-143.9 143.88,-143.9 h 4173.58 c 28.5,-105.6 61.7,-211.4 100.4,-316.2 -144.2,-374.5 -307.3,-693.4 -552.8,-948.7 m 906,3684.8 H 12533 c 104.8,217.4 186,469.5 278.9,751.6 h 1864.3 c 79.4,0 143.8,64.4 143.8,143.9 v 69.7 c 0,79.5 -64.4,143.9 -143.8,143.9 h -1743.4 c 81.9,231.9 178.7,480.1 305.6,742.4 H 14820 v 2026.1 c 235.8,200.7 473,374.8 702.4,525.6 V 9941.4 c -1.4,-1.9 -2.7,-3.8 -4.1,-5.7 -116.3,-165.5 -222.1,-328 -319.1,-487.7 -267.4,-68.4 -595.7,-168.4 -906.1,-306.1"
         style="fill:#bdf0f5;fill-opacity:1;fill-rule:nonzero;stroke:none"
         id="path84" /><path
         d="m 14676.2,9893.5 h -1864.3 c 37.6,114.3 77.1,233.6 120.9,357.5 h 1743.4 c 79.4,0 143.8,-64.4 143.8,-143.9 v -69.7 c 0,-79.5 -64.4,-143.9 -143.8,-143.9"
         style="fill:#68afe3;fill-opacity:1;fill-rule:nonzero;stroke:none"
         id="path86" /><path
         d="m 13742,8784.4 h -1434.5 c 89.2,105.6 161.7,225.1 225.5,357.5 h 1760.1 c -194.3,-86.2 -381.5,-187.1 -542.2,-304.3 0,0 -3.5,-18.5 -8.9,-53.2 m -3952.34,0 h -123.74 c -75.68,0 -137.72,58.4 -143.44,132.7 88.6,-43.9 177.72,-88.6 267.18,-132.7"
         style="fill:#7bbde7;fill-opacity:1;fill-rule:nonzero;stroke:none"
         id="path88" /><path
         d="M 13686.9,7803.6 H 9665.92 c -79.46,0 -143.88,64.4 -143.88,143.9 v 69.7 c 0,79.5 64.42,143.9 143.88,143.9 H 13687 c -1.6,-52.6 -2.6,-107.6 -2.8,-164.4 -0.2,-62.2 0.6,-126.6 2.7,-193.1"
         style="fill:#95d1ec;fill-opacity:1;fill-rule:nonzero;stroke:none"
         id="path90" /><path
         d="M 13839.5,6722 H 9665.92 c -79.46,0 -143.88,64.4 -143.88,143.9 v 69.7 c 0,79.5 64.42,143.9 143.88,143.9 h 4094.18 c 21,-118 47.1,-237.7 79.4,-357.5"
         style="fill:#a3dcef;fill-opacity:1;fill-rule:nonzero;stroke:none"
         id="path92" /><path
         d="m 14820,10993.4 h -1581.6 c 127.8,264.3 286.2,543 490.9,834.1 334.6,476.1 710.9,868.7 1090.7,1192 v -2026.1"
         style="fill:#2c81d5;fill-opacity:1;fill-rule:nonzero;stroke:none"
         id="path94" /><path
         d="M 15693.2,4705.5 H 8556.86 c -66.87,0 -126.06,33 -162.12,83.7 -11.49,16.1 -20.63,34 -26.93,53.2 -6.39,19.5 -9.85,40.4 -9.85,62 V 6217 c 152.04,-51.3 306.02,-112.6 461.74,-180.5 v -496 c 0,-46 37.35,-83.4 83.42,-83.4 h 1116.98 c 646.3,-312 1303.3,-583.5 1946.4,-583.5 315.8,0 628.2,65.5 934.3,223.7 193.6,100.1 352.2,220.4 486.3,359.8 h 1114.6 c 289,-319.4 675.9,-585.5 1191.5,-751.6"
         style="fill:#42cbe9;fill-opacity:1;fill-rule:nonzero;stroke:none"
         id="path96" /><path
         d="m 14501.7,5457.1 h -1114.6 c 245.5,255.3 408.6,574.2 552.8,948.7 124,-336.4 303.9,-663.7 561.8,-948.7 m -4481.6,0 H 8903.12 c -46.07,0 -83.42,37.4 -83.42,83.4 v 496 c 391.72,-170.9 794.03,-383.2 1200.4,-579.4"
         style="fill:#b6e7eb;fill-opacity:1;fill-rule:nonzero;stroke:none"
         id="path98" /><path
         d="m 15522.4,9523.1 v 418.3 c 148.8,211.3 303.2,411.2 461.7,600.2 V 9526 c -122.9,25.4 -204.1,38.6 -222,41.5 l -1.9,0.3 -1.9,-0.3 c -18.6,-3 -105.2,-17.2 -235.9,-44.4"
         style="fill:#42cbe9;fill-opacity:1;fill-rule:nonzero;stroke:none"
         id="path100" /><path
         d="m 15199.2,9448 c 97,159.7 202.8,322.2 319.1,487.7 1.4,1.9 2.7,3.8 4.1,5.7 v -418.3 c -89.6,-18.7 -199.9,-43.5 -323.2,-75.1"
         style="fill:#b6e7eb;fill-opacity:1;fill-rule:nonzero;stroke:none"
         id="path102" /><path
         d="m 15762.1,4685.3 -1.9,-0.5 -1.9,0.5 c -1588.4,475.7 -1992.5,1880.6 -2062,2925.3 -9.1,135.8 -12.5,265.3 -12.1,386.1 1.4,495.5 66.7,840.9 66.7,840.9 708.7,516.5 1931.2,717.8 2007.4,729.9 l 1.9,0.3 1.9,-0.3 c 39.2,-6.2 382.1,-62.6 802.2,-186.3 173.6,-51.1 360.5,-113.6 544.5,-188.9 236,-96.5 467.4,-213.9 660.6,-354.7 0,0 634.3,-3361.2 -2007.3,-4152.3"
         style="fill:#2e86de;fill-opacity:1;fill-rule:nonzero;stroke:none"
         id="path104" /><path
         d="m 15761.7,5136.8 -1.5,-0.4 -1.5,0.4 c -2153.1,644.8 -1636.2,3384.3 -1636.2,3384.3 577.7,420.9 1574.1,584.9 1636.2,594.8 l 1.5,0.3 1.5,-0.3 c 62.1,-9.9 1058.4,-173.9 1636.1,-594.8 0,0 516.9,-2739.5 -1636.1,-3384.3"
         style="fill:#c5faff;fill-opacity:1;fill-rule:nonzero;stroke:none"
         id="path106" /><path
         d="m 17579.2,5469.6 c -0.9,-0.2 -2,-0.4 -3.3,-0.5 v 0.9 c 0,0 1.1,-0.2 3.3,-0.4"
         style="fill:#c5faff;fill-opacity:1;fill-rule:nonzero;stroke:none"
         id="path108" /><path
         d="m 17582.3,5470 v -0.9 c -1.2,0.1 -2.3,0.3 -3.1,0.5 2.1,0.2 3.1,0.4 3.1,0.4"
         style="fill:#c5faff;fill-opacity:1;fill-rule:nonzero;stroke:none"
         id="path110" /><path
         d="m 16620.6,7505.8 v -590 l -569.6,-8.3 v -576.2 h -590 v 576.2 h -571.5 v 590 h 571.5 l -8.4,581.7 h 590 l 8.4,-581.7 569.6,8.3"
         style="fill:#2d4d66;fill-opacity:1;fill-rule:nonzero;stroke:none"
         id="path112" /><path
         d="m 17820.5,7560.5 c 18.2,238.4 18.6,459.4 11.1,648.3 7.5,-188.9 7.1,-409.9 -11.1,-648.3 v 0 0 m 11.1,648.7 c 0,0.5 -0.1,1.1 -0.1,1.6 0,-0.5 0.1,-1.1 0.1,-1.6 m -0.1,2 c 0,0.4 0,0.6 0,1.1 0,-0.4 0,-0.7 0,-1.1 m -0.1,3.2 c 0,0.1 0,0.2 0,0.3 0,-0.1 0,-0.2 0,-0.3 m -61.9,622.8 c 0,0 0,0 0,0.1 0,-0.1 0,-0.1 0,-0.1 m 0,0.1 v 0 0 m 0,0.1 v 0 0 m 0,0.1 c 0,0 -0.1,0 -0.1,0.1 0,-0.1 0.1,-0.1 0.1,-0.1 m -0.1,0.1 v 0 0 m 0,0 v 0 0 m 0,0 v 0 0"
         style="fill:#f0f0f0;fill-opacity:1;fill-rule:nonzero;stroke:none"
         id="path114" /><path
         d="m 14605,5653.9 c -95.8,0 -186.7,4.2 -273.2,11.7 v 0 c -439.7,599.5 -594.8,1333.9 -635.5,1945 119.8,-49.1 249.7,-108.5 387.6,-167.7 49.5,-581.4 230.6,-1280.3 751.4,-1780.9 -72.6,-5 -146.7,-7.8 -221.8,-8 -2.8,0 -5.7,-0.1 -8.5,-0.1 M 17354.8,6914 c 190.4,826.1 43,1607.1 43,1607.1 -128.2,93.4 -276.9,174.1 -431.5,243.3 53.5,141.6 100.6,285.3 142.5,427.9 236,-96.5 467.4,-213.9 660.6,-354.7 v 0 0 0 0 0 0 0 c 0,-0.1 0.1,-0.1 0.1,-0.1 0,0 0,0 0,-0.1 v 0 c 0,0 0,0 0,-0.1 v 0 0 c 0,-0.1 0,-0.1 0,-0.1 2.1,-11.5 46.9,-255.6 61.9,-622.5 0,-0.1 0,-0.2 0,-0.3 0,-0.7 0,-1.5 0.1,-2.1 0,-0.5 0,-0.7 0,-1.1 0,-0.2 0,-0.3 0,-0.4 0,-0.5 0.1,-1.1 0.1,-1.6 0,-0.1 0,-0.2 0,-0.4 7.5,-188.9 7.1,-409.9 -11.1,-648.3 -143.2,-197.2 -278.8,-418.9 -465.7,-646.5"
         style="fill:#2b7ed1;fill-opacity:1;fill-rule:nonzero;stroke:none"
         id="path116" /><path
         d="m 14835.3,5662 c -520.8,500.6 -701.9,1199.5 -751.4,1780.9 246.7,-105.8 519.2,-211.3 805.6,-257.6 v -277.8 h 571.5 v -576.2 h 590 v 576.2 l 569.6,8.3 v 590 l -484.1,-7.1 c 378.9,301.8 642.8,770.4 829.8,1265.7 154.6,-69.2 303.3,-149.9 431.5,-243.3 0,0 147.4,-781 -43,-1607.1 -159.1,-193.7 -355.4,-391.7 -625.5,-582.7 -103.5,-73.2 -865.9,-597.9 -1894,-669.3"
         style="fill:#b9ebf0;fill-opacity:1;fill-rule:nonzero;stroke:none"
         id="path118" /><path
         d="m 16051,6331.3 h -590 v 576.2 h -571.5 v 277.8 c 96.1,-15.6 193.8,-24.5 292.6,-24.5 170.3,0 343.9,26.4 518.6,90.5 160,58.7 304.8,143.1 435.8,247.4 l 484.1,7.1 v -590 l -569.6,-8.3 v -576.2"
         style="fill:#2a4860;fill-opacity:1;fill-rule:nonzero;stroke:none"
         id="path120" /><path
         d="m 15760.2,4684.8 -1.9,0.5 v 0 0 l 1.9,-0.5 1.9,0.5 c 1.1,0.3 2.3,0.7 3.4,1 -1.1,-0.3 -2.3,-0.7 -3.4,-1 l -1.9,-0.5 m -5.7,1.6 h -0.1 0.1 m 11.7,0.1 c 1,0.3 2.3,0.7 3.2,1 -1.1,-0.4 -2.1,-0.6 -3.2,-1 m 4.1,1.3 c 1,0.2 2.1,0.6 3.1,0.9 -1.1,-0.3 -2,-0.6 -3.1,-0.9 m 4,1.2 c 0.8,0.2 1.7,0.5 2.5,0.7 -0.8,-0.2 -1.8,-0.5 -2.5,-0.7 m 3.6,1.1 c 1,0.3 1.9,0.5 2.9,0.8 -0.9,-0.2 -2,-0.6 -2.9,-0.8 m 4.2,1.2 c 0.8,0.3 1.5,0.5 2.3,0.8 -0.7,-0.3 -1.6,-0.5 -2.3,-0.8 m 4.1,1.3 c 0.7,0.2 1.2,0.4 1.8,0.6 -0.6,-0.2 -1.2,-0.4 -1.8,-0.6 m 3.8,1.2 c 0.6,0.2 1.3,0.4 2,0.6 -0.7,-0.2 -1.4,-0.4 -2,-0.6 m 3.8,1.1 c 0.5,0.2 0.9,0.3 1.4,0.5 -0.5,-0.2 -1,-0.3 -1.4,-0.5 m 4.1,1.3 c 0.3,0.1 0.9,0.3 1.2,0.4 -0.3,-0.1 -0.8,-0.2 -1.2,-0.4 m 4.4,1.4 c 0.4,0.1 0.6,0.2 0.9,0.3 -0.2,-0.1 -0.6,-0.2 -0.9,-0.3 m 7.4,2.3 c 0.1,0.1 0.1,0.1 0.3,0.1 -0.1,0 -0.2,-0.1 -0.3,-0.1 m 1962.8,2452.3 c 0.1,0.4 0.2,1 0.2,1.3 0,-0.4 -0.1,-0.8 -0.2,-1.3 m 0.4,2.1 c 0.1,0.8 0.2,1.7 0.3,2.5 -0.1,-0.9 -0.2,-1.6 -0.3,-2.5 m 0.4,2.5 c 22.1,138.2 37.3,273.5 47.2,403.7 v 0 c -9.9,-130.2 -25.1,-265.6 -47.2,-403.7"
         style="fill:#e2e2e2;fill-opacity:1;fill-rule:nonzero;stroke:none"
         id="path122" /><path
         d="m 15760.2,4684.8 -1.9,0.5 v 0 c -1.3,0.4 -2.5,0.7 -3.8,1.1 h -0.1 c -657.1,197.7 -1111.1,554.6 -1422.6,979.2 86.5,-7.5 177.4,-11.7 273.2,-11.7 2.8,0 5.7,0.1 8.5,0.1 75.1,0.2 149.2,3 221.8,8 233.3,-224.3 534.9,-408.9 923.4,-525.2 l 1.5,-0.4 1.5,0.4 c 1003.4,300.5 1427,1056.1 1593.1,1777.2 186.9,227.6 322.5,449.3 465.7,646.5 -9.9,-130.2 -25.1,-265.5 -47.2,-403.7 h -0.1 c -0.1,-0.8 -0.2,-1.7 -0.3,-2.5 -0.1,-0.2 -0.1,-0.6 -0.2,-0.8 0,-0.3 -0.1,-0.9 -0.2,-1.3 -153.3,-951.6 -633.9,-2032.3 -1962.5,-2452.2 -0.2,0 -0.2,0 -0.3,-0.1 -2.2,-0.7 -4.3,-1.3 -6.5,-2 -0.3,-0.1 -0.5,-0.2 -0.9,-0.3 -1.1,-0.3 -2,-0.6 -3.2,-1 -0.3,-0.1 -0.9,-0.3 -1.2,-0.4 -0.9,-0.3 -1.7,-0.5 -2.7,-0.8 -0.5,-0.2 -0.9,-0.3 -1.4,-0.5 -0.6,-0.1 -1.3,-0.3 -1.8,-0.5 -0.7,-0.2 -1.4,-0.4 -2,-0.6 -0.7,-0.2 -1.3,-0.4 -2,-0.6 -0.6,-0.2 -1.1,-0.4 -1.8,-0.6 -0.6,-0.2 -1.1,-0.3 -1.8,-0.5 -0.8,-0.3 -1.5,-0.5 -2.3,-0.8 -0.5,-0.1 -0.9,-0.2 -1.3,-0.4 -1,-0.3 -1.9,-0.5 -2.9,-0.8 -0.4,-0.2 -0.7,-0.2 -1.1,-0.4 -0.8,-0.2 -1.7,-0.5 -2.5,-0.7 -0.3,-0.1 -0.6,-0.2 -0.9,-0.3 -1,-0.3 -2.1,-0.7 -3.1,-0.9 -0.3,-0.1 -0.6,-0.2 -0.9,-0.3 -0.9,-0.3 -2.2,-0.7 -3.2,-1 -0.2,0 -0.5,-0.1 -0.7,-0.2 -1.1,-0.3 -2.3,-0.7 -3.4,-1 l -1.9,-0.5"
         style="fill:#2877c5;fill-opacity:1;fill-rule:nonzero;stroke:none"
         id="path124" /><path
         d="m 15760.2,5136.4 -1.5,0.4 c -388.5,116.3 -690.1,300.9 -923.4,525.2 1028.1,71.4 1790.5,596.1 1894,669.3 270.1,191 466.4,389 625.5,582.7 -166.1,-721.1 -589.7,-1476.7 -1593.1,-1777.2 l -1.5,-0.4"
         style="fill:#aedde2;fill-opacity:1;fill-rule:nonzero;stroke:none"
         id="path126" /><path
         d="m 14069.8,7945.3 c -135.3,7.4 -265.1,24.7 -385.6,51.4 1.4,495.5 66.7,840.9 66.7,840.9 708.7,516.5 1931.2,717.8 2007.4,729.9 l 1.9,0.3 1.9,-0.3 c 39.2,-6.2 382.1,-62.6 802.2,-186.3 -39.3,-123.1 -113.5,-260.2 -213.8,-398.3 -312.3,87.7 -558.9,128.3 -588.8,133 l -1.5,0.3 -1.5,-0.3 c -62.1,-9.9 -1058.5,-173.9 -1636.2,-594.8 0,0 -43.6,-231.6 -52.7,-575.8"
         style="fill:#4795e2;fill-opacity:1;fill-rule:nonzero;stroke:none"
         id="path128" /><path
         d="m 14222.8,7941.1 c -51.6,0 -102.7,1.4 -153,4.2 9.1,344.2 52.7,575.8 52.7,575.8 577.7,420.9 1574.1,584.9 1636.2,594.8 l 1.5,0.3 1.5,-0.3 c 29.9,-4.7 276.5,-45.3 588.8,-133 -200,-275.4 -503.7,-554.8 -842.2,-736.4 -389.2,-208.9 -856.3,-305.4 -1285.5,-305.4"
         style="fill:#ccfbff;fill-opacity:1;fill-rule:nonzero;stroke:none"
         id="path130" /><path
         d="m 8819.7,10818.2 c -153.9,85.9 -309.64,190.8 -461.74,309.7 V 14241 c 0,109.8 89.09,198.9 198.9,198.9 h 1989.54 v -438.5 c 0,-10.6 2.3,-20.5 6.5,-29.4 v 0 0 c 11.1,-24.1 35.4,-40.8 63.8,-40.8 h 969.5 c -106.9,-73.8 -205.2,-148.8 -295.5,-224.6 H 8903.12 c -46.07,0 -83.42,-37.4 -83.42,-83.4 v -2805"
         style="fill:#4fddfc;fill-opacity:1;fill-rule:nonzero;stroke:none"
         id="path132" /><path
         d="m 9605.24,10569.4 c -233.38,0 -506.37,93.1 -785.54,248.8 v 2805 c 0,46 37.35,83.4 83.42,83.4 h 2387.58 c -245.7,-206.4 -432.2,-419.4 -573.5,-632.5 H 9531.22 v -2080.7 h 652.88 c -45.4,-152.5 -120.9,-272.1 -258.74,-348.3 -93.64,-51.8 -201.8,-75.7 -320.12,-75.7"
         style="fill:#c7faff;fill-opacity:1;fill-rule:nonzero;stroke:none"
         id="path134" /><path
         d="m 10184.1,10993.4 h -652.88 v 2080.7 h 1185.98 c -97.7,-147.4 -173.8,-294.8 -232.7,-439.9 -263.3,-648.5 -184.5,-1252 -300.4,-1640.8"
         style="fill:#368bdf;fill-opacity:1;fill-rule:nonzero;stroke:none"
         id="path136" /><path
         d="m 13557.3,14744.7 v -743.3 c 0,-38.8 -31.4,-70.2 -70.2,-70.2 h -2870.4 c -28.4,0 -52.7,16.7 -63.8,40.8 -4.2,8.9 -6.5,18.8 -6.5,29.4 v 743.3 c 0,38.8 31.5,70.2 70.3,70.2 h 2870.4 c 23.7,0 44.5,-11.6 57.2,-29.5 8.2,-11.4 13,-25.5 13,-40.7"
         style="fill:#20adbc;fill-opacity:1;fill-rule:nonzero;stroke:none"
         id="path138" /><path
         d="m 11414.9,14667.4 h 1333.9 c -29.2,235.6 -230.7,418.7 -474.2,418.7 h -385.5 c -243.5,0 -445,-183.1 -474.2,-418.7 m 1566.6,-229.2 h -1799.3 v 170.1 c 0,389.8 317.1,706.9 706.9,706.9 h 385.5 c 389.8,0 706.9,-317.1 706.9,-706.9 v -170.1"
         style="fill:#20adbc;fill-opacity:1;fill-rule:nonzero;stroke:none"
         id="path140" /><path
         d="m 13487.1,13931.2 h -2870.4 c -28.4,0 -52.7,16.7 -63.8,40.8 553.9,50.4 1263.3,173.6 2110.7,466.2 h 317.9 v 115.5 c 181.9,69.2 369.6,146.2 562.8,231.7 8.2,-11.4 13,-25.5 13,-40.7 v -743.3 c 0,-38.8 -31.4,-70.2 -70.2,-70.2"
         style="fill:#1fa6b5;fill-opacity:1;fill-rule:nonzero;stroke:none"
         id="path142" /><path
         d="m 12981.5,14438.2 h -317.9 c 103.9,35.9 209.9,74.3 317.9,115.5 v -115.5"
         style="fill:#1fa6b5;fill-opacity:1;fill-rule:nonzero;stroke:none"
         id="path144" /><path
         d="m 5490.06,5551.4 0.09,-141.7 0.26,-419.2 h 275.44 l 56.67,292.9 18.63,96.4 33.19,171.6 h -384.28"
         style="fill:#ffc3cd;fill-opacity:1;fill-rule:nonzero;stroke:none"
         id="path146" /><path
         d="m 5817.67,5265.6 v 5.3 l -287.73,121.9 c 62.1,-17.6 126.26,-26.4 190.57,-26.4 40.11,0 80.28,3.4 120.04,10.3 l -18.03,-93.3 -4.85,-17.8"
         style="fill:#bf929a;fill-opacity:1;fill-rule:nonzero;stroke:none"
         id="path148" /><path
         d="M 6423.58,9036.4 C 6275.93,7743 5961.57,5409.1 5961.57,5409.1 l -6.06,-2.1 c -36.38,-13 -73.18,-23 -110.42,-29.5 -151.55,-27.3 -309.16,-4.3 -447.29,68 l -3.46,4394.6 1104.15,7.3 c 2.6,-89.6 -27.71,-397 -74.91,-811"
         style="fill:#20adbc;fill-opacity:1;fill-rule:nonzero;stroke:none"
         id="path150" /><path
         d="m 5801.27,5088.9 461.49,-345.4 h -890.19 l 97.82,362 330.88,-16.6"
         style="fill:#20adbc;fill-opacity:1;fill-rule:nonzero;stroke:none"
         id="path152" /><path
         d="m 6954.41,5556.2 13.06,-141 38.63,-417.4 274.27,25.2 29.64,296.8 9.73,97.7 17.34,173.9 -382.67,-35.2"
         style="fill:#ffc3cd;fill-opacity:1;fill-rule:nonzero;stroke:none"
         id="path154" /><path
         d="m 7308.06,5300.3 1.95,19.5 6.46,64.9 c 1.68,0.5 3.38,1 5.05,1.6 l -12.97,-84 -0.49,-2"
         style="fill:#a6bfbf;fill-opacity:1;fill-rule:nonzero;stroke:none"
         id="path156" /><path
         d="m 7304.36,5284.4 -0.19,5.3 -170.12,64.7 c 61.68,2 123.04,12.2 182.42,30.3 l -6.46,-64.9 -1.95,-19.5 -3.7,-15.9"
         style="fill:#bf929a;fill-opacity:1;fill-rule:nonzero;stroke:none"
         id="path158" /><path
         d="m 7395.16,9092.9 c 33.43,-1301.3 46.28,-3656.3 46.28,-3656.3 l -5.71,-2.9 c -34.21,-18 -69.27,-32.9 -105.25,-44.6 -146.3,-48 -305.57,-47.2 -452.4,5.2 l -613.81,4351.5 1092.43,160.7 c 15.02,-88.4 27.71,-397.1 38.46,-813.6"
         style="fill:#20adbc;fill-opacity:1;fill-rule:nonzero;stroke:none"
         id="path160" /><path
         d="m 7306.66,5124.2 490.9,-371.8 -886.2,-11.4 64.28,369.4 331.02,13.8"
         style="fill:#20adbc;fill-opacity:1;fill-rule:nonzero;stroke:none"
         id="path162" /><path
         d="m 5133.5,7559.7 c 0,0 838.66,-167.8 1456.62,-61.8 l 79.45,573.8 123.59,-609.1 c 0,0 723.9,17.6 971.08,70.6 l -528.88,5385.2 c -11.22,8.5 -21.9,15.3 -32.14,20.2 -215.84,103.3 -1214.11,77.5 -1214.11,77.5 0,0 -208.34,26.3 -454.82,-145.5 l -67.1,-1381.2 -11.47,-236.1 -322.22,-3693.6"
         style="fill:#c5faff;fill-opacity:1;fill-rule:nonzero;stroke:none"
         id="path164" /><path
         d="m 5454.02,11274.1 1.15,14.1 2.38,2.8 -0.78,-16.1 c -0.93,-0.3 -1.83,-0.5 -2.75,-0.8"
         style="fill:#c7e5e5;fill-opacity:1;fill-rule:nonzero;stroke:none"
         id="path166" /><path
         d="m 5456.77,11274.9 0.78,16.1 182.76,217.8 100.33,85.3 -95.74,-269.4 c -58.99,-14.6 -122.14,-31.2 -188.13,-49.8"
         style="fill:#b1e1e5;fill-opacity:1;fill-rule:nonzero;stroke:none"
         id="path168" /><path
         d="m 7340.5,11276.3 c 0,0 397.25,-317.9 609.13,-291.4 211.87,26.5 -19.64,44.2 -19.64,44.2 l 148.94,183.4 -164.61,540.5 -685.36,1169.2 111.54,-1645.9"
         style="fill:#c5faff;fill-opacity:1;fill-rule:nonzero;stroke:none"
         id="path170" /><path
         d="m 5852.16,9769.9 c 0,0 198.91,-165.1 264.12,-150.4 65.2,14.6 186.57,138.3 168.17,15.1 -18.4,-123.3 -111.84,-132.9 -112.53,-229.5 -0.71,-96.6 190.76,-132.9 166.23,-308.6 -24.54,-175.7 -270.48,-140.2 -405.24,33.7 -134.78,173.8 -231.94,333.5 -231.94,333.5 l 151.19,306.2"
         style="fill:#f9c8c6;fill-opacity:1;fill-rule:nonzero;stroke:none"
         id="path172" /><path
         d="m 5538.15,12873.1 c 0,0 -1035.07,-1295.8 -1028.06,-1781.5 7.01,-485.6 1205.02,-1787.2 1205.02,-1787.2 l 139.99,468 -670.48,1193.4 549.89,655.2 -196.36,1252.1"
         style="fill:#c5faff;fill-opacity:1;fill-rule:nonzero;stroke:none"
         id="path174" /><path
         d="m 7199.25,14304.3 c 0,0 2.71,-380.7 -60.44,-539.1 -63.16,-158.3 -45.5,530.2 -45.5,530.2"
         style="fill:#2d4d66;fill-opacity:1;fill-rule:nonzero;stroke:none"
         id="path176" /><path
         d="m 6890.27,12997.7 -406.09,-1430.1 -423.75,1447.8 c 0,0 364.73,41.6 829.84,-17.7"
         style="fill:#ffffff;fill-opacity:1;fill-rule:nonzero;stroke:none"
         id="path178" /><path
         d="m 6545.98,12485.7 114.76,-370.8 -176.56,-520.8 -185.39,556.1 114.76,335.5 h 132.43"
         style="fill:#20adbc;fill-opacity:1;fill-rule:nonzero;stroke:none"
         id="path180" /><path
         d="m 6224.18,12769.9 c 0,-14.5 11.76,-26.3 26.34,-26.3 h 474.11 c 14.58,0 26.34,11.8 26.34,26.3 l -11.76,397.7 -8.07,273.8 -324.19,10.8 -119.8,4 -6.29,-68.7 -1.92,-20.5 -54.76,-597.1"
         style="fill:#f9dad2;fill-opacity:1;fill-rule:nonzero;stroke:none"
         id="path182" /><path
         d="m 6278.94,13367 c -0.89,7.3 -0.23,14.1 1.92,20.5 l -1.92,-20.5"
         style="fill:#e5e5e5;fill-opacity:1;fill-rule:nonzero;stroke:none"
         id="path184" /><path
         d="m 6649.33,13159.3 c -93.48,0 -240.93,25 -348.27,162.1 -13.32,17 -20.35,32.2 -22.12,45.6 v 0 l 1.92,20.5 v 0 c 10.73,32.5 59.27,52.7 126.09,64.7 l 324.19,-10.8 8.07,-273.8 c 0,0 -35.97,-8.3 -89.88,-8.3"
         style="fill:#e0c4bd;fill-opacity:1;fill-rule:nonzero;stroke:none"
         id="path186" /><path
         d="m 5945.39,14011.4 c -18.95,-396.8 239.64,-731.6 577.58,-747.7 337.95,-16.1 627.26,292.4 646.22,689.2 18.95,396.8 -239.64,731.6 -577.58,747.7 -337.95,16.2 -627.26,-292.4 -646.22,-689.2"
         style="fill:#f9dad2;fill-opacity:1;fill-rule:nonzero;stroke:none"
         id="path188" /><path
         d="m 6060.43,13015.4 -114.76,-256 194.22,-150.1 -79.46,-211.9 423.75,-829.8 -423.75,1447.8"
         style="fill:#80f3f9;fill-opacity:1;fill-rule:nonzero;stroke:none"
         id="path190" /><path
         d="m 6881.44,12997.7 97.11,-256 -176.56,-167.7 88.28,-194.2 -414.92,-847.5 406.09,1465.4"
         style="fill:#80f3f9;fill-opacity:1;fill-rule:nonzero;stroke:none"
         id="path192" /><path
         d="m 6457.7,12812.3 -273.67,-211.8 -123.6,414.9 185.4,26.5 211.87,-229.6"
         style="fill:#2fd8e0;fill-opacity:1;fill-rule:nonzero;stroke:none"
         id="path194" /><path
         d="m 6890.27,12997.7 -141.25,44.2 -238.36,-229.6 273.67,-194.2 105.94,379.6"
         style="fill:#2fd8e0;fill-opacity:1;fill-rule:nonzero;stroke:none"
         id="path196" /><path
         d="m 6510.66,12812.3 136.24,-99.5 -100.92,-227.1 h -132.43 l -80.51,233.1 124.66,93.5 h 52.96"
         style="fill:#20adbc;fill-opacity:1;fill-rule:nonzero;stroke:none"
         id="path198" /><path
         d="m 6245.09,13908.3 36.05,325.3 c 0,0 662.1,-273.6 1018.99,112.7 242.45,262.5 -140.92,214.7 -140.92,214.7 0,0 252,391.6 -8.11,364.5 -118.11,-12.3 -273.57,-67 -273.57,-67 0,0 38.3,122.4 -103.44,107.7 -141.73,-14.8 -658.07,-132.5 -797.98,-623.6 -139.91,-491.1 41.97,-662.2 41.97,-662.2 l 227.01,227.9"
         style="fill:#2d4d66;fill-opacity:1;fill-rule:nonzero;stroke:none"
         id="path200" /><path
         d="m 5901.19,13843.9 c -6.36,-133.2 75.18,-245.2 182.12,-250.3 106.95,-5.2 198.8,98.7 205.16,231.8 6.36,133.1 -75.18,245.2 -182.13,250.3 -106.95,5.1 -198.8,-98.7 -205.15,-231.8"
         style="fill:#f9dad2;fill-opacity:1;fill-rule:nonzero;stroke:none"
         id="path202" /><path
         d="M 8203.65,10428.8 H 6976.56 l 70.63,1756.7 h 1227.09 l -70.63,-1756.7"
         style="fill:#0fc9ea;fill-opacity:1;fill-rule:nonzero;stroke:none"
         id="path204" /><path
         d="m 8238.96,11576.4 c 0,0 -169.55,-104.6 -173.05,-312.7 -3.5,-208.1 67.12,-269.9 173.05,-278.8 105.94,-8.8 194.22,44.2 167.74,317.8 -26.49,273.7 -105.94,282.5 -167.74,273.7"
         style="fill:#f9c8c6;fill-opacity:1;fill-rule:nonzero;stroke:none"
         id="path206" /><path
         d="m 6064.18,7385 -1.52,-0.4 -1.58,0.4 c -1310.2,392.3 -1643.44,1551.2 -1700.83,2412.9 -7.45,111.9 -10.28,218.8 -9.94,318.4 1.18,408.7 54.98,693.6 54.98,693.6 584.6,426 1592.94,592 1655.79,602 l 1.58,0.3 1.52,-0.3 c 32.35,-5.1 315.17,-51.6 661.72,-153.6 143.2,-42.1 297.3,-93.7 449.06,-155.8 194.66,-79.6 385.52,-176.5 544.93,-292.6 0,0 523.14,-2772.4 -1655.71,-3424.9"
         style="fill:#2e86de;fill-opacity:1;fill-rule:nonzero;stroke:none"
         id="path208" /><path
         d="m 6063.87,7757.4 -1.24,-0.3 -1.27,0.3 c -1775.88,531.8 -1349.5,2791.4 -1349.5,2791.4 476.46,347.2 1298.28,482.5 1349.5,490.7 l 1.27,0.2 1.24,-0.2 c 51.21,-8.2 873.03,-143.5 1349.49,-490.7 0,0 426.39,-2259.6 -1349.49,-2791.4"
         style="fill:#c5faff;fill-opacity:1;fill-rule:nonzero;stroke:none"
         id="path210" /><path
         d="m 7562.96,8031.9 c -0.75,-0.2 -1.65,-0.3 -2.69,-0.5 v 0.8 c 0,0 0.9,-0.1 2.69,-0.3"
         style="fill:#c5faff;fill-opacity:1;fill-rule:nonzero;stroke:none"
         id="path212" /><path
         d="m 7565.59,8032.2 v -0.8 c -1.04,0.2 -1.94,0.3 -2.63,0.5 1.73,0.2 2.63,0.3 2.63,0.3"
         style="fill:#c5faff;fill-opacity:1;fill-rule:nonzero;stroke:none"
         id="path214" /><path
         d="m 6772.32,9711.4 v -486.6 l -469.82,-6.9 v -475.2 h -486.65 v 475.2 h -471.4 v 486.6 h 471.4 l -6.9,479.9 h 486.65 l 6.9,-479.9 469.82,6.9"
         style="fill:#2d4d66;fill-opacity:1;fill-rule:nonzero;stroke:none"
         id="path216" /><path
         d="m 5109.64,8184 c -78.9,0 -153.91,3.4 -225.15,9.6 v 0 c -362.69,494.5 -490.65,1100.2 -524.24,1604.3 98.82,-40.6 205.99,-89.5 319.76,-138.3 40.83,-479.6 190.19,-1056.1 619.73,-1469 -59.9,-4.2 -120.95,-6.5 -182.93,-6.6 -2.39,0 -4.78,0 -7.17,0"
         style="fill:#2b7ed1;fill-opacity:1;fill-rule:nonzero;stroke:none"
         id="path218" /><path
         d="m 7762.01,9756.5 c 19.66,257.9 14.16,491.2 1.71,672.3 h 0.01 c 12.45,-181.1 17.95,-414.4 -1.69,-672.2 v 0 c -0.01,-0.1 -0.02,-0.1 -0.03,-0.1"
         style="fill:#d1f0f0;fill-opacity:1;fill-rule:nonzero;stroke:none"
         id="path220" /><path
         d="m 7763.73,10428.8 h -0.01 c -13.23,192.4 -34.32,326 -41.41,367.5 7.1,-41.5 28.18,-175 41.42,-367.5 m -41.43,367.6 c -0.07,0.4 -0.14,0.8 -0.21,1.1 0.07,-0.3 0.14,-0.7 0.21,-1.1 m -0.21,1.1 c -0.07,0.4 -0.13,0.8 -0.2,1.2 0.07,-0.4 0.13,-0.8 0.2,-1.2 m -0.21,1.3 c -0.13,0.7 -0.25,1.4 -0.37,2.1 0.12,-0.7 0.24,-1.4 0.37,-2.1 m -0.39,2.2 c -0.05,0.3 -0.1,0.6 -0.15,0.9 0.05,-0.3 0.1,-0.6 0.15,-0.9 m -0.21,1.3 c -0.05,0.2 -0.08,0.4 -0.12,0.6 0.03,-0.2 0.08,-0.4 0.12,-0.6 m -0.12,0.6 c -0.16,0.9 -0.3,1.7 -0.43,2.5 0.13,-0.8 0.27,-1.6 0.43,-2.5 m -0.46,2.6 c -0.04,0.2 -0.08,0.4 -0.12,0.6 0.04,-0.2 0.08,-0.4 0.12,-0.6 m -0.12,0.7 c -0.02,0.1 -0.04,0.2 -0.06,0.3 0.02,-0.1 0.04,-0.2 0.06,-0.3 m -0.07,0.4 c -0.01,0 -0.02,0.1 -0.03,0.1 0.01,0 0.02,-0.1 0.03,-0.1 m -0.05,0.3 c -0.01,0 -0.02,0.1 -0.03,0.1 0.01,0 0.02,-0.1 0.03,-0.1 m -0.25,1.3 c -0.01,0.1 -0.01,0.1 -0.01,0.1 0,0 0,0 0.01,-0.1 m -0.04,0.2 c -0.02,0.1 -0.04,0.3 -0.06,0.4 0.02,-0.1 0.04,-0.3 0.06,-0.4 m -0.08,0.5 c -0.01,0 -0.01,0 -0.02,0 0.01,0 0.01,0 0.02,0 m -0.03,0.1 c -0.01,0.1 -0.01,0.1 -0.02,0.1 0.01,0 0.01,0 0.02,-0.1 m -0.03,0.2 c -0.01,0 -0.02,0.1 -0.03,0.2 0.01,-0.1 0.02,-0.2 0.03,-0.2 m -0.07,0.4 c -0.01,0 -0.01,0 -0.01,0 0,0 0,0 0.01,0 m -0.03,0.1 c 0,0 0,0.1 -0.01,0.1 0.01,0 0.01,-0.1 0.01,-0.1 m -0.02,0.1 c 0,0.1 -0.01,0.1 -0.01,0.1 0,0 0.01,0 0.01,-0.1 m -0.02,0.1 v 0 0"
         style="fill:#0ebddc;fill-opacity:1;fill-rule:nonzero;stroke:none"
         id="path222" /><path
         d="m 7377.92,9223.3 c 157.01,681.4 35.44,1325.5 35.44,1325.5 -105.71,77.1 -228.37,143.6 -355.89,200.7 44.09,116.8 83,235.3 117.49,353 194.66,-79.6 385.52,-176.5 544.93,-292.6 v 0 0 c 0,0 0.01,0 0.01,0 0,0 0.01,0 0.01,-0.1 0,0 0.01,0 0.01,0 0.01,0 0.01,-0.1 0.01,-0.1 0,0 0.01,0 0.02,-0.1 0,0 0,0 0.01,0 0.01,-0.1 0.02,-0.2 0.04,-0.2 0.01,-0.1 0.02,-0.2 0.03,-0.2 0.01,-0.1 0.01,-0.1 0.01,-0.1 0.01,0 0.01,0 0.02,-0.1 0.01,0 0.01,0 0.01,-0.1 0.01,0 0.01,0 0.02,0 0,-0.1 0.01,-0.1 0.02,-0.1 0.02,-0.1 0.04,-0.3 0.06,-0.4 0.01,0 0.02,-0.1 0.03,-0.1 0,0 0,0 0.01,-0.1 0.06,-0.3 0.13,-0.7 0.22,-1.2 0.01,0 0.02,-0.1 0.03,-0.1 0,-0.1 0.01,-0.1 0.02,-0.2 0.01,0 0.02,-0.1 0.03,-0.1 0,-0.1 0.01,-0.1 0.01,-0.1 0.02,-0.1 0.04,-0.2 0.06,-0.3 0,0 0,0 0,-0.1 0.04,-0.2 0.08,-0.4 0.12,-0.6 0.01,-0.1 0.02,-0.1 0.03,-0.1 0.13,-0.8 0.27,-1.6 0.43,-2.5 v 0 c 0.04,-0.2 0.07,-0.4 0.12,-0.6 0.02,-0.2 0.04,-0.3 0.06,-0.4 0.05,-0.3 0.1,-0.6 0.15,-0.9 0.01,0 0.02,-0.1 0.02,-0.1 0.12,-0.7 0.24,-1.4 0.37,-2.1 0.01,-0.1 0.01,-0.1 0.01,-0.1 0.07,-0.4 0.13,-0.8 0.2,-1.2 0,0 0,0.1 0,0 0.07,-0.3 0.14,-0.7 0.21,-1.1 0,-0.1 0.01,-0.1 0.01,-0.1 7.09,-41.5 28.18,-175.1 41.41,-367.5 12.45,-181.1 17.95,-414.4 -1.71,-672.3 -118.15,-162.7 -229.92,-345.5 -384.09,-533.2"
         style="fill:#2b7ed1;fill-opacity:1;fill-rule:nonzero;stroke:none"
         id="path224" /><path
         d="m 5299.74,8190.6 c -429.54,412.9 -578.9,989.4 -619.73,1469 203.48,-87.4 428.22,-174.4 664.44,-212.6 v -229.1 h 471.4 v -475.2 h 486.65 v 475.2 l 469.82,6.9 v 486.6 L 6373,9705.6 c 312.57,248.9 530.18,635.4 684.47,1043.9 127.52,-57.1 250.18,-123.6 355.89,-200.7 0,0 121.57,-644.1 -35.44,-1325.5 -131.23,-159.8 -293.19,-323.1 -515.92,-480.6 -85.44,-60.4 -714.22,-493.2 -1562.26,-552.1"
         style="fill:#b9ebf0;fill-opacity:1;fill-rule:nonzero;stroke:none"
         id="path226" /><path
         d="m 6302.5,8742.7 h -486.65 v 475.2 h -471.4 V 9447 c 79.3,-12.8 159.86,-20.1 241.39,-20.1 140.44,0 283.59,21.7 427.71,74.6 132.01,48.4 251.42,118 359.45,204.1 l 399.32,5.8 v -486.6 l -469.82,-6.9 v -475.2"
         style="fill:#2a4860;fill-opacity:1;fill-rule:nonzero;stroke:none"
         id="path228" /><path
         d="m 6062.66,7384.6 -1.58,0.4 v 0 0 l 1.58,-0.4 1.52,0.4 c 0.93,0.2 1.89,0.5 2.82,0.8 -0.94,-0.3 -1.88,-0.5 -2.82,-0.8 l -1.52,-0.4 m -4.69,1.3 c -0.03,0 -0.09,0 -0.13,0 h 0.13 m 9.64,0.1 c 0.8,0.2 1.8,0.5 2.59,0.8 -0.86,-0.3 -1.72,-0.5 -2.59,-0.8 m 3.43,1 c 0.79,0.3 1.48,0.5 2.27,0.7 -0.78,-0.2 -1.49,-0.4 -2.27,-0.7 m 3.36,1.1 c 0.53,0.1 1.26,0.3 1.79,0.5 -0.62,-0.2 -1.16,-0.4 -1.79,-0.5 m 2.91,0.8 c 0.8,0.3 1.42,0.5 2.22,0.7 -0.71,-0.2 -1.51,-0.4 -2.22,-0.7 m 3.48,1.1 c 0.4,0.1 1.08,0.3 1.47,0.5 -0.47,-0.2 -1,-0.4 -1.47,-0.5 m 3.5,1.1 c 0.26,0.1 0.83,0.2 1.1,0.3 -0.31,-0.1 -0.79,-0.2 -1.1,-0.3 m 3.69,1.1 c 0.27,0.1 0.48,0.2 0.74,0.2 -0.23,0 -0.5,-0.1 -0.74,-0.2 m 2.46,0.8 c 0.13,0 0.17,0 0.3,0.1 -0.07,-0.1 -0.22,-0.1 -0.3,-0.1 m 3.53,1.1 c 0.13,0 0.42,0.1 0.55,0.1 -0.16,0 -0.39,-0.1 -0.55,-0.1"
         style="fill:#1c99a7;fill-opacity:1;fill-rule:nonzero;stroke:none"
         id="path230" /><path
         d="m 7675.73,9180.7 c 0.07,0.2 0.13,0.5 0.2,0.8 -0.07,-0.3 -0.13,-0.6 -0.2,-0.8 m 0.54,2.3 c 0.09,0.4 0.18,0.8 0.27,1.2 -0.09,-0.4 -0.18,-0.8 -0.27,-1.2 m 0.41,1.8 c 0.15,0.6 0.31,1.3 0.46,2 -0.15,-0.7 -0.3,-1.4 -0.46,-2 m 0.52,2.2 c 44.86,195.6 71.02,388.6 84.81,569.5 0.01,0 0.02,0 0.03,0.1 -13.8,-181 -39.98,-374 -84.84,-569.6"
         style="fill:#c5e2e2;fill-opacity:1;fill-rule:nonzero;stroke:none"
         id="path232" /><path
         d="m 6062.66,7384.6 -1.58,0.4 v 0 c -1.03,0.3 -2.08,0.6 -3.11,0.9 h -0.13 c -542.04,163.1 -916.49,457.4 -1173.35,807.7 71.24,-6.2 146.25,-9.6 225.15,-9.6 2.39,0 4.78,0 7.17,0 61.98,0.1 123.03,2.4 182.93,6.6 192.47,-185 441.21,-337.2 761.62,-433.2 l 1.27,-0.3 1.24,0.3 c 827.67,247.9 1176.99,871.1 1314.05,1465.9 154.17,187.7 265.94,370.5 384.09,533.2 -13.79,-180.9 -39.95,-373.9 -84.81,-569.5 -0.01,0 -0.04,-0.2 -0.06,-0.2 -0.15,-0.7 -0.31,-1.4 -0.46,-2 -0.05,-0.3 -0.09,-0.4 -0.14,-0.6 -0.09,-0.4 -0.18,-0.8 -0.27,-1.2 -0.1,-0.5 -0.24,-1 -0.34,-1.5 -0.07,-0.3 -0.13,-0.6 -0.2,-0.8 C 7508.79,8459 7086.98,7704 6094.52,7394.2 c -0.13,0 -0.42,-0.1 -0.55,-0.1 -1.09,-0.4 -2.13,-0.7 -3.23,-1 -0.13,-0.1 -0.17,-0.1 -0.3,-0.1 -0.62,-0.2 -1.09,-0.4 -1.72,-0.6 -0.26,0 -0.47,-0.1 -0.74,-0.2 -0.86,-0.2 -1.73,-0.5 -2.59,-0.8 -0.27,-0.1 -0.84,-0.2 -1.1,-0.3 -0.7,-0.2 -1.32,-0.4 -2.03,-0.6 -0.39,-0.2 -1.07,-0.4 -1.47,-0.5 -0.47,-0.1 -0.79,-0.2 -1.26,-0.4 -0.8,-0.2 -1.42,-0.4 -2.22,-0.7 -0.39,-0.1 -0.72,-0.2 -1.12,-0.3 -0.53,-0.2 -1.26,-0.4 -1.79,-0.5 -0.31,-0.1 -0.78,-0.3 -1.09,-0.4 -0.79,-0.2 -1.48,-0.4 -2.27,-0.7 -0.24,0 -0.6,-0.1 -0.84,-0.2 -0.79,-0.3 -1.79,-0.6 -2.59,-0.8 -0.23,-0.1 -0.37,-0.1 -0.61,-0.2 -0.93,-0.3 -1.89,-0.6 -2.82,-0.8 l -1.52,-0.4"
         style="fill:#2877c5;fill-opacity:1;fill-rule:nonzero;stroke:none"
         id="path234" /><path
         d="m 6062.63,7757.1 -1.27,0.3 c -320.41,96 -569.15,248.2 -761.62,433.2 848.04,58.9 1476.82,491.7 1562.26,552.1 222.73,157.5 384.69,320.8 515.92,480.6 -137.06,-594.8 -486.38,-1218 -1314.05,-1465.9 l -1.24,-0.3"
         style="fill:#aedde2;fill-opacity:1;fill-rule:nonzero;stroke:none"
         id="path236" /><path
         d="m 4668.34,10073.9 c -111.55,6.1 -218.64,20.4 -318.03,42.4 1.18,408.7 54.98,693.6 54.98,693.6 584.6,426 1592.94,592 1655.79,602 l 1.58,0.3 1.52,-0.3 c 32.35,-5.1 315.17,-51.6 661.72,-153.6 -32.47,-101.6 -93.66,-214.6 -176.38,-328.6 -257.54,72.4 -460.98,105.9 -485.65,109.8 l -1.24,0.2 -1.27,-0.2 c -51.22,-8.2 -873.04,-143.5 -1349.5,-490.7 0,0 -36.03,-190.9 -43.52,-474.9"
         style="fill:#4795e2;fill-opacity:1;fill-rule:nonzero;stroke:none"
         id="path238" /><path
         d="m 4794.59,10070.5 c -42.61,0 -84.72,1.1 -126.25,3.4 7.49,284 43.52,474.9 43.52,474.9 476.46,347.2 1298.28,482.5 1349.5,490.7 l 1.27,0.2 1.24,-0.2 c 24.67,-3.9 228.11,-37.4 485.65,-109.8 -164.91,-227.1 -415.42,-457.6 -694.63,-607.4 -321.09,-172.3 -706.35,-251.8 -1060.3,-251.8"
         style="fill:#ccfbff;fill-opacity:1;fill-rule:nonzero;stroke:none"
         id="path240" /><path
         d="m 4618.07,13244 c -30.89,0 -61.78,11.8 -85.37,35.4 l -316.12,316.1 c -9.08,9.1 -17.47,18.6 -25.15,28.5 -31.69,40.8 -51.56,87.9 -59.59,136.5 -2.6,16.3 -3.94,32.7 -3.94,49.2 0,77.5 29.58,155 88.68,214.1 59.17,59.2 136.69,88.8 214.2,88.8 66.51,0 133.01,-21.8 187.92,-65.4 19.66,15 40.79,27.1 62.76,36.5 38.16,16.4 79.01,24.6 119.85,24.6 77.51,0 155,-29.5 214.1,-88.6 59.16,-59.2 88.67,-136.7 88.67,-214.1 0,-63.8 -19.93,-127.5 -59.87,-181 -8.67,-11.6 -18.24,-22.8 -28.8,-33.2 l -311.97,-312 c -23.6,-23.6 -54.48,-35.4 -85.37,-35.4"
         style="fill:#ffafaf;fill-opacity:1;fill-rule:nonzero;stroke:none"
         id="path242" /><path
         d="m 3606.65,12380.8 c -21.7,0 -43.41,8.2 -59.99,24.8 l -222.14,222.2 c -6.38,6.3 -12.27,13 -17.67,20 -22.27,28.7 -36.23,61.7 -41.87,95.9 -1.83,11.5 -2.78,23 -2.78,34.6 0,54.4 20.79,108.9 62.32,150.4 41.58,41.6 96.06,62.4 150.52,62.4 46.74,0 93.47,-15.3 132.05,-45.9 13.81,10.5 28.66,19 44.11,25.6 26.81,11.6 55.52,17.3 84.21,17.3 54.47,0 108.92,-20.7 150.45,-62.3 41.57,-41.5 62.31,-96 62.31,-150.4 0,-44.8 -14,-89.6 -42.07,-127.2 -6.09,-8.2 -12.82,-16 -20.24,-23.4 l -219.22,-219.2 c -16.58,-16.6 -38.29,-24.8 -59.99,-24.8"
         style="fill:#ffafaf;fill-opacity:1;fill-rule:nonzero;stroke:none"
         id="path244" /><path
         d="m 3686.02,9501.3 c 0,-110.1 -89.18,-199.2 -199.21,-199.2 -110.02,0 -199.21,89.1 -199.21,199.2 0,110 89.19,199.2 199.21,199.2 110.03,0 199.21,-89.2 199.21,-199.2"
         style="fill:#54a0ff;fill-opacity:1;fill-rule:nonzero;stroke:none"
         id="path246" /><path
         d="m 3918.43,10519.4 c 0,-179.2 -145.34,-324.6 -324.64,-324.6 -179.29,0 -324.63,145.4 -324.63,324.6 0,179.3 145.34,324.7 324.63,324.7 179.3,0 324.64,-145.4 324.64,-324.7"
         style="fill:#54a0ff;fill-opacity:1;fill-rule:nonzero;stroke:none"
         id="path248" /><path
         d="m 3036.75,10194.8 c 0,-120.2 -97.45,-217.6 -217.66,-217.6 -120.2,0 -217.65,97.4 -217.65,217.6 0,120.2 97.45,217.7 217.65,217.7 120.21,0 217.66,-97.5 217.66,-217.7"
         style="fill:#54a0ff;fill-opacity:1;fill-rule:nonzero;stroke:none"
         id="path250" /><path
         d="m 17775.1,10090.6 c 61.9,-91 38.2,-214.9 -52.7,-276.8 -91,-61.8 -214.9,-38.2 -276.8,52.8 -61.8,91 -38.2,214.9 52.8,276.7 91,61.9 214.9,38.3 276.7,-52.7"
         style="fill:#54a0ff;fill-opacity:1;fill-rule:nonzero;stroke:none"
         id="path252" /><path
         d="m 17395,11063.3 c 100.7,-148.3 62.2,-350.2 -86,-451 -148.3,-100.8 -350.2,-62.3 -451,86 -100.8,148.3 -62.3,350.2 86,451 148.2,100.8 350.2,62.3 451,-86"
         style="fill:#54a0ff;fill-opacity:1;fill-rule:nonzero;stroke:none"
         id="path254" /><path
         d="m 16848.3,10299.1 c 67.5,-99.4 41.7,-234.7 -57.7,-302.3 -99.4,-67.6 -234.8,-41.8 -302.3,57.6 -67.6,99.4 -41.8,234.8 57.6,302.4 99.4,67.6 234.8,41.8 302.4,-57.7"
         style="fill:#54a0ff;fill-opacity:1;fill-rule:nonzero;stroke:none"
         id="path256" /></g></g></svg>
