<?xml version="1.0" encoding="utf-8"?>
<!-- Generator: Adobe Illustrator 21.0.0, SVG Export Plug-In . SVG Version: 6.00 Build 0)  -->
<svg version="1.1" id="Layer_1" xmlns="http://www.w3.org/2000/svg" xmlns:xlink="http://www.w3.org/1999/xlink" x="0px" y="0px"
	 width="1400px" height="980px" viewBox="0 0 1400 980" style="enable-background:new 0 0 1400 980;" xml:space="preserve">
<style type="text/css">
	.st0{fill-rule:evenodd;clip-rule:evenodd;fill:#00CCFF;}
	.st1{fill-rule:evenodd;clip-rule:evenodd;fill:#7BDEF7;}
	.st2{fill-rule:evenodd;clip-rule:evenodd;fill:#F7CF9E;}
	.st3{fill-rule:evenodd;clip-rule:evenodd;fill:#D1B18A;}
	.st4{fill-rule:evenodd;clip-rule:evenodd;fill:#384E5B;}
	.st5{fill-rule:evenodd;clip-rule:evenodd;fill:#2E404A;}
	.st6{fill-rule:evenodd;clip-rule:evenodd;fill:#48606E;}
	.st7{fill-rule:evenodd;clip-rule:evenodd;fill:#566F7D;}
	.st8{fill-rule:evenodd;clip-rule:evenodd;fill:#27353D;}
	.st9{fill-rule:evenodd;clip-rule:evenodd;fill:#FFFFFF;}
	.st10{fill-rule:evenodd;clip-rule:evenodd;fill:#E3686C;}
	.st11{fill-rule:evenodd;clip-rule:evenodd;fill:#6EE2FF;}
	.st12{fill-rule:evenodd;clip-rule:evenodd;fill:#18A4C7;}
	.st13{fill-rule:evenodd;clip-rule:evenodd;fill:#FFD866;}
	.st14{fill-rule:evenodd;clip-rule:evenodd;fill:#95ACBA;}
</style>
<g>
	<rect y="0" class="st0" width="1400" height="980"/>
	<path class="st1" d="M326.3,560.6l25.6-93.7c1.8-6.5-2.1-13.3-8.6-15l-55.6-15.2c0.6-0.4,1.1-1,1.3-1.8l3.8-14
		c0.5-1.7-0.5-3.4-2.2-3.8l-40.1-10.9c-1.6-0.5-3.4,0.5-3.8,2.2l-3.8,14c-0.2,0.8-0.1,1.5,0.2,2.2l-31.1-8.5l1.3-4.7
		c0.2-0.7-0.2-1.5-1-1.7l-21-5.7c-0.7-0.2-1.5,0.2-1.7,1l-1.3,4.7l-0.8-0.2c-6.5-1.8-13.3,2.1-15,8.6l-25.6,93.7
		c-1.8,6.5,2.1,13.3,8.6,15l155.6,42.5C317.8,571,324.5,567.1,326.3,560.6z M294.5,501.6c-6.8,24.9-32.4,39.5-57.3,32.7
		c-24.9-6.8-39.5-32.4-32.7-57.3c6.8-24.9,32.4-39.5,57.3-32.7C286.6,451.1,301.3,476.7,294.5,501.6z"/>
	<path class="st1" d="M425.7,211c-9.1,2.5-18.4,0.8-26.1-4c-7.8-4.8-13.9-12.6-16.6-22.5l-4.9,1.3c3,11.1,10,20,18.8,25.4
		c8.9,5.5,19.6,7.4,30.1,4.5c10.5-2.9,18.8-10,23.7-19.2c4.8-9.2,6.3-20.4,3.3-31.5c-2.7-9.8-8.8-17.7-16.6-22.5
		c-7.8-4.8-17.3-6.5-26.6-4c-9.3,2.5-16.6,8.8-20.9,17c-4.3,8.1-5.6,18-2.9,27.8c2.3,8.5,7.7,15.3,14.4,19.4
		c6.8,4.2,15,5.7,23.1,3.5c8.1-2.2,14.4-7.7,18.1-14.7c3.7-7,4.8-15.6,2.5-24.1c-2-7.2-6.5-12.9-12.2-16.5
		c-5.8-3.5-12.8-4.8-19.6-2.9c-6.8,1.9-12.2,6.5-15.4,12.5c-3.1,5.9-4.1,13.2-2.2,20.4c1.6,5.9,5.3,10.6,10,13.5
		c4.7,2.9,10.5,3.9,16.1,2.4c5.6-1.5,10-5.3,12.6-10.2c2.6-4.9,3.4-10.8,1.8-16.7c-1.2-4.6-4.1-8.2-7.8-10.5
		c-3.7-2.3-8.2-3.1-12.5-1.9c-4.4,1.2-7.8,4.2-9.8,8c-2,3.8-2.6,8.4-1.4,13c0.9,3.3,3,5.9,5.6,7.5c2.7,1.6,5.9,2.2,9,1.3
		c3.2-0.9,5.6-3,7.1-5.7l0,0c1.4-2.7,1.9-6,1-9.2c-0.5-2-1.8-3.5-3.3-4.5c-1.6-1-3.6-1.3-5.5-0.8c-1.9,0.5-3.4,1.8-4.3,3.5
		c-0.9,1.6-1.1,3.6-0.6,5.6l4.9-1.3c-0.2-0.7-0.1-1.3,0.2-1.8c0.3-0.5,0.7-0.8,1.2-1c0.5-0.1,1.1,0,1.5,0.2c0.5,0.3,0.9,0.8,1.1,1.5
		c0.5,2,0.3,4-0.6,5.6l0,0c-0.8,1.5-2.2,2.7-4,3.2c-1.7,0.5-3.5,0.2-5-0.8c-1.5-0.9-2.8-2.5-3.3-4.5c-0.9-3.3-0.5-6.6,0.9-9.2
		c1.4-2.6,3.7-4.7,6.7-5.5c3-0.8,6-0.3,8.6,1.3c2.6,1.6,4.6,4.2,5.5,7.5c1.3,4.6,0.7,9.2-1.3,13c-2,3.7-5.3,6.6-9.5,7.7
		c-4.2,1.1-8.5,0.4-12.1-1.8c-3.6-2.2-6.5-5.9-7.7-10.5c-1.6-5.9-0.8-11.8,1.7-16.7c2.5-4.8,6.8-8.5,12.2-10
		c5.4-1.5,11-0.5,15.6,2.4c4.7,2.9,8.3,7.6,9.9,13.5c2,7.2,1,14.5-2.1,20.4c-3.1,5.9-8.3,10.4-15,12.2c-6.7,1.8-13.5,0.6-19.1-2.9
		c-5.7-3.5-10.2-9.3-12.2-16.5c-2.3-8.5-1.2-17.1,2.5-24.1c3.7-6.9,9.9-12.3,17.8-14.4c7.9-2.2,16-0.7,22.6,3.4
		c6.7,4.1,12,10.9,14.4,19.5c2.7,9.8,1.4,19.7-2.9,27.8C442,202.3,434.8,208.5,425.7,211z"/>
	<path class="st1" d="M318.9,798.2l22.9,12.6c17.6,9.7,27.7,13,37.1-2.3l3.6-6.2c6.1-10.6,4-16.4-7.7-23.1l-11-6.3
		C339,759,337,756.7,337.5,728.2l1.3-73.4c0.2-9.3,2.7-18-4.5-23l-7.6-5.4c-5.2-3.7-9-4.7-13.3,0.3l-20.5,24
		c-5,5.8-6.8,7.1-7.3,14.8l-0.8,13.3l-44,62.5c-2.8,3.9-2.8,4.1,0.8,6.4l2.8,1.8c4.1,3,4.7,0.6,7.9-3.6l46.2-60.3l11.2,7.8
		l-10.4,58.9C294.8,777.6,297.5,786.4,318.9,798.2z"/>
	<path class="st1" d="M504.4,548.8c-26-12.9-57.8-2.2-70.7,23.8l-7,14.1c-5.2,0.9-10,4.2-12.6,9.3l-13,26.2
		c-4.2,8.5-0.7,18.9,7.8,23.2l8.3,4.1c8.5,4.2,18.9,0.7,23.2-7.8l13-26.2c4.2-8.5,0.7-18.9-7.8-23.2l-8.3-4.1
		c-0.5-0.2-1-0.5-1.5-0.7l4.7-9.5c10.8-21.8,37.5-30.7,59.3-19.9l0,0c21.8,10.8,30.7,37.5,19.9,59.3l-4.7,9.5
		c-0.5-0.3-1-0.6-1.5-0.8l-8.3-4.1c-8.5-4.2-18.9-0.7-23.2,7.8l-13,26.2c-4.2,8.5-0.7,18.9,7.8,23.2l8.3,4.2
		c8.5,4.2,18.9,0.7,23.2-7.8l13-26.2c2.5-5.1,2.3-10.9-0.2-15.7l7-14.1C541.1,593.5,530.4,561.7,504.4,548.8z"/>
	<path class="st1" d="M451.2,287.7c1.4,2.1,3,4,4.6,5.7c-2.4,0.3-4.7,0.8-7.1,1.5c-16.4,4.8-26.9,17.9-23.6,29.3
		c3.3,11.3,19.3,16.6,35.7,11.8c2.4-0.7,4.7-1.6,6.8-2.6c-0.4,2.3-0.7,4.7-0.8,7.2c-0.5,17,8.7,31.1,20.6,31.4
		c11.8,0.3,21.8-13.2,22.2-30.3c0.1-2.5-0.1-4.9-0.4-7.3c2.1,1.1,4.3,2.2,6.7,3c16.1,5.7,32.3,1.3,36.3-9.8
		c4-11.1-5.9-24.8-21.9-30.5c-2.4-0.8-4.7-1.5-7.1-1.9c1.7-1.6,3.4-3.4,4.9-5.4c10.4-13.5,11.2-30.3,1.9-37.5
		c-9.4-7.2-25.4-2.1-35.8,11.4c-1.5,2-2.8,4-4,6.1c-1-2.1-2.2-4.3-3.6-6.3c-9.6-14.1-25.4-20-35.1-13.4
		C441.7,256.8,441.6,273.6,451.2,287.7z M463.9,268.3c6.3-4.3,16.4-0.5,22.6,8.6c0.9,1.3,1.7,2.7,2.3,4.1c0.7-1.3,1.6-2.7,2.5-3.9
		c6.7-8.7,17-12,23-7.4c6,4.6,5.5,15.4-1.2,24.2c-1,1.3-2,2.4-3.2,3.5c1.5,0.3,3,0.7,4.5,1.2c10.3,3.7,16.7,12.5,14.1,19.6
		c-2.5,7.2-13,10-23.3,6.3c-1.5-0.5-3-1.2-4.3-1.9c0.2,1.5,0.3,3.1,0.3,4.7c-0.3,11-6.7,19.7-14.3,19.5c-7.6-0.2-13.5-9.3-13.2-20.2
		c0-1.6,0.2-3.2,0.5-4.7c-1.4,0.7-2.8,1.2-4.4,1.7c-10.5,3.1-20.8-0.3-23-7.6c-2.2-7.3,4.6-15.7,15.2-18.8c1.5-0.5,3.1-0.8,4.6-1
		c-1.1-1.1-2.1-2.3-3-3.6C457.6,283.4,457.6,272.6,463.9,268.3z"/>
	<path class="st1" d="M422.6,689.1c-6.4-5.1-15.7-4.1-20.8,2.3c-9.2,11.5-6.9,32.3-4.6,53.1c20.8-2.3,41.6-4.6,50.8-16.2
		c5.1-6.4,4.1-15.7-2.3-20.8c-5.8-4.6-11-4-18.5-0.6C428.9,698.9,428.4,693.7,422.6,689.1z"/>
	<path class="st1" d="M258.9,454.9c-19-5.2-38.6,6-43.8,25c-5.2,19,6,38.6,25,43.8c19,5.2,38.6-6,43.8-25
		C289.1,479.7,277.9,460.1,258.9,454.9z"/>
	<path class="st1" d="M1291.6,378.5c-0.7,3.7,0.6,7.2,2.9,12.1l10.7,22.5c5.3,11.2,7,18.4,19.3,12c18.2-9.5,28.9-24.4,34-43.8
		c3.1-11.7-4.1-10.6-15.8-13.4l-30.4-7.2c-5.2-1.2-6.9-1.4-8.7,0.2c0.3,2.1,0.2,4.3-0.5,6.5C1301.7,373,1297.1,377.2,1291.6,378.5z"
		/>
	<path class="st1" d="M185.9,708.6c16.7-32.6,33.4-65.2,25.5-89.8c-4.4-13.6-19-21.1-32.6-16.7c-12.3,4-16.5,12.1-18.7,26.4
		c-10.1-10.3-18.3-14.5-30.6-10.6c-13.6,4.4-21.1,19-16.7,32.6C120.7,675.2,153.3,691.9,185.9,708.6z"/>
	<path class="st1" d="M108.4,42.1c-9.3-1.3-14.7,2.7-20.7,11.3C84.4,43.4,80.4,38,71,36.7c-10.3-1.5-19.9,5.7-21.4,16
		C47,71.4,63,92.7,79,114.1c21.4-16,42.7-32,45.4-50.7C125.9,53.1,118.7,43.5,108.4,42.1z"/>
	<path class="st1" d="M1287.2,107.6c4.4-13.6-3.1-28.2-16.7-32.6c-12.3-4-20.5,0.2-30.6,10.6c-2.2-14.3-6.4-22.5-18.7-26.4
		c-13.6-4.4-28.2,3.1-32.6,16.7c-7.9,24.6,8.8,57.2,25.5,89.8C1246.7,148.9,1279.3,132.2,1287.2,107.6z"/>
	<path class="st1" d="M499.8,320.6c8.5-5.8,10.7-17.5,4.8-26c-5.8-8.5-17.5-10.7-26-4.8c-8.5,5.8-10.7,17.5-4.8,26
		C479.6,324.3,491.3,326.4,499.8,320.6z"/>
	<path class="st1" d="M1284.2,347.5c0.9-3.8-0.4-7.5-2.8-12.5l-10.7-22.5c-5.3-11.2-7-18.4-19.3-12c-18.2,9.5-28.9,24.4-34,43.8
		c-3.1,11.7,4.1,10.6,15.8,13.4l30.3,7.2c5.1,1.2,6.8,1.4,8.6-0.1c-0.2-2-0.1-4.1,0.5-6.1C1274.3,352.9,1278.8,348.8,1284.2,347.5z"
		/>
	<path class="st1" d="M1021.2,265.6c9.4,15.3,19.5,12.1,37.1,2.3l22.9-12.6c21.4-11.8,24-20.6,19.6-46l-10.4-59l11.2-7.8l46.2,60.3
		c3.2,4.2,3.7,6.5,7.9,3.6l2.8-1.8c3.6-2.3,3.6-2.5,0.8-6.4l-44-62.5l-0.8-13.3c-0.5-7.7-2.3-8.9-7.3-14.8l-20.5-24
		c-4.2-4.9-8-4-13.3-0.3l-7.6,5.4c-7.2,5.1-4.7,13.7-4.5,23l1.3,73.4c0.5,28.6-1.5,30.8-26.2,44.9l-11,6.3
		c-11.7,6.7-13.8,12.5-7.7,23.1L1021.2,265.6z"/>
	<path class="st1" d="M878.9,90.6c-2.4,4.7-2.7,10.5-0.2,15.7l13,26.2c4.2,8.5,14.7,12,23.2,7.8l8.3-4.1c8.5-4.2,12-14.7,7.8-23.2
		l-13-26.2c-4.2-8.5-14.7-12-23.2-7.8l-8.3,4.1c-0.5,0.3-1,0.5-1.4,0.8l-4.7-9.5c-10.8-21.8-1.9-48.4,19.9-59.3v0
		c21.8-10.8,48.5-1.9,59.3,19.9l4.7,9.5c-0.5,0.2-1,0.4-1.5,0.7l-8.3,4.1c-8.5,4.2-12,14.7-7.8,23.2l13,26.2
		c4.2,8.5,14.7,12,23.2,7.8l8.3-4.1c8.5-4.2,12-14.7,7.8-23.2l-13-26.2c-2.5-5.1-7.3-8.4-12.6-9.3l-7-14.1
		c-12.9-26-44.7-36.7-70.7-23.8c-26,12.9-36.7,44.7-23.8,70.7L878.9,90.6z"/>
	<path class="st1" d="M1088.7,26.2L1184.9,0h-116l4.8,17.7C1075.4,24.1,1082.2,28,1088.7,26.2z"/>
	<path class="st1" d="M954.3,164.6c-6.4,5.1-7.4,14.4-2.3,20.8c9.2,11.5,30,13.9,50.8,16.2c2.3-20.8,4.6-41.6-4.6-53.1
		c-5.1-6.4-14.4-7.4-20.8-2.3c-5.8,4.6-6.4,9.8-4.6,17.9C965.3,160.6,960.1,160,954.3,164.6z"/>
	<polygon class="st1" points="308.3,356.1 325,371 327.7,348.8 347,337.5 326.7,328 321.9,306.2 306.7,322.6 284.4,320.4 
		295.3,339.9 286.3,360.5 	"/>
	<path class="st1" d="M502.5,71.7l-3.1,0.8c-2.4,0.7-3.8,3.2-3.2,5.5l28.6,104.6c0.7,2.4,3.1,3.8,5.6,3.2l40.1-10.9
		c2.4-0.7,3.8-3.1,3.2-5.5L545.1,64.8c-0.7-2.4-3.1-3.8-5.5-3.2l-3.1,0.8L527,27.5c-2.2-8-45.3-32.1-38.9-8.6L502.5,71.7z"/>
	<path class="st1" d="M594,673.8c10.5,14.6,17.3,15.1,33.3,9.2c28-10.2,46.1-26.3,70.9-54.6c29.3-2.4,85.5-18.5,100.7-42.8
		c6.1-9.7,4.9-13.7-5.7-13l-65.2,4.2l-48.5-26.1c-14-7.5-19.6-8.3-35.4-2.5c-32.7,11.9-52.3,37.4-66.1,60.4c-6,10-4,19.7-0.7,30.7
		C581.7,654.1,586.5,663.4,594,673.8z"/>
	<path class="st1" d="M701.8,85.5c24.8,28.3,43,44.4,70.9,54.6c16,5.8,22.8,5.3,33.3-9.2c7.5-10.4,12.3-19.7,16.8-34.4
		c3.3-10.9,5.3-20.7-0.7-30.7c-13.9-23-33.4-48.5-66.1-60.4c-15.8-5.8-21.5-5-35.4,2.5L672,33.9l-65.2-4.2
		c-10.6-0.7-11.8,3.3-5.7,13C616.2,67.1,672.5,83.1,701.8,85.5z"/>
	<ellipse transform="matrix(0.271 -0.9626 0.9626 0.271 589.5859 1504.39)" class="st1" cx="1288" cy="363" rx="12.1" ry="12.1"/>
	<path class="st1" d="M603.8,375.7c130.8,47.5,251.7,23.1,366.3-34.5c9.8-4.9,7.3-16.1,2.6-26.7c-3.3-9-2.8-14.9-20.3-9.1
		c-146.6,48.7-170.4-57.6-59.7-97.9c21.8-8,12.4-17.3,7.8-28c-6-14.8-8-18.4-24.3-11.4C798.9,201.9,756,227.3,637,205.9
		c-32.4-5.8-40,1.2-31.2,24.9c16.9,45.7-7.9,74.3-18.1,110.4C580.4,367.2,581.9,367.7,603.8,375.7z"/>
	<path class="st1" d="M1139.1,935.1c-18.8,6-29.1,26.1-23,44.9h67.9c2.2-6.9,2.4-14.5,0-21.9C1178,939.4,1157.9,929.1,1139.1,935.1z
		"/>
	<path class="st1" d="M1208.2,886.5l-0.8,0.3l-1.5-4.6c-0.2-0.7-1-1.1-1.7-0.9l-20.7,6.7c-0.7,0.2-1.1,1-0.9,1.7l1.5,4.6l-30.7,9.9
		c0.3-0.7,0.4-1.4,0.1-2.2l-4.4-13.8c-0.5-1.6-2.3-2.5-3.9-2l-39.5,12.7c-1.6,0.5-2.5,2.3-2,3.9l4.4,13.8c0.2,0.8,0.7,1.3,1.4,1.7
		l-54.8,17.6c-6.4,2.1-10,9-7.9,15.4l9.2,28.7h48.7c-5.7-23.5,7.7-47.8,31.1-55.3c24.5-7.9,50.8,5.6,58.7,30.1
		c2.7,8.5,2.9,17.2,1,25.2h55.8l-27.6-85.6C1221.5,888,1214.6,884.4,1208.2,886.5z"/>
	<path class="st1" d="M1244.5,648.1l5.3-4.2l-8.7-13l-93.3,78.6l-93.4,78.5l11.3,10.8l2.4-2.2l-2.5,14.7l-19.9,10.3l19.8,10.4
		l3.7,22.1l16.1-15.6l22.1,3.3l-9.9-20.1l3.3-6.7l8.3,5.8c16.8,9.2,31.6,6.2,48.7-11.6c18.9-19.6,14.8-28.9,0.9-75.1
		c-2.2-7.1,4.8-13,11.5-9.7c43.1,21.6,51.6,27.3,74.1,12c20.4-13.9,25.9-27.9,19.8-46.1L1244.5,648.1z M1085.3,805.1l-1.9-1.9
		l2.5,1.8L1085.3,805.1z M1145.9,806.3c-15.4,12.1-27.3,8.8-40.6,0l2.2-4.4l-6.9,1c-5.2-3.8-10.8-8.3-16.9-13
		c-7.3-5.5,0.2-9.3,7.9-15.6l36.9-30.6c10.3-8.5,13.9-15.2,19.1-3.6C1158.3,764,1166.5,790.1,1145.9,806.3z M1243.4,724.2
		c-19,17.1-42.6,5.6-63.9-8.6c-11.7-7.8,0-14.9,10.5-23.8l37.2-31.8c8.3-7.1,7.7-5.9,12.2,2.9C1253,689.4,1265.1,704.7,1243.4,724.2
		z"/>
	<path class="st1" d="M1052.2,668.1l129.2-19.2c14.9-2.2,16.5-8.9,14-23.9l-19.6-154.1l36.4,6.7c10.8,2,10.8,1.6,14.3-10l11.2-36.3
		c2-6.4-0.1-8.2-7.2-10.3l-92.5-27.2c-7.3-2.2-9.7-4.1-13.9,1.8c-20.7,29-57.7,35.9-86.1,14.4c-5.8-4.4-8.6-0.7-15.1,3.7l-68,46.2
		c-10.7,7.2-12.3,11-5.8,20.4l13.5,19.4c8,11.5,9.8,12.5,22,4.8l25.5-16l22,157.7C1034.4,662.9,1036.6,670.4,1052.2,668.1z"/>
	<path class="st1" d="M1000.5,750c-7.7,4.7-17,6.4-26.1,4c-9.1-2.5-16.3-8.7-20.5-16.7c-4.3-8-5.6-17.9-2.9-27.8
		c2.3-8.5,7.6-15.3,14.4-19.5c6.7-4.1,14.8-5.6,22.6-3.4c7.9,2.2,14.1,7.5,17.8,14.4c3.7,7,4.8,15.6,2.5,24.1
		c-2,7.2-6.5,13-12.2,16.5c-5.6,3.5-12.5,4.7-19.1,2.9c-6.7-1.8-11.9-6.3-15-12.2c-3.1-5.9-4.1-13.2-2.1-20.4
		c1.6-5.9,5.3-10.6,9.9-13.5c4.6-2.8,10.2-3.8,15.6-2.4c5.4,1.5,9.7,5.2,12.2,10c2.6,4.8,3.3,10.8,1.7,16.7
		c-1.3,4.6-4.1,8.3-7.7,10.5c-3.6,2.2-7.9,3-12.1,1.8c-4.2-1.2-7.5-4-9.5-7.7c-2-3.7-2.6-8.4-1.3-13c0.9-3.3,2.9-5.9,5.5-7.5
		c2.5-1.6,5.6-2.1,8.6-1.3c3,0.8,5.3,2.8,6.7,5.5c1.4,2.7,1.8,6,0.9,9.2c-0.5,2-1.8,3.6-3.3,4.5c-1.5,0.9-3.3,1.2-5,0.8
		c-1.7-0.5-3.1-1.7-4-3.2l0,0c-0.8-1.6-1.1-3.6-0.5-5.6c0.2-0.7,0.6-1.2,1.1-1.5c0.5-0.3,1-0.4,1.5-0.2c0.5,0.1,0.9,0.5,1.2,1
		c0.3,0.5,0.4,1.2,0.2,1.8l4.9,1.3c0.5-1.9,0.3-3.9-0.6-5.6c-0.9-1.7-2.4-3-4.3-3.5c-1.9-0.5-3.9-0.2-5.5,0.8
		c-1.6,1-2.8,2.5-3.3,4.5c-0.9,3.2-0.4,6.5,1,9.2l0,0c1.5,2.8,3.9,4.9,7.1,5.7c3.2,0.9,6.4,0.3,9-1.3c2.6-1.6,4.7-4.2,5.6-7.5
		c1.2-4.6,0.6-9.2-1.4-13c-2-3.8-5.5-6.8-9.8-8c-4.4-1.2-8.9-0.4-12.5,1.9c-3.6,2.2-6.5,5.9-7.8,10.5c-1.6,5.9-0.8,11.8,1.8,16.7
		c2.6,4.9,7,8.7,12.6,10.2c5.6,1.5,11.3,0.5,16.1-2.4c4.7-2.9,8.4-7.6,10-13.5c2-7.2,1-14.4-2.1-20.4c-3.2-6-8.5-10.6-15.4-12.5
		c-6.8-1.9-13.8-0.6-19.6,2.9c-5.7,3.5-10.2,9.3-12.2,16.5c-2.3,8.5-1.2,17.1,2.5,24.1c3.7,7.1,10.1,12.5,18.1,14.7
		c8.1,2.2,16.3,0.7,23.1-3.5c6.8-4.2,12.1-11,14.4-19.5c2.7-9.8,1.4-19.7-2.9-27.8c-4.3-8.1-11.6-14.4-20.9-17
		c-9.3-2.5-18.8-0.8-26.6,4c-7.8,4.8-14,12.7-16.6,22.4c-3,11.1-1.5,22.3,3.3,31.5c4.9,9.2,13.2,16.3,23.7,19.2
		c10.5,2.9,21.3,0.9,30.1-4.5c8.8-5.4,15.8-14.3,18.8-25.4l-4.9-1.3C1014.4,737.3,1008.2,745.2,1000.5,750z"/>
	<path class="st1" d="M951.3,837.8c-2.4-0.7-4.8-1.2-7.1-1.5c1.6-1.7,3.2-3.6,4.6-5.7c9.6-14.1,9.6-30.9-0.2-37.6
		c-9.7-6.7-25.5-0.7-35.1,13.4c-1.4,2.1-2.6,4.2-3.6,6.3c-1.1-2.1-2.4-4.2-4-6.1c-10.4-13.5-26.4-18.6-35.8-11.4
		c-9.4,7.2-8.5,24,1.9,37.5c1.5,2,3.2,3.8,4.9,5.4c-2.3,0.4-4.7,1-7.1,1.9c-16.1,5.7-25.9,19.4-21.9,30.5c4,11.1,20.2,15.5,36.3,9.8
		c2.4-0.8,4.6-1.9,6.7-3c-0.3,2.3-0.5,4.8-0.4,7.3c0.5,17,10.4,30.6,22.2,30.3c11.8-0.3,21-14.4,20.6-31.4c-0.1-2.5-0.3-4.9-0.8-7.2
		c2.1,1,4.4,1.9,6.8,2.6c16.4,4.8,32.3-0.4,35.7-11.8C978.2,855.7,967.7,842.6,951.3,837.8z M953,858.9c-2.2,7.3-12.4,10.7-23,7.6
		c-1.5-0.5-3-1-4.4-1.7c0.3,1.5,0.5,3.1,0.5,4.7c0.3,11-5.6,20-13.2,20.2c-7.6,0.2-14-8.5-14.3-19.5c0-1.6,0-3.2,0.3-4.7
		c-1.3,0.7-2.8,1.4-4.3,1.9c-10.3,3.7-20.8,0.8-23.3-6.3c-2.5-7.2,3.8-16,14.1-19.6c1.5-0.5,3-0.9,4.5-1.2c-1.1-1-2.2-2.2-3.2-3.5
		c-6.7-8.7-7.2-19.5-1.2-24.2c6-4.6,16.3-1.3,23,7.4c1,1.3,1.8,2.6,2.5,4c0.6-1.4,1.4-2.7,2.3-4.1c6.2-9,16.3-12.9,22.6-8.6
		c6.3,4.3,6.3,15.1,0.1,24.2c-0.9,1.3-1.9,2.5-3,3.6c1.5,0.2,3,0.5,4.6,1C948.4,843.2,955.2,851.6,953,858.9z"/>
	<path class="st1" d="M1328.8,2.5c3.6,14.9,4.3,21.3,16.2,20.3l55-4.7V0h-71.8L1328.8,2.5z"/>
	<path class="st1" d="M1321,657c16-21.4,32-42.7,29.3-61.4c-1.5-10.3-11-17.5-21.4-16c-9.3,1.3-13.3,6.7-16.7,16.7
		c-6-8.7-11.3-12.7-20.7-11.3c-10.3,1.5-17.5,11-16,21.3C1278.3,625,1299.6,641,1321,657z"/>
	<path class="st1" d="M1375.9,150.5c0.2,9.5,8.1,17.1,17.6,16.9l6.5-0.1V54.7C1385.2,73.1,1375,105,1375.9,150.5z"/>
	<path class="st1" d="M218.6,106l129.2,19.2c15.6,2.3,17.8-5.3,20.1-21.8L382.3,0H215.1l-10.4,82.1
		C202.1,97.1,203.7,103.8,218.6,106z"/>
	<path class="st1" d="M1360.2,884c-2.2,1-4.8,0-5.8-2.2v0c-1-2.2,0-4.8,2.2-5.7l30.1-13.3c-13.8-19.3-26.9-39.8-41-63.8
		c-18-30.6-70.3-19.2-60.9,15l29.6,107.1c2.2,8.1,3,9.7,10.8,11.5l5.8,1.3l5,15.2c2.2,6.8-0.1,7.6-7.3,9.5
		c-12.4,3.3-13.6,4.6-10.5,15.6l1.7,5.9h80.1v-50.8l-2.4,1c-2.2,1-4.8,0-5.7-2.2l0,0c-1-2.2,0-4.8,2.2-5.7l5.9-2.6v-21.9l-21.1,9.3
		c-2.2,1-4.8,0-5.7-2.2l0,0c-1-2.2,0-4.8,2.2-5.7l24.6-10.9v-7.6c-2.7-3.6-5.4-7.1-8-10.7L1360.2,884z"/>
	<path class="st1" d="M1357.9,479.6l-82.9,24.6c-37.8,11.2-24.8,79.3,27.7,64.4l97.4-27.7V416l-13.1,34
		C1379.9,467,1375.6,474.3,1357.9,479.6z"/>
	<path class="st1" d="M921.4,832.8c-8.5-5.8-20.1-3.7-26,4.8c-5.8,8.5-3.7,20.1,4.8,26c8.5,5.8,20.1,3.7,26-4.8
		C932,850.2,929.9,838.6,921.4,832.8z"/>
	<polygon class="st1" points="0,980 11.4,980 0,953.8 	"/>
	<path class="st1" d="M9.5,681.4c-0.6-23.8-4.1-43.7-9.5-59.9v75.7C5.8,694.3,9.7,688.2,9.5,681.4z"/>
	<path class="st1" d="M875.2,725.7l28.6-104.6c0.7-2.4-0.8-4.9-3.2-5.6l-3.1-0.8l14.4-52.8c6.4-23.5-36.7,0.6-38.9,8.6l-9.5,34.9
		l-3.1-0.8c-2.4-0.7-4.9,0.8-5.5,3.2l-28.6,104.6c-0.7,2.4,0.8,4.9,3.2,5.6l40.1,10.9C872,729.5,874.5,728.1,875.2,725.7z"/>
	<path class="st1" d="M71.2,545.5l10.5-43.6c2.7-11.1,1.4-12.3-11.1-15.1c-7.3-1.6-9.7-2.3-7.8-9.2l4.3-15.4l5.7-1.6
		c7.6-2.1,8.4-3.8,10.2-11.9l24.7-108.3c7.9-34.6-44.9-43.7-61.5-12.3c-13,24.6-25.1,45.6-38.1,65.6l30.6,11.9
		c2.2,0.9,3.4,3.4,2.5,5.6l0,0c-0.9,2.2-3.4,3.3-5.6,2.5L3.3,401.2c-1.1,1.7-2.2,3.3-3.3,4.9v15.2l21.2,8.2c2.2,0.9,3.3,3.4,2.5,5.6
		l0,0c-0.9,2.2-3.4,3.4-5.6,2.5l-18.1-7v21.4l3.5,1.4c2.2,0.9,3.4,3.4,2.5,5.6l0,0c-0.9,2.2-3.4,3.3-5.6,2.5L0,461.5v99.6l55,4.7
		C66.9,566.8,67.7,560.4,71.2,545.5z"/>
	<path class="st1" d="M155.6,193.7c22.5,15.3,31,9.7,74.1-12c6.7-3.3,13.6,2.5,11.5,9.7c-13.9,46.1-18.1,55.5,0.9,75.1
		c17.2,17.8,31.9,20.8,48.7,11.6l38.5-26.6l5,4.5l11.3-10.8l-93.4-78.5L158.9,88l-8.7,13l5.3,4.2l-19.6,42.4
		C129.6,165.8,135.1,179.8,155.6,193.7z M252.4,197.2c5.2-11.6,8.8-5,19.1,3.6l36.9,30.6c7.6,6.3,15.1,10.1,7.9,15.6
		c-23.9,18.1-39.1,34.5-62.2,16.3C233.5,247.1,241.7,221,252.4,197.2z M160.6,120c4.5-8.8,3.9-10,12.2-2.9l37.2,31.8
		c10.4,8.9,22.2,16,10.5,23.8c-21.3,14.2-44.9,25.7-63.9,8.6C134.9,161.7,147,146.4,160.6,120z"/>
	<path class="st1" d="M156.6,181.3c19,17.1,42.6,5.6,63.9-8.6c11.7-7.8,0-14.9-10.5-23.8l-37.2-31.8c-8.3-7.1-7.7-5.9-12.2,2.9
		C147,146.4,134.9,161.7,156.6,181.3z"/>
	<path class="st1" d="M145.9,0H7.1l90.2,25.6C125.3,33.6,142,18,145.9,0z"/>
	<path class="st1" d="M91.8,894.7c-0.7-2.2-0.9-4.3-0.7-6.5c-1.9-1.6-3.5-1.3-8.7,0.2l-30,8.6c-11.5,3.3-18.8,2.5-15.2,14.1
		c6,19.2,17.3,33.6,36,42.3c12.6,5.9,14-1.4,18.8-12.8l9.6-23c2.1-5,3.3-8.6,2.4-12.2C98.4,904.3,93.7,900.4,91.8,894.7z"/>
	<path class="st1" d="M794.2,773.8c8.7-23.7,1.2-30.7-31.2-24.9c-119,21.4-161.9-4-239.2-37.8c-16.2-7.1-18.2-3.5-24.3,11.4
		c-4.7,10.7-14.1,20,7.8,28c110.7,40.4,86.9,146.7-59.7,97.9c-17.5-5.8-17,0.1-20.3,9.1c-4.7,10.6-7.3,21.7,2.6,26.7
		c114.6,57.6,235.5,82,366.3,34.5c21.9-8,23.4-8.6,16.1-34.5C802.1,848,777.3,819.5,794.2,773.8z"/>
	<path class="st1" d="M444,971.6l-70-43.1c-6.7-4.1-9.7-7.6-15.3-3C331.3,948.2,294,943,272,915c-4.4-5.7-6.7-3.6-13.9-1.2
		l-91.2,31.3c-7,2.4-9,4.3-6.7,10.6l8.7,24.2h284.7C452.3,977.2,449.1,974.8,444,971.6z"/>
	
		<ellipse transform="matrix(0.9494 -0.314 0.314 0.9494 -273.9606 78.5655)" class="st1" cx="106.9" cy="889.7" rx="12.1" ry="12.1"/>
	<path class="st1" d="M176.5,867.8c-6-19.2-17.3-33.6-36-42.2c-12.6-5.9-14,1.4-18.8,12.8l-9.6,23c-2.2,5.2-3.4,8.9-2.3,12.6
		c5.5,1.1,10.2,5,12.1,10.6c0.7,2,0.9,4.1,0.8,6.1c1.8,1.5,3.5,1.2,8.6-0.3l30-8.6C172.9,878.6,180.2,879.4,176.5,867.8z"/>
	<path class="st2" d="M530.6,524.5c-18.9-19.5-50.4-20-70-1c-19.5,19-20,50.4-1,70l87.4,90c19,19.5,50.4,20,70,1
		c19.5-18.9,20-50.4,1-70L530.6,524.5z"/>
	<path class="st2" d="M532.7,860.4v70.9v45.2H761v-51.7c82.4-22,143.6-97.5,143.6-186.6V545.1l-371.9,56.3V860.4z"/>
	<path class="st3" d="M723.8,689V577.7c0-1.8-0.1-3.5-0.4-5.2l-73.8,11.2v158.2c-5.9-11-17.5-18.5-30.8-18.5
		c-19.2,0-34.9,15.7-34.9,34.9v102.6c0,19.2,16.5,29.4,34.9,34.9l30.8,9.2v7.6c0,23,5.5,44.8,15.2,64.1H761v-51.7
		c82.4-22,143.6-97.5,143.6-186.6v-44.4c-6.9-3.1-14.5-4.8-22.5-4.8H723.8z"/>
	<path class="st4" d="M837.9,169.2H596.7c-23.2,0-42.1,18.9-42.1,42.1v550.5c0,23.2,18.9,42.1,42.1,42.1h241.2
		c23.2,0,42.1-18.9,42.1-42.1V211.3C880,188.2,861.1,169.2,837.9,169.2z"/>
	<path class="st5" d="M723.8,577.7c0-20.4-16.7-37.1-37.1-37.1c-20.4,0-37.1,16.7-37.1,37.1v164.2c-5.9-11-17.5-18.5-30.8-18.5
		c-19.2,0-34.9,15.7-34.9,34.9v43.7c4,1.3,8.3,2,12.7,2h241.2c23.2,0,42.1-18.9,42.1-42.1V689H723.8V577.7z"/>
	<path class="st6" d="M837.9,169.2H596.7c-23.2,0-42.1,18.9-42.1,42.1v550.5c0,5.1,0.9,9.9,2.6,14.4l312.5-592.4
		C862,174.9,850.6,169.2,837.9,169.2z"/>
	<rect x="585.8" y="241.3" class="st7" width="263.1" height="445.2"/>
	<ellipse class="st8" cx="717.3" cy="742" rx="30.6" ry="30.6"/>
	<circle class="st8" cx="639.8" cy="216.6" r="5.3"/>
	<path class="st8" d="M765.3,211.2h-95.9c-2.9,0-5.3,2.4-5.3,5.3c0,2.9,2.4,5.3,5.3,5.3h95.9c2.9,0,5.3-2.4,5.3-5.3
		C770.5,213.5,768.2,211.2,765.3,211.2z"/>
	<path class="st2" d="M909.1,687l-109.1,15.9c-18.5,2.7-33.7,20.1-33.7,38.6v0c0,18.5,15.2,31.5,33.7,28.8l109.1-15.9
		c18.5-2.7,33.7-20.1,33.7-38.6C942.8,697.3,927.6,684.3,909.1,687z"/>
	<path class="st2" d="M909.1,613l-109.1,15.9c-18.5,2.7-33.7,20.1-33.7,38.6v0c0,18.5,15.2,31.5,33.7,28.8l109.1-15.9
		c18.5-2.7,33.7-20.1,33.7-38.6v0C942.8,623.3,927.6,610.3,909.1,613z"/>
	<path class="st2" d="M909.1,465l-109.1,15.9c-18.5,2.7-33.7,20.1-33.7,38.6v0c0,18.5,15.2,31.5,33.7,28.8l109.1-15.9
		c18.5-2.7,33.7-20.1,33.7-38.6C942.8,475.2,927.6,462.3,909.1,465z"/>
	<path class="st2" d="M909.1,539l-109.1,15.9c-18.5,2.7-33.7,20.1-33.7,38.6v0c0,18.5,15.2,31.5,33.7,28.8l109.1-15.9
		c18.5-2.7,33.7-20.1,33.7-38.6C942.8,549.2,927.6,536.3,909.1,539z"/>
	<path class="st3" d="M800.1,696.3l109.1-15.9c12.1-1.8,22.7-9.8,28.7-20.2c-5.7-2-11.8-3.1-18.2-3.1H768c-1,3.4-1.6,6.9-1.6,10.5v0
		C766.4,686,781.5,699,800.1,696.3z"/>
	<path class="st3" d="M909.1,687l-109.1,15.9c-18.5,2.7-33.7,20.1-33.7,38.6v0c0,18.5,15.2,31.5,33.7,28.8l109.1-15.9
		c18.5-2.7,33.7-20.1,33.7-38.6C942.8,697.3,927.6,684.3,909.1,687z"/>
	<g>
		<path class="st9" d="M888.1,121.7h-54.7c-32.6,0-59.2,26.6-59.2,59.2v0c0,32.6,26.6,59.2,59.2,59.2h5.3l17.9,17.9
			c2.3,2.3,6.1,2.3,8.4,0l17.9-17.9h5.3c32.6,0,59.2-26.6,59.2-59.2v0C947.3,148.3,920.7,121.7,888.1,121.7z"/>
		<path class="st10" d="M880.1,148.9c-9.7,0-14.5,4.8-19.3,14.5c-4.8-9.7-9.7-14.5-19.3-14.5c-10.7,0-19.3,14.8-19.3,25.5
			c0,19.3,19.9,41.7,38.7,41.7c18.8,0,38.7-22.4,38.7-41.7C899.4,163.7,890.8,148.9,880.1,148.9z"/>
	</g>
	<path class="st9" d="M976.1,291.8H835.4c-11.6,0-21.1,9.5-21.1,21.1v100.8c0,10.3,7.5,18.9,17.3,20.7l19.5,19.5
		c2.2,2.2,5.9,2.2,8.1,0l19.2-19.2h97.6c11.6,0,21.1-9.5,21.1-21.1V312.9C997.2,301.3,987.7,291.8,976.1,291.8z"/>
	<rect x="838.3" y="366.6" class="st11" width="134.9" height="8.3"/>
	<rect x="838.3" y="383.8" class="st11" width="134.9" height="8.3"/>
	<rect x="838.3" y="401" class="st11" width="70.4" height="8.3"/>
	<rect x="838.3" y="332.2" class="st11" width="134.9" height="8.3"/>
	<rect x="838.3" y="349.4" class="st11" width="134.9" height="8.3"/>
	<rect x="838.3" y="315.1" class="st11" width="134.9" height="8.3"/>
	<path class="st12" d="M1023.4,258.9l-12-9.5c-2.6-2.1-6.4-1.6-8.5,1l-3.8,4.7l-47.7,60l21.5,17.1l47.7-60l3.8-4.7
		C1026.4,264.8,1026,261,1023.4,258.9z"/>
	<polygon class="st12" points="951.4,337 972.8,332.1 951.3,315 	"/>
	<g>
		<path class="st9" d="M650.1,200.6H417.3c-32.6,0-59.2,26.6-59.2,59.2v0c0,32.6,26.6,59.2,59.2,59.2h232.8
			c32.6,0,59.2-26.6,59.2-59.2v0C709.3,227.2,682.7,200.6,650.1,200.6z"/>
		<circle class="st13" cx="446.3" cy="259.8" r="38.1"/>
		<path class="st12" d="M439.6,246.8c-2.1-1.6-4.6-2.5-7.3-2.5c-2.7,0-5.3,0.9-7.3,2.5c-2.1,1.6-3.6,3.8-4.3,6.5l4.3,1.2
			c0.4-1.7,1.4-3.1,2.7-4c1.3-1,2.9-1.6,4.6-1.6c1.7,0,3.3,0.6,4.6,1.6c1.3,1,2.3,2.4,2.7,4l4.4-1.2
			C443.2,250.6,441.7,248.4,439.6,246.8z"/>
		<path class="st12" d="M467.7,246.8c-2.1-1.6-4.6-2.5-7.3-2.5c-2.7,0-5.3,0.9-7.3,2.5c-2.1,1.6-3.6,3.8-4.3,6.5l4.4,1.2
			c0.4-1.7,1.4-3.1,2.7-4c1.3-1,2.9-1.6,4.6-1.6c1.7,0,3.3,0.6,4.6,1.6c1.3,1,2.3,2.4,2.7,4l4.3-1.2
			C471.3,250.6,469.7,248.4,467.7,246.8z"/>
		<circle class="st11" cx="533.7" cy="259.8" r="38.1"/>
		<circle class="st11" cx="621.1" cy="259.8" r="38.1"/>
		<path class="st12" d="M611.7,250c-1.3,1-2.9,1.6-4.6,1.6c-1.7,0-3.3-0.6-4.6-1.6c-1.3-1-2.3-2.4-2.7-4l-4.3,1.2
			c0.7,2.6,2.3,4.9,4.3,6.5c2.1,1.6,4.6,2.5,7.3,2.5c2.7,0,5.3-0.9,7.3-2.5c2.1-1.6,3.6-3.8,4.3-6.5l-4.4-1.2
			C613.9,247.6,613,249,611.7,250z"/>
		<path class="st12" d="M639.7,250c-1.3,1-2.9,1.6-4.6,1.6c-1.7,0-3.3-0.6-4.6-1.6c-1.3-1-2.3-2.4-2.7-4l-4.4,1.2
			c0.7,2.6,2.3,4.9,4.3,6.5c2.1,1.6,4.6,2.5,7.3,2.5c2.7,0,5.3-0.9,7.3-2.5c2.1-1.6,3.6-3.8,4.3-6.5l-4.4-1.2
			C642,247.6,641,249,639.7,250z"/>
		<path class="st12" d="M633.2,267.6L633.2,267.6c-3.6-2.1-7.8-3.2-12.1-3.2c-4.3,0-8.5,1.2-12.1,3.2h0c-3.6,2.1-6.7,5.1-8.8,8.8
			l3.9,2.3c1.8-3,4.3-5.5,7.2-7.2c2.9-1.7,6.3-2.6,9.8-2.6c3.5,0,6.9,0.9,9.8,2.6c2.9,1.7,5.4,4.2,7.2,7.2l3.9-2.3
			C639.8,272.7,636.8,269.6,633.2,267.6z"/>
		<path class="st12" d="M527,246.8c-2.1-1.6-4.6-2.5-7.3-2.5c-2.7,0-5.3,0.9-7.3,2.5c-2.1,1.6-3.6,3.8-4.3,6.5l4.3,1.2
			c0.4-1.7,1.4-3.1,2.7-4c1.3-1,2.9-1.6,4.6-1.6s3.3,0.6,4.6,1.6c1.3,1,2.3,2.4,2.7,4l4.3-1.2C530.6,250.6,529.1,248.4,527,246.8z"
			/>
		<path class="st12" d="M555.1,246.8c-2.1-1.6-4.6-2.5-7.3-2.5c-2.7,0-5.3,0.9-7.3,2.5c-2.1,1.6-3.6,3.8-4.3,6.5l4.4,1.2
			c0.4-1.7,1.4-3.1,2.7-4c1.3-1,2.9-1.6,4.6-1.6c1.7,0,3.3,0.6,4.6,1.6c1.3,1,2.3,2.4,2.7,4l4.4-1.2
			C558.7,250.6,557.1,248.4,555.1,246.8z"/>
		<path class="st12" d="M543.5,275.6c-2.9,1.7-6.3,2.6-9.8,2.6c-3.5,0-6.9-0.9-9.8-2.6c-2.9-1.7-5.4-4.2-7.2-7.2l-3.9,2.2
			c2.2,3.7,5.2,6.8,8.8,8.8h0c3.6,2.1,7.8,3.2,12.1,3.2c4.3,0,8.5-1.2,12.1-3.2h0c3.6-2.1,6.7-5.1,8.8-8.8l-3.9-2.2
			C549,271.4,546.5,273.9,543.5,275.6z"/>
		<path class="st12" d="M446.3,283.3c11.8,0,21.5-8.6,23.3-19.9H423C424.8,274.7,434.5,283.3,446.3,283.3z"/>
		<path class="st9" d="M631,336.8c2.3,2.3,6.1,2.3,8.4,0l23.4-23.4h-55.2L631,336.8z"/>
	</g>
	<path class="st14" d="M800,470.6c-45,11.6-84.2,10-71.1-3c-13.1,13-14.7-26.1-3-71.1c-11.7,45-32.7,78-38.2,60.1
		c5.5,18-29.3-0.2-63.1-32.9c33.8,32.8,52,67.5,32.9,63.1c19,4.4-14,25.4-60.1,38.2c46-12.8,85.2-11.1,71.1,3
		c14.1-14.1,15.7,25,3,71.1c12.7-46.1,33.7-79.2,38.2-60.1c-4.5-19.1,30.3-1,63.1,32.9C740.1,538,722,503.3,740,508.8
		C722,503.3,755,482.2,800,470.6z"/>
	<path class="st2" d="M909.4,669.5H751.2V508.5c0-20.4-16.7-37.1-37.1-37.1c-20.4,0-37.1,16.7-37.1,37.1v216v2.9
		c-6.5-12.6-20-21.2-35-21.2h0c-21.5,0-39.1,17.6-39.1,39.1V846c0,21.5,18.1,34.5,39.1,39.1l34.7,7.6l0.3-11.1v11.3
		c0,31.1,10,60,27,83.6h260.5V882V724.5C964.5,694.3,939.7,669.5,909.4,669.5z"/>
	<path class="st9" d="M406.8,676.5h-9.1v-9c0-6.1-5-11-11-11c-6.1,0-11,5-11,11v9h-9.1c-6.1,0-11,5-11,11c0,6.1,5,11,11,11h9.1v9
		c0,6.1,5,11,11,11c6.1,0,11-5,11-11v-9h9.1c6.1,0,11-5,11-11C417.8,681.4,412.9,676.5,406.8,676.5z"/>
	<path class="st9" d="M1102.1,195.2h-9v-9c0-6.1-5-11-11-11s-11,5-11,11v9h-9c-6.1,0-11,5-11,11c0,6.1,5,11,11,11h9v9
		c0,6.1,5,11,11,11s11-5,11-11v-9h9c6.1,0,11-5,11-11C1113.2,200.2,1108.2,195.2,1102.1,195.2z"/>
	<path class="st9" d="M1011.3,569h-6.1v-6.1c0-4.1-3.4-7.5-7.5-7.5c-4.1,0-7.5,3.4-7.5,7.5v6.1h-6.1c-4.1,0-7.5,3.4-7.5,7.5
		c0,4.1,3.4,7.5,7.5,7.5h6.1v6.1c0,4.1,3.4,7.5,7.5,7.5c4.1,0,7.5-3.4,7.5-7.5v-6.1h6.1c4.1,0,7.5-3.4,7.5-7.5
		C1018.8,572.4,1015.4,569,1011.3,569z"/>
	<path class="st9" d="M523.8,146.4h-6.1v-6.1c0-4.1-3.4-7.5-7.5-7.5c-4.1,0-7.5,3.4-7.5,7.5v6.1h-6.1c-4.1,0-7.5,3.4-7.5,7.5
		c0,4.1,3.4,7.5,7.5,7.5h6.1v6.1c0,4.1,3.4,7.5,7.5,7.5c4.1,0,7.5-3.4,7.5-7.5v-6.1h6.1c4.1,0,7.5-3.4,7.5-7.5
		C531.3,149.7,527.9,146.4,523.8,146.4z"/>
	<path class="st9" d="M1095.2,771.8h-6.1v-6.1c0-4.1-3.4-7.5-7.5-7.5s-7.5,3.4-7.5,7.5v6.1h-6.1c-4.1,0-7.5,3.4-7.5,7.5
		c0,4.1,3.4,7.5,7.5,7.5h6.1v6.1c0,4.1,3.4,7.5,7.5,7.5s7.5-3.4,7.5-7.5v-6.1h6.1c4.1,0,7.5-3.4,7.5-7.5
		C1102.7,775.1,1099.3,771.8,1095.2,771.8z"/>
	<path class="st9" d="M336.7,353h-6.1v-6.1c0-4.1-3.4-7.5-7.5-7.5c-4.1,0-7.5,3.4-7.5,7.5v6.1h-6.1c-4.1,0-7.5,3.4-7.5,7.5
		c0,4.1,3.4,7.5,7.5,7.5h6.1v6.1c0,4.1,3.4,7.5,7.5,7.5c4.1,0,7.5-3.4,7.5-7.5v-6.1h6.1c4.1,0,7.5-3.4,7.5-7.5
		C344.1,356.3,340.8,353,336.7,353z"/>
	<g>
		<polygon class="st11" points="962.2,514.8 990,492.3 1017.9,514.8 1017.9,413.7 962.2,413.7 		"/>
		<polygon class="st13" points="1030.7,402.5 1037.1,391.1 1024.5,387.6 1026.1,374.6 1013.1,376.1 1009.5,363.6 998.1,369.9 
			990,359.7 981.9,369.9 970.5,363.6 967,376.1 954,374.6 955.5,387.6 942.9,391.1 949.3,402.5 939.1,410.6 949.3,418.7 
			942.9,430.1 955.5,433.7 954,446.7 967,445.1 970.5,457.7 981.9,451.3 990,461.6 998.1,451.3 1009.5,457.7 1013.1,445.1 
			1026.1,446.7 1024.5,433.7 1037.1,430.1 1030.7,418.7 1041,410.6 		"/>
	</g>
	<g>
		<path class="st12" d="M522.1,394.1h-77c-9.4,0-17.1,7.7-17.1,17.1v59.3c0,9.3,7.5,16.9,16.8,17.1l0,0l12.7,12.7
			c1.8,1.8,4.8,1.8,6.6,0l12.7-12.7h45.3c9.4,0,17.1-7.7,17.1-17.1v-59.3C539.2,401.7,531.5,394.1,522.1,394.1z"/>
		<path class="st9" d="M586.1,345.8h-96.9c-11.8,0-21.5,9.7-21.5,21.5v74.6c0,11.8,9.7,21.5,21.5,21.5h57l16,16c2.3,2.3,6,2.3,8.3,0
			l16-16l0,0c11.6-0.2,21.1-9.8,21.1-21.5v-74.6C607.6,355.5,598,345.8,586.1,345.8z"/>
		<circle class="st0" cx="537.7" cy="404.1" r="8.6"/>
		<circle class="st0" cx="503.4" cy="404.1" r="8.6"/>
		<circle class="st0" cx="572" cy="404.1" r="8.6"/>
	</g>
	<g>
		<path class="st9" d="M625.4,517.8h-95.6c-11.7,0-21.2,9.5-21.2,21.2v73.6c0,11.7,9.5,21.2,21.2,21.2H586l15.8,15.8
			c2.3,2.3,6,2.3,8.2,0l15.8-15.8l0,0c11.5-0.2,20.8-9.7,20.8-21.2V539C646.6,527.3,637,517.8,625.4,517.8z"/>
		<g>
			<path class="st2" d="M606.3,558h-25.9v-9.1c0-3.8-3.1-6.9-6.9-6.9h0c-3.8,0-6.9,3.1-6.9,6.9v11.9h-8.6v38.9h8.8
				c0.9,3.8,4.3,6.6,8.3,6.6h31.3c4.7,0,8.5-3.8,8.5-8.5v-31.3C614.8,561.9,611,558,606.3,558z"/>
			<path class="st12" d="M556.3,557.9H542c-0.9,0-1.7,0.7-1.7,1.7V601c0,0.9,0.7,1.7,1.7,1.7h14.3c0.9,0,1.7-0.7,1.7-1.7v-41.4
				C557.9,558.7,557.2,557.9,556.3,557.9z"/>
		</g>
	</g>
</g>
</svg>
