<?xml version="1.0" encoding="UTF-8" standalone="no"?>
<svg
   xmlns:dc="http://purl.org/dc/elements/1.1/"
   xmlns:cc="http://creativecommons.org/ns#"
   xmlns:rdf="http://www.w3.org/1999/02/22-rdf-syntax-ns#"
   xmlns:svg="http://www.w3.org/2000/svg"
   xmlns="http://www.w3.org/2000/svg"
   xmlns:sodipodi="http://sodipodi.sourceforge.net/DTD/sodipodi-0.dtd"
   xmlns:inkscape="http://www.inkscape.org/namespaces/inkscape"
   version="1.1"
   id="svg2"
   xml:space="preserve"
   width="2666.6667"
   height="2666.6667"
   viewBox="0 0 2666.6667 2666.6667"
   sodipodi:docname="Author_Singgle-05.eps"><metadata
     id="metadata8"><rdf:RDF><cc:Work
         rdf:about=""><dc:format>image/svg+xml</dc:format><dc:type
           rdf:resource="http://purl.org/dc/dcmitype/StillImage" /></cc:Work></rdf:RDF></metadata><defs
     id="defs6" /><sodipodi:namedview
     pagecolor="#ffffff"
     bordercolor="#666666"
     borderopacity="1"
     objecttolerance="10"
     gridtolerance="10"
     guidetolerance="10"
     inkscape:pageopacity="0"
     inkscape:pageshadow="2"
     inkscape:window-width="640"
     inkscape:window-height="480"
     id="namedview4" /><g
     id="g10"
     inkscape:groupmode="layer"
     inkscape:label="ink_ext_XXXXXX"
     transform="matrix(1.3333333,0,0,-1.3333333,0,2666.6667)"><g
       id="g12"
       transform="scale(0.1)"><path
         d="M 0,0 H 20000 V 20000 H 0 Z"
         style="fill:#ffffff;fill-opacity:1;fill-rule:nonzero;stroke:none"
         id="path14" /><path
         d="m 11986.5,6338.7 c -1007.8,0 -2009.06,110.8 -2848.23,201.2 -2284.86,246 -5109.4,550.2 -6054.31,2668.7 -1045.31,2343.6 708.09,5790 2489.44,6074.2 77.27,12.4 151.24,18.2 222.5,18.2 1141.19,0 1581.08,-1500.3 3541.53,-1910.1 292.21,-61.1 570.19,-87.9 835.97,-87.9 954.9,0 1750.3,346.2 2467,692.5 716.8,346.2 1354.9,692.5 1995.2,692.5 224.1,0 448.4,-42.4 676.5,-142.1 1706.8,-745.5 2598.8,-4248.7 1294.5,-6333.1 -944.9,-1510 -2793.4,-1874.1 -4620.1,-1874.1"
         style="fill:#edf7ff;fill-opacity:1;fill-rule:nonzero;stroke:none"
         id="path16" /><path
         d="m 10009.2,5089.1 c 12.2,-4.2 49.4,-538.7 49.4,-538.7 0,0 -3.1,-153.1 -155.74,-109.4 -152.67,43.8 -139.76,343.2 -139.76,343.2 l -32.44,483 278.54,-178.1"
         style="fill:#ffb5a7;fill-opacity:1;fill-rule:nonzero;stroke:none"
         id="path18" /><path
         d="m 8835.12,3735.6 c 445.98,-1.3 1117.17,184.6 1350.88,245.6 -2.7,150.2 -32,461.1 -49,533 -26.4,108.7 -111.6,84.1 -111.6,84.1 0,0 -83.61,60.2 -204.77,85.8 -122.02,25.2 -180.88,-34 -200.74,-118.1 -20.28,-83.2 -33.19,-42.5 -520.72,-246.1 -194.08,-80.8 -315.34,-241.1 -386.82,-377.1 -48.94,-93.1 17.57,-206.9 122.77,-207.2"
         style="fill:#191d5a;fill-opacity:1;fill-rule:nonzero;stroke:none"
         id="path20" /><path
         d="m 8223.03,5028.6 c 11.56,-5.7 -15.41,-540.8 -15.41,-540.8 0,0 -21.41,-151.6 -167.75,-89.9 -146.34,61.7 -97.69,357.4 -97.69,357.4 l 25.6,483.4 255.25,-210.1"
         style="fill:#ffb5a7;fill-opacity:1;fill-rule:nonzero;stroke:none"
         id="path22" /><path
         d="m 6895.38,3825.3 c 442.62,-54.7 1131.24,49.6 1370.61,82.2 15.25,149.4 23.37,461.6 15.09,535.1 -13.18,110.9 -100.72,96.8 -100.72,96.8 0,0 -75.8,69.8 -193.04,109.7 -118.13,39.6 -183.65,-12.2 -213.43,-93.3 -30.09,-80.1 -38.04,-38.2 -546.42,-182 -202.36,-57 -341.93,-201.6 -429.17,-328.1 -59.74,-86.6 -7.33,-207.5 97.08,-220.4"
         style="fill:#191d5a;fill-opacity:1;fill-rule:nonzero;stroke:none"
         id="path24" /><path
         d="m 10200.2,10706.1 47.6,-5848.4 h -712.55 l -879.21,7028 1544.16,-1179.6"
         style="fill:#0644bb;fill-opacity:1;fill-rule:nonzero;stroke:none"
         id="path26" /><path
         d="m 7793.21,10982.1 -97.1,-6110 h 883.69 l 526.5,7028 -1313.09,-918"
         style="fill:#0644bb;fill-opacity:1;fill-rule:nonzero;stroke:none"
         id="path28" /><path
         d="m 8230.38,13029 c -90.8,-228.1 -119.67,-482.3 -36.68,-713.4 97.49,-271.4 -171.74,-548.1 -130.24,-712.4 53.4,-212.5 -43.41,-502 -120.56,-681.1 l -334.21,472.2 c -166.51,235.2 -212.39,535.2 -123.81,809.5 l 364.19,1127.6 c 58.75,182 179.57,337.5 341.34,439.3 l 5.31,3.4 c 54.88,-179.9 129.09,-507.8 34.66,-745.1"
         style="fill:#e59200;fill-opacity:1;fill-rule:nonzero;stroke:none"
         id="path30" /><path
         d="m 10398.2,13938.1 -192.5,-3273.5 -1991.55,-125.1 -271.25,382.6 c -193.15,154.1 328.39,2604.3 252.82,2852 220.8,138.8 503.03,311.2 503.03,311.2 l 239.15,93.5 c 504.53,52.5 1460.3,-240.7 1460.3,-240.7"
         style="fill:#feac00;fill-opacity:1;fill-rule:nonzero;stroke:none"
         id="path32" /><path
         d="m 9267.68,14873.7 102.07,-746.2 -603.27,-258 -74.3,543.3 508.96,407.5 66.54,53.4"
         style="fill:#eaa9a0;fill-opacity:1;fill-rule:nonzero;stroke:none"
         id="path34" /><path
         d="m 9275.38,14817.4 53.07,-388 c -83.2,-71.3 -290.04,-216.9 -606.06,-237.5 l -30.21,220.9 508.96,407.5 c 25.2,0 50.52,-0.9 74.24,-2.9"
         style="fill:#db9d97;fill-opacity:1;fill-rule:nonzero;stroke:none"
         id="path36" /><path
         d="m 8149.09,15441.8 c 0,0 -57.89,-1176.2 490.17,-1133.8 548.06,42.4 674.66,273.8 704.06,501.2 29.4,227.5 57.62,803.8 57.62,803.8 0,0 -812.4,359 -829.23,379.9 -16.83,21 -481.59,-51.9 -422.62,-551.1"
         style="fill:#ffb5a7;fill-opacity:1;fill-rule:nonzero;stroke:none"
         id="path38" /><path
         d="m 8167.89,14992.9 c 0,0 -45.52,780.3 106.74,722 152.25,-58.3 355.79,-593.6 567.64,-611.2 0,0 -226.34,429.9 -72.49,530 0,0 149.73,-482.2 447.13,-478.7 297.4,3.4 -4.37,-512.6 127.98,-629.5 54.51,-48.1 146.2,13.1 235.7,102.8 211.48,211.9 342.02,496.2 352.27,795.4 3.68,107.3 -7.3,219.8 -46.18,322.3 -82.27,216.7 -323.08,328.7 -549.19,277.5 -53.93,-12.2 -103.84,-25.3 -131.92,-37 0,0 -181.19,377.9 -613.58,252.4 -355.63,-103.2 -570.63,-462.1 -528.28,-830 13.81,-120 45.31,-258.6 104.18,-416"
         style="fill:#1e278c;fill-opacity:1;fill-rule:nonzero;stroke:none"
         id="path40" /><path
         d="m 9543.34,15082.3 c 17.53,-128.2 -47.29,-242.9 -144.77,-256.2 -97.48,-13.3 -190.71,79.7 -208.23,207.9 -17.53,128.1 47.29,242.8 144.77,256.1 97.48,13.3 190.71,-79.7 208.23,-207.8"
         style="fill:#ffb5a7;fill-opacity:1;fill-rule:nonzero;stroke:none"
         id="path42" /><path
         d="m 8706.59,14224.1 c 0,0 -153.66,-67.5 -141.56,-224.1 12.11,-156.6 281.37,-389.7 281.37,-389.7 0,0 47.82,364.9 86.45,388.8 0,0 -207.9,22.8 -226.26,225"
         style="fill:#e59200;fill-opacity:1;fill-rule:nonzero;stroke:none"
         id="path44" /><path
         d="m 8932.85,13999.1 c 0,0 402.88,241 409.28,330.3 0,0 204.1,19.3 247.8,-198.1 l -473.97,-484.1 c 0,0 -37.99,279.3 -183.11,351.9"
         style="fill:#e59200;fill-opacity:1;fill-rule:nonzero;stroke:none"
         id="path46" /><path
         d="m 8713.69,12496.4 -527.35,-72.1 -25.03,183 527.36,72.1 25.02,-183"
         style="fill:#ffbe4a;fill-opacity:1;fill-rule:nonzero;stroke:none"
         id="path48" /><path
         d="m 9424.16,11118.8 c -44.13,3.3 -83.54,-36.5 -127.95,-49.1 -61.89,-17.5 -122.88,21.2 -169.3,58.1 -36.62,29.2 -71.11,61.9 -112.71,83.3 -50.09,25.9 -106.43,28.5 -155.9,0.2 -85.67,-49.1 -183.7,-151.6 -218.68,-244.4 -10.53,-28 -13.47,-60.1 -1.45,-87.4 75.94,-172.8 353.28,72.6 450.79,-96.7 18.2,-31.5 24.92,-68.3 29.89,-104.4 6.79,-49.4 6.32,-154.7 80.4,-149.5 27.63,1.9 51.71,19 72.69,37 144.85,124.8 297.12,237.4 429.52,377.3 -75.18,51 -150.37,101.9 -225.56,152.9 -12.85,8.7 -26.09,17.6 -41.21,21.1 -3.54,0.8 -7.05,1.4 -10.53,1.6"
         style="fill:#ffb5a7;fill-opacity:1;fill-rule:nonzero;stroke:none"
         id="path50" /><path
         d="m 10554.6,13870.1 c -216.9,151.2 -513.6,5.3 -538.9,-260.6 -24.5,-257.3 28.4,-1717.3 28.4,-1717.3 l -746.38,-660.1 370.84,-499.2 c 0,0 1352.34,539.3 1321.44,765.6 -31,226.4 -190.5,2197.9 -428.3,2366.6 -2.4,1.7 -4.8,3.3 -7.1,5"
         style="fill:#e59200;fill-opacity:1;fill-rule:nonzero;stroke:none"
         id="path52" /><path
         d="m 9148.62,12738.7 v -2187.1 h -2696.2 v 2187.1 h 2696.2"
         style="fill:#81c7ff;fill-opacity:1;fill-rule:nonzero;stroke:none"
         id="path54" /><path
         d="M 9885.82,10371.8 H 6452.5 v 272.7 h 3433.32 v -272.7"
         style="fill:#5ebcfc;fill-opacity:1;fill-rule:nonzero;stroke:none"
         id="path56" /><path
         d="m 8015.38,11483.4 c 0,-161.1 -130.54,-291.6 -291.58,-291.6 -161.03,0 -291.58,130.5 -291.58,291.6 0,161 130.55,291.5 291.58,291.5 161.04,0 291.58,-130.5 291.58,-291.5"
         style="fill:#ffffff;fill-opacity:1;fill-rule:nonzero;stroke:none"
         id="path58" /><path
         d="m 16054.7,3736.9 h -4140.2 v 5650.6 h 4140.2 V 3736.9"
         style="fill:#55b6ff;fill-opacity:1;fill-rule:nonzero;stroke:none"
         id="path60" /><path
         d="M 15498,3735.6 H 11357.8 V 9386.2 H 15498 V 3735.6"
         style="fill:#b2dafe;fill-opacity:1;fill-rule:nonzero;stroke:none"
         id="path62" /><path
         d="m 15160.5,4021.4 h -3465.3 v 4984.8 h 3465.3 V 4021.4"
         style="fill:#ffffff;fill-opacity:1;fill-rule:nonzero;stroke:none"
         id="path64" /><path
         d="M 13427.9,3964.9 H 13284 v 5089.7 h 143.9 V 3964.9"
         style="fill:#b2dafe;fill-opacity:1;fill-rule:nonzero;stroke:none"
         id="path66" /><path
         d="m 11695.2,6490.3 v 143.8 h 3465.3 v -143.8 h -3465.3"
         style="fill:#b2dafe;fill-opacity:1;fill-rule:nonzero;stroke:none"
         id="path68" /><path
         d="m 5338.2,10512 c -4.46,0.5 -446.91,56.2 -492.28,493.1 -4.94,47.7 -20.05,193 88.59,234.7 129.93,49.6 316.72,-106.1 370.89,-155.1 l -85.71,-69 c -89.25,80.5 -204.48,144.6 -236.87,132.4 -8.95,-3.5 -29.9,-34.2 -19.51,-134.2 36.89,-355.2 376.39,-400.6 390.83,-402.3 l -15.94,-99.6"
         style="fill:#5ebcfc;fill-opacity:1;fill-rule:nonzero;stroke:none"
         id="path70" /><path
         d="m 5942.44,11387.4 v -1008.1 c 0,-40.7 -757.17,0 -757.17,0 v 1008.1 h 15.32 c 45.96,-30.6 190.91,-53.6 362.96,-53.6 172.07,0 317.61,23 363.57,53.6 h 15.32"
         style="fill:#81c7ff;fill-opacity:1;fill-rule:nonzero;stroke:none"
         id="path72" /><path
         d="m 5942.44,11408.7 c 0,-7.1 -5.31,-14.2 -15.32,-21.3 -45.96,-30.6 -191.5,-53.6 -363.57,-53.6 -172.05,0 -317,23 -362.96,53.6 -10.01,7.1 -15.32,14.2 -15.32,21.3 0,41.2 169.11,74.2 378.28,74.2 209.19,0 378.89,-33 378.89,-74.2"
         style="fill:#5ebcfc;fill-opacity:1;fill-rule:nonzero;stroke:none"
         id="path74" /><path
         d="M 6134.04,3735.6 H 5927.47 V 10154 h 206.57 V 3735.6"
         style="fill:#33b1ff;fill-opacity:1;fill-rule:nonzero;stroke:none"
         id="path76" /><path
         d="m 12554.9,3735.6 h -206.6 V 10154 h 206.6 V 3735.6"
         style="fill:#33b1ff;fill-opacity:1;fill-rule:nonzero;stroke:none"
         id="path78" /><path
         d="m 12014.6,11136.9 c 0,0 -989.5,808.2 -539.5,1045.3 449.9,237.2 662.4,-1038.2 662.4,-1038.2 l -98.3,-5.7 -24.6,-1.4"
         style="fill:#00c956;fill-opacity:1;fill-rule:nonzero;stroke:none"
         id="path80" /><path
         d="m 11590.8,11932.8 c 54.4,-82.9 107.8,-166.4 159.9,-250.6 l 154.9,-253.8 150.4,-256.4 c 49.5,-85.8 97.9,-172.4 145.2,-259.6 -54.5,82.9 -107.9,166.5 -160,250.7 l -154.9,253.8 -150.3,256.4 c -49.6,85.8 -97.9,172.4 -145.2,259.5"
         style="fill:#00b248;fill-opacity:1;fill-rule:nonzero;stroke:none"
         id="path82" /><path
         d="m 12439.2,11107.9 c 0,0 1004,790.1 558.4,1035.4 -445.5,245.3 -681.2,-1026 -681.2,-1026 l 98.3,-7.5 24.5,-1.9"
         style="fill:#00c956;fill-opacity:1;fill-rule:nonzero;stroke:none"
         id="path84" /><path
         d="m 12877.4,11896.1 c -48.9,-86.3 -98.8,-172 -149.9,-256.9 l -155,-253.6 -159.4,-251 c -53.7,-83.2 -108.6,-165.8 -164.5,-247.7 48.9,86.3 98.7,172 149.9,256.9 l 155,253.6 159.4,250.9 c 53.7,83.3 108.6,165.8 164.5,247.8"
         style="fill:#00b248;fill-opacity:1;fill-rule:nonzero;stroke:none"
         id="path86" /><path
         d="m 12314.6,11174.8 c 0,0 622.5,1625.6 -70,1601.2 -692.6,-24.3 -80.1,-1675.9 -80.1,-1675.9 l 120.1,59.8 30,14.9"
         style="fill:#00d656;fill-opacity:1;fill-rule:nonzero;stroke:none"
         id="path88" /><path
         d="m 12276.7,12402.9 c 1.5,-135.1 2,-270.1 0.9,-405.1 l -5,-405 -10.3,-404.9 c -4,-134.9 -9.6,-269.8 -16.3,-404.7 -1.6,135 -2,270.1 -0.9,405.1 l 5,404.9 10.3,404.9 c 4.1,135 9.6,269.9 16.3,404.8"
         style="fill:#00b248;fill-opacity:1;fill-rule:nonzero;stroke:none"
         id="path90" /><path
         d="m 12250.4,10313.4 v 0 c -240.3,0 -439.9,185.3 -457.8,424.9 l -38.3,514.7 h 989.3 l -35.3,-512.1 c -16.6,-240.7 -216.6,-427.5 -457.9,-427.5"
         style="fill:#b2dafe;fill-opacity:1;fill-rule:nonzero;stroke:none"
         id="path92" /><path
         d="m 4432.01,5128.7 c 0,0 -1662.68,1358.1 -906.57,1756.6 756.12,398.5 1113.14,-1744.6 1113.14,-1744.6 l -165.25,-9.6 -41.32,-2.4"
         style="fill:#00c956;fill-opacity:1;fill-rule:nonzero;stroke:none"
         id="path94" /><path
         d="m 3719.85,6466.2 c 91.4,-139.3 181.19,-279.6 268.81,-421.2 l 260.21,-426.4 252.71,-430.9 c 83.3,-144.2 164.49,-289.7 243.98,-436.1 -91.46,139.3 -181.22,279.6 -268.88,421.2 l -260.13,426.4 -252.66,431 c -83.32,144.1 -164.5,289.6 -244.04,436"
         style="fill:#00b248;fill-opacity:1;fill-rule:nonzero;stroke:none"
         id="path96" /><path
         d="m 5145.57,5080 c 0,0 1687.1,1327.7 938.36,1739.9 C 5335.18,7232.1 4939.26,5095.8 4939.26,5095.8 l 165.05,-12.6 41.26,-3.2"
         style="fill:#00c956;fill-opacity:1;fill-rule:nonzero;stroke:none"
         id="path98" /><path
         d="m 5881.93,6404.4 c -82.19,-144.9 -166,-288.9 -251.93,-431.5 L 5369.56,5546.6 5101.7,5125 c -90.21,-140 -182.5,-278.7 -276.48,-416.3 82.14,145 165.96,288.9 251.87,431.6 l 260.51,426.2 267.9,421.6 c 90.19,140 182.51,278.7 276.43,416.3"
         style="fill:#00b248;fill-opacity:1;fill-rule:nonzero;stroke:none"
         id="path100" /><path
         d="m 4936.25,5192.5 c 0,0 1046,2731.5 -117.75,2690.6 -1163.75,-40.8 -134.61,-2816.2 -134.61,-2816.2 l 201.89,100.5 50.47,25.1"
         style="fill:#00d656;fill-opacity:1;fill-rule:nonzero;stroke:none"
         id="path102" /><path
         d="m 4872.45,7256.1 c 2.61,-227 3.33,-453.9 1.55,-680.7 l -8.48,-680.5 -17.21,-680.4 c -6.83,-226.8 -16.11,-453.5 -27.38,-680.1 -2.68,226.9 -3.38,453.8 -1.61,680.7 l 8.54,680.5 17.28,680.3 c 6.8,226.8 16.11,453.5 27.31,680.2"
         style="fill:#00b248;fill-opacity:1;fill-rule:nonzero;stroke:none"
         id="path104" /><path
         d="m 4828.25,3744.9 v 0 c -403.78,0 -739.23,311.4 -769.22,714.1 l -64.4,864.8 h 1662.39 l -59.24,-860.5 c -27.85,-404.5 -364.08,-718.4 -769.53,-718.4"
         style="fill:#b2dafe;fill-opacity:1;fill-rule:nonzero;stroke:none"
         id="path106" /><path
         d="m 13605,10371.8 v -435.6 l -8934.16,12.5 12.64,423.1 H 13605"
         style="fill:#b2dafe;fill-opacity:1;fill-rule:nonzero;stroke:none"
         id="path108" /></g></g></svg>
